<svg xmlns="http://www.w3.org/2000/svg" xmlns:xlink="http://www.w3.org/1999/xlink" width="88.447" height="88.447" viewBox="0 0 88.447 88.447">
  <defs>
    <filter id="Path_26746" x="0" y="0" width="88.447" height="88.447" filterUnits="userSpaceOnUse">
      <feOffset dy="3" input="SourceAlpha"/>
      <feGaussianBlur stdDeviation="3" result="blur"/>
      <feFlood flood-color="#6e99fc" flood-opacity="0.188"/>
      <feComposite operator="in" in2="blur"/>
      <feComposite in="SourceGraphic"/>
    </filter>
  </defs>
  <g id="Active_Problems" data-name="Active Problems" transform="translate(202 -11857.355)">
    <g transform="matrix(1, 0, 0, 1, -202, 11857.36)" filter="url(#Path_26746)">
      <g id="Path_26746-2" data-name="Path 26746" transform="translate(9 6)" fill="#fff">
        <path d="M 35.22353363037109 69.44706726074219 C 30.60294342041016 69.44706726074219 26.12110328674316 68.54233551025391 21.90249443054199 66.75802612304688 C 17.82730293273926 65.03435516357422 14.16719341278076 62.56657409667969 11.02384376525879 59.42322540283203 C 7.880493640899658 56.27987289428711 5.412713527679443 52.6197624206543 3.689043521881104 48.54457473754883 C 1.904733657836914 44.32596206665039 1.000003576278687 39.84412384033203 1.000003576278687 35.22353363037109 C 1.000003576278687 30.60294342041016 1.904733657836914 26.12110328674316 3.689043521881104 21.90249443054199 C 5.412713527679443 17.82730293273926 7.880493640899658 14.16719341278076 11.02384376525879 11.02384376525879 C 14.16719341278076 7.880493640899658 17.82730293273926 5.412713527679443 21.90249443054199 3.689043521881104 C 26.12110328674316 1.904733657836914 30.60294342041016 1.000003576278687 35.22353363037109 1.000003576278687 C 39.84412384033203 1.000003576278687 44.32596206665039 1.904733657836914 48.54457473754883 3.689043521881104 C 52.6197624206543 5.412713527679443 56.27987289428711 7.880493640899658 59.42322540283203 11.02384376525879 C 62.56657409667969 14.16719341278076 65.03435516357422 17.82730293273926 66.75802612304688 21.90249443054199 C 68.54233551025391 26.12110328674316 69.44706726074219 30.60294342041016 69.44706726074219 35.22353363037109 C 69.44706726074219 39.84412384033203 68.54233551025391 44.32596206665039 66.75802612304688 48.54457473754883 C 65.03435516357422 52.6197624206543 62.56657409667969 56.27987289428711 59.42322540283203 59.42322540283203 C 56.27987289428711 62.56657409667969 52.6197624206543 65.03435516357422 48.54457473754883 66.75802612304688 C 44.32596206665039 68.54233551025391 39.84412384033203 69.44706726074219 35.22353363037109 69.44706726074219 Z" stroke="none"/>
        <path d="M 35.22353363037109 2 C 30.73749923706055 2 26.38672256469727 2.878143310546875 22.29204559326172 4.61004638671875 C 18.33605575561523 6.283287048339844 14.78278732299805 8.679111480712891 11.7309455871582 11.7309455871582 C 8.679111480712891 14.78278732299805 6.283287048339844 18.33605575561523 4.61004638671875 22.29204559326172 C 2.878143310546875 26.38672256469727 2 30.73749923706055 2 35.22353363037109 C 2 39.70956420898438 2.878143310546875 44.06034469604492 4.61004638671875 48.15502166748047 C 6.283287048339844 52.11101150512695 8.679111480712891 55.66427612304688 11.7309455871582 58.71612167358398 C 14.78278732299805 61.7679557800293 18.33605575561523 64.16378021240234 22.29204559326172 65.83702087402344 C 26.38672256469727 67.56892395019531 30.73749923706055 68.44706726074219 35.22353363037109 68.44706726074219 C 39.70956420898438 68.44706726074219 44.06034469604492 67.56892395019531 48.15502166748047 65.83702087402344 C 52.11101150512695 64.16378021240234 55.66427612304688 61.7679557800293 58.71612167358398 58.71612167358398 C 61.7679557800293 55.66427612304688 64.16378021240234 52.11101150512695 65.83702087402344 48.15502166748047 C 67.56892395019531 44.06034469604492 68.44706726074219 39.70956420898438 68.44706726074219 35.22353363037109 C 68.44706726074219 30.73749923706055 67.56892395019531 26.38672256469727 65.83702087402344 22.29204559326172 C 64.16378021240234 18.33605575561523 61.7679557800293 14.78278732299805 58.71612167358398 11.7309455871582 C 55.66427612304688 8.679111480712891 52.11101150512695 6.283287048339844 48.15502166748047 4.61004638671875 C 44.06034469604492 2.878143310546875 39.70956420898438 2 35.22353363037109 2 M 35.22353363037109 0 C 54.67695617675781 0 70.44706726074219 15.77011108398438 70.44706726074219 35.22353363037109 C 70.44706726074219 54.67695617675781 54.67695617675781 70.44706726074219 35.22353363037109 70.44706726074219 C 15.77011108398438 70.44706726074219 0 54.67695617675781 0 35.22353363037109 C 0 15.77011108398438 15.77011108398438 0 35.22353363037109 0 Z" stroke="none" fill="#fff"/>
      </g>
    </g>
    <path id="Active_Problems-2" data-name="Active Problems" d="M23.836,4.54H18.161a4.54,4.54,0,1,0-9.081,0H3.405A3.406,3.406,0,0,0,0,7.945V32.917a3.406,3.406,0,0,0,3.405,3.405H23.836a3.406,3.406,0,0,0,3.405-3.405V7.945A3.406,3.406,0,0,0,23.836,4.54ZM6.81,30.079a1.7,1.7,0,1,1,1.7-1.7A1.7,1.7,0,0,1,6.81,30.079Zm0-6.81a1.7,1.7,0,1,1,1.7-1.7A1.7,1.7,0,0,1,6.81,23.269Zm0-6.81a1.7,1.7,0,1,1,1.7-1.7A1.7,1.7,0,0,1,6.81,16.459Zm6.81-13.621a1.7,1.7,0,1,1-1.7,1.7A1.7,1.7,0,0,1,13.621,2.838ZM22.7,28.944a.569.569,0,0,1-.568.568H11.918a.569.569,0,0,1-.568-.568V27.809a.569.569,0,0,1,.568-.568H22.134a.569.569,0,0,1,.568.568Zm0-6.81a.569.569,0,0,1-.568.568H11.918a.569.569,0,0,1-.568-.568V21a.569.569,0,0,1,.568-.568H22.134A.569.569,0,0,1,22.7,21Zm0-6.81a.569.569,0,0,1-.568.568H11.918a.569.569,0,0,1-.568-.568V14.188a.569.569,0,0,1,.568-.568H22.134a.569.569,0,0,1,.568.568Z" transform="translate(-172 11880.355)" fill="#6ab654"/>
  </g>
</svg>
