<svg xmlns="http://www.w3.org/2000/svg" width="17.012" height="17.016" viewBox="0 0 17.012 17.016">
  <g id="alarm-clock" transform="translate(0 0.004)">
    <path id="Path_16402" data-name="Path 16402" d="M9.506,1.454V.709a.709.709,0,1,0-1.418,0v.745A7.783,7.783,0,0,0,2.9,14.3a2.144,2.144,0,0,0-1.192,2,.709.709,0,0,0,1.418,0,.851.851,0,0,1,.787-.871.661.661,0,0,0,.142-.044,7.743,7.743,0,0,0,9.491,0,.732.732,0,0,0,.129.045.851.851,0,0,1,.792.87.709.709,0,0,0,1.418,0,2.144,2.144,0,0,0-1.192-2A7.783,7.783,0,0,0,9.506,1.454ZM2.418,9.215a6.38,6.38,0,1,1,6.38,6.38,6.38,6.38,0,0,1-6.38-6.38Z" transform="translate(-0.291 -0.001)" fill="#1e455d"/>
    <path id="Path_16403" data-name="Path 16403" d="M18.924,0a.709.709,0,1,0,0,1.418A1.836,1.836,0,0,1,20.9,3.189a.709.709,0,1,0,1.418,0A3.261,3.261,0,0,0,18.924,0Z" transform="translate(-5.303 0)" fill="#1e455d"/>
    <path id="Path_16404" data-name="Path 16404" d="M1.418,3.189A1.836,1.836,0,0,1,3.392,1.417.709.709,0,1,0,3.392,0,3.261,3.261,0,0,0,0,3.189a.709.709,0,1,0,1.418,0Z" transform="translate(0 0)" fill="#1e455d"/>
    <path id="Path_16405" data-name="Path 16405" d="M12.418,9.96V6.709a.709.709,0,1,0-1.418,0v3.544a.709.709,0,0,0,.208.5l2.127,2.127a.709.709,0,1,0,1-1Z" transform="translate(-3.203 -1.748)" fill="#1e455d"/>
  </g>
</svg>
