<svg xmlns="http://www.w3.org/2000/svg" width="37.463" height="28.591" viewBox="0 0 37.463 28.591">
  <g id="Group_18550" data-name="Group 18550" transform="translate(-680.218 410.453) rotate(30)">
    <path id="Path_16102" data-name="Path 16102" d="M223.012,48.239a3.78,3.78,0,0,0,.834-4.907,3.849,3.849,0,0,0-4.71-1.57l-2.748-4.612a2.244,2.244,0,0,0-3.091-.785,2.1,2.1,0,0,0-1.031,1.374,2.342,2.342,0,0,0,.245,1.717l-.491,1.03c-1.619,3.288-2.7,5.349-4.563,7.409l4.563,7.9c2.7-.736,4.907-.687,8.44-.638h1.374a2.262,2.262,0,0,0,1.963,1.129,2.612,2.612,0,0,0,1.178-.294,2.1,2.1,0,0,0,1.03-1.374,2.341,2.341,0,0,0-.245-1.717Z" transform="translate(194.609 -742.128)" fill="#1e445c"/>
    <path id="Path_16103" data-name="Path 16103" d="M89.117,259.9l.442-.245-.147-.294-4.171-7.213-.1-.147-4.318,2.6a1.959,1.959,0,0,0-.883,1.178,2.632,2.632,0,0,0,.049,1.08l-.883.54a1.429,1.429,0,0,0-.491,1.963l1.521,2.552a1.534,1.534,0,0,0,1.227.638,1.385,1.385,0,0,0,.736-.2l.883-.54a1.825,1.825,0,0,0,1.374.638,1.612,1.612,0,0,0,.834-.2l3.14,5.3a2.077,2.077,0,0,0,1.423,1.03,2.4,2.4,0,0,0,.589.049,2.612,2.612,0,0,0,1.178-.294,2.189,2.189,0,0,0,1.03-1.423,2.308,2.308,0,0,0-.245-1.717Z" transform="translate(316.188 -945.596)" fill="#1e445c"/>
    <path id="Path_16104" data-name="Path 16104" d="M476.27,25.163h.1a.478.478,0,0,0,.491-.393l1.03-3.974a.482.482,0,1,0-.932-.246l-1.03,3.974a.465.465,0,0,0,.344.638Z" transform="translate(-58.306 -727.198)" fill="#1e445c"/>
    <path id="Path_16105" data-name="Path 16105" d="M505.816,110.389a.515.515,0,0,0,.442.245.443.443,0,0,0,.245-.049l3.14-1.865a.483.483,0,0,0,.147-.687.543.543,0,0,0-.687-.2l-3.14,1.865A.528.528,0,0,0,505.816,110.389Z" transform="translate(-86.429 -809.725)" fill="#1e445c"/>
    <path id="Path_16106" data-name="Path 16106" d="M540.229,191.739l-3.974-.981a.482.482,0,1,0-.246.932l3.974.981h.1a.478.478,0,0,0,.491-.393A.394.394,0,0,0,540.229,191.739Z" transform="translate(-114.611 -887.886)" fill="#1e445c"/>
  </g>
</svg>
