<svg id="Group_11598" data-name="Group 11598" xmlns="http://www.w3.org/2000/svg" width="21.675" height="22.118" viewBox="0 0 21.675 22.118">
  <path id="Path_8006" data-name="Path 8006" d="M26.45,7.855A1.351,1.351,0,0,0,27.8,6.5V3.85a1.35,1.35,0,1,0-2.7,0V6.5A1.351,1.351,0,0,0,26.45,7.855Z" transform="translate(-20.071 -2.5)" fill="#0f425e"/>
  <path id="Path_8007" data-name="Path 8007" d="M64.65,7.855A1.351,1.351,0,0,0,66,6.5V3.85a1.35,1.35,0,1,0-2.7,0V6.5A1.351,1.351,0,0,0,64.65,7.855Z" transform="translate(-49.378 -2.5)" fill="#0f425e"/>
  <path id="Path_8008" data-name="Path 8008" d="M22.2,15.9H21.1v.885a2.328,2.328,0,1,1-4.656,0V15.9H12.207v.885a2.328,2.328,0,1,1-4.656,0V15.9H6.457A2.961,2.961,0,0,0,3.5,18.857V31.941A2.961,2.961,0,0,0,6.457,34.9H22.219a2.961,2.961,0,0,0,2.957-2.957V18.857A2.981,2.981,0,0,0,22.2,15.9Zm1,16.041a.984.984,0,0,1-.978.978H6.457a.984.984,0,0,1-.978-.978V21.977H23.2Z" transform="translate(-3.5 -12.78)" fill="#0f425e"/>
  <path id="Path_8009" data-name="Path 8009" d="M21,52.938H23.72a.408.408,0,0,0,.4-.4V50.8a.408.408,0,0,0-.4-.4H21a.408.408,0,0,0-.4.4v1.746A.408.408,0,0,0,21,52.938Z" transform="translate(-16.619 -39.248)" fill="#0f425e"/>
  <path id="Path_8010" data-name="Path 8010" d="M42.9,52.938H45.62a.408.408,0,0,0,.4-.4V50.8a.408.408,0,0,0-.4-.4H42.9a.408.408,0,0,0-.4.4v1.746A.392.392,0,0,0,42.9,52.938Z" transform="translate(-33.42 -39.248)" fill="#0f425e"/>
  <path id="Path_8011" data-name="Path 8011" d="M64.7,52.938H67.42a.408.408,0,0,0,.4-.4V50.8a.408.408,0,0,0-.4-.4H64.7a.408.408,0,0,0-.4.4v1.746A.408.408,0,0,0,64.7,52.938Z" transform="translate(-50.145 -39.248)" fill="#0f425e"/>
  <path id="Path_8012" data-name="Path 8012" d="M21,72.238H23.72a.408.408,0,0,0,.4-.4V70.1a.408.408,0,0,0-.4-.4H21a.408.408,0,0,0-.4.4v1.746A.408.408,0,0,0,21,72.238Z" transform="translate(-16.619 -54.054)" fill="#0f425e"/>
  <path id="Path_8013" data-name="Path 8013" d="M42.9,72.238H45.62a.408.408,0,0,0,.4-.4V70.1a.408.408,0,0,0-.4-.4H42.9a.408.408,0,0,0-.4.4v1.746A.392.392,0,0,0,42.9,72.238Z" transform="translate(-33.42 -54.054)" fill="#0f425e"/>
  <path id="Path_8014" data-name="Path 8014" d="M64.7,72.238H67.42a.408.408,0,0,0,.4-.4V70.1a.408.408,0,0,0-.4-.4H64.7a.408.408,0,0,0-.4.4v1.746A.408.408,0,0,0,64.7,72.238Z" transform="translate(-50.145 -54.054)" fill="#0f425e"/>
</svg>
