<svg xmlns="http://www.w3.org/2000/svg" xmlns:xlink="http://www.w3.org/1999/xlink" width="88.447" height="89.641" viewBox="0 0 88.447 89.641">
  <defs>
    <filter id="Path_15455" x="0" y="0" width="88.447" height="89.641" filterUnits="userSpaceOnUse">
      <feOffset dy="3" input="SourceAlpha"/>
      <feGaussianBlur stdDeviation="3" result="blur"/>
      <feFlood flood-color="#6e99fc" flood-opacity="0.188"/>
      <feComposite operator="in" in2="blur"/>
      <feComposite in="SourceGraphic"/>
    </filter>
  </defs>
  <g id="Group_18589" data-name="Group 18589" transform="translate(-1158.301 -466.175)">
    <g transform="matrix(1, 0, 0, 1, 1158.3, 466.17)" filter="url(#Path_15455)">
      <g id="Path_15455-2" data-name="Path 15455" transform="translate(9 6)" fill="#fff">
        <path d="M 35.22353363037109 70.64109802246094 C 30.60294342041016 70.64109802246094 26.12110328674316 69.73636627197266 21.90249443054199 67.95204162597656 C 17.82730293273926 66.22838592529297 14.16719341278076 63.76060485839844 11.02384376525879 60.61725616455078 C 7.880493640899658 57.47389602661133 5.412713527679443 53.81378555297852 3.689043521881104 49.73859405517578 C 1.904733657836914 45.51998519897461 1.000003576278687 41.03814697265625 1.000003576278687 36.41755676269531 L 1.000003576278687 35.22353363037109 C 1.000003576278687 30.60294532775879 1.904733657836914 26.1211051940918 3.689043521881104 21.90249443054199 C 5.412713527679443 17.82730484008789 7.880493640899658 14.16719532012939 11.02384376525879 11.02384567260742 C 14.16719341278076 7.880495071411133 17.82730293273926 5.412714958190918 21.90249443054199 3.689045190811157 C 26.12110328674316 1.904735207557678 30.60294342041016 1.00000524520874 35.22353363037109 1.00000524520874 C 39.84412384033203 1.00000524520874 44.32596206665039 1.904735207557678 48.54457473754883 3.689045190811157 C 52.6197624206543 5.412714958190918 56.27987289428711 7.880495071411133 59.42322540283203 11.02384567260742 C 62.56657409667969 14.16719532012939 65.03435516357422 17.82730484008789 66.75802612304688 21.90249443054199 C 68.54233551025391 26.1211051940918 69.44706726074219 30.60294532775879 69.44706726074219 35.22353363037109 L 69.44706726074219 36.41755676269531 C 69.44706726074219 41.03814697265625 68.54233551025391 45.51998519897461 66.75802612304688 49.73859405517578 C 65.03435516357422 53.81378555297852 62.56657409667969 57.47389602661133 59.42322540283203 60.61725616455078 C 56.27987289428711 63.76060485839844 52.6197624206543 66.22838592529297 48.54457473754883 67.95204162597656 C 44.32596206665039 69.73636627197266 39.84412384033203 70.64109802246094 35.22353363037109 70.64109802246094 Z" stroke="none"/>
        <path d="M 35.22353363037109 2 C 30.73749923706055 2 26.38672256469727 2.878143310546875 22.29204559326172 4.61004638671875 C 18.33605575561523 6.283287048339844 14.78278732299805 8.679111480712891 11.7309455871582 11.7309455871582 C 8.679111480712891 14.78279113769531 6.283287048339844 18.33605575561523 4.61004638671875 22.29204559326172 C 2.878143310546875 26.38672256469727 2 30.73749923706055 2 35.22353363037109 L 2 36.41755676269531 C 2 40.90357971191406 2.878143310546875 45.25436782836914 4.61004638671875 49.34903335571289 C 6.283287048339844 53.30503463745117 8.679111480712891 56.85829925537109 11.7309455871582 59.91013336181641 C 14.78278732299805 62.96197891235352 18.33605575561523 65.3577880859375 22.29204559326172 67.03104400634766 C 26.38672256469727 68.76294708251953 30.73749923706055 69.64109039306641 35.22353363037109 69.64109039306641 C 39.70956420898438 69.64109039306641 44.06034469604492 68.76294708251953 48.15502166748047 67.03104400634766 C 52.11101150512695 65.3577880859375 55.66427612304688 62.96197891235352 58.71612167358398 59.91013336181641 C 61.7679557800293 56.85829925537109 64.16378021240234 53.30503463745117 65.83702087402344 49.34903335571289 C 67.56892395019531 45.25436782836914 68.44706726074219 40.90357971191406 68.44706726074219 36.41755676269531 L 68.44706726074219 35.22353363037109 C 68.44706726074219 30.73749923706055 67.56892395019531 26.38672256469727 65.83702087402344 22.29204559326172 C 64.16378021240234 18.33605575561523 61.7679557800293 14.78279113769531 58.71612167358398 11.7309455871582 C 55.66427612304688 8.679111480712891 52.11101150512695 6.283287048339844 48.15502166748047 4.61004638671875 C 44.06034469604492 2.878143310546875 39.70956420898438 2 35.22353363037109 2 M 35.22353363037109 0 C 54.67695617675781 0 70.44706726074219 15.77011108398438 70.44706726074219 35.22353363037109 L 70.44706726074219 36.41755676269531 C 70.44706726074219 55.87096786499023 54.67695617675781 71.64109039306641 35.22353363037109 71.64109039306641 C 15.77011108398438 71.64109039306641 0 55.87096786499023 0 36.41755676269531 L 0 35.22353363037109 C 0 15.77011108398438 15.77011108398438 0 35.22353363037109 0 Z" stroke="none" fill="#fff"/>
      </g>
    </g>
    <path id="Path_10122" data-name="Path 10122" d="M105.016,27.654a8.2,8.2,0,0,1-.249,1.753,9.9,9.9,0,0,1-.522,1.7q-.522,1.244-3.034,2.636a9.221,9.221,0,0,1-5.932,1.181,10.771,10.771,0,0,1-1.43-.311q-.8-.224-1.181-.361t-1.38-.51q-.995-.373-1.219-.448a22.526,22.526,0,0,1-4.352-2.064,36.894,36.894,0,0,1-6.578-5.36,36.924,36.924,0,0,1-5.36-6.578,22.536,22.536,0,0,1-2.064-4.352q-.075-.224-.448-1.219t-.51-1.38q-.137-.385-.361-1.181a10.758,10.758,0,0,1-.311-1.43A9.617,9.617,0,0,1,70,8.429,9.642,9.642,0,0,1,71.267,3.8Q72.66,1.291,73.9.769a9.889,9.889,0,0,1,1.7-.522A8.205,8.205,0,0,1,77.36,0a1.4,1.4,0,0,1,.522.075q.448.149,1.318,1.89.274.473.746,1.343t.871,1.579q.4.709.771,1.33.075.1.435.622a6.924,6.924,0,0,1,.535.883,1.623,1.623,0,0,1,.174.709,2.063,2.063,0,0,1-.709,1.244,12.138,12.138,0,0,1-1.542,1.368,15,15,0,0,0-1.542,1.318A1.894,1.894,0,0,0,78.23,13.5a1.682,1.682,0,0,0,.124.56,5.446,5.446,0,0,0,.211.51q.087.174.348.6t.286.473a26.11,26.11,0,0,0,4.327,5.845,26.1,26.1,0,0,0,5.845,4.327q.05.025.473.286t.6.348a5.384,5.384,0,0,0,.51.211,1.676,1.676,0,0,0,.56.124,1.894,1.894,0,0,0,1.144-.709,14.948,14.948,0,0,0,1.318-1.542,12.136,12.136,0,0,1,1.368-1.542,2.064,2.064,0,0,1,1.244-.709,1.623,1.623,0,0,1,.709.174,6.96,6.96,0,0,1,.883.535q.522.361.622.435.622.373,1.33.771t1.579.871q.871.473,1.343.746,1.741.871,1.89,1.318a1.391,1.391,0,0,1,.074.522Z" transform="translate(1114.976 490.489)" fill="#6ab654"/>
  </g>
</svg>
