<svg width="31" height="30" viewBox="0 0 31 30" fill="none" xmlns="http://www.w3.org/2000/svg">
<path d="M30.13 23.498C30.1138 23.9934 30.044 24.4856 29.922 24.966C29.8195 25.4539 29.6732 25.9315 29.485 26.393C28.8853 27.3729 27.9979 28.1439 26.944 28.601C25.4464 29.4802 23.6962 29.829 21.976 29.591C21.5705 29.5317 21.1696 29.4449 20.776 29.331C20.3313 29.2064 20.0016 29.1064 19.787 29.031C19.5723 28.9557 19.187 28.8134 18.631 28.604C18.0756 28.396 17.7353 28.271 17.61 28.229C16.3367 27.7846 15.1147 27.205 13.965 26.5C11.9621 25.2205 10.1136 23.7143 8.45598 22.011C6.75292 20.3533 5.24665 18.5048 3.96698 16.502C3.26208 15.3523 2.68243 14.1303 2.23798 12.857C2.19598 12.7324 2.07098 12.392 1.86298 11.836C1.65498 11.28 1.51265 10.8947 1.43598 10.68C1.35998 10.4647 1.25998 10.135 1.13598 9.69103C1.02213 9.29741 0.935262 8.89648 0.875977 8.49103C0.827161 8.12843 0.803107 7.76291 0.803978 7.39703C0.826054 6.03687 1.19135 4.70431 1.86597 3.52303C2.32286 2.46925 3.09353 1.58195 4.07298 0.982034C4.53581 0.793489 5.01477 0.647226 5.50397 0.545034C5.98311 0.423583 6.47396 0.354182 6.96798 0.338034C7.11586 0.33057 7.26382 0.351271 7.40398 0.399034C7.65398 0.482367 8.02064 1.01003 8.50397 1.98203C8.65664 2.2487 8.86497 2.6237 9.12897 3.10703C9.39297 3.59037 9.63598 4.03137 9.85798 4.43003C10.08 4.82603 10.2953 5.19737 10.504 5.54403C10.546 5.59937 10.6676 5.77303 10.869 6.06503C11.0365 6.3002 11.1863 6.54756 11.317 6.80503C11.4102 6.98937 11.4601 7.19251 11.463 7.39903C11.3961 7.8045 11.1869 8.17287 10.873 8.43803C10.4759 8.85595 10.044 9.23933 9.58198 9.58403C9.12736 9.9212 8.69604 10.2887 8.29098 10.684C7.98235 10.9199 7.77099 11.2607 7.69698 11.642C7.70327 11.8029 7.73709 11.9616 7.79697 12.111C7.84872 12.2563 7.90779 12.3988 7.97398 12.538C8.02264 12.6354 8.11998 12.802 8.26598 13.038C8.41198 13.274 8.49198 13.4074 8.50598 13.438C9.47972 15.2308 10.6995 16.8784 12.13 18.333C13.5845 19.7635 15.2322 20.9834 17.025 21.957C17.053 21.971 17.1863 22.051 17.425 22.197C17.6636 22.343 17.8303 22.4404 17.925 22.489C18.0642 22.5553 18.2067 22.6144 18.352 22.666C18.5014 22.7261 18.6601 22.7599 18.821 22.766C19.2022 22.6919 19.5431 22.4806 19.779 22.172C20.1744 21.7671 20.5419 21.3357 20.879 20.881C21.2237 20.419 21.6071 19.9871 22.025 19.59C22.2903 19.274 22.6599 19.0633 23.067 18.996C23.2735 18.9989 23.4766 19.0489 23.661 19.142C23.9184 19.2728 24.1657 19.4226 24.401 19.59C24.6923 19.79 24.866 19.9117 24.922 19.955C25.2693 20.163 25.6406 20.3784 26.036 20.601C26.4313 20.8237 26.8723 21.0667 27.359 21.33C27.845 21.5967 28.22 21.805 28.484 21.955C29.456 22.441 29.9836 22.8077 30.067 23.055C30.1153 23.1954 30.1363 23.3437 30.129 23.492L30.13 23.498Z" fill="#6AB654"/>
</svg>
