<svg xmlns="http://www.w3.org/2000/svg" width="59.883" height="59.883" viewBox="0 0 59.883 59.883">
  <path id="Path_11052" data-name="Path 11052" d="M152.641,112.083a29.441,29.441,0,1,1,29.441-29.441A29.433,29.433,0,0,1,152.641,112.083ZM165.964,73a2.221,2.221,0,0,0-3.165,0L148.741,87.426l-6.257-6.477a2.221,2.221,0,0,0-3.165,0,2.311,2.311,0,0,0,0,3.239l7.876,8.1a2.221,2.221,0,0,0,3.165,0l15.678-16.046A2.384,2.384,0,0,0,165.964,73Z" transform="translate(-122.7 -52.7)" fill="#55b047" stroke="rgba(0,0,0,0)" stroke-miterlimit="10" stroke-width="1" fill-rule="evenodd"/>
</svg>
