<svg xmlns="http://www.w3.org/2000/svg" width="59" height="59" viewBox="0 0 59 59">
  <g id="Group_20656" data-name="Group 20656" transform="translate(-38 -681)">
    <g id="Path_15457" data-name="Path 15457" transform="translate(38 681)" fill="#fff">
      <path d="M 29.5 58 C 25.65208053588867 58 21.9197998046875 57.24660110473633 18.40682029724121 55.76073837280273 C 15.01317977905273 54.32535171508789 11.96516990661621 52.27025985717773 9.34745979309082 49.65253829956055 C 6.729740142822266 47.03482818603516 4.674650192260742 43.98682022094727 3.239259958267212 40.59318161010742 C 1.753399968147278 37.0802001953125 1 33.34791946411133 1 29.5 C 1 25.65208053588867 1.753399968147278 21.9197998046875 3.239259958267212 18.40682029724121 C 4.674650192260742 15.01317977905273 6.729740142822266 11.96516990661621 9.34745979309082 9.34745979309082 C 11.96516990661621 6.729740142822266 15.01317977905273 4.674650192260742 18.40682029724121 3.239259958267212 C 21.9197998046875 1.753399968147278 25.65208053588867 1 29.5 1 C 33.34791946411133 1 37.0802001953125 1.753399968147278 40.59318161010742 3.239259958267212 C 43.98682022094727 4.674650192260742 47.03482818603516 6.729740142822266 49.65253829956055 9.34745979309082 C 52.27025985717773 11.96516990661621 54.32535171508789 15.01317977905273 55.76073837280273 18.40682029724121 C 57.24660110473633 21.9197998046875 58 25.65208053588867 58 29.5 C 58 33.34791946411133 57.24660110473633 37.0802001953125 55.76073837280273 40.59318161010742 C 54.32535171508789 43.98682022094727 52.27025985717773 47.03482818603516 49.65253829956055 49.65253829956055 C 47.03482818603516 52.27025985717773 43.98682022094727 54.32535171508789 40.59318161010742 55.76073837280273 C 37.0802001953125 57.24660110473633 33.34791946411133 58 29.5 58 Z" stroke="none"/>
      <path d="M 29.5 2 C 25.78664016723633 2 22.18542098999023 2.726821899414062 18.79637145996094 4.160270690917969 C 15.52193069458008 5.545238494873047 12.58076095581055 7.528369903564453 10.05456161499023 10.05456161499023 C 7.528369903564453 12.58076095581055 5.545238494873047 15.52193069458008 4.160270690917969 18.79637145996094 C 2.726821899414062 22.18542098999023 2 25.78664016723633 2 29.5 C 2 33.21335983276367 2.726821899414062 36.81458282470703 4.160270690917969 40.20362854003906 C 5.545238494873047 43.47806930541992 7.528369903564453 46.41923904418945 10.05456161499023 48.94544219970703 C 12.58076095581055 51.47163009643555 15.52193069458008 53.45476150512695 18.79637145996094 54.83972930908203 C 22.18542098999023 56.27317810058594 25.78664016723633 57 29.5 57 C 33.21335983276367 57 36.81458282470703 56.27317810058594 40.20362854003906 54.83972930908203 C 43.47806930541992 53.45476150512695 46.41923904418945 51.47163009643555 48.94544219970703 48.94544219970703 C 51.47163009643555 46.41923904418945 53.45476150512695 43.47806930541992 54.83972930908203 40.20362854003906 C 56.27317810058594 36.81458282470703 57 33.21335983276367 57 29.5 C 57 25.78664016723633 56.27317810058594 22.18542098999023 54.83972930908203 18.79637145996094 C 53.45476150512695 15.52193069458008 51.47163009643555 12.58076095581055 48.94544219970703 10.05456161499023 C 46.41923904418945 7.528369903564453 43.47806930541992 5.545238494873047 40.20362854003906 4.160270690917969 C 36.81458282470703 2.726821899414062 33.21335983276367 2 29.5 2 M 29.5 0 C 45.79240036010742 0 59 13.20759963989258 59 29.5 C 59 45.79240036010742 45.79240036010742 59 29.5 59 C 13.20759963989258 59 0 45.79240036010742 0 29.5 C 0 13.20759963989258 13.20759963989258 0 29.5 0 Z" stroke="none" fill="#fff"/>
    </g>
    <g id="Group_20638" data-name="Group 20638" transform="translate(-26.383 -72.837)">
      <path id="Path_16176" data-name="Path 16176" d="M252,57.664a1.67,1.67,0,0,0,.2.675,1.709,1.709,0,0,0,1.152.874,9.382,9.382,0,0,0,.477,1.51,6.5,6.5,0,0,0,2.026,2.781,4.117,4.117,0,0,0,2.821,1.033,5.828,5.828,0,0,0,2.582-.636,5.456,5.456,0,0,0,1.351-1.073,7.334,7.334,0,0,0,1.748-3.576,1.529,1.529,0,0,0,.675-.238,1.917,1.917,0,0,0,.835-1.391,2.724,2.724,0,0,0-.159-.835,1.431,1.431,0,0,0-.4-.6,1.384,1.384,0,0,0-.6-.278h.04l.318-2.106c.238-3.258-2.026-4.092-2.026-4.092a2.5,2.5,0,0,0-.993-1.748c-1.828-1.073-5.642.358-5.642.358a4.831,4.831,0,0,0-3.616,2.742,7.634,7.634,0,0,0,.08,4.967,1.3,1.3,0,0,0-.318.238A2.061,2.061,0,0,0,252,57.664Z" transform="translate(-165.287 720.267)" fill="#2b4e66"/>
      <path id="Path_16178" data-name="Path 16178" d="M209.072,298.473c-.04,0-.04-.04-.08-.04-.119-.04-.238-.119-.358-.159-.477-.2-.993-.358-1.47-.517a8.656,8.656,0,0,1,1.629,3.576,1.192,1.192,0,0,1,.914,1.152,1.192,1.192,0,1,1-2.384,0,1.193,1.193,0,0,1,.914-1.152,7.52,7.52,0,0,0-1.828-3.775,9.495,9.495,0,0,0-1.033-.2,6.017,6.017,0,0,1-.835.6,5.832,5.832,0,0,1-2.582.636,4.117,4.117,0,0,1-2.821-1.033l-.119-.119q-.656.119-1.192.238a7.517,7.517,0,0,0-1.669,3.5c1.351.318,2.3,3.337,2.3,3.337l-.6.675a.359.359,0,0,1,.04.2.556.556,0,1,1-1.112,0,.543.543,0,0,1,.556-.556h.119l.437-.477c-2.106-6-3.854.04-3.854.119l.318.358h.119a.568.568,0,0,1,.556.556.556.556,0,1,1-1.112,0,.3.3,0,0,1,.04-.2l-.6-.675c.795-2.185,1.55-3.1,2.225-3.3a8.374,8.374,0,0,1,1.51-3.337c-.437.119-.835.238-1.113.318v-.04a4.354,4.354,0,0,0-.675.278,7.9,7.9,0,0,0-4.371,4.808v4.291s9.337,6.079,22.608,0V303.32s-.477-3.02-4.49-4.847Zm-1.55,6.794h-.993v.993h-.477v-.993h-.993v-.477h.993V303.8h.477v.993h.993Z" transform="translate(-108.57 488.199)" fill="#2b4e66"/>
    </g>
  </g>
</svg>
