<svg xmlns="http://www.w3.org/2000/svg" width="54" height="54" viewBox="0 0 54 54">
  <g id="Group_18586" data-name="Group 18586" transform="translate(-1498 -244)">
    <path id="Rectangle_1758" data-name="Rectangle 1758" d="M26.426,0H27A27,27,0,0,1,54,27v0A27,27,0,0,1,27,54h0A27,27,0,0,1,0,27v-.574A26.426,26.426,0,0,1,26.426,0Z" transform="translate(1498 244)" fill="#1f4660"/>
    <g id="Group_11512" data-name="Group 11512" transform="translate(1510.463 256.462)">
      <path id="Path_10131" data-name="Path 10131" d="M333.2,61.691a1.042,1.042,0,0,1,2.085,0v2.491a1.042,1.042,0,0,1-2.085,0Zm0,5.514a1.042,1.042,0,0,1,2.085,0V77.16a1.042,1.042,0,0,1-2.085,0Z" transform="translate(-320.586 -60.648)" fill="#fff"/>
      <path id="Path_10132" data-name="Path 10132" d="M278.6,247.841a1.052,1.052,0,0,1,1.491,1.484l-3.878,3.864a1.042,1.042,0,0,1-1.481,0l-3.885-3.864a1.054,1.054,0,0,1,1.5-1.484l3.127,3.127Z" transform="translate(-261.82 -235.933)" fill="#fff"/>
      <path id="Path_10133" data-name="Path 10133" d="M136.275,217.205a1.045,1.045,0,0,1,1.043,1.81l-5.3,3.04v3.635l11.55,6.647,11.55-6.647v-3.635l-5.275-3.04a1.045,1.045,0,1,1,1.042-1.81l5.723,3.3a1.042,1.042,0,0,1,.615.949v4.833a1.042,1.042,0,0,1-.528.914l-12.586,7.238a1.041,1.041,0,0,1-1.063,0l-12.537-7.213a1.077,1.077,0,0,1-.6-.938v-4.833a1.042,1.042,0,0,1,.528-.9Z" transform="translate(-129.916 -207.358)" fill="#fff"/>
    </g>
  </g>
</svg>
