<svg xmlns="http://www.w3.org/2000/svg" width="59" height="59" viewBox="0 0 59 59">
  <g id="Group_20659" data-name="Group 20659" transform="translate(-38 -1002)">
    <g id="Path_15457" data-name="Path 15457" transform="translate(38 1002)" fill="#fff">
      <path d="M 29.5 58 C 25.65208053588867 58 21.9197998046875 57.24660110473633 18.40682029724121 55.76073837280273 C 15.01317977905273 54.32535171508789 11.96516990661621 52.27025985717773 9.34745979309082 49.65253829956055 C 6.729740142822266 47.03482818603516 4.674650192260742 43.98682022094727 3.239259958267212 40.59318161010742 C 1.753399968147278 37.0802001953125 1 33.34791946411133 1 29.5 C 1 25.65208053588867 1.753399968147278 21.9197998046875 3.239259958267212 18.40682029724121 C 4.674650192260742 15.01317977905273 6.729740142822266 11.96516990661621 9.34745979309082 9.34745979309082 C 11.96516990661621 6.729740142822266 15.01317977905273 4.674650192260742 18.40682029724121 3.239259958267212 C 21.9197998046875 1.753399968147278 25.65208053588867 1 29.5 1 C 33.34791946411133 1 37.0802001953125 1.753399968147278 40.59318161010742 3.239259958267212 C 43.98682022094727 4.674650192260742 47.03482818603516 6.729740142822266 49.65253829956055 9.34745979309082 C 52.27025985717773 11.96516990661621 54.32535171508789 15.01317977905273 55.76073837280273 18.40682029724121 C 57.24660110473633 21.9197998046875 58 25.65208053588867 58 29.5 C 58 33.34791946411133 57.24660110473633 37.0802001953125 55.76073837280273 40.59318161010742 C 54.32535171508789 43.98682022094727 52.27025985717773 47.03482818603516 49.65253829956055 49.65253829956055 C 47.03482818603516 52.27025985717773 43.98682022094727 54.32535171508789 40.59318161010742 55.76073837280273 C 37.0802001953125 57.24660110473633 33.34791946411133 58 29.5 58 Z" stroke="none"/>
      <path d="M 29.5 2 C 25.78664016723633 2 22.18542098999023 2.726821899414062 18.79637145996094 4.160270690917969 C 15.52193069458008 5.545238494873047 12.58076095581055 7.528369903564453 10.05456161499023 10.05456161499023 C 7.528369903564453 12.58076095581055 5.545238494873047 15.52193069458008 4.160270690917969 18.79637145996094 C 2.726821899414062 22.18542098999023 2 25.78664016723633 2 29.5 C 2 33.21335983276367 2.726821899414062 36.81458282470703 4.160270690917969 40.20362854003906 C 5.545238494873047 43.47806930541992 7.528369903564453 46.41923904418945 10.05456161499023 48.94544219970703 C 12.58076095581055 51.47163009643555 15.52193069458008 53.45476150512695 18.79637145996094 54.83972930908203 C 22.18542098999023 56.27317810058594 25.78664016723633 57 29.5 57 C 33.21335983276367 57 36.81458282470703 56.27317810058594 40.20362854003906 54.83972930908203 C 43.47806930541992 53.45476150512695 46.41923904418945 51.47163009643555 48.94544219970703 48.94544219970703 C 51.47163009643555 46.41923904418945 53.45476150512695 43.47806930541992 54.83972930908203 40.20362854003906 C 56.27317810058594 36.81458282470703 57 33.21335983276367 57 29.5 C 57 25.78664016723633 56.27317810058594 22.18542098999023 54.83972930908203 18.79637145996094 C 53.45476150512695 15.52193069458008 51.47163009643555 12.58076095581055 48.94544219970703 10.05456161499023 C 46.41923904418945 7.528369903564453 43.47806930541992 5.545238494873047 40.20362854003906 4.160270690917969 C 36.81458282470703 2.726821899414062 33.21335983276367 2 29.5 2 M 29.5 0 C 45.79240036010742 0 59 13.20759963989258 59 29.5 C 59 45.79240036010742 45.79240036010742 59 29.5 59 C 13.20759963989258 59 0 45.79240036010742 0 29.5 C 0 13.20759963989258 13.20759963989258 0 29.5 0 Z" stroke="none" fill="#fff"/>
    </g>
    <g id="Group_20650" data-name="Group 20650" transform="translate(-11821.469 1489)">
      <path id="Path_26724" data-name="Path 26724" d="M98,305.512l1.56.787,1.63-3.232v10.355h2.083V306.7h.383v6.721h2.083V303.067l1.63,3.232,1.561-.787-3.19-6.325H101.19Z" transform="translate(11774.469 -758.999)" fill="#1e445c"/>
      <path id="Path_26725" data-name="Path 26725" d="M156.738,241.036a1.761,1.761,0,1,1,1.761-1.759A1.829,1.829,0,0,1,156.738,241.036Z" transform="translate(11721.197 -701.339)" fill="#1e445c"/>
      <path id="Path_26726" data-name="Path 26726" d="M444.928,266.452l-1.56.787-1.63-3.232v12.9h-2.083v-7.992h-.383V276.9H437.19v-12.9l-1.63,3.232L434,266.452l3.19-6.325h4.549Z" transform="translate(11460.328 -722.48)" fill="#1e445c"/>
      <path id="Path_26727" data-name="Path 26727" d="M492.658,201.966a1.761,1.761,0,1,0-1.76-1.759A1.829,1.829,0,0,0,492.658,201.966Z" transform="translate(11407.13 -664.811)" fill="#1e445c"/>
      <path id="Path_26728" data-name="Path 26728" d="M276.929,210.582l-1.56.787-1.63-3.232v16.53h-2.083v-9.991h-.383v9.991H269.19v-16.53l-1.63,3.232-1.56-.787,3.19-6.325h4.549Z" transform="translate(11617.398 -670.245)" fill="#1e445c"/>
      <path id="Path_26729" data-name="Path 26729" d="M324.658,146.106a1.761,1.761,0,1,0-1.76-1.759A1.829,1.829,0,0,0,324.658,146.106Z" transform="translate(11564.201 -612.585)" fill="#1e445c"/>
    </g>
  </g>
</svg>
