<svg width="52" height="78" viewBox="0 0 52 78" fill="none" xmlns="http://www.w3.org/2000/svg">
<path d="M51.3629 25.6946C51.3657 20.821 49.9816 16.0473 47.3723 11.9311C44.763 7.81485 41.0363 4.52611 36.6275 2.44904C32.2187 0.371969 27.3099 -0.407661 22.4746 0.201226C17.6392 0.810113 13.0769 2.78237 9.32069 5.88761C5.56448 8.99284 2.76944 13.1028 1.26209 17.7374C-0.245261 22.372 -0.402676 27.3399 0.808232 32.0606C2.01914 36.7813 4.54837 41.06 8.10045 44.3968C11.6525 47.7336 16.0808 49.9908 20.8679 50.9046V57.7946H16.0529C14.7759 57.7946 13.5512 58.3019 12.6482 59.2048C11.7452 60.1078 11.2379 61.3326 11.2379 62.6096C11.2379 63.8866 11.7452 65.1113 12.6482 66.0143C13.5512 66.9173 14.7759 67.4246 16.0529 67.4246H20.8679V72.2396C20.8679 73.5166 21.3752 74.7413 22.2782 75.6443C23.1812 76.5473 24.4059 77.0546 25.6829 77.0546C26.9599 77.0546 28.1847 76.5473 29.0876 75.6443C29.9906 74.7413 30.4979 73.5166 30.4979 72.2396V67.4256H35.3129C36.5899 67.4256 37.8147 66.9183 38.7176 66.0153C39.6206 65.1123 40.1279 63.8876 40.1279 62.6106C40.1279 61.3336 39.6206 60.1088 38.7176 59.2059C37.8147 58.3029 36.5899 57.7956 35.3129 57.7956H30.5009V50.9046C36.3645 49.7783 41.6533 46.6466 45.4599 42.0466C49.2665 37.4466 51.3535 31.6653 51.3629 25.6946ZM9.63193 25.6946C9.63193 22.5202 10.5732 19.4171 12.3368 16.7777C14.1004 14.1383 16.6071 12.0811 19.5399 10.8663C22.4726 9.65152 25.6997 9.33367 28.8131 9.95297C31.9265 10.5723 34.7864 12.1009 37.031 14.3455C39.2756 16.5901 40.8042 19.45 41.4235 22.5634C42.0428 25.6768 41.725 28.9039 40.5102 31.8366C39.2954 34.7694 37.2382 37.2761 34.5988 39.0397C31.9594 40.8033 28.8563 41.7446 25.6819 41.7446C21.4252 41.7446 17.3428 40.0536 14.3329 37.0436C11.3229 34.0337 9.63193 29.9513 9.63193 25.6946Z" fill="#1E445C"/>
</svg>
