<svg xmlns="http://www.w3.org/2000/svg" width="59" height="59" viewBox="0 0 59 59">
  <g id="Group_20657" data-name="Group 20657" transform="translate(-38 -788)">
    <g id="Path_15457" data-name="Path 15457" transform="translate(38 788)" fill="#fff">
      <path d="M 29.5 58 C 25.65208053588867 58 21.9197998046875 57.24660110473633 18.40682029724121 55.76073837280273 C 15.01317977905273 54.32535171508789 11.96516990661621 52.27025985717773 9.34745979309082 49.65253829956055 C 6.729740142822266 47.03482818603516 4.674650192260742 43.98682022094727 3.239259958267212 40.59318161010742 C 1.753399968147278 37.0802001953125 1 33.34791946411133 1 29.5 C 1 25.65208053588867 1.753399968147278 21.9197998046875 3.239259958267212 18.40682029724121 C 4.674650192260742 15.01317977905273 6.729740142822266 11.96516990661621 9.34745979309082 9.34745979309082 C 11.96516990661621 6.729740142822266 15.01317977905273 4.674650192260742 18.40682029724121 3.239259958267212 C 21.9197998046875 1.753399968147278 25.65208053588867 1 29.5 1 C 33.34791946411133 1 37.0802001953125 1.753399968147278 40.59318161010742 3.239259958267212 C 43.98682022094727 4.674650192260742 47.03482818603516 6.729740142822266 49.65253829956055 9.34745979309082 C 52.27025985717773 11.96516990661621 54.32535171508789 15.01317977905273 55.76073837280273 18.40682029724121 C 57.24660110473633 21.9197998046875 58 25.65208053588867 58 29.5 C 58 33.34791946411133 57.24660110473633 37.0802001953125 55.76073837280273 40.59318161010742 C 54.32535171508789 43.98682022094727 52.27025985717773 47.03482818603516 49.65253829956055 49.65253829956055 C 47.03482818603516 52.27025985717773 43.98682022094727 54.32535171508789 40.59318161010742 55.76073837280273 C 37.0802001953125 57.24660110473633 33.34791946411133 58 29.5 58 Z" stroke="none"/>
      <path d="M 29.5 2 C 25.78664016723633 2 22.18542098999023 2.726821899414062 18.79637145996094 4.160270690917969 C 15.52193069458008 5.545238494873047 12.58076095581055 7.528369903564453 10.05456161499023 10.05456161499023 C 7.528369903564453 12.58076095581055 5.545238494873047 15.52193069458008 4.160270690917969 18.79637145996094 C 2.726821899414062 22.18542098999023 2 25.78664016723633 2 29.5 C 2 33.21335983276367 2.726821899414062 36.81458282470703 4.160270690917969 40.20362854003906 C 5.545238494873047 43.47806930541992 7.528369903564453 46.41923904418945 10.05456161499023 48.94544219970703 C 12.58076095581055 51.47163009643555 15.52193069458008 53.45476150512695 18.79637145996094 54.83972930908203 C 22.18542098999023 56.27317810058594 25.78664016723633 57 29.5 57 C 33.21335983276367 57 36.81458282470703 56.27317810058594 40.20362854003906 54.83972930908203 C 43.47806930541992 53.45476150512695 46.41923904418945 51.47163009643555 48.94544219970703 48.94544219970703 C 51.47163009643555 46.41923904418945 53.45476150512695 43.47806930541992 54.83972930908203 40.20362854003906 C 56.27317810058594 36.81458282470703 57 33.21335983276367 57 29.5 C 57 25.78664016723633 56.27317810058594 22.18542098999023 54.83972930908203 18.79637145996094 C 53.45476150512695 15.52193069458008 51.47163009643555 12.58076095581055 48.94544219970703 10.05456161499023 C 46.41923904418945 7.528369903564453 43.47806930541992 5.545238494873047 40.20362854003906 4.160270690917969 C 36.81458282470703 2.726821899414062 33.21335983276367 2 29.5 2 M 29.5 0 C 45.79240036010742 0 59 13.20759963989258 59 29.5 C 59 45.79240036010742 45.79240036010742 59 29.5 59 C 13.20759963989258 59 0 45.79240036010742 0 29.5 C 0 13.20759963989258 13.20759963989258 0 29.5 0 Z" stroke="none" fill="#fff"/>
    </g>
    <g id="Group_20642" data-name="Group 20642" transform="translate(-12208.751 1531.279)">
      <path id="Path_26716" data-name="Path 26716" d="M275.107,72.559a8.655,8.655,0,0,0,4.527,1.38,23.082,23.082,0,0,0,6.953-1.354,19.13,19.13,0,0,1,6.68-1.1,8.941,8.941,0,0,1,4.21,1.383,20.491,20.491,0,0,0-3.612-3.626l-.178-.135.165-.089a8.6,8.6,0,0,1,3.379-1.075,8.624,8.624,0,0,0-3.965-1.275,20.058,20.058,0,0,0-6.953,1.2,21.877,21.877,0,0,1-6.681,1.255A8.982,8.982,0,0,1,275.1,67.8q0,2.38,0,4.76Z" transform="translate(11991.45 -797.01)" fill="#1e445c"/>
      <path id="Path_26717" data-name="Path 26717" d="M293.235,125.422l-.172-.135c.052-.031.106-.06.159-.089a8.076,8.076,0,0,1,3.264-1.075h0a8.718,8.718,0,0,0-1.141-.607,7.949,7.949,0,0,0-1.188-.42,8.261,8.261,0,0,0-1.5-.248,15.292,15.292,0,0,0-5.335.792c-.462.134-.922.273-1.378.412s-.934.286-1.4.422a16.609,16.609,0,0,1-5.048.834,8.458,8.458,0,0,1-4.371-1.324h0v4.759h0a8.166,8.166,0,0,0,4.371,1.38,21.635,21.635,0,0,0,6.716-1.354,17.88,17.88,0,0,1,6.451-1.1,8.437,8.437,0,0,1,4.067,1.383h0a20.164,20.164,0,0,0-3.488-3.627Z" transform="translate(11991.436 -847.825)" fill="#1e445c"/>
      <path id="Path_26718" data-name="Path 26718" d="M292.633,181.483c.051-.031.1-.06.155-.089a7.773,7.773,0,0,1,3.186-1.075,7.8,7.8,0,0,0-3.739-1.275,17.948,17.948,0,0,0-6.556,1.2,19.586,19.586,0,0,1-6.3,1.255,8.125,8.125,0,0,1-4.268-1.323v4.759a7.837,7.837,0,0,0,4.268,1.38,20.711,20.711,0,0,0,6.557-1.354,17.087,17.087,0,0,1,6.3-1.1,8.116,8.116,0,0,1,3.97,1.383,19.979,19.979,0,0,0-3.406-3.626l-.167-.135Z" transform="translate(11991.441 -898.649)" fill="#1e445c"/>
      <path id="Path_26719" data-name="Path 26719" d="M238.876,81.143V48.661a1.05,1.05,0,0,0,.658-.92,1.344,1.344,0,0,0-2.63,0,1.05,1.05,0,0,0,.658.92V81.143c-1.287.092-2.247.445-2.247.867,0,.492,1.3.89,2.9.89s2.9-.4,2.9-.89c0-.422-.96-.776-2.248-.867Z" transform="translate(12027.438 -778.951)" fill="#1e445c"/>
    </g>
  </g>
</svg>
