<svg xmlns="http://www.w3.org/2000/svg" width="20.132" height="20.132" viewBox="0 0 20.132 20.132">
  <path id="noun-number-2453748" d="M131.769,53.716H130.38l.363-1.816-1.973-.395-.443,2.21h-1.973l.363-1.816-1.973-.395-.443,2.21h-2.6v2.013h2.2l-.4,2.013H121.7v2.013h1.389l-.362,1.816,1.973.394.443-2.21h1.973l-.362,1.816,1.973.394.443-2.21h2.6V57.743h-2.2l.4-2.013h1.792Zm5.033,3.02A10.066,10.066,0,1,1,126.736,46.67,10.067,10.067,0,0,1,136.8,56.736ZM125.951,55.73h1.974l-.4,2.013h-1.974Z" transform="translate(-116.67 -46.67)" fill="#fff" fill-rule="evenodd"/>
</svg>
