<svg xmlns="http://www.w3.org/2000/svg" width="59" height="60" viewBox="0 0 59 60">
  <g id="Group_20653" data-name="Group 20653" transform="translate(-36 -359)">
    <g id="Path_15455" data-name="Path 15455" transform="translate(36 359)" fill="#fff">
      <path d="M 29.5 59 C 25.65208053588867 59 21.9197998046875 58.24660110473633 18.40682029724121 56.76073837280273 C 15.01317977905273 55.32535171508789 11.96516990661621 53.27025985717773 9.34745979309082 50.65253829956055 C 6.729740142822266 48.03482818603516 4.674650192260742 44.98682022094727 3.239259958267212 41.59318161010742 C 1.753399968147278 38.0802001953125 1 34.34791946411133 1 30.5 L 1 29.5 C 1 25.65208053588867 1.753399968147278 21.9197998046875 3.239259958267212 18.40682029724121 C 4.674650192260742 15.01317977905273 6.729740142822266 11.96516990661621 9.34745979309082 9.34745979309082 C 11.96516990661621 6.729740142822266 15.01317977905273 4.674650192260742 18.40682029724121 3.239259958267212 C 21.9197998046875 1.753399968147278 25.65208053588867 1 29.5 1 C 33.34791946411133 1 37.0802001953125 1.753399968147278 40.59318161010742 3.239259958267212 C 43.98682022094727 4.674650192260742 47.03482818603516 6.729740142822266 49.65253829956055 9.34745979309082 C 52.27025985717773 11.96516990661621 54.32535171508789 15.01317977905273 55.76073837280273 18.40682029724121 C 57.24660110473633 21.9197998046875 58 25.65208053588867 58 29.5 L 58 30.5 C 58 34.34791946411133 57.24660110473633 38.0802001953125 55.76073837280273 41.59318161010742 C 54.32535171508789 44.98682022094727 52.27025985717773 48.03482818603516 49.65253829956055 50.65253829956055 C 47.03482818603516 53.27025985717773 43.98682022094727 55.32535171508789 40.59318161010742 56.76073837280273 C 37.0802001953125 58.24660110473633 33.34791946411133 59 29.5 59 Z" stroke="none"/>
      <path d="M 29.5 2 C 25.78664016723633 2 22.18542098999023 2.726821899414062 18.79637145996094 4.160270690917969 C 15.52193069458008 5.545238494873047 12.58076095581055 7.528369903564453 10.05456161499023 10.05456161499023 C 7.528369903564453 12.58076095581055 5.545238494873047 15.52193069458008 4.160270690917969 18.79637145996094 C 2.726821899414062 22.18542098999023 2 25.78664016723633 2 29.5 L 2 30.5 C 2 34.21335983276367 2.726821899414062 37.81458282470703 4.160270690917969 41.20362854003906 C 5.545238494873047 44.47806930541992 7.528369903564453 47.41923904418945 10.05456161499023 49.94544219970703 C 12.58076095581055 52.47163009643555 15.52193069458008 54.45476150512695 18.79637145996094 55.83972930908203 C 22.18542098999023 57.27317810058594 25.78664016723633 58 29.5 58 C 33.21335983276367 58 36.81458282470703 57.27317810058594 40.20362854003906 55.83972930908203 C 43.47806930541992 54.45476150512695 46.41923904418945 52.47163009643555 48.94544219970703 49.94544219970703 C 51.47163009643555 47.41923904418945 53.45476150512695 44.47806930541992 54.83972930908203 41.20362854003906 C 56.27317810058594 37.81458282470703 57 34.21335983276367 57 30.5 L 57 29.5 C 57 25.78664016723633 56.27317810058594 22.18542098999023 54.83972930908203 18.79637145996094 C 53.45476150512695 15.52193069458008 51.47163009643555 12.58076095581055 48.94544219970703 10.05456161499023 C 46.41923904418945 7.528369903564453 43.47806930541992 5.545238494873047 40.20362854003906 4.160270690917969 C 36.81458282470703 2.726821899414062 33.21335983276367 2 29.5 2 M 29.5 0 C 45.79240036010742 0 59 13.20759963989258 59 29.5 L 59 30.5 C 59 46.79240036010742 45.79240036010742 60 29.5 60 C 13.20759963989258 60 0 46.79240036010742 0 30.5 L 0 29.5 C 0 13.20759963989258 13.20759963989258 0 29.5 0 Z" stroke="none" fill="#fff"/>
    </g>
    <path id="Path_10234" data-name="Path 10234" d="M115.6,43.439a8,8,0,0,0-3.6-5.507,8.374,8.374,0,0,0-10.981,2l-.9,1.135a.446.446,0,0,1-.667,0l-1.1-1.4A8.145,8.145,0,0,0,86.324,38.9,8.321,8.321,0,0,0,85.29,49.18l.1.133h5.04l2.336-3.938a1.444,1.444,0,0,1,1.2-.7,1.362,1.362,0,0,1,1.2.7l4.272,7.209,1.535-2.57a1.444,1.444,0,0,1,1.2-.7h3.071a1.4,1.4,0,1,1,0,2.8h-2.236l-2.336,3.938a1.444,1.444,0,0,1-1.2.7,1.362,1.362,0,0,1-1.2-.7L93.968,48.88l-1.535,2.57a1.444,1.444,0,0,1-1.2.7H87.559l9.813,12.316a3.1,3.1,0,0,0,2.4,1.168,3.053,3.053,0,0,0,2.4-1.168l11.749-14.686A8.014,8.014,0,0,0,115.6,43.44Zm-4.172,1.235a.263.263,0,0,1-.267.267h-1.969V46.91a.263.263,0,0,1-.267.267h-1.836a.263.263,0,0,1-.267-.267V44.941h-1.969a.263.263,0,0,1-.267-.267V42.838a.263.263,0,0,1,.267-.267h2V40.6a.263.263,0,0,1,.267-.267h1.836a.263.263,0,0,1,.267.267v1.969h1.969a.263.263,0,0,1,.267.267v1.836Z" transform="translate(-35.57 341.794)" fill="#1e445c"/>
  </g>
</svg>
