<svg xmlns="http://www.w3.org/2000/svg" width="21.224" height="16.081" viewBox="0 0 21.224 16.081">
  <path id="Path_16057" data-name="Path 16057" d="M83.912,79.039l-7.733.029a.283.283,0,0,1,0-.565l7.95-.03h0a.284.284,0,0,1,.274.21l.38,1.416,1.278-4.22a.283.283,0,0,1,.55.04l.926,6.366.778-3.756a.284.284,0,0,1,.21-.216.269.269,0,0,1,.27.1l1.059,1.306.554-1.053a.282.282,0,0,1,.25-.151h2.67a.283.283,0,1,1,0,.565h-2.5l-.673,1.281a.284.284,0,0,1-.469.046l-.956-1.18-.969,4.531a.282.282,0,0,1-.555-.018l-.934-6.84L85.035,81.21a.283.283,0,0,1-.543-.009ZM95.54,73.893a5.1,5.1,0,0,0-7.6.571h0a.256.256,0,0,1-.419,0,5.1,5.1,0,0,0-7.6-.571,4.529,4.529,0,0,0-1.517,4.124l5.712-.022a.765.765,0,0,1,.672.4l.8-2.652a.762.762,0,0,1,1.482.108l.535,3.677.226-1.093h0a.767.767,0,0,1,.568-.584.751.751,0,0,1,.753.261l.6.742.215-.409a.76.76,0,0,1,.674-.407h2.67a.761.761,0,1,1,0,1.523h-2.21l-.539,1.025a.766.766,0,0,1-1.265.125l-.326-.4-.759,3.551h0a.761.761,0,0,1-1.5-.048L86.1,79.223l-.606,2.12h0a.734.734,0,0,1-.732.548.768.768,0,0,1-.734-.564l-.484-1.806-4.641.016c1.783,3.6,5.888,6.383,8.832,9,3.145-2.866,9.026-6.687,9.38-11.068a4.65,4.65,0,0,0-1.576-3.58Z" transform="translate(-75.896 -72.46)" fill="#fff"/>
</svg>
