<svg xmlns="http://www.w3.org/2000/svg" width="19.069" height="30.069" viewBox="0 0 19.069 30.069">
  <path id="Path_11002" data-name="Path 11002" d="M224.8,67.87l-8.067,11-8.067-11h.037a9.375,9.375,0,0,1-1.5-5.134,9.534,9.534,0,1,1,19.068,0A9.665,9.665,0,0,1,224.8,67.87Zm-8.067-8.8a3.667,3.667,0,1,0,3.667,3.667A3.678,3.678,0,0,0,216.732,59.069Zm0,21.269c5.281,0,9.534.66,9.534,1.467s-4.254,1.467-9.534,1.467-9.534-.66-9.534-1.467S211.452,80.338,216.732,80.338Z" transform="translate(-207.198 -53.202)" fill="#1e445c" fill-rule="evenodd"/>
</svg>
