<svg xmlns="http://www.w3.org/2000/svg" width="97.273" height="97.273" viewBox="0 0 97.273 97.273">
  <g id="Group_20624" data-name="Group 20624" transform="translate(-214 -398)">
    <path id="Path_13482" data-name="Path 13482" d="M48.637,0A48.637,48.637,0,1,1,0,48.637,48.637,48.637,0,0,1,48.637,0Z" transform="translate(214 398)" fill="#fff"/>
    <g id="Group_11694" data-name="Group 11694" transform="translate(46.707 257)">
      <path id="Path_13481" data-name="Path 13481" d="M40.93,0A40.93,40.93,0,1,1,0,40.93,40.93,40.93,0,0,1,40.93,0Z" transform="translate(175 149)" fill="#6ab654"/>
    </g>
    <g id="Group_18552" data-name="Group 18552" transform="translate(-440.106 835.978) rotate(30)">
      <path id="Path_16102" data-name="Path 16102" d="M226.538,51a4.637,4.637,0,0,0,1.023-6.019,4.721,4.721,0,0,0-5.778-1.926L218.413,37.4a2.753,2.753,0,0,0-3.792-.963,2.57,2.57,0,0,0-1.264,1.685,2.872,2.872,0,0,0,.3,2.106l-.6,1.264c-1.986,4.033-3.31,6.561-5.6,9.088l5.6,9.691c3.311-.9,6.019-.843,10.353-.783h1.685a2.775,2.775,0,0,0,2.407,1.384,3.2,3.2,0,0,0,1.444-.361,2.57,2.57,0,0,0,1.264-1.685,2.872,2.872,0,0,0-.3-2.106Z" transform="translate(196.3 -741.92)" fill="#fff"/>
      <path id="Path_16103" data-name="Path 16103" d="M91.542,261.692l.542-.3-.181-.361-5.116-8.848-.12-.181-5.3,3.19a2.4,2.4,0,0,0-1.083,1.445,3.228,3.228,0,0,0,.06,1.324l-1.083.662a1.753,1.753,0,0,0-.6,2.407l1.866,3.13a1.882,1.882,0,0,0,1.5.783,1.7,1.7,0,0,0,.9-.241l1.083-.662a2.239,2.239,0,0,0,1.685.782,1.978,1.978,0,0,0,1.023-.241l3.852,6.5a2.548,2.548,0,0,0,1.745,1.264,2.938,2.938,0,0,0,.722.06,3.2,3.2,0,0,0,1.445-.361,2.685,2.685,0,0,0,1.264-1.745,2.831,2.831,0,0,0-.3-2.106Z" transform="translate(316.188 -942.557)" fill="#fff"/>
      <path id="Path_16104" data-name="Path 16104" d="M476.354,26.288h.12a.586.586,0,0,0,.6-.482l1.264-4.875a.591.591,0,1,0-1.144-.3l-1.264,4.875a.571.571,0,0,0,.421.783Z" transform="translate(-53.096 -727.198)" fill="#fff"/>
      <path id="Path_16105" data-name="Path 16105" d="M505.833,110.978a.632.632,0,0,0,.542.3.543.543,0,0,0,.3-.06l3.852-2.287a.592.592,0,0,0,.181-.843.666.666,0,0,0-.843-.241l-3.852,2.287A.648.648,0,0,0,505.833,110.978Z" transform="translate(-80.828 -808.577)" fill="#fff"/>
      <path id="Path_16106" data-name="Path 16106" d="M541.266,191.964l-4.875-1.2a.591.591,0,1,0-.3,1.144l4.875,1.2h.12a.586.586,0,0,0,.6-.482A.483.483,0,0,0,541.266,191.964Z" transform="translate(-108.617 -885.65)" fill="#fff"/>
    </g>
  </g>
</svg>
