<svg xmlns="http://www.w3.org/2000/svg" width="97.273" height="97.273" viewBox="0 0 97.273 97.273">
  <g id="Group_20607" data-name="Group 20607" transform="translate(-166.293 -345)">
    <path id="Path_13482" data-name="Path 13482" d="M48.637,0A48.637,48.637,0,1,1,0,48.637,48.637,48.637,0,0,1,48.637,0Z" transform="translate(166.293 345)" fill="#fff"/>
    <g id="Group_11694" data-name="Group 11694" transform="translate(-1 203.707)">
      <path id="Path_13481" data-name="Path 13481" d="M40.93,0A40.93,40.93,0,1,1,0,40.93,40.93,40.93,0,0,1,40.93,0Z" transform="translate(175 149)" fill="#6ab654"/>
    </g>
    <g id="Group_11598" data-name="Group 11598" transform="translate(197 374.707)">
      <path id="Path_8006" data-name="Path 8006" d="M27.37,11.5a2.271,2.271,0,0,0,2.27-2.27V4.77a2.27,2.27,0,1,0-4.539,0V9.231A2.271,2.271,0,0,0,27.37,11.5Z" transform="translate(-16.647 -2.5)" fill="#ff0034"/>
      <path id="Path_8007" data-name="Path 8007" d="M65.57,11.5a2.271,2.271,0,0,0,2.27-2.27V4.77a2.27,2.27,0,1,0-4.539,0V9.231A2.271,2.271,0,0,0,65.57,11.5Z" transform="translate(-39.899 -2.5)" fill="#ff0034"/>
      <path id="Path_8008" data-name="Path 8008" d="M34.924,15.9H33.084v1.487a3.913,3.913,0,1,1-7.827,0V15.9H18.136v1.487a3.913,3.913,0,1,1-7.827,0V15.9H8.47A4.977,4.977,0,0,0,3.5,20.87V42.862a4.977,4.977,0,0,0,4.97,4.97H34.963a4.977,4.977,0,0,0,4.97-4.97V20.87A5.011,5.011,0,0,0,34.924,15.9Zm1.683,26.962a1.653,1.653,0,0,1-1.644,1.644H8.47a1.653,1.653,0,0,1-1.644-1.644V26.114h29.78Z" transform="translate(-3.5 -10.656)" fill="#ff0034"/>
      <path id="Path_8009" data-name="Path 8009" d="M21.265,54.665h4.579A.686.686,0,0,0,26.509,54V51.065a.686.686,0,0,0-.665-.665H21.265a.686.686,0,0,0-.665.665V54A.686.686,0,0,0,21.265,54.665Z" transform="translate(-13.908 -31.655)" fill="#ff0034"/>
      <path id="Path_8010" data-name="Path 8010" d="M43.165,54.665h4.579A.686.686,0,0,0,48.409,54V51.065a.686.686,0,0,0-.665-.665H43.165a.686.686,0,0,0-.665.665V54A.66.66,0,0,0,43.165,54.665Z" transform="translate(-27.238 -31.655)" fill="#ff0034"/>
      <path id="Path_8011" data-name="Path 8011" d="M64.965,54.665h4.578A.686.686,0,0,0,70.209,54V51.065a.686.686,0,0,0-.665-.665H64.965a.686.686,0,0,0-.665.665V54A.686.686,0,0,0,64.965,54.665Z" transform="translate(-40.507 -31.655)" fill="#ff0034"/>
      <path id="Path_8012" data-name="Path 8012" d="M21.265,73.965h4.579a.686.686,0,0,0,.665-.665V70.365a.686.686,0,0,0-.665-.665H21.265a.686.686,0,0,0-.665.665V73.3A.686.686,0,0,0,21.265,73.965Z" transform="translate(-13.908 -43.402)" fill="#ff0034"/>
      <path id="Path_8013" data-name="Path 8013" d="M43.165,73.965h4.579a.686.686,0,0,0,.665-.665V70.365a.686.686,0,0,0-.665-.665H43.165a.686.686,0,0,0-.665.665V73.3A.66.66,0,0,0,43.165,73.965Z" transform="translate(-27.238 -43.402)" fill="#ff0034"/>
      <path id="Path_8014" data-name="Path 8014" d="M64.965,73.965h4.578a.686.686,0,0,0,.665-.665V70.365a.686.686,0,0,0-.665-.665H64.965a.686.686,0,0,0-.665.665V73.3A.686.686,0,0,0,64.965,73.965Z" transform="translate(-40.507 -43.402)" fill="#ff0034"/>
    </g>
    <g id="Group_13733" data-name="Group 13733" transform="translate(0.997 207.707)">
      <g id="Group_13732" data-name="Group 13732" transform="translate(205.003 182)">
        <path id="Path_13481-2" data-name="Path 13481" d="M9.5,0A9.5,9.5,0,1,1,0,9.5,9.5,9.5,0,0,1,9.5,0Z" transform="translate(0 0)" fill="#fff"/>
      </g>
      <path id="Path_16111" data-name="Path 16111" d="M242.369,172.369a.821.821,0,0,1,1.161,0l3.869,3.869,3.869-3.869a.821.821,0,0,1,1.161,1.161l-3.869,3.869,3.869,3.869a.821.821,0,0,1-1.161,1.161l-3.869-3.869-3.869,3.869a.821.821,0,0,1-1.161-1.161l3.869-3.869-3.869-3.869A.821.821,0,0,1,242.369,172.369Z" transform="translate(-32.692 14.305)" fill="#ff0034"/>
    </g>
  </g>
</svg>
