<svg xmlns="http://www.w3.org/2000/svg" width="97.273" height="97.273" viewBox="0 0 97.273 97.273">
  <g id="Group_20607" data-name="Group 20607" transform="translate(-166.293 -293)">
    <path id="Path_13482" data-name="Path 13482" d="M48.637,0A48.637,48.637,0,1,1,0,48.637,48.637,48.637,0,0,1,48.637,0Z" transform="translate(166.293 293)" fill="#fff"/>
    <g id="Group_11694" data-name="Group 11694" transform="translate(-1 151.707)">
      <path id="Path_13481" data-name="Path 13481" d="M40.93,0A40.93,40.93,0,1,1,0,40.93,40.93,40.93,0,0,1,40.93,0Z" transform="translate(175 149)" fill="#6ab654"/>
    </g>
    <path id="Path_16136" data-name="Path 16136" d="M227.748,190.662a3.9,3.9,0,0,1-2.735-1.16l-10.194-10.442a3.809,3.809,0,1,1,5.469-5.3l7.127,7.293,19.726-26.354a3.827,3.827,0,0,1,5.387-.746,3.9,3.9,0,0,1,.746,5.387L230.815,189.17A3.69,3.69,0,0,1,228,190.662h-.249Z" transform="translate(-18.71 169.547)" fill="#fff"/>
  </g>
</svg>
