<svg xmlns="http://www.w3.org/2000/svg" width="151.398" height="151.398" viewBox="0 0 151.398 151.398">
  <g id="Group_21113" data-name="Group 21113" transform="matrix(1.802226, 0, 0, 1.802226, -1625.650757, -652.379211)" style="">
    <g id="Group_11694" data-name="Group 11694" transform="translate(903 363)">
      <path id="Path_13481" data-name="Path 13481" d="M40.93,0A40.93,40.93,0,1,1,0,40.93,40.93,40.93,0,0,1,40.93,0Z" transform="translate(0)" fill="#6ab654"></path>
    </g>
    <path id="Subtraction_167" data-name="Subtraction 167" d="M29.442,37.5H8.062A7.978,7.978,0,0,1,0,29.438v-15H37.5v15a8.134,8.134,0,0,1-2.345,5.649A7.974,7.974,0,0,1,29.442,37.5ZM8.065,27.563a1.876,1.876,0,0,0,0,3.752H29.44A1.933,1.933,0,0,0,31.5,29.438a1.775,1.775,0,0,0-1.875-1.875Zm0-7.687a1.875,1.875,0,0,0,0,3.75H29.44A1.933,1.933,0,0,0,31.5,21.751a1.775,1.775,0,0,0-1.875-1.875Zm29.44-9H0V8.059A8.006,8.006,0,0,1,8.062,0H29.626A7.979,7.979,0,0,1,37.5,8.059v2.813Z" transform="translate(925.238 386.881)" fill="#fff"></path>
  </g>
</svg>
