<svg xmlns="http://www.w3.org/2000/svg" width="151.398" height="151.398" viewBox="0 0 151.398 151.398">
  <g id="Group_20717" data-name="Group 20717" transform="translate(-885.332 -347)">
    <path id="Path_16340" data-name="Path 16340" d="M75.7,0A75.7,75.7,0,1,1,0,75.7,75.7,75.7,0,0,1,75.7,0Z" transform="translate(885.332 347)" fill="#fff"/>
    <g id="Group_14092" data-name="Group 14092" transform="translate(897 359)">
      <path id="Path_13481" data-name="Path 13481" d="M63.7,0A63.7,63.7,0,1,1,0,63.7,63.7,63.7,0,0,1,63.7,0Z" transform="translate(0)" fill="#6ab654"/>
    </g>
    <path id="Icon_metro-notification" data-name="Icon metro-notification" d="M36.186,8.231A27.313,27.313,0,0,0,16.873,54.857,27.313,27.313,0,0,0,55.5,16.231,27.134,27.134,0,0,0,36.186,8.231Zm0-6.3A33.616,33.616,0,1,1,2.571,35.544,33.616,33.616,0,0,1,36.186,1.928Zm-4.2,46.221h8.4v8.4h-8.4Zm0-33.616h8.4V39.746h-8.4Z" transform="translate(925.238 386.881)" fill="#fff"/>
  </g>
</svg>
