<svg xmlns="http://www.w3.org/2000/svg" width="97.273" height="97.273" viewBox="0 0 97.273 97.273">
  <g id="Group_20611" data-name="Group 20611" transform="translate(-166.293 -365)">
    <path id="Path_13482" data-name="Path 13482" d="M48.637,0A48.637,48.637,0,1,1,0,48.637,48.637,48.637,0,0,1,48.637,0Z" transform="translate(166.293 365)" fill="#fff"/>
    <g id="Group_11694" data-name="Group 11694" transform="translate(-1 223.707)">
      <path id="Path_13481" data-name="Path 13481" d="M40.93,0A40.93,40.93,0,1,1,0,40.93,40.93,40.93,0,0,1,40.93,0Z" transform="translate(175 149)" fill="#6ab654"/>
    </g>
    <g id="Group_9439" data-name="Group 9439" transform="translate(192 398.707)">
      <path id="noun-visa-card-1647512_1_" data-name="noun-visa-card-1647512 (1)" d="M142.085,114.33H108.173a5.517,5.517,0,0,0-5.511,5.511v19.075a5.516,5.516,0,0,0,5.511,5.511h33.911a5.517,5.517,0,0,0,5.511-5.511V119.841a5.516,5.516,0,0,0-5.51-5.511Z" transform="translate(-102.662 -114.33)" fill="#fff"/>
      <path id="noun-visa-card-1647512_1_2" data-name="noun-visa-card-1647512 (1)" d="M149.509,135.241a7.719,7.719,0,0,0-3.19.712,7.54,7.54,0,0,0-3.173-.712,7.63,7.63,0,0,0,0,15.26,7.541,7.541,0,0,0,3.173-.712,7.625,7.625,0,1,0,3.19-14.548Zm-6.363,12.717a5.087,5.087,0,1,1,5.087-5.087A5.093,5.093,0,0,1,143.146,147.958Zm6.363,0a5.119,5.119,0,0,1-.646-.085,7.493,7.493,0,0,0,0-10,5.066,5.066,0,1,1,.646,10.089Z" transform="translate(-123.809 -127.791)" fill="#6ab654"/>
    </g>
  </g>
</svg>
