<svg xmlns="http://www.w3.org/2000/svg" width="97.273" height="97.273" viewBox="0 0 97.273 97.273">
  <g id="Group_20612" data-name="Group 20612" transform="translate(-11795 -2583.308)">
    <path id="Path_13482" data-name="Path 13482" d="M48.637,0A48.637,48.637,0,1,1,0,48.637,48.637,48.637,0,0,1,48.637,0Z" transform="translate(11795 2583.308)" fill="#fff"/>
    <g id="Group_11694" data-name="Group 11694" transform="translate(11627.707 2442.308)">
      <path id="Path_13481" data-name="Path 13481" d="M40.93,0A40.93,40.93,0,1,1,0,40.93,40.93,40.93,0,0,1,40.93,0Z" transform="translate(175 149)" fill="red"/>
    </g>
    <path id="Path_24695" data-name="Path 24695" d="M123.05,28.686a2.382,2.382,0,0,0-3.346,0l-8.837,8.837-8.808-8.837a2.366,2.366,0,0,0-3.346,3.346l8.808,8.837-8.837,8.808a2.382,2.382,0,0,0,0,3.346,2.417,2.417,0,0,0,3.374,0l8.808-8.808,8.808,8.808a2.355,2.355,0,0,0,1.687.686,2.359,2.359,0,0,0,1.687-4.032l-8.837-8.808,8.808-8.808a2.391,2.391,0,0,0,.029-3.374Z" transform="translate(11732.77 2591.383)" fill="#fff"/>
  </g>
</svg>
