<svg xmlns="http://www.w3.org/2000/svg" width="124.961" height="124.961" viewBox="0 0 124.961 124.961">
  <g id="Group_20610" data-name="Group 20610" transform="translate(-835.365 -281.47)">
    <path id="Path_13482" data-name="Path 13482" d="M62.481,0A62.481,62.481,0,1,1,0,62.481,62.481,62.481,0,0,1,62.481,0Z" transform="translate(835.365 281.47)" fill="#fff"/>
    <path id="Path_13481" data-name="Path 13481" d="M52.58,0A52.58,52.58,0,1,1,0,52.58,52.58,52.58,0,0,1,52.58,0Z" transform="translate(845.266 291.37)" fill="#6ab654"/>
    <path id="Path_10028" data-name="Path 10028" d="M105.014,17.549A10.807,10.807,0,0,0,88.945,3.144L73.132,18.956h0A10.807,10.807,0,0,0,88.415,34.239l4.993-4.993a8.369,8.369,0,0,0,11.607-11.7ZM90,4.2a9.306,9.306,0,0,1,14.016,12.177A8.367,8.367,0,0,0,90.108,24.6,9.3,9.3,0,0,1,85.32,8.889Zm4.484,23.961a6.792,6.792,0,0,1-1.176-.943,6.494,6.494,0,0,1-.8-.965,6.6,6.6,0,0,1-.774-1.484,6.868,6.868,0,0,1,5.512-9.217V29.167a6.872,6.872,0,0,1-2.761-1ZM98.75,29.2V25.152l0-3.147V15.517a6.868,6.868,0,0,1,0,13.688Z" transform="translate(808.695 324.787)" fill="#fff"/>
  </g>
</svg>
