<svg xmlns="http://www.w3.org/2000/svg" width="97.273" height="97.273" viewBox="0 0 97.273 97.273">
  <g id="Group_20615" data-name="Group 20615" transform="translate(-175.5 -229)">
    <path id="Path_24521" data-name="Path 24521" d="M48.637,0A48.637,48.637,0,1,1,0,48.637,48.637,48.637,0,0,1,48.637,0Z" transform="translate(175.5 229)" fill="#fff"/>
    <g id="Group_11694" data-name="Group 11694" transform="translate(8.207 87.707)">
      <path id="Path_13481" data-name="Path 13481" d="M40.93,0A40.93,40.93,0,1,1,0,40.93,40.93,40.93,0,0,1,40.93,0Z" transform="translate(175 149)" fill="#6ab654"/>
    </g>
    <path id="Icon_ionic-ios-star" data-name="Icon ionic-ios-star" d="M39.767,15.91h-12.8L23.072,4.3a1.41,1.41,0,0,0-2.646,0L16.534,15.91H3.643A1.4,1.4,0,0,0,2.25,17.3a1.024,1.024,0,0,0,.026.235,1.338,1.338,0,0,0,.583.984l10.524,7.416L9.344,37.68a1.4,1.4,0,0,0,.479,1.567,1.347,1.347,0,0,0,.783.339,1.706,1.706,0,0,0,.87-.313l10.272-7.321L32.02,39.273a1.631,1.631,0,0,0,.87.313,1.251,1.251,0,0,0,.775-.339,1.38,1.38,0,0,0,.479-1.567L30.105,25.938l10.437-7.486.252-.218a1.46,1.46,0,0,0,.453-.931A1.474,1.474,0,0,0,39.767,15.91Z" transform="translate(202.252 256.156)" fill="#fff"/>
  </g>
</svg>
