<svg xmlns="http://www.w3.org/2000/svg" width="127.407" height="127.407" viewBox="0 0 127.407 127.407">
  <g id="Group_18589" data-name="Group 18589" transform="translate(-194.306 4166.004)">
    <g id="Group_14092" data-name="Group 14092" transform="translate(194.306 -4166.004)">
      <path id="Path_13481" data-name="Path 13481" d="M63.7,0A63.7,63.7,0,1,1,0,63.7,63.7,63.7,0,0,1,63.7,0Z" transform="translate(0)" fill="#6ab654"/>
    </g>
    <g id="noun-wallet-4915168" transform="translate(228.812 -4127.094)">
      <path id="Path_13472" data-name="Path 13472" d="M135.556,69.875a1.028,1.028,0,0,0-.705.3L124.837,80.19H106.7a1.031,1.031,0,0,0-1.03,1.03v37.208a1.031,1.031,0,0,0,1.03,1.03h51.623a1.031,1.031,0,0,0,1.03-1.03V107.09h3.1a1.031,1.031,0,0,0,1.03-1.03V93.69a1.031,1.031,0,0,0-1.03-1.032h-3.1V81.32a1.031,1.031,0,0,0-1.03-1.03h-5.766L142.545,70.276a1.03,1.03,0,0,0-1.457,0l-2.357,2.357-2.357-2.357a1.036,1.036,0,0,0-.754-.3Zm.026,2.494,1.633,1.639-6.175,6.175h-3.273Zm6.195,0L143.413,74,137.237,80.2h-3.273l5.454-5.455Zm3.1,3.1,4.734,4.734H140.16Zm7.208,19.169h9.292V104.94H152.1s-.084,0-.23-.012a6.739,6.739,0,0,1-2.4-.655c-1.3-.65-2.533-1.742-2.533-4.5a5.9,5.9,0,0,1,.454-2.454c.045-.107.105-.211.15-.3a3.459,3.459,0,0,1,.579-.783,4.111,4.111,0,0,1,.393-.36c.1-.083.214-.153.322-.226.047-.031.091-.067.138-.1.16-.1.337-.189.481-.267.09-.048.192-.085.273-.121s.145-.067.216-.095c.16-.063.32-.117.471-.163a6.909,6.909,0,0,1,.843-.2,5.679,5.679,0,0,1,.826-.087Z" transform="translate(-105.671 -69.875)" fill="#fff"/>
      <path id="Path_13473" data-name="Path 13473" d="M474.826,297.34a3.107,3.107,0,1,0,.019,0h-.016Z" transform="translate(-428.578 -270.516)" fill="#fff"/>
    </g>
  </g>
</svg>
