<svg width="72" height="72" viewBox="0 0 72 72" fill="none" xmlns="http://www.w3.org/2000/svg">
<path d="M61.0051 0H49.1251C47.9435 0 46.8104 0.469365 45.9749 1.30484C45.1394 2.14031 44.6701 3.27346 44.6701 4.455C44.6701 5.63654 45.1394 6.76969 45.9749 7.60516C46.8104 8.44064 47.9435 8.91 49.1251 8.91H56.1911L39.7701 25.331C34.5818 21.7171 28.2283 20.177 21.9611 21.0139C15.6938 21.8508 9.96709 25.0041 5.90881 29.8527C1.85053 34.7013 -0.245146 40.8938 0.034551 47.2105C0.314248 53.5271 2.94904 59.5102 7.41998 63.9811C11.8909 68.452 17.8739 71.0868 24.1906 71.3665C30.5073 71.6462 36.6998 69.5506 41.5484 65.4923C46.397 61.434 49.5503 55.7073 50.3872 49.44C51.2241 43.1728 49.6839 36.8193 46.0701 31.631L62.4901 15.209V22.275C62.4901 23.4565 62.9594 24.5897 63.7949 25.4252C64.6304 26.2606 65.7635 26.73 66.9451 26.73C68.1266 26.73 69.2598 26.2606 70.0952 25.4252C70.9307 24.5897 71.4001 23.4565 71.4001 22.275V10.395C71.3988 7.63848 70.3031 4.99524 68.354 3.04609C66.4048 1.09693 63.7616 0.00132493 61.0051 0ZM25.3661 62.369C22.1353 62.3692 18.977 61.4113 16.2906 59.6165C13.6042 57.8218 11.5103 55.2706 10.2738 52.2858C9.03729 49.301 8.71366 46.0166 9.34383 42.8478C9.97401 39.6791 11.5297 36.7684 13.8141 34.4838C16.0986 32.1992 19.0092 30.6433 22.1779 30.0129C25.3466 29.3826 28.6311 29.706 31.616 30.9423C34.6009 32.1787 37.1521 34.2724 38.9471 36.9587C40.742 39.645 41.7001 42.8032 41.7001 46.034C41.7001 50.3661 39.9792 54.5209 36.916 57.5842C33.8528 60.6476 29.6982 62.3687 25.3661 62.369Z" fill="#1E445C"/>
</svg>
