<svg xmlns="http://www.w3.org/2000/svg" xmlns:xlink="http://www.w3.org/1999/xlink" width="88.447" height="88.447" viewBox="0 0 88.447 88.447">
  <defs>
    <filter id="Path_26747" x="0" y="0" width="88.447" height="88.447" filterUnits="userSpaceOnUse">
      <feOffset dy="3" input="SourceAlpha"/>
      <feGaussianBlur stdDeviation="3" result="blur"/>
      <feFlood flood-color="#6e99fc" flood-opacity="0.188"/>
      <feComposite operator="in" in2="blur"/>
      <feComposite in="SourceGraphic"/>
    </filter>
  </defs>
  <g id="MRN" transform="translate(689 -11986.355)">
    <g transform="matrix(1, 0, 0, 1, -689, 11986.36)" filter="url(#Path_26747)">
      <g id="Path_26747-2" data-name="Path 26747" transform="translate(9 6)" fill="#fff">
        <path d="M 35.22353363037109 69.44706726074219 C 30.60294342041016 69.44706726074219 26.12110328674316 68.54233551025391 21.90249443054199 66.75802612304688 C 17.82730293273926 65.03435516357422 14.16719341278076 62.56657409667969 11.02384376525879 59.42322540283203 C 7.880493640899658 56.27987289428711 5.412713527679443 52.6197624206543 3.689043521881104 48.54457473754883 C 1.904733657836914 44.32596206665039 1.000003576278687 39.84412384033203 1.000003576278687 35.22353363037109 C 1.000003576278687 30.60294342041016 1.904733657836914 26.12110328674316 3.689043521881104 21.90249443054199 C 5.412713527679443 17.82730293273926 7.880493640899658 14.16719341278076 11.02384376525879 11.02384376525879 C 14.16719341278076 7.880493640899658 17.82730293273926 5.412713527679443 21.90249443054199 3.689043521881104 C 26.12110328674316 1.904733657836914 30.60294342041016 1.000003576278687 35.22353363037109 1.000003576278687 C 39.84412384033203 1.000003576278687 44.32596206665039 1.904733657836914 48.54457473754883 3.689043521881104 C 52.6197624206543 5.412713527679443 56.27987289428711 7.880493640899658 59.42322540283203 11.02384376525879 C 62.56657409667969 14.16719341278076 65.03435516357422 17.82730293273926 66.75802612304688 21.90249443054199 C 68.54233551025391 26.12110328674316 69.44706726074219 30.60294342041016 69.44706726074219 35.22353363037109 C 69.44706726074219 39.84412384033203 68.54233551025391 44.32596206665039 66.75802612304688 48.54457473754883 C 65.03435516357422 52.6197624206543 62.56657409667969 56.27987289428711 59.42322540283203 59.42322540283203 C 56.27987289428711 62.56657409667969 52.6197624206543 65.03435516357422 48.54457473754883 66.75802612304688 C 44.32596206665039 68.54233551025391 39.84412384033203 69.44706726074219 35.22353363037109 69.44706726074219 Z" stroke="none"/>
        <path d="M 35.22353363037109 2 C 30.73749923706055 2 26.38672256469727 2.878143310546875 22.29204559326172 4.61004638671875 C 18.33605575561523 6.283287048339844 14.78278732299805 8.679111480712891 11.7309455871582 11.7309455871582 C 8.679111480712891 14.78278732299805 6.283287048339844 18.33605575561523 4.61004638671875 22.29204559326172 C 2.878143310546875 26.38672256469727 2 30.73749923706055 2 35.22353363037109 C 2 39.70956420898438 2.878143310546875 44.06034469604492 4.61004638671875 48.15502166748047 C 6.283287048339844 52.11101150512695 8.679111480712891 55.66427612304688 11.7309455871582 58.71612167358398 C 14.78278732299805 61.7679557800293 18.33605575561523 64.16378021240234 22.29204559326172 65.83702087402344 C 26.38672256469727 67.56892395019531 30.73749923706055 68.44706726074219 35.22353363037109 68.44706726074219 C 39.70956420898438 68.44706726074219 44.06034469604492 67.56892395019531 48.15502166748047 65.83702087402344 C 52.11101150512695 64.16378021240234 55.66427612304688 61.7679557800293 58.71612167358398 58.71612167358398 C 61.7679557800293 55.66427612304688 64.16378021240234 52.11101150512695 65.83702087402344 48.15502166748047 C 67.56892395019531 44.06034469604492 68.44706726074219 39.70956420898438 68.44706726074219 35.22353363037109 C 68.44706726074219 30.73749923706055 67.56892395019531 26.38672256469727 65.83702087402344 22.29204559326172 C 64.16378021240234 18.33605575561523 61.7679557800293 14.78278732299805 58.71612167358398 11.7309455871582 C 55.66427612304688 8.679111480712891 52.11101150512695 6.283287048339844 48.15502166748047 4.61004638671875 C 44.06034469604492 2.878143310546875 39.70956420898438 2 35.22353363037109 2 M 35.22353363037109 0 C 54.67695617675781 0 70.44706726074219 15.77011108398438 70.44706726074219 35.22353363037109 C 70.44706726074219 54.67695617675781 54.67695617675781 70.44706726074219 35.22353363037109 70.44706726074219 C 15.77011108398438 70.44706726074219 0 54.67695617675781 0 35.22353363037109 C 0 15.77011108398438 15.77011108398438 0 35.22353363037109 0 Z" stroke="none" fill="#fff"/>
      </g>
    </g>
    <g id="MRN-2" data-name="MRN" transform="translate(-1812.406 12448.342)">
      <g id="Group_20704" data-name="Group 20704" transform="translate(1156.837 -435.554)">
        <rect id="Rectangle_4733" data-name="Rectangle 4733" width="14.557" height="2.385" transform="translate(3.56 5.585)" fill="#6ab654"/>
        <path id="Path_26743" data-name="Path 26743" d="M1192.728-396.276h-.7v25.031a.7.7,0,0,0,.7.7h20.279a.7.7,0,0,0,.7-.669v-28.423a.7.7,0,0,0-.7-.7h-16.926v.7A3.365,3.365,0,0,1,1192.728-396.276Zm10.076,23.84h-8.122a.828.828,0,0,1-.583-.262.828.828,0,0,1-.227-.6.837.837,0,0,1,.81-.81h8.122a.828.828,0,0,1,.583.262.828.828,0,0,1,.227.6A.836.836,0,0,1,1202.8-372.436Zm6.326-8.343-1.691,2.823-2.924-1.747v3.409l-3.292,0v-3.461l-3,1.73-1.647-2.851,3.038-1.753-3.013-1.8,1.691-2.825,2.927,1.747v-3.409h3.29v3.46l3-1.731,1.647,2.852-3.038,1.753Zm1.852-15.634h0a.826.826,0,0,1,.586.242.829.829,0,0,1,.246.59v4.055a.835.835,0,0,1-.834.834h-16.226a.835.835,0,0,1-.834-.834v-4.054a.827.827,0,0,1,.243-.589.828.828,0,0,1,.59-.245Z" transform="translate(-1192.03 400.333)" fill="#6ab654"/>
      </g>
      <path id="Path_26744" data-name="Path 26744" d="M1177.814-437.987h-18.253a1.087,1.087,0,0,0-.778.324l-4.054,4.054a1.086,1.086,0,0,0-.323.778v26.366a3.134,3.134,0,0,0,3.13,3.136h20.278a3.134,3.134,0,0,0,3.13-3.132v-28.393A3.134,3.134,0,0,0,1177.814-437.987Zm.925,31.56a.924.924,0,0,1-.923.89h-20.28a.928.928,0,0,1-.924-.929v-25.257h.924a3.134,3.134,0,0,0,3.13-3.132v-.925h17.151a.926.926,0,0,1,.923.925Z" transform="translate(0 0)" fill="#6ab654"/>
    </g>
  </g>
</svg>
