<svg xmlns="http://www.w3.org/2000/svg" xmlns:xlink="http://www.w3.org/1999/xlink" width="40.253" height="40.286" viewBox="0 0 40.253 40.286">
  <defs>
    <filter id="Path_16317" x="0" y="0" width="40.253" height="40.286" filterUnits="userSpaceOnUse">
      <feOffset dy="3" input="SourceAlpha"/>
      <feGaussianBlur stdDeviation="3" result="blur"/>
      <feFlood flood-opacity="0.161"/>
      <feComposite operator="in" in2="blur"/>
      <feComposite in="SourceGraphic"/>
    </filter>
  </defs>
  <g transform="matrix(1, 0, 0, 1, 0, 0)" filter="url(#Path_16317)">
    <path id="Path_16317-2" data-name="Path 16317" d="M136.448,46.647a3.1,3.1,0,0,0-3.283-1.938,13.526,13.526,0,0,0-5.662,2,2.4,2.4,0,0,1-2.579,0,13.528,13.528,0,0,0-5.662-2,3.092,3.092,0,0,0-3.282,1.937c-1.516,3.793-1.319,10.345,2.307,12.825l.363,5.224a2.453,2.453,0,0,0,4.607.98l2.623-5.646a.368.368,0,0,1,.668,0l2.654,5.707a2.454,2.454,0,0,0,4.576-1.042l.363-5.223c3.626-2.48,3.823-9.032,2.307-12.824Zm-16.222,9.424a.8.8,0,0,1-1.084-.3,10.015,10.015,0,0,1-.656-6.425.8.8,0,0,1,1.558.322,8.614,8.614,0,0,0,.483,5.318.8.8,0,0,1-.3,1.084Z" transform="translate(-106.09 -38.69)" fill="#fff"/>
  </g>
</svg>
