<svg xmlns="http://www.w3.org/2000/svg" width="25.394" height="26.278" viewBox="0 0 25.394 26.278">
  <g id="Group_11611" data-name="Group 11611" transform="translate(-1617.202 -1025.5)">
    <path id="Path_13168" data-name="Path 13168" d="M113.253,292.779h2.039a1.682,1.682,0,0,0,1.692-1.683v-.617l2.011-.4a7.488,7.488,0,0,1,1.756-.114l5.584.28a7.8,7.8,0,0,0,5.577-2.026l3.864-3.462.012-.011h0a2.138,2.138,0,0,0,.25-2.817l-.008-.013c-.01-.016-.02-.031-.031-.046a1.968,1.968,0,0,0-1.365-.776,1.88,1.88,0,0,0-1.444.468c-1,.879-2.473,2.162-3.534,3.086h0a3.847,3.847,0,0,1-2.382.958l-2.651.1a.234.234,0,0,1-.206-.124l-.006-.01-.3-.544a.363.363,0,0,1-.01-.326.255.255,0,0,1,.172-.15l2.741-.559a2.057,2.057,0,0,0,1.568-2.256,1.987,1.987,0,0,0-2.014-1.815l-3.668-.162a7.956,7.956,0,0,0-4.231,1.022l-1.846.973h0a1.693,1.693,0,0,0-1.533-.961h-2.039a1.68,1.68,0,0,0-1.692,1.68V291.1a1.682,1.682,0,0,0,1.692,1.683Zm5.944-10.987a6.8,6.8,0,0,1,3.657-.894l3.694.163a.543.543,0,0,0,.064,0,.836.836,0,0,1,.836.79.923.923,0,0,1-.656,1.021l-2.744.56a1.382,1.382,0,0,0-.98.788,1.51,1.51,0,0,0,.044,1.355l.3.54a1.365,1.365,0,0,0,1.243.732h.009l2.659-.1h0a4.992,4.992,0,0,0,3.091-1.24c1.059-.922,2.531-2.207,3.535-3.087a.752.752,0,0,1,.576-.189.81.81,0,0,1,.554.31l0,.008c.01.016.02.031.031.046h0a1,1,0,0,1-.1,1.319l-3.857,3.456a6.658,6.658,0,0,1-4.76,1.736l-5.583-.28a8.7,8.7,0,0,0-2,.129l-.023,0-1.8.355v-6.368Zm-3.355,9.347a.556.556,0,0,1-.556.556h-2.028a.556.556,0,0,1-.556-.556V282.49a.556.556,0,0,1,.556-.556h2.028a.556.556,0,0,1,.556.556Z" transform="translate(1505.891 758.749)" fill="#0f425e" stroke="#0f425e" stroke-width="0.5"/>
    <path id="Path_13169" data-name="Path 13169" d="M289.749,42.153h2.968a.571.571,0,0,0,.571-.571V38.443h3.139a.571.571,0,0,0,.571-.571V34.9a.571.571,0,0,0-.571-.571h-3.139V31.194a.571.571,0,0,0-.571-.571h-2.968a.571.571,0,0,0-.571.571v3.139h-3.139a.571.571,0,0,0-.571.571v2.968a.571.571,0,0,0,.571.571h3.139v3.139a.571.571,0,0,0,.571.571ZM286.61,37.3V35.475h3.139a.571.571,0,0,0,.571-.571V31.765h1.827V34.9a.571.571,0,0,0,.571.571h3.139V37.3h-3.139a.571.571,0,0,0-.571.571v3.139H290.32V37.872a.571.571,0,0,0-.571-.571Z" transform="translate(1341.06 994.877)" fill="#0f425e"/>
  </g>
</svg>
