<svg xmlns="http://www.w3.org/2000/svg" width="44.455" height="44.455" viewBox="0 0 44.455 44.455">
  <g id="Group_20634" data-name="Group 20634" transform="translate(-1239 -162.648)">
    <g id="Rectangle_4720" data-name="Rectangle 4720" transform="translate(1239 162.648)" fill="#ffd75a" stroke="#ffc100" stroke-width="4">
      <rect width="44.455" height="44.455" rx="22.228" stroke="none"/>
      <rect x="2" y="2" width="40.455" height="40.455" rx="20.228" fill="none"/>
    </g>
    <path id="Path_26714" data-name="Path 26714" d="M12.685.539a1.218,1.218,0,0,1,2.231.565c.244.848-.774,6.526.781,7.054,1.191.4,4.858,1.109,6.467,1.679A1.147,1.147,0,0,1,22,11.989l-6.01,2.195a1.231,1.231,0,0,0-.828,1.156l.079,4.575a7.6,7.6,0,0,1-.19,2.175,1.127,1.127,0,0,1-1.993.109c-.876-1.256-2.158-3.062-3.3-4.64a1.457,1.457,0,0,0-1.889-.406c-1.307.484-6.01,2.2-6.01,2.2a1.151,1.151,0,0,1-1.4-1.724s3.329-4.315,3.7-5.046a1.144,1.144,0,0,0-.074-1.423L1.125,7.527C.647,6.919-.489,5.893.235,5.089c.919-1.226,3.058-.2,4.177.216.926.348,3.912,1.576,4.624.33Z" transform="matrix(0.951, -0.309, 0.309, 0.951, 1248.05, 178.822)" fill="#fff"/>
  </g>
</svg>
