<svg viewBox="0 0 98 98" fill="none" xmlns="http://www.w3.org/2000/svg">
<path d="M48.637 0C58.2565 0 67.66 2.85251 75.6583 8.19681C83.6566 13.5411 89.8905 21.1372 93.5717 30.0244C97.253 38.9117 98.2161 48.691 96.3395 58.1256C94.4628 67.5603 89.8306 76.2265 83.0285 83.0285C76.2265 89.8306 67.5603 94.4628 58.1256 96.3395C48.691 98.2161 38.9117 97.253 30.0244 93.5717C21.1372 89.8905 13.5411 83.6566 8.19681 75.6583C2.85251 67.66 0 58.2565 0 48.637C0 35.7377 5.12424 23.3667 14.2454 14.2454C23.3667 5.12424 35.7377 0 48.637 0Z" fill="white"/>
<path d="M48.64 7.70703C56.7351 7.70703 64.6485 10.1075 71.3795 14.605C78.1104 19.1024 83.3565 25.4948 86.4544 32.9738C89.5522 40.4528 90.3628 48.6824 88.7835 56.6221C87.2042 64.5617 83.306 71.8548 77.5818 77.5789C71.8577 83.3031 64.5647 87.2013 56.625 88.7806C48.6854 90.3599 40.4557 89.5493 32.9767 86.4514C25.4977 83.3535 19.1054 78.1074 14.6079 71.3765C10.1105 64.6456 7.70996 56.7322 7.70996 48.637C7.70996 37.7817 12.0222 27.371 19.6981 19.6952C27.3739 12.0193 37.7846 7.70703 48.64 7.70703Z" fill="#6AB654"/>
<g clip-path="url(#clip0_613_1649)">
<path d="M73.9124 38.8094C73.6789 38.0309 72.9783 37.4082 72.122 37.2525L57.8762 35.1507L51.4928 22.3061C51.1036 21.5276 50.3251 21.0605 49.4688 21.0605C48.6125 21.0605 47.8341 21.5276 47.4448 22.3061L41.0615 35.2285L26.8935 37.2525C26.0372 37.4082 25.3366 37.9531 25.103 38.8094C24.8695 39.5879 25.0252 40.522 25.648 41.1448L35.9236 51.1869L33.5104 65.3549C33.3547 66.2112 33.7439 67.0675 34.3667 67.5345C35.0673 68.0016 36.0015 68.0795 36.7021 67.6902L49.4688 60.9955L62.1577 67.6902C62.4691 67.8459 62.8583 67.9238 63.1697 67.9238C63.6368 67.9238 64.1038 67.7681 64.4931 67.5345C65.1937 67.0675 65.5051 66.2112 65.3494 65.3549L62.9362 51.1869L73.2118 41.1448C73.9124 40.522 74.146 39.5879 73.9124 38.8094Z" fill="white"/>
<path d="M38.259 66.8338L49.4688 60.9954L60.6786 66.8338L49.4688 55.624L38.259 66.8338Z" fill="white"/>
<path d="M73.9124 38.8094C73.6789 38.031 72.9783 37.4082 72.122 37.2525L57.8762 35.1507L51.4928 22.3061C51.1036 21.5276 50.3251 21.0605 49.4688 21.0605C48.6125 21.0605 47.8341 21.5276 47.4448 22.3061L41.0615 35.2285L34.6781 36.1627L65.1937 66.6782C65.4272 66.289 65.5051 65.8219 65.3494 65.3549L62.9362 51.1869L73.2118 41.1448C73.9124 40.522 74.146 39.5879 73.9124 38.8094Z" fill="white"/>
<path d="M49.4688 21.0605C48.6904 21.1384 47.9119 21.6055 47.5227 22.3061L41.1393 35.2285L26.8935 37.2525C26.0372 37.4082 25.3366 37.9531 25.103 38.8094C24.8695 39.5879 25.0252 40.522 25.648 41.1448L35.9236 51.1869L33.5104 65.3549C33.3547 66.2112 33.7439 67.0675 34.3667 67.5345C35.0673 68.0016 36.0015 68.0795 36.7799 67.6902L49.4688 61.0733V21.0605Z" fill="#E3D01F"/>
<path d="M47.5227 22.3061L41.1393 35.2285L34.8338 36.1626L49.4688 50.7198V21.0605C48.6904 21.1384 47.9119 21.6055 47.5227 22.3061Z" fill="#E3D01F"/>
<path d="M38.3369 66.8339L49.4688 61.0733V55.7798L38.3369 66.8339Z" fill="#E3D01F"/>
</g>
<defs>
<clipPath id="clip0_613_1649">
<rect width="49" height="49" fill="white" transform="translate(25 20)"/>
</clipPath>
</defs>
</svg>
