<svg xmlns="http://www.w3.org/2000/svg" width="54" height="54" viewBox="0 0 54 54">
  <g id="Group_18585" data-name="Group 18585" transform="translate(-1429 -244)">
    <path id="Rectangle_1759" data-name="Rectangle 1759" d="M26.426,0H27A27,27,0,0,1,54,27v0A27,27,0,0,1,27,54h0A27,27,0,0,1,0,27v-.574A26.426,26.426,0,0,1,26.426,0Z" transform="translate(1429 244)" fill="#6ab654"/>
    <path id="noun-report-3254462" d="M163.837,32.527a1.324,1.324,0,0,0-.066-.344v-.119h0a1.32,1.32,0,0,0-.252-.384l-7.946-7.946a1.328,1.328,0,0,0-.384-.252h-.119a1.327,1.327,0,0,0-.424-.146h-12A2.649,2.649,0,0,0,140,25.985V49.823a2.649,2.649,0,0,0,2.649,2.649h18.54a2.649,2.649,0,0,0,2.649-2.649v-17.3ZM147.944,47.175H145.3V31.283h2.649Zm5.3,0h-2.649V39.229h2.649Zm5.3,0h-2.649v-5.3h2.649Zm-2.649-15.892v-3.43l3.43,3.43Z" transform="translate(1304.602 232.626)" fill="#fff"/>
  </g>
</svg>
