<svg width="72" height="98" viewBox="0 0 72 98" fill="none" xmlns="http://www.w3.org/2000/svg">
<path d="M61.0051 0H49.1251C47.9435 0 46.8104 0.469365 45.9749 1.30484C45.1394 2.14031 44.6701 3.27346 44.6701 4.455C44.6701 5.63654 45.1394 6.76969 45.9749 7.60516C46.8104 8.44064 47.9435 8.91 49.1251 8.91H56.1911L39.7701 25.331C34.5818 21.7171 28.2283 20.177 21.9611 21.0139C15.6938 21.8508 9.96709 25.0041 5.90881 29.8527C1.85053 34.7013 -0.245146 40.8938 0.034551 47.2105C0.314248 53.5271 2.94904 59.5102 7.41998 63.9811C11.8909 68.452 17.8739 71.0868 24.1906 71.3665C30.5073 71.6462 36.6998 69.5506 41.5484 65.4923C46.397 61.434 49.5503 55.7073 50.3872 49.44C51.2241 43.1728 49.6839 36.8193 46.0701 31.631L62.4901 15.209V22.275C62.4901 23.4565 62.9594 24.5897 63.7949 25.4252C64.6304 26.2606 65.7635 26.73 66.9451 26.73C68.1266 26.73 69.2598 26.2606 70.0952 25.4252C70.9307 24.5897 71.4001 23.4565 71.4001 22.275V10.395C71.3988 7.63848 70.3031 4.99524 68.354 3.04609C66.4048 1.09693 63.7616 0.00132493 61.0051 0ZM25.3661 62.369C22.1353 62.3692 18.977 61.4113 16.2906 59.6165C13.6042 57.8218 11.5103 55.2706 10.2738 52.2858C9.03729 49.301 8.71366 46.0166 9.34383 42.8478C9.97401 39.6791 11.5297 36.7684 13.8141 34.4838C16.0986 32.1992 19.0092 30.6433 22.1779 30.0129C25.3466 29.3826 28.6311 29.706 31.616 30.9423C34.6009 32.1787 37.1521 34.2724 38.9471 36.9587C40.742 39.645 41.7001 42.8032 41.7001 46.034C41.7001 50.3661 39.9792 54.5209 36.916 57.5842C33.8528 60.6476 29.6982 62.3687 25.3661 62.369Z" fill="#1E445C"/>
<path d="M51.36 45.6946C51.3628 40.821 49.9787 36.0473 47.3694 31.9311C44.7601 27.8148 41.0334 24.5261 36.6246 22.449C32.2158 20.372 27.307 19.5923 22.4716 20.2012C17.6363 20.8101 13.074 22.7824 9.31776 25.8876C5.56155 28.9928 2.76651 33.1028 1.25916 37.7374C-0.248191 42.372 -0.405606 47.3399 0.805302 52.0606C2.01621 56.7813 4.54544 61.06 8.09752 64.3968C11.6496 67.7336 16.0779 69.9908 20.865 70.9046L20.865 77.7946H16.05C14.773 77.7946 13.5483 78.3019 12.6453 79.2048C11.7423 80.1078 11.235 81.3326 11.235 82.6096C11.235 83.8866 11.7423 85.1113 12.6453 86.0143C13.5483 86.9173 14.773 87.4246 16.05 87.4246H20.865V92.2396C20.865 93.5166 21.3723 94.7413 22.2753 95.6443C23.1783 96.5473 24.403 97.0546 25.68 97.0546C26.957 97.0546 28.1817 96.5473 29.0847 95.6443C29.9877 94.7413 30.495 93.5166 30.495 92.2396V87.4256H35.31C36.587 87.4256 37.8117 86.9183 38.7147 86.0153C39.6177 85.1123 40.125 83.8876 40.125 82.6106C40.125 81.3336 39.6177 80.1088 38.7147 79.2059C37.8117 78.3029 36.587 77.7956 35.31 77.7956H30.498L30.498 70.9046C36.3616 69.7783 41.6504 66.6466 45.457 62.0466C49.2636 57.4466 51.3506 51.6653 51.36 45.6946ZM9.629 45.6946C9.629 42.5202 10.5703 39.4171 12.3339 36.7777C14.0975 34.1383 16.6042 32.0811 19.5369 30.8663C22.4697 29.6515 25.6968 29.3337 28.8102 29.953C31.9236 30.5723 34.7834 32.1009 37.0281 34.3455C39.2727 36.5901 40.8013 39.45 41.4206 42.5634C42.0399 45.6768 41.722 48.9039 40.5073 51.8366C39.2925 54.7694 37.2353 57.2761 34.5959 59.0397C31.9565 60.8033 28.8534 61.7446 25.679 61.7446C21.4223 61.7446 17.3399 60.0536 14.3299 57.0436C11.32 54.0337 9.629 49.9513 9.629 45.6946Z" fill="#1E445C"/>
</svg>
