<svg xmlns="http://www.w3.org/2000/svg" width="59" height="59" viewBox="0 0 59 59">
  <g id="Group_20658" data-name="Group 20658" transform="translate(-38 -895)">
    <g id="Path_15457" data-name="Path 15457" transform="translate(38 895)" fill="#fff">
      <path d="M 29.5 58 C 25.65208053588867 58 21.9197998046875 57.24660110473633 18.40682029724121 55.76073837280273 C 15.01317977905273 54.32535171508789 11.96516990661621 52.27025985717773 9.34745979309082 49.65253829956055 C 6.729740142822266 47.03482818603516 4.674650192260742 43.98682022094727 3.239259958267212 40.59318161010742 C 1.753399968147278 37.0802001953125 1 33.34791946411133 1 29.5 C 1 25.65208053588867 1.753399968147278 21.9197998046875 3.239259958267212 18.40682029724121 C 4.674650192260742 15.01317977905273 6.729740142822266 11.96516990661621 9.34745979309082 9.34745979309082 C 11.96516990661621 6.729740142822266 15.01317977905273 4.674650192260742 18.40682029724121 3.239259958267212 C 21.9197998046875 1.753399968147278 25.65208053588867 1 29.5 1 C 33.34791946411133 1 37.0802001953125 1.753399968147278 40.59318161010742 3.239259958267212 C 43.98682022094727 4.674650192260742 47.03482818603516 6.729740142822266 49.65253829956055 9.34745979309082 C 52.27025985717773 11.96516990661621 54.32535171508789 15.01317977905273 55.76073837280273 18.40682029724121 C 57.24660110473633 21.9197998046875 58 25.65208053588867 58 29.5 C 58 33.34791946411133 57.24660110473633 37.0802001953125 55.76073837280273 40.59318161010742 C 54.32535171508789 43.98682022094727 52.27025985717773 47.03482818603516 49.65253829956055 49.65253829956055 C 47.03482818603516 52.27025985717773 43.98682022094727 54.32535171508789 40.59318161010742 55.76073837280273 C 37.0802001953125 57.24660110473633 33.34791946411133 58 29.5 58 Z" stroke="none"/>
      <path d="M 29.5 2 C 25.78664016723633 2 22.18542098999023 2.726821899414062 18.79637145996094 4.160270690917969 C 15.52193069458008 5.545238494873047 12.58076095581055 7.528369903564453 10.05456161499023 10.05456161499023 C 7.528369903564453 12.58076095581055 5.545238494873047 15.52193069458008 4.160270690917969 18.79637145996094 C 2.726821899414062 22.18542098999023 2 25.78664016723633 2 29.5 C 2 33.21335983276367 2.726821899414062 36.81458282470703 4.160270690917969 40.20362854003906 C 5.545238494873047 43.47806930541992 7.528369903564453 46.41923904418945 10.05456161499023 48.94544219970703 C 12.58076095581055 51.47163009643555 15.52193069458008 53.45476150512695 18.79637145996094 54.83972930908203 C 22.18542098999023 56.27317810058594 25.78664016723633 57 29.5 57 C 33.21335983276367 57 36.81458282470703 56.27317810058594 40.20362854003906 54.83972930908203 C 43.47806930541992 53.45476150512695 46.41923904418945 51.47163009643555 48.94544219970703 48.94544219970703 C 51.47163009643555 46.41923904418945 53.45476150512695 43.47806930541992 54.83972930908203 40.20362854003906 C 56.27317810058594 36.81458282470703 57 33.21335983276367 57 29.5 C 57 25.78664016723633 56.27317810058594 22.18542098999023 54.83972930908203 18.79637145996094 C 53.45476150512695 15.52193069458008 51.47163009643555 12.58076095581055 48.94544219970703 10.05456161499023 C 46.41923904418945 7.528369903564453 43.47806930541992 5.545238494873047 40.20362854003906 4.160270690917969 C 36.81458282470703 2.726821899414062 33.21335983276367 2 29.5 2 M 29.5 0 C 45.79240036010742 0 59 13.20759963989258 59 29.5 C 59 45.79240036010742 45.79240036010742 59 29.5 59 C 13.20759963989258 59 0 45.79240036010742 0 29.5 C 0 13.20759963989258 13.20759963989258 0 29.5 0 Z" stroke="none" fill="#fff"/>
    </g>
    <g id="Group_20646" data-name="Group 20646" transform="translate(-11841.351 1566)">
      <path id="Path_26720" data-name="Path 26720" d="M458.409,288.21l-1.077,2.567h2.154Z" transform="translate(11458.61 -928.793)" fill="#6ab654"/>
      <path id="Path_26721" data-name="Path 26721" d="M322,220.868v1.952a2.522,2.522,0,0,0,2.52,2.52H332.1L334.76,228a.592.592,0,0,0,.414.172.646.646,0,0,0,.231-.047.587.587,0,0,0,.361-.544v-2.236h.278a2.522,2.522,0,0,0,2.52-2.52v-8.341a2.522,2.522,0,0,0-2.52-2.52h-6.886v4.9a4.013,4.013,0,0,1-4.011,4.005Zm6.277.935.87-2.077v-.006l1.964-4.691a.587.587,0,0,1,1.088,0l1.964,4.691.006.006.864,2.077a.589.589,0,0,1-.313.775.637.637,0,0,1-.231.041.591.591,0,0,1-.544-.361l-.716-1.716h-3.147l-.716,1.716a.59.59,0,1,1-1.089-.456Z" transform="translate(11585.365 -857.375)" fill="#6ab654"/>
      <path id="Path_26722" data-name="Path 26722" d="M249.431,192.73h-2.473a11.982,11.982,0,0,0,1.236,1.988A12,12,0,0,0,249.431,192.73Z" transform="translate(11655.65 -839.365)" fill="#6ab654"/>
      <path id="Path_26723" data-name="Path 26723" d="M119.5,107.617h.414v2.68a.6.6,0,0,0,.361.55.637.637,0,0,0,.231.041.582.582,0,0,0,.414-.172l3.106-3.1h8.815a2.83,2.83,0,0,0,2.828-2.822v-9.66a2.835,2.835,0,0,0-2.828-2.828H119.5a2.83,2.83,0,0,0-2.822,2.828v9.655a2.826,2.826,0,0,0,2.822,2.827Zm2.526-10.128h3.555V96.312a.591.591,0,0,1,1.183,0v1.177h3.555a.591.591,0,0,1,0,1.183h-1.6a12.774,12.774,0,0,1-1.745,2.881,5.407,5.407,0,0,0,2.579,1.479.592.592,0,0,1-.124,1.171.449.449,0,0,1-.124-.018,6.533,6.533,0,0,1-3.13-1.757,6.56,6.56,0,0,1-3.13,1.757.49.49,0,0,1-.13.018.593.593,0,0,1-.124-1.171,5.4,5.4,0,0,0,2.579-1.479,12.889,12.889,0,0,1-1.745-2.881h-1.6a.591.591,0,1,1,0-1.183Z" transform="translate(11777.672 -745.307)" fill="#6ab654"/>
    </g>
  </g>
</svg>
