<svg xmlns="http://www.w3.org/2000/svg" width="59" height="59" viewBox="0 0 59 59">
  <g id="Group_20655" data-name="Group 20655" transform="translate(-38 -574)">
    <g id="Path_15457" data-name="Path 15457" transform="translate(38 574)" fill="#fff">
      <path d="M 29.5 58 C 25.65208053588867 58 21.9197998046875 57.24660110473633 18.40682029724121 55.76073837280273 C 15.01317977905273 54.32535171508789 11.96516990661621 52.27025985717773 9.34745979309082 49.65253829956055 C 6.729740142822266 47.03482818603516 4.674650192260742 43.98682022094727 3.239259958267212 40.59318161010742 C 1.753399968147278 37.0802001953125 1 33.34791946411133 1 29.5 C 1 25.65208053588867 1.753399968147278 21.9197998046875 3.239259958267212 18.40682029724121 C 4.674650192260742 15.01317977905273 6.729740142822266 11.96516990661621 9.34745979309082 9.34745979309082 C 11.96516990661621 6.729740142822266 15.01317977905273 4.674650192260742 18.40682029724121 3.239259958267212 C 21.9197998046875 1.753399968147278 25.65208053588867 1 29.5 1 C 33.34791946411133 1 37.0802001953125 1.753399968147278 40.59318161010742 3.239259958267212 C 43.98682022094727 4.674650192260742 47.03482818603516 6.729740142822266 49.65253829956055 9.34745979309082 C 52.27025985717773 11.96516990661621 54.32535171508789 15.01317977905273 55.76073837280273 18.40682029724121 C 57.24660110473633 21.9197998046875 58 25.65208053588867 58 29.5 C 58 33.34791946411133 57.24660110473633 37.0802001953125 55.76073837280273 40.59318161010742 C 54.32535171508789 43.98682022094727 52.27025985717773 47.03482818603516 49.65253829956055 49.65253829956055 C 47.03482818603516 52.27025985717773 43.98682022094727 54.32535171508789 40.59318161010742 55.76073837280273 C 37.0802001953125 57.24660110473633 33.34791946411133 58 29.5 58 Z" stroke="none"/>
      <path d="M 29.5 2 C 25.78664016723633 2 22.18542098999023 2.726821899414062 18.79637145996094 4.160270690917969 C 15.52193069458008 5.545238494873047 12.58076095581055 7.528369903564453 10.05456161499023 10.05456161499023 C 7.528369903564453 12.58076095581055 5.545238494873047 15.52193069458008 4.160270690917969 18.79637145996094 C 2.726821899414062 22.18542098999023 2 25.78664016723633 2 29.5 C 2 33.21335983276367 2.726821899414062 36.81458282470703 4.160270690917969 40.20362854003906 C 5.545238494873047 43.47806930541992 7.528369903564453 46.41923904418945 10.05456161499023 48.94544219970703 C 12.58076095581055 51.47163009643555 15.52193069458008 53.45476150512695 18.79637145996094 54.83972930908203 C 22.18542098999023 56.27317810058594 25.78664016723633 57 29.5 57 C 33.21335983276367 57 36.81458282470703 56.27317810058594 40.20362854003906 54.83972930908203 C 43.47806930541992 53.45476150512695 46.41923904418945 51.47163009643555 48.94544219970703 48.94544219970703 C 51.47163009643555 46.41923904418945 53.45476150512695 43.47806930541992 54.83972930908203 40.20362854003906 C 56.27317810058594 36.81458282470703 57 33.21335983276367 57 29.5 C 57 25.78664016723633 56.27317810058594 22.18542098999023 54.83972930908203 18.79637145996094 C 53.45476150512695 15.52193069458008 51.47163009643555 12.58076095581055 48.94544219970703 10.05456161499023 C 46.41923904418945 7.528369903564453 43.47806930541992 5.545238494873047 40.20362854003906 4.160270690917969 C 36.81458282470703 2.726821899414062 33.21335983276367 2 29.5 2 M 29.5 0 C 45.79240036010742 0 59 13.20759963989258 59 29.5 C 59 45.79240036010742 45.79240036010742 59 29.5 59 C 13.20759963989258 59 0 45.79240036010742 0 29.5 C 0 13.20759963989258 13.20759963989258 0 29.5 0 Z" stroke="none" fill="#fff"/>
    </g>
    <path id="noun-contact-2856478" d="M116.29,87.5h-27.8a.993.993,0,0,0-.993.993v19.855a.993.993,0,0,0,.993.993h27.8a.993.993,0,0,0,.993-.993V88.493a.993.993,0,0,0-.993-.993ZM96.435,91.471a2.978,2.978,0,1,1-2.106.872A2.979,2.979,0,0,1,96.435,91.471Zm4.964,12.906a.993.993,0,0,1-.993.993H92.464a.993.993,0,0,1-.993-.993v-1.986a3.971,3.971,0,0,1,3.971-3.971h1.986a3.971,3.971,0,0,1,3.971,3.971Zm8.935-2.978h-5.957a.993.993,0,1,1,0-1.986h5.957a.993.993,0,1,1,0,1.986Zm1.986-3.971h-7.942a.993.993,0,1,1,0-1.986h7.942a.993.993,0,1,1,0,1.986Z" transform="translate(-34.5 505.5)" fill="#1e445c"/>
  </g>
</svg>
