<svg xmlns="http://www.w3.org/2000/svg" xmlns:xlink="http://www.w3.org/1999/xlink" width="104.608" height="104.677" viewBox="0 0 104.608 104.677">
  <defs>
    <filter id="Union_90" x="0" y="0" width="104.608" height="104.677" filterUnits="userSpaceOnUse">
      <feOffset dy="3" input="SourceAlpha"/>
      <feGaussianBlur stdDeviation="3" result="blur"/>
      <feFlood flood-color="#6ab654" flood-opacity="0.549"/>
      <feComposite operator="in" in2="blur"/>
      <feComposite in="SourceGraphic"/>
    </filter>
  </defs>
  <g id="Group_20967" data-name="Group 20967" transform="translate(-8048.805 -2087.079)">
    <g transform="matrix(1, 0, 0, 1, 8048.81, 2087.08)" filter="url(#Union_90)">
      <path id="Union_90-2" data-name="Union 90" d="M79.834,80.555q-9.677-2.534-19.353-5.077a2.818,2.818,0,0,0-2.171.148A39.516,39.516,0,0,1,30.281,78.8C8.728,73.517-4.555,50.8,1.445,29.481a40.061,40.061,0,0,1,78.665,8.8,38.971,38.971,0,0,1-4.653,20.464,3.334,3.334,0,0,0-.284,2.705c1.776,6.34,3.5,12.7,5.293,19.26C80.122,80.626,79.977,80.594,79.834,80.555Z" transform="translate(11.61 8.55)" fill="#6ab654" stroke="#fff" stroke-width="5"/>
    </g>
    <path id="Path_27456" data-name="Path 27456" d="M1628.938-2663.865c1.827-.376,2.795.646,3.434,2.318.89,2.328,1.929,4.6,2.807,6.933a2.379,2.379,0,0,1-.048,1.805,22.847,22.847,0,0,1-2.418,3.287,1.682,1.682,0,0,0-.255,2.257,27.456,27.456,0,0,0,13.68,11.745,1.658,1.658,0,0,0,2.133-.563c.951-1.2,1.978-2.342,2.875-3.579a1.621,1.621,0,0,1,2.187-.679c2.807,1.308,5.62,2.613,8.353,4.066.442.234.688,1.216.685,1.851-.029,6.2-6.559,8.945-11.043,8.12a35.2,35.2,0,0,1-21.03-11.858c-3.146-3.674-6.256-7.41-7.824-12.091a11.394,11.394,0,0,1,2.486-12.115A4.329,4.329,0,0,1,1628.938-2663.865Z" transform="translate(6458.501 4781.021)" fill="#fff"/>
  </g>
</svg>
