<svg id="Group_9756" data-name="Group 9756" xmlns="http://www.w3.org/2000/svg" width="20.255" height="19.216" viewBox="0 0 20.255 19.216">
  <path id="Path_11018" data-name="Path 11018" d="M-710.952,214.092v-.223q0-4.894,0-9.788c0-.2-.027-.227-.226-.227h-2.157c-.2,0-.235-.031-.236-.237,0-.241,0-.483,0-.724,0-.163.043-.2.207-.2.885,0,1.77,0,2.654,0a.868.868,0,0,1,.882.848c.013.3.006.6.006.9q0,4.721,0,9.441v.209h.3c.216,0,.432,0,.649,0,.19,0,.292.085.294.267a10.251,10.251,0,0,1-.018,1.069,1.114,1.114,0,0,1-1.1,1c-.111,0-.221,0-.332,0q-8.778,0-17.555.006a1.192,1.192,0,0,1-1.245-1.247c.007-.256,0-.513,0-.769,0-.237.089-.329.325-.33.266,0,.533,0,.8,0,.09,0,.132-.026.124-.119,0-.04,0-.08,0-.121v-9.411c0-.266,0-.533,0-.8a.893.893,0,0,1,.964-.956h2.534c.227,0,.253.026.253.25s0,.452,0,.679c0,.207-.029.237-.235.237H-726.2c-.217,0-.242.025-.242.242q0,4.886,0,9.773v.223h4.859c.318,0,.416.1.417.411,0,.227.06.288.283.288h4.374c.222,0,.283-.063.283-.288,0-.314.1-.412.416-.412h4.86Z" transform="translate(728.826 -197.223)" fill="#1e445c"/>
  <path id="Path_11019" data-name="Path 11019" d="M-614.6,370.494a.469.469,0,0,1,.083.022c.71.306,1.42.61,2.129.92a1.147,1.147,0,0,1,.656.744,13.454,13.454,0,0,1,.451,2.287c.025.193.044.388.067.6h-14.005c.022-.206.031-.411.068-.611.133-.72.268-1.44.416-2.157a1.213,1.213,0,0,1,.77-.9c.689-.292,1.374-.59,2.061-.885.027-.012.055-.019.1-.033v1.545a2.648,2.648,0,0,0-.416.33.747.747,0,0,0-.025.923.78.78,0,0,0,.867.3.79.79,0,0,0,.556-.746.778.778,0,0,0-.552-.746c-.1-.031-.156-.072-.156-.18,0-.472,0-.943,0-1.415a.178.178,0,0,1,.139-.185c.351-.135.7-.272,1.049-.419a.179.179,0,0,1,.232.049q.909.925,1.824,1.843c.031.032.065.061.1.1.138-.138.275-.269.406-.4.488-.507.976-1.014,1.457-1.527a.192.192,0,0,1,.257-.05c.328.139.658.274.994.394a.245.245,0,0,1,.194.269c-.012.42-.019.84-.027,1.232a4.689,4.689,0,0,0-.573.16,1.24,1.24,0,0,0-.74.86c-.095.364-.159.735-.237,1.1-.026.124.028.191.152.208s.239.035.357.054.2-.016.21-.148a.537.537,0,0,0,.021-.163.673.673,0,0,0-.093-.165,1.6,1.6,0,0,0-.152.109c-.019.017-.02.054-.033.091l-.186-.029c.02-.122.035-.239.061-.354.048-.22.092-.443.156-.659a1.034,1.034,0,0,1,1.081-.758,1,1,0,0,1,.866.943,11.348,11.348,0,0,1-.049,1.137l-.214-.034c0-.044.019-.091,0-.119-.027-.047-.073-.108-.116-.112a.169.169,0,0,0-.131.089.448.448,0,0,0-.035.235.207.207,0,0,0,.115.145,2,2,0,0,0,.446.063.189.189,0,0,0,.148-.106,4.554,4.554,0,0,0,.073-1.468,1.247,1.247,0,0,0-.787-.959c-.041-.017-.1-.069-.1-.1C-614.646,371.371-614.621,370.935-614.6,370.494Z" transform="translate(628.344 -359.353)" fill="#1e445c"/>
  <path id="Path_11020" data-name="Path 11020" d="M-513.763,25.535c-.071.337-.139.675-.217,1.011a.165.165,0,0,0,.035.184.883.883,0,0,1-.117,1.333.594.594,0,0,0-.221.341,6.838,6.838,0,0,1-.993,2.1,2.872,2.872,0,0,1-1.768,1.219,2.568,2.568,0,0,1-2.345-.691,4.908,4.908,0,0,1-1.16-1.795c-.125-.3-.217-.615-.333-.919a.46.46,0,0,0-.147-.215.909.909,0,0,1-.119-1.422.239.239,0,0,0,.041-.186,7.872,7.872,0,0,1-.016-2.208,2.047,2.047,0,0,1,.365-1.008,1.3,1.3,0,0,1,1.135-.474c.075,0,.125,0,.167-.081a2.043,2.043,0,0,1,2.376-1.1,4.19,4.19,0,0,1,3.277,3.9Zm-3.857,5.985a2.468,2.468,0,0,0,1.966-.963,6.2,6.2,0,0,0,1.135-2.273.756.756,0,0,1,.289-.423.617.617,0,0,0-.022-1.049,2.373,2.373,0,0,1-.283-.223,3.292,3.292,0,0,1-.684-1,1.755,1.755,0,0,0-2.344-.883,1.052,1.052,0,0,1-.9-.024,2.206,2.206,0,0,0-.478-.174.868.868,0,0,0-.894.295,1.509,1.509,0,0,0-.372,1.024.848.848,0,0,1-.213.625,2.55,2.55,0,0,1-.443.354.618.618,0,0,0-.048,1.048.8.8,0,0,1,.3.446,6.163,6.163,0,0,0,1.141,2.269A2.436,2.436,0,0,0-517.62,31.52Z" transform="translate(527.693 -21.573)" fill="#1e445c"/>
  <path id="Path_11021" data-name="Path 11021" d="M-522.4,451.991a.521.521,0,0,1-.52-.53.522.522,0,0,1,.527-.508.52.52,0,0,1,.52.53A.521.521,0,0,1-522.4,451.991Z" transform="translate(529.135 -438.002)" fill="#1e445c"/>
</svg>
