<svg id="Group_14016" data-name="Group 14016" xmlns="http://www.w3.org/2000/svg" width="19.07" height="21.262" viewBox="0 0 19.07 21.262">
  <path id="Path_10979" data-name="Path 10979" d="M130.275,310.985h6.482c3.476,0,6.294.009,6.294-3.468a6.293,6.293,0,0,0-3.832-5.792c.011.021.023.041.033.063a3.048,3.048,0,0,1,.26.877,1.414,1.414,0,1,1-.665-.025,2.423,2.423,0,0,0-.663-1.253,6.239,6.239,0,0,0-.848-.137c-.025,1.148-3.82,3.964-3.82,3.964s-3.8-2.816-3.82-3.964q-.3.028-.6.084a2.34,2.34,0,0,0-.822,1.244.787.787,0,0,1,.344.406,3.3,3.3,0,0,1,1.516,1.682.459.459,0,0,1,0,.391,5.306,5.306,0,0,1,.393,1.884c0,.91-.04,1.481-.8,1.632a.389.389,0,0,1-.273.112h-.586a.393.393,0,0,1-.393-.393v-.009a.394.394,0,0,1,.393-.384h.586a.387.387,0,0,1,.164.037c.139-.029.162-.069.175-.091a2.422,2.422,0,0,0,.088-.9,4.628,4.628,0,0,0-.351-1.655.46.46,0,0,1-.229-.221c-.384-.8-.9-1.3-1.357-1.3s-1.008.539-1.391,1.374a.463.463,0,0,1-.266.243,4.527,4.527,0,0,0-.317,1.564,2.434,2.434,0,0,0,.1.905c.014.022.041.065.2.094a.393.393,0,0,1,.176-.042h.587a.393.393,0,0,1,.392.369v.024a.393.393,0,0,1-.393.393h-.587a.39.39,0,0,1-.261-.1.908.908,0,0,1-.663-.394,2.406,2.406,0,0,1-.193-1.248,5.213,5.213,0,0,1,.379-1.844.454.454,0,0,1,.014-.346,4.3,4.3,0,0,1,.884-1.3,2.346,2.346,0,0,1,.627-.441.791.791,0,0,1,.4-.45,2.428,2.428,0,0,1,.329-.888,6.3,6.3,0,0,0-3.969,5.849c0,3.476,2.818,3.468,6.293,3.468Zm4.895-3.514a.157.157,0,0,1,.165-.148h.9v-.9a.157.157,0,0,1,.147-.165h.886a.157.157,0,0,1,.148.165v.9h.9a.157.157,0,0,1,.165.148v.886a.157.157,0,0,1-.165.148h-.9v.9a.157.157,0,0,1-.148.165h-.886a.157.157,0,0,1-.147-.165v-.9h-.9a.157.157,0,0,1-.165-.148Z" transform="translate(-123.981 -289.723)" fill="#1e445c"/>
  <path id="Path_10980" data-name="Path 10980" d="M235.9,33.84c0,.045.007.09.012.136.3,3.436,2.314,6.092,4.749,6.092s4.446-2.655,4.749-6.091c0-.045.008-.09.012-.136.022-.149.036-.3.045-.453.006-.1.01-.21.01-.316a5.426,5.426,0,0,0-.055-.769,4.786,4.786,0,0,0-9.522,0,5.355,5.355,0,0,0-.055.769c0,.106,0,.211.01.316.009.153.023.3.045.453Zm1.79-2.733a6.517,6.517,0,0,0,5.941,0c1,.4.528,3.221.528,3.221a2.036,2.036,0,0,1,.668-.313c-.276,3-2.036,5.316-4.167,5.316s-3.891-2.314-4.168-5.316a2.022,2.022,0,0,1,.668.313S236.687,31.5,237.691,31.107Z" transform="translate(-231.127 -28.002)" fill="#1e445c"/>
  <path id="Path_10981" data-name="Path 10981" d="M467.679,351.028a.709.709,0,1,1-.709-.709.709.709,0,0,1,.709.709" transform="translate(-451.822 -336.721)" fill="#1e445c"/>
</svg>
