<svg xmlns="http://www.w3.org/2000/svg" width="57.011" height="58.975" viewBox="0 0 57.011 58.975">
  <g id="Group_18528" data-name="Group 18528" transform="translate(0.511 0.5)">
    <path id="Path_16194" data-name="Path 16194" d="M220.854,22.354a6.933,6.933,0,1,1,6.932-6.932A6.941,6.941,0,0,1,220.854,22.354Zm0-12.974a6.041,6.041,0,1,0,6.04,6.042A6.049,6.049,0,0,0,220.854,9.381Z" transform="translate(-200.446 -8.489)" fill="#1e445c" stroke="#1e445c" stroke-width="1"/>
    <path id="Path_16195" data-name="Path 16195" d="M320.852,265.115a3.689,3.689,0,1,1,3.69-3.689A3.69,3.69,0,0,1,320.852,265.115Zm0-6.486a2.8,2.8,0,1,0,2.8,2.8A2.8,2.8,0,0,0,320.852,258.63Z" transform="translate(-292.669 -231.128)" fill="#1e445c" stroke="#1e445c" stroke-width="1"/>
    <path id="Path_16196" data-name="Path 16196" d="M120.478,228.972a3.69,3.69,0,1,1,3.69-3.69A3.694,3.694,0,0,1,120.478,228.972Zm0-6.488a2.8,2.8,0,1,0,2.8,2.8,2.8,2.8,0,0,0-2.8-2.8Z" transform="translate(-113.686 -198.842)" fill="#1e445c" stroke="#1e445c" stroke-width="1"/>
    <path id="Path_16199" data-name="Path 16199" d="M172.675,153.713l-.446-.312c-1.908-1.335-6.968-4.884-12.378-8.374a8.1,8.1,0,0,0-7.127-.89,12.917,12.917,0,0,1-4.243.884,14.9,14.9,0,0,1-4.7-.8l-.112-.033c-5.8-1.709-8.2,1.7-9.649,4.863l-.91,2.214-.212.515a4.235,4.235,0,0,1,1.132-.407l.806-1.968c1.946-4.252,4.511-5.557,8.58-4.363l.116.035a15.818,15.818,0,0,0,4.944.833,13.8,13.8,0,0,0,4.567-.946,7.2,7.2,0,0,1,6.316.81c5.4,3.48,10.45,7.022,12.348,8.352l.446.314c.772.542,1.96,1.683,1.236,3.24a2.473,2.473,0,0,1-1.556,1.288,2.133,2.133,0,0,1-1.783-.219c-1.607-1.025-12.445-8.432-12.555-8.506l-.647-.442-.33,5.323c0,.011,0,.038,0,.051a4.268,4.268,0,0,1,.888.145c0-.047.007-.121.007-.158l.23-3.74c2.391,1.632,10.524,7.18,11.928,8.078a2.907,2.907,0,0,0,1.589.458,3.22,3.22,0,0,0,.924-.134,3.389,3.389,0,0,0,2.12-1.767c.716-1.548.148-3.173-1.53-4.349Z" transform="translate(-128.079 -129.223)" fill="#1e445c" stroke="#1e445c" stroke-width="1"/>
    <path id="Path_16200" data-name="Path 16200" d="M93.246,276.78a2.408,2.408,0,0,1-4.448,0,2.383,2.383,0,0,1,0-1.844l2.091-5.049a4.37,4.37,0,0,1-.513-1.094l-2.4,5.8a3.3,3.3,0,0,0,3.042,4.564,3.306,3.306,0,0,0,3.053-2.033l2.4-5.8a4.221,4.221,0,0,1-1.132.4Z" transform="translate(-87.722 -240.999)" fill="#1e445c" stroke="#1e445c" stroke-width="1"/>
    <path id="Path_16201" data-name="Path 16201" d="M216.147,332.57c-.089,1.853-.131,2.833-.131,2.926v16.546a2.953,2.953,0,1,1-5.906,0V336.9h-3.219v15.141a2.955,2.955,0,1,1-5.909,0v-4.836a4.406,4.406,0,0,1-.891-.406v5.241a3.846,3.846,0,1,0,7.693,0V337.793h1.437v14.248a3.844,3.844,0,1,0,7.689,0V335.5c0-.114.056-1.355.134-2.989a4.591,4.591,0,0,1-.768.078c-.042,0-.084-.015-.127-.015Z" transform="translate(-188.094 -297.914)" fill="#1e445c" stroke="#1e445c" stroke-width="1"/>
    <path id="Path_16202" data-name="Path 16202" d="M398.74,350.041A12.041,12.041,0,1,1,410.781,338,12.056,12.056,0,0,1,398.74,350.041Zm0-23.19A11.148,11.148,0,1,0,409.89,338a11.162,11.162,0,0,0-11.149-11.147Z" transform="translate(-354.781 -292.066)" fill="#1e445c" stroke="#1e445c" stroke-width="1"/>
    <path id="Path_16203" data-name="Path 16203" d="M440.683,389.392a1.093,1.093,0,0,1-.846-.435l-4.72-5.85.694-.56,4.719,5.85a.306.306,0,0,0,.156.1.221.221,0,0,0,.145-.121l6.95-11.254.757.467-6.946,11.256a1.091,1.091,0,0,1-.846.542h-.064Z" transform="translate(-398.029 -337.77)" fill="#1e445c" stroke="#1e445c" stroke-width="1"/>
  </g>
</svg>
