<svg xmlns="http://www.w3.org/2000/svg" width="48.694" height="52.643" viewBox="0 0 48.694 52.643">
  <g id="Group_18588" data-name="Group 18588" transform="translate(-985 -924.985)">
    <path id="Path_16172" data-name="Path 16172" d="M117.588,27.629a182.661,182.661,0,0,0-44.808,0,2.361,2.361,0,0,0-1.905,2.482V67.441a2.384,2.384,0,0,0,2.134,2.574h44.426a2.378,2.378,0,0,0,2.134-2.574V30.112a2.488,2.488,0,0,0-1.981-2.482Zm-22.4-.276a1.311,1.311,0,0,1,1.143,1.379,1.251,1.251,0,0,1-1.143,1.379,1.4,1.4,0,0,1,0-2.758Zm21.337,38.984H73.847V31.4h42.674Z" transform="translate(914.125 898.735)" fill="#1e445c"/>
    <path id="Path_16173" data-name="Path 16173" d="M116.552,471.625a185.423,185.423,0,0,1-44.419,0A2.569,2.569,0,0,1,70,469a2.518,2.518,0,0,1,2.362-2.628h43.886A2.518,2.518,0,0,1,118.61,469a2.446,2.446,0,0,1-2.057,2.628Z" transform="translate(915 504.668)" fill="#1e445c"/>
  </g>
</svg>
