<svg id="Group_14015" data-name="Group 14015" xmlns="http://www.w3.org/2000/svg" width="20.992" height="24.363" viewBox="0 0 20.992 24.363">
  <path id="Path_11038" data-name="Path 11038" d="M293.821,11.288a2.769,2.769,0,1,1-2.769-2.769,2.769,2.769,0,0,1,2.769,2.769" transform="translate(-280.555 -8.519)" fill="#1e445c"/>
  <path id="Path_11039" data-name="Path 11039" d="M183.868,157.032a1.384,1.384,0,1,1-1.384-1.384,1.384,1.384,0,0,1,1.384,1.384" transform="translate(-178.182 -149.046)" fill="#1e445c"/>
  <path id="Path_11040" data-name="Path 11040" d="M395.888,263.026a1.384,1.384,0,1,1-1.384-1.384,1.384,1.384,0,0,1,1.384,1.384" transform="translate(-380.689 -250.285)" fill="#1e445c"/>
  <path id="Path_11041" data-name="Path 11041" d="M119.47,164.312a1.888,1.888,0,0,1,.314-1.042l-1.585.18a1.218,1.218,0,0,0,.274,2.421l1.6-.181a1.891,1.891,0,0,1-.6-1.377Z" transform="translate(-117.069 -156.326)" fill="#1e445c"/>
  <path id="Path_11042" data-name="Path 11042" d="M255.476,150.984l-6.592-.746c-1.014-.119-1.6.365-2.775.365s-1.761-.485-2.775-.365l-2.105.239a1.89,1.89,0,0,1,.267,2.421l.872-.1.3,4.876c0,.187.04,1.844.04,2.035v1.5a1.9,1.9,0,1,1,0,3.472v2.091a1.451,1.451,0,1,0,2.9,0V160.5h.994v6.271a1.45,1.45,0,1,0,2.9,0v-7.062c0-.109.014-.7.025-1.218-.036,0-.069.011-.1.011a1.9,1.9,0,0,1,0-3.8,2.088,2.088,0,0,1,.3.03l.119-1.93,5.352.605a1.218,1.218,0,0,0,.276-2.421Z" transform="translate(-235.612 -143.861)" fill="#1e445c"/>
  <path id="Path_11043" data-name="Path 11043" d="M263.315,404.382A1.384,1.384,0,1,1,261.93,403a1.384,1.384,0,0,1,1.384,1.384" transform="translate(-254.063 -385.298)" fill="#1e445c"/>
  <path id="Path_11044" data-name="Path 11044" d="M161.609,65.044a9.063,9.063,0,0,1,2.462-1.757,4.055,4.055,0,0,1-.211-1.236c0-.131.027-.256.039-.384a10.575,10.575,0,0,0-4.513,3.63Z" transform="translate(-157.443 -59.283)" fill="#1e445c"/>
  <path id="Path_11045" data-name="Path 11045" d="M438.643,65.044l2.222.254a10.563,10.563,0,0,0-4.512-3.63c.012.128.039.253.039.384a4.011,4.011,0,0,1-.212,1.236,9.109,9.109,0,0,1,2.464,1.757Z" transform="translate(-421.815 -59.283)" fill="#1e445c"/>
  <path id="Path_11046" data-name="Path 11046" d="M121.987,252.577A8.936,8.936,0,0,1,117.6,244.9a8.526,8.526,0,0,1,.15-1.517l-1.584.181a9.642,9.642,0,0,0-.1,1.336,10.5,10.5,0,0,0,5.926,9.433v-1.758Z" transform="translate(-116.061 -232.847)" fill="#1e445c"/>
  <path id="Path_11047" data-name="Path 11047" d="M457.653,243.562l-1.584-.181a8.667,8.667,0,0,1,.148,1.517,8.941,8.941,0,0,1-4.387,7.681v1.752a10.494,10.494,0,0,0,5.926-9.433,9.64,9.64,0,0,0-.1-1.336Z" transform="translate(-436.765 -232.843)" fill="#1e445c"/>
</svg>
