<svg xmlns="http://www.w3.org/2000/svg" width="56.614" height="56.608" viewBox="0 0 56.614 56.608">
  <g id="Group_18587" data-name="Group 18587" transform="translate(-750.75 -929.405)">
    <path id="Path_16304" data-name="Path 16304" d="M129.185,421.4c-.444-.091-.889-.173-1.33-.275a11.383,11.383,0,0,1-4.147-1.9A65.813,65.813,0,0,1,108.676,404.2a11.237,11.237,0,0,1-2.078-5.114,2.854,2.854,0,0,0-.1-.365v-2.411c.142-.617.263-1.241.431-1.851a10.82,10.82,0,0,1,2.7-4.693,3.812,3.812,0,0,1,5.649-.093q2.209,2.166,4.374,4.376a3.794,3.794,0,0,1,.138,5.375,1.451,1.451,0,0,0,.071,2.264q3.169,3.182,6.351,6.35a1.452,1.452,0,0,0,2.265.078,3.807,3.807,0,0,1,5.415.17q2.163,2.135,4.3,4.3a3.835,3.835,0,0,1-.133,5.768A11.086,11.086,0,0,1,131.9,421.3a1.734,1.734,0,0,0-.3.1Zm1.373-1.742a9.3,9.3,0,0,0,6.34-2.629,2.083,2.083,0,0,0,.044-3.226q-2.1-2.121-4.222-4.222a2.094,2.094,0,0,0-3.154-.1,3.139,3.139,0,0,1-4.482-.112q-3.289-3.256-6.546-6.546a3.14,3.14,0,0,1-.132-4.482,2.1,2.1,0,0,0-.114-3.194q-2.047-2.058-4.105-4.106a2.125,2.125,0,0,0-3.419.062,9.444,9.444,0,0,0-.741,11.952,63.513,63.513,0,0,0,14.8,14.808A9.579,9.579,0,0,0,130.558,419.659Z" transform="translate(644.5 564.362)" fill="#1e445c" stroke="#1e445c" stroke-width="0.5"/>
    <path id="Path_16305" data-name="Path 16305" d="M193.158,271.816a6.062,6.062,0,0,0,3.782-2.487,6.583,6.583,0,0,0,1.1-4.386h.617c2.411,0,4.822,0,7.233,0a6.128,6.128,0,0,0,4.3-1.721H201.6v-1.784h.57c2.922,0,5.845-.013,8.767.014.454,0,.668-.144.772-.549.1-.385.207-.767.328-1.214h-3.434v-1.729h3.475v-.638q0-9.616,0-19.232a6.144,6.144,0,0,0-6.474-6.458q-15.452,0-30.9,0a6.149,6.149,0,0,0-6.457,6.475q0,6.52,0,13.041v.619h-1.753V251.2q0-6.63,0-13.26a7.878,7.878,0,0,1,8.029-8.058q15.643-.009,31.287,0a7.873,7.873,0,0,1,8.023,8.008q.012,10.411,0,20.821a7.881,7.881,0,0,1-7.991,7.989c-2.007.007-4.015,0-6.064,0a8,8,0,0,1-3.7,5.819,9.185,9.185,0,0,1-5.877,1.16q0-.839,0-1.673c1.526-.421,1.91-1.408,1.072-2.752-.435-.7-.9-1.378-1.294-2.1a.839.839,0,0,0-.87-.467c-4.694.014-9.388.009-14.082.009h-.615v-1.753h.577q7.561,0,15.123-.009a.813.813,0,0,1,.827.447c.473.822.972,1.632,1.506,2.415C193.265,269,193.842,270.241,193.158,271.816Z" transform="translate(593.275 699.779)" fill="#1e445c" stroke="#1e445c" stroke-width="0.5"/>
    <path id="Path_16306" data-name="Path 16306" d="M257.047,273.95h7.883v10.488h-7.857v7.883H246.566v-7.857h-7.883V273.956h7.857v-7.883h10.507Zm-1.723,8.73h7.841v-7.02H255.29v-7.821h-7.02v7.875h-7.821v7.02h7.875v7.821h7Z" transform="translate(531.631 668.868)" fill="#1e445c"/>
  </g>
</svg>
