<svg id="Group_14036" data-name="Group 14036" xmlns="http://www.w3.org/2000/svg" width="26.671" height="20.354" viewBox="0 0 26.671 20.354">
  <path id="Path_16102" data-name="Path 16102" d="M11.073,8.681a2.691,2.691,0,0,0,.594-3.493A2.74,2.74,0,0,0,8.314,4.07L6.358.787a1.6,1.6,0,0,0-2.2-.559,1.491,1.491,0,0,0-.734.978A1.667,1.667,0,0,0,3.6,2.428l-.349.733A21.063,21.063,0,0,1,0,8.436L3.249,14.06a20.121,20.121,0,0,1,6.008-.454h.978a1.61,1.61,0,0,0,1.4.8,1.86,1.86,0,0,0,.838-.21,1.491,1.491,0,0,0,.733-.978A1.667,1.667,0,0,0,13.029,12Z" transform="translate(14.968 0) rotate(30)" fill="#1e445c"/>
  <path id="Path_16103" data-name="Path 16103" d="M7.618,5.624l.314-.175-.1-.21L4.858.1,4.788,0,1.714,1.851a1.4,1.4,0,0,0-.629.838,1.874,1.874,0,0,0,.035.769l-.629.384a1.017,1.017,0,0,0-.349,1.4L1.225,7.056A1.092,1.092,0,0,0,2.1,7.51a.985.985,0,0,0,.524-.14l.629-.384a1.3,1.3,0,0,0,.978.454,1.148,1.148,0,0,0,.594-.14l2.236,3.773a1.479,1.479,0,0,0,1.013.733,1.705,1.705,0,0,0,.419.035,1.859,1.859,0,0,0,.838-.21,1.558,1.558,0,0,0,.733-1.013A1.643,1.643,0,0,0,9.888,9.4Z" transform="translate(5.921 5.043) rotate(30)" fill="#1e445c"/>
  <path id="Path_16104" data-name="Path 16104" d="M.266,3.535h.07a.34.34,0,0,0,.349-.28L1.419.426A.359.359,0,0,0,1.174.007.359.359,0,0,0,.755.251L.022,3.081a.331.331,0,0,0,.245.454Z" transform="translate(24.864 4.961) rotate(30)" fill="#1e445c"/>
  <path id="Path_16105" data-name="Path 16105" d="M.05,1.85a.366.366,0,0,0,.314.175A.315.315,0,0,0,.539,1.99L2.775.663a.344.344,0,0,0,.1-.489.387.387,0,0,0-.489-.14L.155,1.361a.376.376,0,0,0-.1.489Z" transform="translate(24.125 8.698) rotate(30)" fill="#1e445c"/>
  <path id="Path_16106" data-name="Path 16106" d="M3.255.705.426.007A.359.359,0,0,0,.007.251.359.359,0,0,0,.251.67l2.829.7h.07A.34.34,0,0,0,3.5,1.089.28.28,0,0,0,3.255.705Z" transform="translate(23.485 12.271) rotate(30)" fill="#1e445c"/>
</svg>
