<svg id="heart-checkup" xmlns="http://www.w3.org/2000/svg" width="54.761" height="57.696" viewBox="0 0 54.761 57.696">
  <path id="Path_10124" data-name="Path 10124" d="M11.133-511.726a2.616,2.616,0,0,0-.7.474,2.644,2.644,0,0,0-.6,1.4c0,.248-.158.361-1.241.9a3.791,3.791,0,0,0-1.366.891c-.09.192.1,2,.8,7.64l.925,7.392-.3.452c-.293.417-.3.5-.237,1.354a9.372,9.372,0,0,0,4.379,7.3,10.555,10.555,0,0,0,3.408,1.332c.655.113.745.158.745.372a10.79,10.79,0,0,1-.835,2.855c-.846,1.772-1.93,2.889-4.977,5.1-1.208.88-2.494,1.884-2.867,2.212a8.17,8.17,0,0,0-1.84,2.675,9.3,9.3,0,0,0-.214,3.781c.734,5.9,3.284,9.389,7.855,10.7,2.122.609,2.867.666,7.922.655,5.236-.022,7.076-.135,8.588-.542,3.848-1.027,6.534-3.69,8.2-8.137a31.1,31.1,0,0,0,1.467-6.59c.124-1.32.1-1.287.824-1.512a4.293,4.293,0,0,0,3.058-4.83,4.336,4.336,0,0,0-7.178-2.539,4.387,4.387,0,0,0-.485,5.925,4.3,4.3,0,0,0,2.009,1.41c.564.147.564.136.293,2.246a21.939,21.939,0,0,1-1.061,4.729c-1.524,4.582-4.153,7.155-8.238,8.058a83.328,83.328,0,0,1-13.148.169c-3.792-.621-6.342-2.483-7.561-5.5a16.693,16.693,0,0,1-1.162-6.2c.09-2.009.88-3.036,4.187-5.395,2.934-2.088,4.029-3.137,5.124-4.9a11.872,11.872,0,0,0,1.4-3.815l.124-.812.587-.068a9.062,9.062,0,0,0,2.946-.914,9.345,9.345,0,0,0,5.2-7.73c.068-.9.056-.982-.226-1.388l-.293-.429.925-7.437c.688-5.473.9-7.5.813-7.651a7.157,7.157,0,0,0-1.377-.847c-1.14-.587-1.264-.677-1.264-.959a2.509,2.509,0,0,0-.767-1.512,2.2,2.2,0,0,0-3.307.553,2.329,2.329,0,0,0,0,2.212,2.178,2.178,0,0,0,3.1.7l.418-.282.892.451.9.452-.056.429c-.045.226-.44,3.385-.892,7.019l-.824,6.6-.406.406a1.325,1.325,0,0,0-.463.959,7.765,7.765,0,0,1-.779,3.013,6.451,6.451,0,0,1-4.435,3.419,6.511,6.511,0,0,1-7.787-5.7c-.09-1.027-.226-1.422-.621-1.749l-.327-.271-.88-7.076-.88-7.076.88-.44.88-.44.451.293a2.16,2.16,0,0,0,3.171-.914A2.182,2.182,0,0,0,11.133-511.726Z" transform="translate(-6.125 511.933)" fill="#1e445c"/>
  <path id="Path_10125" data-name="Path 10125" d="M144.488-364.248a14.028,14.028,0,0,0-8.855,3.936,9.7,9.7,0,0,0-2.038,2.859c-.149.437-.267.427-.416-.032a9.813,9.813,0,0,0-2.07-2.881,13.636,13.636,0,0,0-5.419-3.2,15.178,15.178,0,0,0-3.136-.661c-.011.011-.064.395-.117.843-.085.725-.075.875.107,1.216a4.518,4.518,0,0,1,.139,2.7,9.117,9.117,0,0,1-.981,3.03,8.393,8.393,0,0,1-2.016,2.688,10.18,10.18,0,0,1-4.918,2.721c-.416.1-.437.128-.565.682a12.626,12.626,0,0,1-1.035,2.71l-.267.459.235.715a26.073,26.073,0,0,0,2.187,4.6,31.5,31.5,0,0,0,5.387,6.678,41.842,41.842,0,0,0,4.694,4l1.43,1.056.512-.5a12.87,12.87,0,0,0,3.264-6.582c.384-1.814.437-1.589-.448-2.048a7.159,7.159,0,0,1-3.425-4.363,8.57,8.57,0,0,1-.011-3.3,7.051,7.051,0,0,1,5.206-5.067,8.972,8.972,0,0,1,2.923,0,6.993,6.993,0,0,1,4.737,3.787,7.029,7.029,0,0,1,.085,5.665,7.231,7.231,0,0,1-4.225,3.787,1.935,1.935,0,0,0-.459.16c0,.011-.117.619-.267,1.344a19,19,0,0,1-3.766,8.758,2.907,2.907,0,0,0-.448.608,19.573,19.573,0,0,0,2.891,1.6,44.606,44.606,0,0,0,4.769-2.678,46.113,46.113,0,0,0,11.255-9.858,25.047,25.047,0,0,0,5.1-10.7,23.986,23.986,0,0,0,.16-6.3c-.683-4.619-3.19-7.51-7.158-8.268A10.442,10.442,0,0,0,144.488-364.248Z" transform="translate(-100.064 382.534)" fill="#1e445c"/>
</svg>
