<svg xmlns="http://www.w3.org/2000/svg" xmlns:xlink="http://www.w3.org/1999/xlink" width="201" height="42" viewBox="0 0 201 42">
  <defs>
    <clipPath id="clip-After_Login">
      <rect width="201" height="42"/>
    </clipPath>
  </defs>
  <g id="After_Login" data-name="After Login" clip-path="url(#clip-After_Login)">
    <g id="Logo2_New_Web" data-name="Logo2 New Web" transform="translate(0 1)">
      <g id="Group_20903" data-name="Group 20903" transform="translate(0 3.877)">
        <g id="Group_20901" data-name="Group 20901" transform="translate(0.398)">
          <path id="Path_27500" data-name="Path 27500" d="M430.418,814.08l1.255,1.052,1.1-1.24-1.318-1.13-.973,1.13-1.256-1.083-1.1,1.271,1.318,1.1Z" transform="translate(-426.448 -812.763)" fill="#fff"/>
          <path id="Path_27501" data-name="Path 27501" d="M440.423,836l-1.255-1.083-1.1,1.271,1.318,1.1.973-1.1,1.255,1.051,1.1-1.24-1.318-1.13Z" transform="translate(-430.694 -822.202)" fill="#fff"/>
          <path id="Path_27502" data-name="Path 27502" d="M468.241,813.044q.046,3.986.047,6.23,0,1.554-.063,2.542a7.741,7.741,0,0,1-1.695.173h-.58a7.307,7.307,0,0,1-1.3-.125,9.353,9.353,0,0,0,.078-1.162,3.74,3.74,0,0,0-.98-2.691,3.425,3.425,0,0,0-2.6-1.028,5.617,5.617,0,0,0-3.265,1.044,9.932,9.932,0,0,0-2.825,3.413l-.235-.094a7.984,7.984,0,0,0,.063-1.1v-1.883l-1.883.141v2.2a1.334,1.334,0,0,1-.313.965,2,2,0,0,1-1.365.322h-.6a3.374,3.374,0,0,1-1.483-.274,7.885,7.885,0,0,1-1.593-1.232q-1.35-1.24-1.679-1.522a5.448,5.448,0,0,0-3.107-1.663,2.23,2.23,0,0,0-1.507.541,4.265,4.265,0,0,0-1.083,1.75l1.4.534a1.95,1.95,0,0,1,.5-.636,1.012,1.012,0,0,1,.6-.165q.848,0,3.217,2.26a32.964,32.964,0,0,1-5.837.408h-.691a6.826,6.826,0,0,1-2.04-.267,7.316,7.316,0,0,0,.094-1.224v-2.134l-1.883.141v2.2a1.15,1.15,0,0,1-.416.958,2.944,2.944,0,0,1-1.687.329h-.423a2.033,2.033,0,0,1-1.216-.267,1.248,1.248,0,0,1-.337-1.02v-4.6a8.914,8.914,0,0,0-3.139.534,5.422,5.422,0,0,0-2.322,1.609,3.752,3.752,0,0,0-.895,2.471,2,2,0,0,0,.934,1.805,4.7,4.7,0,0,0,2.55.6,12.157,12.157,0,0,0,1.444-.094,2.339,2.339,0,0,0,2.354,1.224h1.255a4.205,4.205,0,0,0,2.7-.722,4.5,4.5,0,0,0,2.7.722h.643a30.2,30.2,0,0,0,7.956-1.02,4.126,4.126,0,0,0,2.9,1.02h.706a3.571,3.571,0,0,0,2.683-.847,10.329,10.329,0,0,0,4.787.91,13.981,13.981,0,0,0,4.77-.675,4.636,4.636,0,0,0,2.432.612h.486a8.336,8.336,0,0,0,1.868-.22,6.076,6.076,0,0,0,1.506-.517,7.634,7.634,0,0,0,.322-1.781q.07-1,.071-2.786,0-1.946-.016-6.073Zm-38.462,7.878v.188a6.323,6.323,0,0,1-.723.031,3.942,3.942,0,0,1-1.632-.267q-.566-.266-.565-.674a1.594,1.594,0,0,1,.808-1.177,4.5,4.5,0,0,1,2.111-.769Zm29.454,1.083a17.09,17.09,0,0,1-2.37-.141,8.687,8.687,0,0,1,1.97-2.111,3.394,3.394,0,0,1,1.969-.636,1.952,1.952,0,0,1,1.538.636,2.766,2.766,0,0,1,.58,1.859A14.272,14.272,0,0,1,459.233,822.005Z" transform="translate(-425.196 -812.809)" fill="#fff"/>
          <path id="Path_27503" data-name="Path 27503" d="M507.31,824.249H509.3V812.872l-1.993.173Z" transform="translate(-460.264 -812.809)" fill="#fff"/>
          <path id="Path_27504" data-name="Path 27504" d="M541.323,822.757a16.324,16.324,0,0,1,.455,3.029,3.363,3.363,0,0,1-1.318.251q-1.225,0-1.224-1.145v-1.82l-1.789.125v1.491a1.119,1.119,0,0,1-.455.989,1.975,1.975,0,0,1-1.146.313,2.674,2.674,0,0,1-1.318-.313,7.256,7.256,0,0,0,.141-1.1l.078-1.287-1.773.142-.079,1.114a1.83,1.83,0,0,1-.416,1.177,1.414,1.414,0,0,1-1,.313h-.659a17.36,17.36,0,0,1-4.457-.612l-.408,1.978a17.208,17.208,0,0,0,2.683.69q-.675,1.475-3.264,1.475-2.9,0-2.9-2.228a7.566,7.566,0,0,1,.612-2.652l-1.569-.628a8.715,8.715,0,0,0-1.036,3.876,3.478,3.478,0,0,0,1.153,2.793,4.96,4.96,0,0,0,3.319.989,6.386,6.386,0,0,0,3.648-.942,3.794,3.794,0,0,0,1.687-2.5c.126.01.314.016.565.016h.376a3.4,3.4,0,0,0,2.071-.612,4.2,4.2,0,0,0,2.464.691,3.1,3.1,0,0,0,2.5-.879,2.67,2.67,0,0,0,2.134.816,5.636,5.636,0,0,0,2.794-.769,8.606,8.606,0,0,0,.329-2.621,11.412,11.412,0,0,0-.329-2.574Z" transform="translate(-465.89 -816.857)" fill="#fff"/>
          <path id="Path_27505" data-name="Path 27505" d="M583.183,813.044q.047,3.986.047,6.23,0,1.554-.063,2.542a7.741,7.741,0,0,1-1.7.173h-.125l-.009,0v0h-.345a1.52,1.52,0,0,1-1.059-.283,2.523,2.523,0,0,1-.494-1.192q-.737-3.06-2.9-3.06a2.775,2.775,0,0,0-1.891.61,6.019,6.019,0,0,0-1.308,1.794l-.046.09-.043.084c-.012.024-.022.044-.033.063-.186.363-.321.625-.405.788a3.909,3.909,0,0,1-.361.557,1.194,1.194,0,0,1-1.066.549h-1.177a5.978,5.978,0,0,0-1.012-3.531,2.95,2.95,0,0,0-2.456-1.287,2.787,2.787,0,0,0-2.267,1.13,4.287,4.287,0,0,0-.9,2.762,3.222,3.222,0,0,0,.682,2.173,3.01,3.01,0,0,0,2.378.792,14.6,14.6,0,0,0,1.632-.078,2.375,2.375,0,0,1-1.052,1.129,4.16,4.16,0,0,1-2.2.5,6.917,6.917,0,0,1-1.255-.109l-.188,1.867a6.9,6.9,0,0,0,1.726.235q3.75,0,4.661-3.326h1.286a2.685,2.685,0,0,0,1.912-.737,6.1,6.1,0,0,0,3.164.753,5.086,5.086,0,0,0,2.543-.612,3.016,3.016,0,0,0,2.024.6h.455v0l.009,0h.094a8.332,8.332,0,0,0,1.867-.22,6.079,6.079,0,0,0,1.507-.517,7.654,7.654,0,0,0,.321-1.781q.071-1,.07-2.786,0-1.946-.016-6.073ZM567.3,821.989a2.838,2.838,0,0,1-1.561-.322,1.066,1.066,0,0,1-.463-.934,1.757,1.757,0,0,1,.345-1.067,1.17,1.17,0,0,1,1-.47,1.434,1.434,0,0,1,1.278.879,4.364,4.364,0,0,1,.526,1.914Zm9.239.2a6.189,6.189,0,0,1-2.248-.388l.144-.281a6.925,6.925,0,0,1,1.028-1.634,1.325,1.325,0,0,1,.965-.395.988.988,0,0,1,.918.549,8.333,8.333,0,0,1,.636,1.914A4.093,4.093,0,0,1,576.541,822.193Z" transform="translate(-484.289 -812.809)" fill="#fff"/>
          <path id="Path_27506" data-name="Path 27506" d="M604.788,824.249h1.993V812.872l-1.993.173Z" transform="translate(-501.893 -812.809)" fill="#fff"/>
          <path id="Path_27507" data-name="Path 27507" d="M623.047,814.08l1.255,1.052,1.1-1.24-1.318-1.13-.973,1.13-1.256-1.083-1.1,1.271,1.318,1.1Z" transform="translate(-508.712 -812.763)" fill="#fff"/>
          <path id="Path_27508" data-name="Path 27508" d="M630.332,824.054a1.435,1.435,0,0,1-1.012-.5,1.737,1.737,0,0,1-.494-1.271,1.2,1.2,0,0,1,.439-.965,1.675,1.675,0,0,1,1.114-.369,6.244,6.244,0,0,1,1.758.33l.518-1.726a7.02,7.02,0,0,0-2.7-.6,3,3,0,0,0-2.2.847,3.123,3.123,0,0,0-.855,2.322,3.26,3.26,0,0,0,.863,2.229q-.832.047-1.475.047h-.549a2.032,2.032,0,0,1-1.216-.266,1.248,1.248,0,0,1-.337-1.02v-4.6a8.911,8.911,0,0,0-3.139.533,5.421,5.421,0,0,0-2.322,1.609,3.753,3.753,0,0,0-.895,2.471,2,2,0,0,0,.934,1.805,4.7,4.7,0,0,0,2.55.6,12.123,12.123,0,0,0,1.443-.094,2.341,2.341,0,0,0,2.354,1.224h1a21.21,21.21,0,0,0,3.742-.306,24.494,24.494,0,0,0,3.79-1.044l-.456-1.93A15.006,15.006,0,0,1,630.332,824.054Zm-7.925-.722v.189a6.286,6.286,0,0,1-.722.032,3.947,3.947,0,0,1-1.632-.267q-.565-.266-.565-.674a1.594,1.594,0,0,1,.808-1.177,4.5,4.5,0,0,1,2.111-.769Z" transform="translate(-507.461 -815.219)" fill="#fff"/>
          <path id="Path_27509" data-name="Path 27509" d="M684.875,835.523l1.444,1.193,1.193-1.35-1.444-1.24Z" transform="translate(-536.095 -821.886)" fill="#fff"/>
          <path id="Path_27510" data-name="Path 27510" d="M684.216,821.711a2.633,2.633,0,0,0-2.166-1.051,2.791,2.791,0,0,0-1.906.612,6.1,6.1,0,0,0-1.311,1.789.688.688,0,0,1-.039.094l-.039.079-.046.094a7.477,7.477,0,0,1-.855,1.428,1.2,1.2,0,0,1-.965.439h-.5a3.373,3.373,0,0,1-1.483-.274,7.9,7.9,0,0,1-1.593-1.231q-1.35-1.24-1.679-1.523a5.447,5.447,0,0,0-3.107-1.663,2.23,2.23,0,0,0-1.507.541,4.262,4.262,0,0,0-1.082,1.75l1.4.533a1.953,1.953,0,0,1,.5-.635,1.014,1.014,0,0,1,.6-.165q.847,0,3.217,2.26a32.978,32.978,0,0,1-5.838.408h-.6l-.009,0v0h-.345a1.52,1.52,0,0,1-1.059-.283,2.528,2.528,0,0,1-.495-1.192q-.737-3.06-2.9-3.06a2.775,2.775,0,0,0-1.891.61,6.017,6.017,0,0,0-1.308,1.794l-.046.091-.043.084-.033.062c-.186.363-.321.625-.4.788a4.042,4.042,0,0,1-.361.558,1.2,1.2,0,0,1-1.067.549h-1.177a5.981,5.981,0,0,0-1.012-3.53,2.95,2.95,0,0,0-2.456-1.287,2.786,2.786,0,0,0-2.267,1.13,4.287,4.287,0,0,0-.9,2.762,3.221,3.221,0,0,0,.682,2.173,3.009,3.009,0,0,0,2.378.792,14.615,14.615,0,0,0,1.632-.078,2.375,2.375,0,0,1-1.052,1.129,4.162,4.162,0,0,1-2.2.5,6.912,6.912,0,0,1-1.255-.109l-.188,1.867a6.9,6.9,0,0,0,1.726.235q3.75,0,4.661-3.326h1.286a2.686,2.686,0,0,0,1.912-.737,6.1,6.1,0,0,0,3.164.753,5.083,5.083,0,0,0,2.543-.612,3.017,3.017,0,0,0,2.024.6h.455v0l.009,0h.22a30.2,30.2,0,0,0,7.956-1.02,4.117,4.117,0,0,0,2.9,1.02h.455a2.619,2.619,0,0,0,1.93-.769,6.414,6.414,0,0,0,3.248.784,8.04,8.04,0,0,0,2.59-.345,7.1,7.1,0,0,0,.533-2.825A4.043,4.043,0,0,0,684.216,821.711Zm-33.048,3.484a2.838,2.838,0,0,1-1.561-.321,1.066,1.066,0,0,1-.464-.934,1.759,1.759,0,0,1,.345-1.067,1.17,1.17,0,0,1,1-.47,1.434,1.434,0,0,1,1.279.879,4.365,4.365,0,0,1,.526,1.914Zm9.238.2a6.188,6.188,0,0,1-2.247-.388l.143-.281a6.945,6.945,0,0,1,1.029-1.634,1.325,1.325,0,0,1,.965-.395.989.989,0,0,1,.918.549,8.344,8.344,0,0,1,.636,1.914A4.1,4.1,0,0,1,660.406,825.4Zm22.837-.047q-.471.047-.957.047a6.826,6.826,0,0,1-2.448-.392c.01-.032.052-.12.125-.267A6.87,6.87,0,0,1,681,823.1a1.361,1.361,0,0,1,.989-.4,1.1,1.1,0,0,1,.973.525,2.4,2.4,0,0,1,.346,1.342A5.39,5.39,0,0,1,683.243,825.351Z" transform="translate(-520.105 -816.014)" fill="#fff"/>
        </g>
        <g id="Group_20902" data-name="Group 20902" transform="translate(0 17.281)">
          <path id="Path_27511" data-name="Path 27511" d="M432.629,854.521q-.437-1.516-1.016-3.22h-4.94q-.578,1.7-1.016,3.22H424.5a88.606,88.606,0,0,1,4.048-10.942h1.172a82.982,82.982,0,0,1,4.064,10.942Zm-3.486-9.785q-.985,2.2-2.142,5.58h4.283Q430.128,846.94,429.143,844.736Z" transform="translate(-424.501 -843.204)" fill="#fff"/>
          <path id="Path_27512" data-name="Path 27512" d="M445.4,842.924v9.082a2.108,2.108,0,0,0,.235,1.126.9.9,0,0,0,.812.359,3.9,3.9,0,0,0,.453-.047l.094.891a3.2,3.2,0,0,1-.7.094q-1.986,0-1.986-2.408V843Z" transform="translate(-432.96 -842.924)" fill="#fff"/>
          <path id="Path_27513" data-name="Path 27513" d="M454.051,850.084v6.581h-1.094V849.4a6.913,6.913,0,0,1,3.2-.8,2.958,2.958,0,0,1,2.236.813,5.44,5.44,0,0,1,2.8-.813,3.051,3.051,0,0,1,2.275.774,2.874,2.874,0,0,1,.758,2.1v5.19h-1.094v-5.127a2.085,2.085,0,0,0-.485-1.446,1.9,1.9,0,0,0-1.485-.54,3.931,3.931,0,0,0-2.251.688,4.137,4.137,0,0,1,.219,1.376v5.049h-1.079v-5.127a1.728,1.728,0,0,0-1.923-1.986A4.2,4.2,0,0,0,454.051,850.084Z" transform="translate(-436.653 -845.347)" fill="#fff"/>
          <path id="Path_27514" data-name="Path 27514" d="M483.36,849.725a5.27,5.27,0,0,1,0,6,3.6,3.6,0,0,1-5.229,0,5.236,5.236,0,0,1,0-6,3.6,3.6,0,0,1,5.229,0Zm-4.432.68a4.671,4.671,0,0,0,0,4.643,2.371,2.371,0,0,0,3.634.008,4.754,4.754,0,0,0,0-4.658,2.109,2.109,0,0,0-1.829-.845A2.088,2.088,0,0,0,478.928,850.4Z" transform="translate(-447 -845.347)" fill="#fff"/>
          <path id="Path_27515" data-name="Path 27515" d="M499.62,849.725a5.27,5.27,0,0,1,0,6,3.6,3.6,0,0,1-5.229,0,5.234,5.234,0,0,1,0-6,3.6,3.6,0,0,1,5.229,0Zm-4.432.68a4.675,4.675,0,0,0,0,4.643,2.372,2.372,0,0,0,3.635.008,4.753,4.753,0,0,0,0-4.658,2.11,2.11,0,0,0-1.829-.845A2.089,2.089,0,0,0,495.188,850.4Z" transform="translate(-453.944 -845.347)" fill="#fff"/>
          <path id="Path_27516" data-name="Path 27516" d="M514.364,848.99l-.156.922a6.578,6.578,0,0,0-2-.36q-1.673,0-1.673,1.251a1.242,1.242,0,0,0,.117.563.964.964,0,0,0,.406.4,4.746,4.746,0,0,0,.516.258q.226.093.679.234a6.21,6.21,0,0,1,2,.922,1.735,1.735,0,0,1,.625,1.438,1.914,1.914,0,0,1-.8,1.672,3.56,3.56,0,0,1-2.095.563,7.628,7.628,0,0,1-1.461-.148,5.72,5.72,0,0,1-1.149-.321l.187-.938a6.869,6.869,0,0,0,2.407.453,2.341,2.341,0,0,0,1.329-.328,1.066,1.066,0,0,0,.485-.938.976.976,0,0,0-.469-.868,6.79,6.79,0,0,0-1.611-.649,4.633,4.633,0,0,1-1.688-.836,1.817,1.817,0,0,1-.594-1.462,1.992,1.992,0,0,1,.711-1.65,3.136,3.136,0,0,1,2.009-.571A5.827,5.827,0,0,1,514.364,848.99Z" transform="translate(-460.749 -845.347)" fill="#fff"/>
          <path id="Path_27517" data-name="Path 27517" d="M528.149,856.118a5.918,5.918,0,0,1-3.049.735,3.352,3.352,0,0,1-2.188-.633,2.071,2.071,0,0,1-.767-1.68,2.032,2.032,0,0,1,.844-1.79,3.842,3.842,0,0,1,2.188-.6,8.746,8.746,0,0,1,1.892.219v-.906q0-1.907-2.048-1.907a5.253,5.253,0,0,0-2.11.407l-.25-.907a6.1,6.1,0,0,1,2.438-.453,3.16,3.16,0,0,1,2.283.743,2.881,2.881,0,0,1,.766,2.165Zm-2.955-.14a3.469,3.469,0,0,0,1.876-.438v-2.376a8.809,8.809,0,0,0-1.782-.219q-2.048,0-2.048,1.563a1.275,1.275,0,0,0,.508,1.094A2.4,2.4,0,0,0,525.195,855.977Z" transform="translate(-466.202 -845.347)" fill="#fff"/>
          <path id="Path_27518" data-name="Path 27518" d="M552.508,854.521v-5.143H546.6v5.143h-1.125V843.579H546.6v4.83h5.909v-4.83h1.125v10.942Z" transform="translate(-476.164 -843.204)" fill="#fff"/>
          <path id="Path_27519" data-name="Path 27519" d="M571.371,856.305a6.17,6.17,0,0,1-2.642.547,4.02,4.02,0,0,1-2.963-1.078,4.128,4.128,0,0,1-1.086-3.064,4.407,4.407,0,0,1,.977-2.97,3.289,3.289,0,0,1,2.634-1.141,2.944,2.944,0,0,1,2.344.97,3.6,3.6,0,0,1,.844,2.454,8.319,8.319,0,0,1-.047.922h-5.627a3.083,3.083,0,0,0,.852,2.212,3.009,3.009,0,0,0,2.149.742,6.047,6.047,0,0,0,2.36-.516Zm-3.079-6.769a2.2,2.2,0,0,0-1.719.711,3.209,3.209,0,0,0-.751,1.915h4.564a2.2,2.2,0,0,0,.016-.3,2.588,2.588,0,0,0-.532-1.657A1.892,1.892,0,0,0,568.291,849.537Z" transform="translate(-484.366 -845.347)" fill="#fff"/>
          <path id="Path_27520" data-name="Path 27520" d="M586.234,856.118a5.915,5.915,0,0,1-3.048.735A3.351,3.351,0,0,1,581,856.22a2.071,2.071,0,0,1-.767-1.68,2.032,2.032,0,0,1,.845-1.79,3.841,3.841,0,0,1,2.188-.6,8.745,8.745,0,0,1,1.892.219v-.906q0-1.907-2.048-1.907a5.254,5.254,0,0,0-2.11.407l-.25-.907a6.1,6.1,0,0,1,2.438-.453,3.16,3.16,0,0,1,2.283.743,2.882,2.882,0,0,1,.765,2.165Zm-2.954-.14a3.468,3.468,0,0,0,1.876-.438v-2.376a8.807,8.807,0,0,0-1.782-.219q-2.049,0-2.048,1.563a1.275,1.275,0,0,0,.508,1.094A2.4,2.4,0,0,0,583.28,855.977Z" transform="translate(-491.007 -845.347)" fill="#fff"/>
          <path id="Path_27521" data-name="Path 27521" d="M597.231,842.924v9.082a2.109,2.109,0,0,0,.234,1.126.9.9,0,0,0,.813.359,3.9,3.9,0,0,0,.453-.047l.094.891a3.2,3.2,0,0,1-.7.094q-1.985,0-1.985-2.408V843Z" transform="translate(-497.8 -842.924)" fill="#fff"/>
          <path id="Path_27522" data-name="Path 27522" d="M607.453,855.392a4.622,4.622,0,0,1-1.173.156q-2.3,0-2.3-2.5V848.4H602.8v-.922h1.188v-1.86l1.094-.078v1.938H607.2v.922h-2.126v4.643a1.712,1.712,0,0,0,.336,1.188,1.314,1.314,0,0,0,1.008.359,3.366,3.366,0,0,0,.953-.124Z" transform="translate(-500.644 -844.043)" fill="#fff"/>
          <path id="Path_27523" data-name="Path 27523" d="M615.92,854.241h-1.094V843l1.094-.078v3.83a4.85,4.85,0,0,1,2.3-.579,3.117,3.117,0,0,1,2.251.766,2.788,2.788,0,0,1,.8,2.11v5.19h-1.094V849.13a2,2,0,0,0-.524-1.477,2.086,2.086,0,0,0-1.539-.524,4.156,4.156,0,0,0-2.189.594Z" transform="translate(-505.782 -842.924)" fill="#fff"/>
          <path id="Path_27524" data-name="Path 27524" d="M646.407,853.881a7.177,7.177,0,0,1-3.08.688,5.15,5.15,0,0,1-3.994-1.524,5.81,5.81,0,0,1-1.4-4.088,6.123,6.123,0,0,1,1.36-4.1,4.73,4.73,0,0,1,3.814-1.6,6.87,6.87,0,0,1,3.017.641l-.266.954a6.79,6.79,0,0,0-2.736-.579,3.566,3.566,0,0,0-2.994,1.313,5.33,5.33,0,0,0-1.023,3.376,4.9,4.9,0,0,0,1.094,3.354,3.985,3.985,0,0,0,3.158,1.242,6.58,6.58,0,0,0,2-.3v-3.611h-2.376v-.969h3.424Z" transform="translate(-515.65 -843.064)" fill="#fff"/>
          <path id="Path_27525" data-name="Path 27525" d="M657.96,849.4a6.545,6.545,0,0,1,3.283-.8,4.976,4.976,0,0,1,.875.079l-.156.953a2.255,2.255,0,0,0-.656-.079,4.5,4.5,0,0,0-2.251.532v6.581H657.96Z" transform="translate(-524.203 -845.347)" fill="#fff"/>
          <path id="Path_27526" data-name="Path 27526" d="M673.93,849.725a5.27,5.27,0,0,1,0,6,3.6,3.6,0,0,1-5.229,0,5.236,5.236,0,0,1,0-6,3.6,3.6,0,0,1,5.229,0Zm-4.432.68a4.67,4.67,0,0,0,0,4.643,2.371,2.371,0,0,0,3.634.008,4.754,4.754,0,0,0,0-4.658,2.37,2.37,0,0,0-3.634.008Z" transform="translate(-528.386 -845.347)" fill="#fff"/>
          <path id="Path_27527" data-name="Path 27527" d="M691.083,856.2a7.333,7.333,0,0,1-3.377.8q-2.954,0-2.954-2.814v-5.252h1.094v5.236a1.658,1.658,0,0,0,1.876,1.876,4.611,4.611,0,0,0,2.251-.531v-6.581h1.11Z" transform="translate(-535.645 -845.488)" fill="#fff"/>
          <path id="Path_27528" data-name="Path 27528" d="M704.349,848.6a3.448,3.448,0,0,1,2.728,1.071,4.18,4.18,0,0,1,.946,2.869,4.861,4.861,0,0,1-.938,3.126,3.368,3.368,0,0,1-2.8,1.172,4.1,4.1,0,0,1-1.8-.39v3.11H701.4V849.333A6.3,6.3,0,0,1,704.349,848.6Zm-1.86,1.407v5.455a3.639,3.639,0,0,0,1.689.438,2.429,2.429,0,0,0,2.017-.859,3.9,3.9,0,0,0,.688-2.485,3.46,3.46,0,0,0-.641-2.165,2.288,2.288,0,0,0-1.938-.836A3.607,3.607,0,0,0,702.489,850.006Z" transform="translate(-542.752 -845.347)" fill="#fff"/>
        </g>
      </g>
      <g id="Group_18606" data-name="Group 18606" transform="translate(171.254)">
        <path id="Path_24666" data-name="Path 24666" d="M743.68,835.28a7.926,7.926,0,0,0-.511-3.3l-1.5.579a6.334,6.334,0,0,1-.112,4.8h0q-.706.617-1.468,1.237a27.809,27.809,0,0,0-4.7,4.532V836a32.137,32.137,0,0,1,13.7-11.379l-.638-1.476a32.8,32.8,0,0,0-5.042,2.737,17.909,17.909,0,0,1,1.971-6l-1.416-.766a19.552,19.552,0,0,0-2.292,8,33.989,33.989,0,0,0-6.278,6.156V827.08a88.863,88.863,0,0,1,9.763-12.146L744,813.817c-1.48,1.54-2.9,3.14-4.277,4.784-.758-2.278-1.624-4.54-2.574-6.735l-1.477.643c1.069,2.464,2.023,5.011,2.845,7.577q-2.148,2.7-4.086,5.554-1.819-2.651-3.826-5.175a79.741,79.741,0,0,1,2.845-7.577l-1.476-.642c-.953,2.2-1.816,4.457-2.574,6.735q-2.052-2.472-4.277-4.784l-1.161,1.117a88.492,88.492,0,0,1,9.819,12.221l.012-.008v5.909a33.819,33.819,0,0,0-6.4-6.32,19.542,19.542,0,0,0-2.292-8l-1.416.766a17.952,17.952,0,0,1,1.965,6.008,32.6,32.6,0,0,0-5.042-2.737l-.636,1.477A32.125,32.125,0,0,1,733.789,836.2v7.088a26.8,26.8,0,0,0-4.824-4.7q-.76-.622-1.468-1.237h0a6.322,6.322,0,0,1-.112-4.8l-1.5-.579a7.936,7.936,0,0,0-.51,3.3,9.839,9.839,0,0,1-2.127-3.587l-1.536.479c.981,3.156,3.511,5.422,6.236,7.661,2.282,1.871,4.864,3.99,5.844,6.839h0v1.6H735.4V846.34c1.057-2.681,3.527-4.712,5.717-6.507,2.729-2.238,5.255-4.5,6.236-7.661l-1.536-.479a9.817,9.817,0,0,1-2.127,3.587Z" transform="translate(-719.837 -808.503)" fill="#55b047"/>
        <path id="Path_24667" data-name="Path 24667" d="M755.367,811.646a3.591,3.591,0,0,0,2.159-4.6L757.146,806l-1.054.379a3.591,3.591,0,0,0-2.158,4.6A1.121,1.121,0,0,0,755.367,811.646Z" transform="translate(-734.253 -805.996)" fill="#55b047"/>
        <path id="Path_24668" data-name="Path 24668" d="M743.5,825.368h0a1.117,1.117,0,0,0,1.58,0l0,0h0a3.6,3.6,0,0,0,0-5.079l-.79-.79-.79.79a3.6,3.6,0,0,0,0,5.079Z" transform="translate(-729.439 -811.763)" fill="#55b047"/>
        <path id="Path_24669" data-name="Path 24669" d="M765.539,828.742a2.484,2.484,0,0,0,2.938-1.924l.16-.758-.758-.16a2.485,2.485,0,0,0-2.936,1.923h0a.768.768,0,0,0,.591.912l.008,0Z" transform="translate(-739.038 -814.474)" fill="#55b047"/>
        <path id="Path_24670" data-name="Path 24670" d="M766.485,838.158a3.588,3.588,0,0,0-4.38,2.563v0a1.12,1.12,0,0,0,.8,1.365h0a3.588,3.588,0,0,0,4.379-2.564v0l.283-1.081-1.081-.283Z" transform="translate(-737.818 -819.681)" fill="#55b047"/>
        <path id="Path_24671" data-name="Path 24671" d="M723.1,828.745a.772.772,0,0,0,.6-.913h0a2.484,2.484,0,0,0-2.936-1.923l-.758.16.16.758a2.484,2.484,0,0,0,2.936,1.923Z" transform="translate(-719.853 -814.477)" fill="#55b047"/>
        <path id="Path_24672" data-name="Path 24672" d="M724.406,842.089a1.113,1.113,0,0,0,.8-1.356l0-.009a3.588,3.588,0,0,0-4.378-2.566h0l-1.081.283.283,1.081a3.589,3.589,0,0,0,4.378,2.567h0Z" transform="translate(-719.742 -819.681)" fill="#55b047"/>
        <path id="Path_24673" data-name="Path 24673" d="M732.43,811.646h0a1.117,1.117,0,0,0,1.431-.671v0a3.593,3.593,0,0,0-2.158-4.6L730.65,806l-.379,1.053A3.593,3.593,0,0,0,732.43,811.646Z" transform="translate(-724.147 -805.996)" fill="#55b047"/>
        <path id="Path_24674" data-name="Path 24674" d="M738.351,855.533a.772.772,0,0,0,.917-.593v0a2.484,2.484,0,0,0-1.907-2.948l-.759-.164-.164.758a2.483,2.483,0,0,0,1.907,2.948h.006Z" transform="translate(-726.848 -825.568)" fill="#55b047"/>
        <path id="Path_24675" data-name="Path 24675" d="M738.351,839.084a.772.772,0,0,0,.917-.593v0a2.484,2.484,0,0,0-1.907-2.948l-.759-.164-.164.758a2.483,2.483,0,0,0,1.907,2.948h.006Z" transform="translate(-726.848 -818.543)" fill="#55b047"/>
        <path id="Path_24676" data-name="Path 24676" d="M751,851.994a2.484,2.484,0,0,0-1.907,2.948.774.774,0,0,0,.917.595,2.483,2.483,0,0,0,1.907-2.948l-.164-.758-.758.164Z" transform="translate(-732.253 -825.57)" fill="#55b047"/>
        <path id="Path_24677" data-name="Path 24677" d="M751,835.541a2.484,2.484,0,0,0-1.907,2.948.774.774,0,0,0,.917.595,2.483,2.483,0,0,0,1.907-2.948l-.164-.758-.758.164Z" transform="translate(-732.253 -818.544)" fill="#55b047"/>
      </g>
    </g>
  </g>
</svg>
