<?xml version="1.0" encoding="utf-8"?>
<!-- Generator: Adobe Illustrator 28.2.0, SVG Export Plug-In . SVG Version: 6.00 Build 0)  -->
<svg version="1.1" id="Layer_1" xmlns="http://www.w3.org/2000/svg" xmlns:xlink="http://www.w3.org/1999/xlink" x="0px" y="0px"
	 viewBox="0 0 1416.28 416.35" style="enable-background:new 0 0 1416.28 416.35;" xml:space="preserve">
<style type="text/css">
	.st0{fill:#55AE47;}
	.st1{fill:#023B5C;}
	.st2{fill:#033B5C;}
	.st3{fill:#033C5C;}
	.st4{fill:#56AE48;}
	.st5{fill:#043D5D;}
</style>
<g>
	<path class="st0" d="M1141.26,130.36c0.15-0.2,0.25-0.44,0.43-0.54c15.67-8.69,11.48-10.06,18.63,5.07
		c8.01,16.96,12.93,34.94,15.12,53.62c0.26,2.2,0.88,4.41,0.83,6.6c-0.09,3.67,1.35,6.08,4.28,8.34
		c20.33,15.66,38.48,33.57,54.57,53.57c0.69,0.85,1.48,1.62,2.26,2.39c0.12,0.12,0.39,0.09,0.63,0.13c1.28-0.66,0.83-1.9,0.84-2.91
		c0.03-15.78-0.06-31.55,0.1-47.33c0.03-3.34-1.03-5.96-2.83-8.61c-13.23-19.5-27.15-38.48-41.9-56.85
		c-15.03-18.72-30.75-36.84-47.33-54.21c-1.05-1.1-2.04-2.27-3.22-3.57c3.09-4.04,6.87-7.11,10.47-10.54
		c2.14,0.58,3.24,2.31,4.56,3.69c10.87,11.44,21.38,23.2,31.6,35.22c1.7,2,3.21,4.2,5.84,6.01c4.1-11.13,7.99-21.93,12.05-32.67
		c3.99-10.55,7.98-21.11,13.1-31.52c3.6,1.48,6.87,2.8,10.11,4.19c1.2,0.52,2.32,1.21,3.46,1.81c-0.07,2.78-1.42,4.88-2.35,7.09
		c-8.41,19.84-15.89,40.03-22.64,60.49c-0.42,1.26-0.83,2.53-1.23,3.8c-0.42,1.35-0.28,2.63,0.58,3.78c0.53,0.71,1.09,1.4,1.64,2.1
		c10.82,13.83,21.34,27.87,31.29,42.33c0.75,1.08,1.62,2.08,2.51,3.2c1.85-0.44,2.35-2,3.16-3.18
		c10.71-15.56,21.79-30.85,33.66-45.54c2.59-3.21,2.74-5.99,1.5-9.64c-6.8-19.97-13.94-39.81-22.18-59.24
		c-0.69-1.64-1.36-3.28-2.01-4.93c-1.5-3.83-1.47-3.98,1.97-5.54c2.63-1.19,5.28-2.33,7.95-3.43c2.41-1,2.91-0.88,3.97,1.72
		c4.46,10.89,8.96,21.76,13.19,32.74c3.35,8.7,6.31,17.55,9.47,26.32c0.78,2.15,1.79,2.38,3.29,0.67c4.1-4.68,8.05-9.49,12.2-14.12
		c7.41-8.27,14.92-16.46,22.41-24.67c1.05-1.15,2.14-2.26,3.27-3.33c0.92-0.87,2.01-1,2.94-0.07c3.12,3.1,6.74,5.72,9.24,9.33
		c-1.06,2.31-2.89,3.67-4.4,5.27c-31.52,33.32-60.06,69.03-86,106.84c-2.76,4.03-4.14,8.01-4.05,12.95
		c0.26,14.88,0.09,29.77,0.09,44.66c0,1.95,0,3.9,0,5.67c1.88,0.92,2.36-0.42,3-1.15c5.43-6.17,10.67-12.52,16.24-18.55
		c11.03-11.93,23.08-22.78,35.82-32.87c1.22-0.97,2.4-1.99,3.67-2.88c1.58-1.1,2.23-2.53,2.42-4.46c0.8-8.4,1.89-16.76,3.7-25.02
		c3.45-15.69,8.67-30.75,15.9-45.11c0.6-1.19,1.17-2.4,1.95-3.47c0.3-0.41,1.3-0.75,1.71-0.55c4.17,2.02,8.37,4,12.5,6.95
		c-9.12,17.16-15.11,35.19-18.39,54.12c-0.15,0.86-0.27,1.74,0.36,2.55c2.11-0.14,3.56-1.65,5.22-2.69
		c11.52-7.16,23.37-13.71,35.69-19.4c1.21-0.56,2.4-1.17,3.63-1.67c3.06-1.25,3.64-1.02,5.06,2.11c1.28,2.83,2.42,5.73,3.7,8.56
		c0.71,1.57,0.11,2.54-1.25,3.22c-6.97,3.44-14.07,6.63-20.9,10.32c-42.54,23-77.79,54.29-106.06,93.51
		c-2.72,3.77-4.12,7.51-4.06,12.25c0.23,18.44,0.09,36.88,0.1,55.32c0,1.33-0.02,2.68,0.24,3.98c0.11,0.55,0.98,0.9,1.62,0.44
		c0.53-0.38,0.97-0.91,1.39-1.42c9.73-11.94,21.11-22.2,32.89-32.05c6.65-5.56,13.29-11.12,20.03-16.57
		c2.87-2.32,4.72-5.14,5.83-8.66c3.71-11.75,4.07-23.55,0.83-35.45c-0.35-1.29-0.73-2.56-1.11-3.84c-0.39-1.32,0.22-2.13,1.36-2.61
		c1.84-0.77,3.71-1.49,5.57-2.21c7.58-2.93,7.07-3.68,9.49,5.12c1.77,6.44,2.69,13.04,2.67,19.75c0,0.79-0.24,1.96,1.01,2.03
		c0.51,0.03,1.18-0.5,1.57-0.96c5.93-6.98,10.89-14.59,14.61-22.97c0.81-1.83,1.49-3.71,2.28-5.54c0.96-2.21,1.47-2.56,3.47-2
		c3.42,0.96,6.81,2.02,10.18,3.14c1.53,0.51,1.99,1.55,1.43,3.17c-2.02,5.9-4.58,11.55-7.7,16.96
		c-7.98,13.81-18.49,25.54-30.25,36.14c-8.74,7.88-17.8,15.41-26.84,22.95c-9.39,7.83-18.66,15.78-27.14,24.61
		c-7.26,7.57-13.68,15.75-18.84,24.91c-3.11,5.53-5.34,11.16-4.64,17.71c0.31,2.85-0.02,5.76-0.13,8.65c-0.04,1-0.72,1.56-1.69,1.69
		c-0.66,0.09-1.33,0.16-1.99,0.13c-3.52-0.19-7.08,0.5-10.57-0.42c-1.92-3.29-0.9-6.88-0.93-10.32c-0.04-3.43-0.76-6.56-2.08-9.66
		c-4.22-9.92-10.25-18.66-17.23-26.79c-7.26-8.46-15.41-16-23.89-23.19c-8.13-6.9-16.43-13.61-24.56-20.5
		c-9.5-8.05-18.62-16.5-26.8-25.93c-8.8-10.15-16.18-21.19-20.96-33.8c-1.9-5.01-3.01-5.62,3.39-7.3c0.64-0.17,1.25-0.45,1.89-0.64
		c8.84-2.6,7.12-3.06,10.39,4.76c3.62,8.68,8.7,16.48,14.66,23.72c0.54,0.65,1.04,1.43,2.14,1.46c1.39-0.81,0.86-2.25,0.92-3.45
		c0.36-7.8,1.55-15.46,4.02-22.89c0.88-2.64,1.73-2.96,4.51-1.96c1.05,0.37,2.09,0.76,3.1,1.21c2.41,1.09,5.73,1.18,7.07,3.35
		c1.38,2.25-0.69,4.99-1.27,7.51c-2.61,11.31-2.1,22.45,1.4,33.52c1.12,3.53,3.01,6.3,5.86,8.64c8.26,6.75,16.46,13.57,24.6,20.46
		c10.87,9.2,21.14,19.02,30.01,30.22c0.52,0.66,0.95,1.53,2.25,1.28c1.03-0.67,0.47-1.9,0.47-2.88c0.04-19.11-0.05-38.22,0.1-57.32
		c0.03-4.19-1-7.63-3.43-11.09c-25.13-35.77-56.3-65.09-93.53-87.96c-10.61-6.51-21.55-12.41-32.93-17.46
		c-1.01-0.45-2.03-0.9-2.97-1.47c-0.82-0.5-1.14-1.31-0.73-2.27c1.49-3.47,2.99-6.93,4.5-10.39c0.67-1.53,1.87-1.78,3.28-1.22
		c1.65,0.66,3.27,1.39,4.88,2.14c12.7,5.92,24.97,12.62,36.79,20.16c1.08,0.69,2.25,2.11,3.52,1.42c1.75-0.94,0.69-2.77,0.43-4.15
		c-2.97-16.25-7.96-31.85-15.23-46.71C1142.65,134.04,1141.37,132.42,1141.26,130.36z"/>
	<path class="st1" d="M739.44,129.07c1.41,1.94,0.96,3.77,0.99,5.51c0.07,4-0.05,8,0.06,12c0.23,7.86,3.66,11.2,11.59,11.38
		c3.11,0.07,6.22-0.1,9.25-0.93c3.91-1.07,4.38-1.65,3.95-5.53c-0.71-6.4-1.46-12.79-2.92-19.08c-0.35-1.51-0.55-3.06-0.81-4.59
		c-0.22-1.29,0.28-2.13,1.57-2.44c3.24-0.77,6.47-1.58,9.72-2.28c6.73-1.46,6.67-1.43,7.97,5.13c2.68,13.47,2.63,26.9-0.09,40.37
		c-0.63,3.12-2.06,5.07-4.96,6.44c-9.05,4.28-18.48,6.19-28.46,5.33c-5.45-0.47-10.39-2.25-14.59-5.85c-1.1-0.94-2.08-1.46-3.44-0.3
		c-8.28,7.03-18.19,7.6-28.33,6.79c-6.03-0.48-11.81-2.08-17.05-5.25c-1.23-0.75-2.37-1.03-3.7-0.19
		c-6.46,4.09-13.63,5.1-21.09,4.82c-0.89-0.03-1.78-0.02-2.67,0c-3.96,0.06-4.07,0.03-5.14,3.59
		c-3.44,11.37-11.06,19.03-21.43,24.22c-4.59,2.3-9.48,3.81-14.54,4.64c-11.06,1.81-22.11,2.05-33.08-0.61
		c-5.9-1.43-11.3-3.99-15.89-8.05c-7.46-6.6-10.55-15.18-11.03-24.86c-0.46-9.23,1.35-18.14,4.33-26.8c1.37-3.98,3.2-7.8,4.82-11.69
		c0.59-1.43,1.54-2.13,3.11-1.49c3.7,1.5,7.42,2.98,11.1,4.53c1.97,0.83,2.22,1.4,1.42,3.63c-1.73,4.81-3.14,9.7-4.17,14.72
		c-0.77,3.75-0.99,7.5-0.72,11.27c0.54,7.75,4.28,13.39,11.53,16.52c0.81,0.35,1.63,0.72,2.48,0.94
		c11.48,2.98,22.85,2.73,34.07-1.22c3.39-1.19,6.4-3.12,8.8-5.84c1.27-1.43,3.37-2.88,2.57-4.96c-0.7-1.82-3.14-1.1-4.78-1.56
		c-5.77-1.61-11.54-3.22-17.34-4.7c-3.06-0.78-2.97-2.09-2.52-4.38c0.9-4.57,1.84-9.14,2.82-13.7c0.44-2.02,1.14-2.41,3.41-1.85
		c7.12,1.77,14.31,3.07,21.58,4.07c9.07,1.24,18.17,1.32,27.27,1.09c7.21-0.19,10.25-2.99,12.05-10.07
		c0.78-3.06,0.66-6.17,0.94-9.26c0.14-1.55,0.25-3.1,0.5-4.63c0.15-0.94,0.86-1.56,1.83-1.65c4.42-0.4,8.85-0.81,13.28-1.12
		c1.71-0.12,2.5,0.68,2.36,2.35c-0.5,6.19-1.05,12.38-1.62,18.57c-0.19,2.1,0.12,2.84,2.03,3.58c5.31,2.06,10.77,2.68,16.33,1.22
		c6.78-1.78,9.68-5.34,10.01-12.31c0.18-3.77,0.01-7.55,0.09-11.33c0.06-2.9,0.46-3.29,3.56-3.49
		C730.85,129.48,735.27,129.29,739.44,129.07z"/>
	<path class="st1" d="M160.72,321.54c0-10.43,0.05-20.87-0.04-31.3c-0.02-2.29,0.68-3.7,2.85-4.6c11.3-4.69,23.03-6.46,35.19-5.22
		c4.23,0.43,8.3,1.76,11.78,4.24c2.08,1.48,3.77,1.6,6.04,0.46c8.12-4.08,16.78-5.64,25.83-4.94c1.98,0.15,3.99,0.36,5.92,0.81
		c12.31,2.88,19.45,11.34,20.28,23.94c0.12,1.77,0.12,3.55,0.13,5.33c0.01,13.32,0.01,26.64,0,39.96c0,1.55-0.01,3.11-0.22,4.64
		c-0.07,0.49-0.8,1.26-1.24,1.27c-3.99,0.08-7.98,0.07-11.97-0.05c-0.45-0.01-1.19-0.77-1.25-1.26c-0.21-1.53-0.21-3.09-0.21-4.64
		c-0.01-13.32-0.02-26.64-0.01-39.96c0-2.9-0.14-5.74-1.14-8.53c-1.54-4.29-4.37-7.13-8.8-8.3c-7.73-2.04-14.93-0.44-21.8,3.26
		c-1.06,0.57-1.62,1.55-1.26,2.78c1.71,5.87,1.25,11.89,1.28,17.87c0.06,10.66,0.02,21.31,0.01,31.97c0,1.77-0.04,3.55-0.14,5.32
		c-0.06,1.01-0.69,1.56-1.71,1.64c-0.22,0.02-0.44,0.06-0.66,0.06c-14.59-0.35-11.9,2.71-12.1-11.47c-0.16-11.1-0.01-22.2-0.05-33.3
		c-0.01-2.44,0.01-4.92-0.41-7.3c-1.02-5.74-4.2-9.65-10.1-11.04c-6.79-1.6-13.21-0.23-19.46,2.4c-1.05,0.44-1.76,1.33-1.78,2.58
		c-0.03,1.78-0.06,3.55-0.06,5.33c0,15.1,0,30.19-0.01,45.29c0,1.78,0,3.55-0.06,5.33c-0.04,1.25-0.64,2.07-2,2.13
		c-0.22,0.01-0.44,0.05-0.66,0.05c-14.67-0.36-11.9,2.7-12.15-11.42C160.6,337.08,160.71,329.31,160.72,321.54
		C160.71,321.54,160.71,321.54,160.72,321.54z"/>
	<path class="st2" d="M713.89,305.03c0,14.65,0,29.31,0,43.96c0,1.77-0.03,3.55-0.1,5.32c-0.06,1.34-0.92,1.89-2.17,1.94
		c-0.67,0.03-1.34,0.08-2,0.02c-3.5-0.27-7.07,0.62-10.52-0.55c-1.47-3.4-0.66-6.99-0.7-10.48c-0.13-10.43-0.02-20.87-0.07-31.3
		c-0.01-3.06-0.49-3.62-3.36-3.63c-13.99-0.04-27.97-0.03-41.96,0.02c-2.99,0.01-3.27,0.37-3.28,3.58
		c-0.04,11.32-0.02,22.65-0.02,33.97c0,1.78,0.04,3.55-0.02,5.33c-0.09,2.64-0.41,3.08-3.18,3.02
		c-14.74-0.29-12.15,2.66-12.22-11.32c-0.15-27.75-0.05-55.5-0.04-83.25c0-2,0.03-4,0.06-5.99c0.02-1.3,0.73-2.01,1.99-2.2
		c0.22-0.03,0.44-0.03,0.67-0.03c15.63,0.43,12.42-3.1,12.73,12.1c0.17,8.21,0.03,16.43,0.03,24.64c0,1.55-0.02,3.11,0.05,4.66
		c0.06,1.22,0.64,2.1,1.99,2.16c1.11,0.05,2.22,0.09,3.33,0.09c12.66,0.01,25.31,0.01,37.97,0c0.89,0,1.78-0.02,2.66-0.04
		c1.55-0.04,2.5-0.79,2.58-2.38c0.08-1.55,0.06-3.11,0.07-4.66c0.01-9.77,0-19.54,0-29.31c0-1.55,0.03-3.11,0.03-4.66
		c0-1.55,0.65-2.52,2.3-2.6c0.89-0.04,1.78-0.09,2.66-0.03c3.28,0.21,6.61-0.57,9.84,0.53c1.48,3.17,0.63,6.52,0.66,9.77
		C713.95,277.5,713.89,291.27,713.89,305.03z"/>
	<path class="st2" d="M988.54,251.22c1.13-0.35,1.56-0.59,1.98-0.59c4.12-0.01,8.24-1.68,12.36,0.02c0.99,3.7,0.41,7.47,0.48,11.2
		c0.11,5.77,0,11.54,0.05,17.31c0.01,1.26-0.36,2.62,0.64,3.76c1.89,0.64,3.39-0.64,5.05-1.1c7.85-2.2,15.77-2.65,23.65-0.45
		c10.63,2.98,17.07,9.89,18.76,20.94c0.33,2.18,0.59,4.41,0.6,6.61c0.05,14.21,0.03,28.41,0.02,42.62c0,1.11,0.03,2.25-0.23,3.3
		c-0.12,0.5-0.87,1.19-1.34,1.2c-3.98,0.1-7.97,0.11-11.95,0.05c-0.99-0.02-1.52-0.82-1.56-1.81c-0.07-1.77-0.1-3.55-0.11-5.32
		c-0.01-12.21,0.01-24.42-0.03-36.62c-0.01-2.44-0.01-4.9-0.36-7.3c-0.9-6.08-4.3-10.06-10.37-11.59c-7.23-1.81-14.07-0.5-20.71,2.5
		c-1.36,0.61-2.07,1.56-2.06,3.07c0.01,1.55-0.02,3.11-0.02,4.66c0,15.09,0,30.19,0,45.28c0,1.77-0.02,3.55-0.08,5.32
		c-0.05,1.32-0.84,1.93-2.12,1.96c-0.44,0.01-0.89,0.06-1.33,0.03c-3.5-0.25-7.06,0.61-10.51-0.51c-1.67-3.36-0.72-6.95-0.73-10.41
		c-0.1-29.08-0.06-58.15-0.06-87.23C988.54,255.93,988.54,253.73,988.54,251.22z"/>
	<path class="st3" d="M500.54,124.65c0,16.2,0,32.39,0,48.59c0,1.77-0.02,3.55-0.09,5.32c-0.04,1-0.6,1.6-1.63,1.71
		c-0.22,0.02-0.44,0.09-0.66,0.08c-5.52-0.16-11.06,0.51-16.56-0.37c-1.89-5.15-0.75-10.49-0.78-15.72
		c-0.14-28.84-0.07-57.68-0.06-86.53c0-2,0.02-3.99,0.09-5.99c0.05-1.31,0.87-1.99,2.11-2.1c4.86-0.45,9.71-0.93,14.58-1.28
		c2.63-0.19,2.97,0.17,2.98,3.04c0.03,17.75,0.01,35.5,0.01,53.25C500.53,124.65,500.53,124.65,500.54,124.65z"/>
	<path class="st1" d="M455.56,341.34c5.2,1.53,10.06,3.13,15.13,3.65c3.3,0.34,6.64,0.48,9.95,0.41c2.91-0.06,5.72-0.91,8.15-2.59
		c4.98-3.43,4.97-10.05-0.04-13.36c-1.47-0.97-3.12-1.71-4.78-2.31c-3.13-1.12-6.32-2.06-9.49-3.07c-4.66-1.49-9.2-3.25-13.25-6.08
		c-4.86-3.4-7.6-7.98-7.76-13.97c-0.06-1.99-0.05-4,0.15-5.98c0.59-5.9,3.54-10.39,8.44-13.66c2.82-1.89,5.96-3.11,9.24-3.61
		c9.78-1.49,19.47-1.01,28.91,2.21c1.99,0.68,2.33,1.27,2.08,3.47c-0.27,2.43-0.56,4.85-0.95,7.26c-0.27,1.67-1.08,2.13-2.77,1.77
		c-4.12-0.88-8.22-1.88-12.36-2.61c-3.97-0.71-7.96-0.69-11.85,0.6c-4.74,1.56-6.73,4.77-6.11,9.66c0.34,2.66,1.76,4.6,4.07,5.7
		c2.79,1.33,5.69,2.45,8.6,3.51c3.12,1.14,6.34,2.01,9.46,3.16c2.07,0.76,4.08,1.74,6.05,2.75c7.45,3.81,11.05,9.81,10.8,18.3
		c-0.25,8.41-4.1,14.29-11.51,18.01c-2.8,1.4-5.77,2.45-8.84,2.81c-10.47,1.24-20.83,0.77-30.9-2.65c-2.76-0.94-3.02-1.38-2.54-4.36
		C453.9,347.54,453.96,344.63,455.56,341.34z"/>
	<path class="st1" d="M1051.71,124.94c0,15.99,0,31.97,0,47.96c0,1.78-0.02,3.55-0.06,5.33c-0.03,1.29-0.66,2.04-2,2.1
		c-0.22,0.01-0.44,0.06-0.66,0.05c-5.46-0.38-11.01,0.89-16.41-0.79c-0.87-5.05-0.38-10.15-0.39-15.22
		c-0.06-28.87-0.03-57.73-0.02-86.6c0-2,0-4,0.08-5.99c0.05-1.23,0.68-2.02,2.02-2.13c5.09-0.42,10.17-0.89,15.26-1.28
		c1.3-0.1,2.05,0.66,2.1,1.96c0.07,1.77,0.09,3.55,0.09,5.32C1051.71,92.08,1051.71,108.51,1051.71,124.94z"/>
	<path class="st1" d="M971.77,344.79c0.5,0.56,0.75,0.7,0.78,0.88c1.98,12.18,2.61,11.71-9.67,12.24c-3.32,0.14-6.65,0.03-9.9-0.93
		c-6.97-2.04-11.43-6.6-13.5-13.47c-1.09-3.62-1.59-7.35-1.56-11.16c0.06-10.65,0.02-21.31,0.01-31.96c0-1.33-0.01-2.66-0.03-3.99
		c-0.03-1.52-0.63-2.54-2.32-2.55c-1.11-0.01-2.22-0.04-3.33-0.03c-5.22,0.05-4.95-0.12-4.92-5.29c0.04-7.19-0.85-6.89,6.74-6.85
		c0.44,0,0.89-0.02,1.33-0.02c1.59,0.02,2.49-0.68,2.49-2.34c0.01-3.77-0.02-7.55,0.05-11.32c0.06-3.02,0.4-3.45,3.46-3.51
		c3.51-0.07,7.03-0.78,10.54,0.02c1.75,3.34,0.67,6.93,0.77,10.38c0.21,7.4-0.54,6.76,6.87,6.79c2.89,0.01,5.77-0.04,8.66,0.03
		c2.59,0.06,2.99,0.41,2.96,3.22c-0.12,10.32,1.7,8.72-8.58,8.89c-2.66,0.04-5.32,0.05-7.98,0.15c-0.96,0.04-1.63,0.63-1.73,1.66
		c-0.08,0.88-0.13,1.77-0.13,2.65c-0.01,10.87,0.01,21.75-0.01,32.62c0,2.23,0.18,4.42,0.8,6.58c1.5,5.21,4.57,7.7,10.07,8
		C966.48,345.63,969.31,345.39,971.77,344.79z"/>
	<path class="st3" d="M117.49,250.94c4.34,0,8.81-1.89,13.41-0.33c1.26,4.12,0.53,8.34,0.55,12.51c0.09,21.97,0.05,43.94,0.04,65.91
		c0,3.11,0.07,6.21,0.74,9.27c1.09,4.91,3.15,6.74,8.14,7.19c0.88,0.08,1.77,0.02,2.66,0.02c1.03,0,1.73,0.56,1.87,1.5
		c1.55,11.07,2.48,10.73-8.07,10.95c-8.55,0.18-16.77-3.99-19.15-15.79c-0.62-3.05-1.04-6.11-1.04-9.24
		c0.03-25.96,0.01-51.93,0.02-77.89C116.65,253.72,116.41,252.35,117.49,250.94z"/>
	<path class="st2" d="M908.53,294.11c0,12.66-0.01,25.33,0.01,37.99c0,2.44,0.03,4.86,0.77,7.25c1.19,3.86,3.6,6.01,7.7,6.12
		c0.89,0.02,1.78,0.01,2.67,0c1.29-0.02,2.1,0.5,2.22,1.86c0.08,0.89,0.14,1.77,0.24,2.65c0.85,7.82,0.86,7.83-6.74,7.93
		c-1.55,0.02-3.12,0.03-4.66-0.14c-7.31-0.79-12.35-4.64-15-11.48c-1.13-2.9-1.86-5.93-1.94-9.08c-0.06-2.66-0.16-5.33-0.16-8
		c-0.01-24-0.01-47.99-0.01-71.99c0-1.55,0.02-3.11,0.08-4.66c0.04-0.96,0.51-1.67,1.55-1.78c1.99-0.2,3.98-0.38,5.97-0.55
		c8.23-0.73,7.27-0.84,7.29,6.54C908.55,269.22,908.52,281.67,908.53,294.11C908.52,294.11,908.53,294.11,908.53,294.11z"/>
	<path class="st0" d="M1331.39,41.58c-0.31,13.45-6.15,23.73-17.76,30.66c-1.32,0.79-2.75,1.45-4.2,1.98
		c-6.98,2.58-12.98-0.19-15.37-7.2c-2.05-6.01-2.34-12.22-0.86-18.36c2.84-11.75,9.71-20.41,21.12-24.7
		c13.81-5.2,10.19-6.53,15.4,7.14C1331,34.43,1331.52,37.96,1331.39,41.58z"/>
	<path class="st0" d="M1392.21,201.91c-1.27,4.71-2.19,8.82-3.47,12.81c-5.41,16.81-23.27,26.68-40,23.01
		c-7.9-1.74-11.62-7.57-9.1-15.35c4-12.35,12.58-20.07,25.07-23.41c5.22-1.4,10.5-1.51,15.78-0.12
		C1384.11,199.8,1387.73,200.74,1392.21,201.91z"/>
	<path class="st0" d="M1103.7,202.21c11.65-4.49,23.1-6.5,34.75-0.49c8.27,4.27,13.98,10.75,17.13,19.48
		c3.15,8.74-0.43,14.75-9.44,16.66c-13.72,2.9-31.75-4.01-38.67-21.35C1105.69,212.02,1104.53,207.28,1103.7,202.21z"/>
	<path class="st0" d="M1247.96,95.11c3.02,3.09,6.11,5.96,8.87,9.12c10.84,12.42,11.55,30.4,1.81,43.64
		c-1.05,1.42-2.21,2.79-3.52,3.98c-4.79,4.38-10.81,4.33-15.5-0.26c-5.59-5.47-8.81-12.23-9.69-19.97
		c-1.28-11.24,1.96-21.07,9.98-29.16C1242.38,99.98,1244.6,97.17,1247.96,95.11z"/>
	<path class="st0" d="M1199.69,56.71c-0.08,3.59-0.43,7.1-1.66,10.48c-2.45,6.71-8.14,9.57-14.82,7.18
		c-6.21-2.22-11.36-6.07-15.25-11.35c-6.37-8.64-8.9-18.27-6.24-28.85c1.02-4.06,2.61-7.98,3.95-11.97c0.49-1.47,1.45-2.27,3-1.7
		c3.95,1.44,8.06,2.61,11.76,4.54C1193.16,31.68,1199.53,42.36,1199.69,56.71z"/>
	<path class="st4" d="M1129.86,158.74c-10.03,0.02-19.07-6.31-22.51-15.73c-0.46-1.25-0.92-2.53-1.1-3.83
		c-0.94-6.83-3.16-6.91,5.57-8.41c11.43-1.96,21.42,2.48,26.51,11.97c0.83,1.55,1.56,3.21,2,4.91c1.64,6.27-1.3,10.39-7.82,11.08
		C1131.64,158.82,1130.75,158.74,1129.86,158.74z"/>
	<path class="st4" d="M1294.96,194.06c0.11,11.45-6.58,21.01-16.13,24.27c-1.24,0.42-2.58,0.71-3.89,0.8
		c-4.11,0.28-6.82-1.55-7.89-5.58c-2.11-7.94,0.22-14.91,5.25-21.07c2.71-3.32,6.23-5.68,10.36-6.95c2.11-0.65,4.29-1.11,6.46-1.56
		c3.33-0.68,3.8-0.4,4.51,2.87C1294.24,189.65,1294.67,192.5,1294.96,194.06z"/>
	<path class="st4" d="M1294.97,287.25c-0.09,10.73-7.51,20.37-17.79,23.11c-5.33,1.42-9.04-0.84-10.38-6.33
		c-2.51-10.32,3.87-22.19,14.34-26.43c3.47-1.41,7.07-2.51,10.91-2.32c2.57,3.36,2.26,7.46,2.91,11.31
		C1295,286.81,1294.97,287.03,1294.97,287.25z"/>
	<path class="st4" d="M1365.45,158.8c-9.34-0.07-12.82-5.34-9.18-13.91c4.34-10.23,14.7-16.04,25.75-14.35
		c9.51,1.45,9.33,1.02,6.64,10.93C1385.81,151.92,1376.26,158.87,1365.45,158.8z"/>
	<path class="st4" d="M1196.16,286.77c-0.04-3.51,0.65-6.97,1.72-10.38c0.31-0.98,1.1-1.42,2.03-1.3
		c11.33,1.47,20.47,6.52,23.93,18.84c0.92,3.28,0.95,6.61,0.4,9.89c-0.89,5.31-5.07,7.96-10.26,6.59
		C1202.2,307.31,1195.63,296.59,1196.16,286.77z"/>
	<path class="st4" d="M1196.14,195.46c0.17-3.99,0.48-7.94,2.37-11.57c4.27-0.31,8.25,0.9,12.06,2.61
		c9.38,4.22,14.93,14.07,13.89,24.33c-0.69,6.78-5.11,9.82-11.64,7.77C1202.97,215.5,1195.77,206.13,1196.14,195.46z"/>
	<path class="st5" d="M122.42,192.72c4.11,3.53,8.12,6.97,11.94,10.25c0.27,1.86-0.88,2.69-1.75,3.57
		c-2.77,2.83-4.81,6.36-8.22,8.58c-3.91-1.27-6.26-4.69-9.45-6.94c-0.9-0.63-1.76-1.32-3-2.25c-1.68,1.76-3.31,3.46-4.92,5.18
		c-1.51,1.62-2.98,3.26-4.57,5c-4.68-2.95-8.46-6.66-12.32-9.9c-0.5-1.92,0.83-2.69,1.63-3.65c2.28-2.72,4.65-5.36,6.98-8.03
		c0.87-1,1.88-1.13,2.88-0.28c3.05,2.57,6.08,5.17,9.09,7.79c1.29,1.12,2.31,0.84,3.38-0.33
		C116.78,198.81,118.97,195.42,122.42,192.72z"/>
	<path class="st5" d="M68.08,90.92c-4.28-3.5-8.03-6.57-11.92-9.76c-4.31,2.29-6.12,6.98-10.13,9.72c-2.4-0.94-4.15-2.99-6.19-4.61
		c-1.9-1.51-3.75-3.09-5.55-4.74c-0.71-0.65-0.76-1.61-0.1-2.37c3.14-3.65,6.31-7.26,9.66-11.1c4.21,3.53,8.08,6.76,12.11,10.14
		c3.26-2.41,5.27-5.64,7.81-8.33c1.95-2.07,2.3-2.17,4.31-0.48c3.05,2.55,6.05,5.17,9.06,7.78c1.24,1.08,1.19,2.22,0.13,3.42
		C74.35,83.86,71.42,87.16,68.08,90.92z"/>
	<path class="st1" d="M461.35,91.13c0.02-6.66-0.02-13.33-0.09-19.99c-0.03-2.28-0.62-2.92-2.69-2.77
		c-5.09,0.37-10.18,0.87-15.26,1.32c-1.01,0.09-1.66,0.66-1.71,1.66c-0.1,1.77-0.12,3.55-0.12,5.32c0.03,23.77,0.08,47.54,0.1,71.31
		c0,2.22-0.16,4.44-0.35,6.65c-0.08,0.93-0.68,1.66-1.61,1.92c-1.28,0.35-2.58,0.72-3.9,0.85c-8.64,0.84-17.3,0.92-25.95,0.09
		c-3.59-0.35-4.01-0.84-3.48-4.78c0.74-5.57,0.56-11.1-0.52-16.57c-3.14-15.95-15.16-24.96-27.04-26.83
		c-7.19-1.13-14.17-0.6-21.11,1.14c-12.5,3.14-22.53,10.22-30.95,19.77c-4.57,5.18-8.55,10.79-12.12,16.69
		c-0.92,1.52-1.83,3.04-2.83,4.5c-0.36,0.53-1,0.93-1.68,0.49c-0.32-0.21-0.67-0.65-0.7-1.01c-0.08-0.87,0.05-1.76,0.05-2.64
		c0.06-7.77,0.11-15.55,0.15-23.32c0.01-1.25-0.56-2.26-1.89-2.2c-4.88,0.22-9.75,0.51-14.62,0.88c-1.63,0.12-2.08,1.37-2.08,2.85
		c0,5.55,0.01,11.11-0.03,16.66c-0.01,1.77,0.04,3.58-0.24,5.31c-0.9,5.56-3.53,8.21-9.08,9.1c-2.18,0.35-4.42,0.41-6.64,0.46
		c-18.07,0.36-21.44-0.88-34.79-12.9c-5.78-5.2-11.42-10.56-17.29-15.65c-4.02-3.49-8.24-6.76-12.54-9.91
		c-3.58-2.62-7.5-4.73-11.73-6.21c-10.02-3.5-19.73-0.78-26.17,7.65c-2,2.62-3.69,5.56-5.09,8.56c-2.17,4.62-2.86,4.83,2.99,6.88
		c1.88,0.66,3.71,1.5,5.59,2.16c2.75,0.97,3.09,1.11,4.89-1.64c3.64-5.54,9.63-6.23,15.23-3.14c2.52,1.39,5,2.91,7.29,4.65
		c3.71,2.82,7.32,5.79,10.82,8.86c2.14,1.87,4.64,3.44,5.94,6.15c-2.2,2.44-5.35,1.24-7.98,2.06c-1.26,0.39-2.62,0.45-3.94,0.59
		c-18.37,1.95-36.8,2.05-55.25,1.81c-4.23-0.05-8.42-0.51-12.53-1.57c-2.55-0.66-2.83-1.01-2.77-3.63
		c0.12-5.77,0.46-11.55,0.32-17.32c-0.1-4.13,0.99-8.37-0.74-12.41c-4.2-0.73-8.36,0.25-12.54,0.27c-0.89,0-1.78,0.1-2.65,0.24
		c-1.99,0.31-2.58,0.95-2.62,3.11c-0.06,4.22-0.03,8.44-0.03,12.66c0,1.78,0.03,3.56-0.02,5.33c-0.19,7.83-3.18,11.6-10.72,12.78
		c-6.6,1.03-13.31,1.02-19.94,0.28c-6.25-0.7-8.89-3.68-9.39-10.07c-0.17-2.21-0.08-4.44-0.08-6.66
		c-0.01-12.66,0.01-25.32-0.03-37.99c-0.01-2.31-0.47-2.77-2.68-2.75c-13.33,0.13-25.99,2.94-37.66,9.56
		c-5.86,3.33-10.86,7.71-14.9,13.12c-5.38,7.21-7.89,15.33-7.47,24.33c0.35,7.46,3.73,13.11,10.19,16.88
		c3.49,2.04,7.27,3.33,11.21,4.1c7.02,1.37,14.11,1.58,21.23,0.89c1.33-0.13,2.64-0.35,3.97-0.46c1.17-0.09,2.13,0.3,2.79,1.38
		c5.03,8.08,12.82,10.42,21.73,10.43c5.11,0.01,10.22,0,15.33,0c8.6-0.01,16.77-1.64,24.51-6.81c7.26,4.58,14.89,6.59,23.05,6.79
		c28.34,0.7,56.35-1.7,83.86-8.81c3.05-0.79,5.38-0.61,8,1.37c7.16,5.4,15.4,7.68,24.36,7.48c3.11-0.07,6.22,0,9.33-0.02
		c8.61-0.04,16.82-1.4,23.77-7.04c0.97-0.78,1.92-0.78,3.05-0.26c4.23,1.98,8.64,3.46,13.17,4.63c8.23,2.12,16.63,2.92,25.06,3.23
		c17.16,0.63,34.21-0.26,50.76-5.38c2.6-0.8,4.65-0.48,6.95,0.68c4.4,2.21,9.15,3.52,14.05,3.88c11.58,0.85,23.09,0.37,34.33-2.95
		c2.55-0.75,5.03-1.74,7.54-2.64c2.04-0.74,3.11-2.17,3.64-4.33c1.26-5.2,2.04-10.44,2.35-15.78
		C461.9,133.33,461.29,112.23,461.35,91.13z M61.7,146.96c0,1.54-0.66,2.58-2.31,2.61c-5.76,0.12-11.53,0.42-17.19-1.18
		c-2.37-0.67-4.63-1.54-6.56-3.1c-2.62-2.12-3.2-4.46-2.11-7.69c0.81-2.4,2.35-4.25,4.13-5.94c6.55-6.2,14.54-8.99,24.04-10.24
		C61.7,130.58,61.7,138.77,61.7,146.96z M381.4,156.05c-3.28,0.56-6.58,1.12-9.9,1.35c-6.43,0.44-12.87,0.64-19.53,0.95
		c-6.44-0.33-13.1-0.65-19.75-1.04c-1.88-0.11-2.48-1.17-1.51-2.53c4.96-6.88,10.43-13.28,17.33-18.32
		c5.33-3.89,11.31-6.17,17.89-6.6c11.44-0.74,19.19,5.03,21.91,16.14C389.74,153.69,389.09,154.74,381.4,156.05z"/>
	<path class="st1" d="M1012.38,70.09c-0.08-0.99-0.62-1.74-1.63-1.67c-5.53,0.41-11.05,0.87-16.57,1.36
		c-1.05,0.09-1.46,0.92-1.51,1.86c-0.08,1.55-0.08,3.11-0.07,4.66c0.1,17.1,0.27,34.2,0.29,51.3c0.01,8.66-0.25,17.32-0.33,25.98
		c-0.02,1.84-0.75,2.9-2.57,3.23c-8.14,1.5-16.34,1.54-24.54,0.71c-3.33-0.34-5.79-2.36-7-5.47c-1.21-3.09-2.21-6.28-3.03-9.49
		c-1.32-5.19-3.01-10.23-5.66-14.89c-6.8-12.01-16.68-16.58-31.61-13.3c-4.44,0.98-8.21,3.22-11.45,6.45
		c-3.81,3.8-6.88,8.13-9.47,12.81c-2.14,3.88-4.04,7.91-6.2,11.78c-1.51,2.7-3.18,5.34-5,7.84c-2.21,3.04-5.27,4.69-9.11,4.7
		c-3.33,0.01-6.66,0.01-9.99,0.01c-1.56,0-2.35-0.68-2.49-2.37c-0.31-3.76-0.64-7.53-1.28-11.24c-1.54-8.9-4.9-16.98-10.91-23.91
		c-11.31-13.06-33.51-14.04-45.09,2.14c-8.63,12.05-10.03,25.29-6.31,39.33c0.28,1.06,0.78,2.08,1.26,3.08
		c2.73,5.7,7.05,9.54,13.14,11.45c4.3,1.35,8.71,1.74,13.15,1.75c4.66,0.01,9.32-0.27,13.98-0.39c0.59-0.01,1.45-0.27,1.63,0.6
		c0.12,0.58,0.06,1.36-0.25,1.83c-4.27,6.45-10.48,10.09-17.82,11.93c-6.98,1.75-14.08,1.67-21.19,0.96
		c-1.24-0.12-2.54-0.9-3.98,0.5c-0.48,4.33-1.06,8.94-1.47,13.56c-0.32,3.65,0.03,4.07,3.8,4.79c7.91,1.5,15.82,1.79,23.84,0.51
		c16.35-2.61,27.6-11.37,33.48-26.92c0.62-1.64,1.28-3.27,2.03-5.19c3.4,0,6.72-0.12,10.03,0.03c7.12,0.32,13.69-1.15,19.35-5.69
		c1.45-1.16,2.64-0.9,4.23-0.19c17.03,7.56,34.26,8.56,51.63,1.21c1.66-0.7,2.86-0.56,4.28,0.38c3.6,2.36,7.63,3.69,11.87,4
		c13.17,0.97,26.14,0.03,38.8-4.2c4.45-1.49,6.96-3.81,7.73-8.7c1.18-7.48,2.04-14.96,2.06-22.51c0.06-23.99,0.04-47.97,0.05-71.96
		C1012.47,71.87,1012.45,70.98,1012.38,70.09z M844.62,157.94c-2.43,0.08-4.86,0.02-7.3,0.02c0,0.04,0,0.09,0,0.13
		c-2.87-0.15-5.74-0.27-8.61-0.46c-2.46-0.17-4.8-0.87-6.96-2.01c-3.35-1.77-5.36-4.53-5.65-8.4c-0.28-3.61,0.26-7.05,2.1-10.23
		c3.98-6.86,12.64-8.49,18.85-3.54c1.93,1.54,3.37,3.49,4.58,5.62c2.87,5.08,4.39,10.59,5.15,16.34
		C846.99,157.11,846.38,157.88,844.62,157.94z M931.83,159.83c-8.81,1.21-17.55-0.11-26.59-3.6c2.53-6.16,5.52-11.3,8.99-16.15
		c1.82-2.55,4.09-4.6,7.12-5.71c5.67-2.07,10.77-0.48,13.58,4.8c1.65,3.09,2.94,6.44,3.88,9.82
		C941.64,159.11,942.71,158.34,931.83,159.83z"/>
	<path class="st1" d="M103.63,352.47c-9.05-30.91-19.24-61.43-32.38-90.88c-4.42-9.91-1.64-8.05-12.42-8.12
		c-8.67-0.05-6.75-1.25-10.21,6.45c-13.48,30.03-23.67,61.26-33.15,92.73c-0.32,1.05-0.6,2.13-0.03,3.22
		c0.4,0.12,0.82,0.35,1.25,0.36c3.11,0.05,6.22,0.02,9.33,0.07c4.97,0.08,4.55-0.65,5.5-4.02c1.81-6.41,3.76-12.77,5.74-19.13
		c1.08-3.48,1.16-3.51,4.49-3.56c3.78-0.06,7.55-0.02,11.33-0.02c7.55,0,15.11,0.02,22.66-0.01c5.13-0.02,5.19-0.12,6.52,4.55
		c1.64,5.76,3.32,11.52,5.13,17.23c0.51,1.6,0.53,3.52,2.3,4.93c4.68-0.16,9.52,0.42,14.24-0.33
		C104.36,354.57,103.94,353.54,103.63,352.47z M65.04,316.27c-3.54,0.07-7.09,0.07-10.63,0c-3.69-0.07-7.41,0.33-11.1-0.32
		c1.09-8.1,12.25-38.7,16.29-44.82c3.95,6.22,14.21,34.02,16.46,44.82C72.39,316.61,68.69,316.2,65.04,316.27z"/>
	<path class="st2" d="M798.97,306.12c-1.94-11.53-7.59-20.61-19.12-24.31c-16.73-5.36-37.69-0.1-44.64,23.27
		c-2.33,7.82-2.37,15.86-0.95,23.78c2.85,15.99,14.7,26.96,30.77,28.72c7.76,0.85,15.54,0.67,23.16-1.37
		c2.56-0.69,5.04-1.68,7.55-2.56c0.92-0.33,1.58-1.1,1.4-2.01c-0.66-3.43-0.8-7.02-2.63-10.31c-2.29,0.67-4.4,1.29-6.52,1.91
		c-4.5,1.31-9.08,2.09-13.77,2.19c-11.53,0.23-23.62-4.45-25.16-22.08c2.45-1.13,4.7-0.66,6.89-0.67c12-0.05,23.99-0.02,35.99-0.03
		c1.55,0,3.11,0.01,4.66-0.04c1.58-0.05,2.39-0.96,2.49-2.51C799.39,315.43,799.75,310.73,798.97,306.12z M782.92,312.68
		c-11.01,0.02-22.02,0.01-33.48,0.01c-0.28-4,0.74-6.94,2.09-9.71c3.39-6.98,8.94-10.71,16.85-10.7c8.73,0.01,14.68,4.95,16.1,13.56
		c0.25,1.52,0.27,3.08,0.29,4.62C784.79,311.67,784.32,312.68,782.92,312.68z"/>
	<path class="st1" d="M439.25,308.17c-2.73-14.45-13.44-28.65-34.2-28.12c-17.05-0.3-27.37,9.58-31.55,20.99
		c-4.53,12.36-4.45,24.86,0.46,37.05c4.06,10.09,11.63,16.57,22.35,19.09c3.49,0.82,7.05,0.81,10.6,0.74
		c15.3-0.33,26.52-8.76,31.11-23.44C440.73,325.83,440.93,317.05,439.25,308.17z M424.77,318.99c0.07,5.24-0.44,10.07-2.28,14.69
		c-3.92,9.81-13.25,14.12-23.34,10.89c-3.3-1.06-5.99-2.92-8-5.67c-1.16-1.6-2.24-3.35-2.93-5.19c-3.6-9.73-3.77-19.59-0.04-29.27
		c3.86-10.01,13.08-14.15,23.27-10.98c4.77,1.48,7.96,4.67,10.14,9.01C424.25,307.78,424.92,313.47,424.77,318.99z"/>
	<path class="st1" d="M355.36,308.32c-2.47-13.7-12.68-28.73-34.07-28.27c-17.16,0.01-29.08,9.19-33.26,25.9
		c-2.36,9.43-2.1,18.91,0.53,28.28c1.03,3.65,2.68,7.04,4.87,10.15c5.72,8.11,13.54,12.59,23.43,13.4c2.21,0.18,4.44,0.19,6.65,0.13
		c14.42-0.42,25.44-8.38,30.15-22.02C356.78,326.9,357.05,317.69,355.36,308.32z M338.57,333.67c-3.92,9.83-13.22,14.13-23.33,10.9
		c-3.31-1.06-5.98-2.93-8.01-5.66c-1.18-1.58-2.24-3.35-2.92-5.19c-3.62-9.73-3.79-19.58-0.05-29.26
		c3.87-10.01,13.08-14.15,23.26-10.99c5.03,1.56,8.23,5,10.43,9.6c2.46,5.15,2.96,10.64,2.88,16.23
		C340.9,324.22,340.41,329.05,338.57,333.67z"/>
	<path class="st1" d="M576.74,328.49c-0.03-7.76,0.21-15.54-0.2-23.28c-0.75-14.28-9.59-23.44-23.81-24.85
		c-6.85-0.68-13.74-0.58-20.52,0.97c-12.2,2.79-9.77,2.06-7.54,12.39c0.38,1.77,1.06,2.02,2.87,1.61c3.67-0.84,7.31-1.83,11.02-2.43
		c4.62-0.74,9.28-0.75,13.84,0.64c5.15,1.57,8.3,5.01,9.29,10.26c0.61,3.24,0.65,6.54,0.01,10.19c-3.99-0.37-7.68-0.81-11.39-1.02
		c-7.16-0.41-14.19,0.24-20.77,3.4c-5.94,2.85-10.11,7.35-11.35,13.9c-2.39,12.61,3.17,21.17,13.26,25.25
		c2.44,0.98,5.08,1.7,7.69,2.01c6.63,0.8,13.31,0.67,19.91-0.31c4.82-0.72,9.51-2.08,14.05-3.96c2.56-1.06,3.81-2.49,3.71-5.47
		C576.59,341.36,576.76,334.92,576.74,328.49z M562.08,332.45c0.02,0.66,0,1.33,0,1.99c-0.01,0-0.02,0-0.03,0c0,2.43,0,4.87,0,7.3
		c0,1.48-0.68,2.49-2.09,3.01c-6.63,2.45-13.37,3.01-20.14,0.82c-4.74-1.53-7.08-4.98-7.24-9.99c-0.17-5.34,2.11-9.27,6.62-11.19
		c2.04-0.87,4.18-1.47,6.43-1.47c2.65,0.01,5.34-0.2,7.95,0.16C563.81,324.5,561.86,323.52,562.08,332.45z"/>
	<path class="st1" d="M871.68,326.7c-0.07,0-0.14,0-0.22,0c0-7.33,0.37-14.69-0.08-21.99c-0.87-14.04-9.59-22.92-23.62-24.34
		c-6.87-0.7-13.76-0.6-20.56,0.95c-12.62,2.89-9.69,2.06-7.62,12.34c0.35,1.71,1.18,2.07,2.84,1.69c3.67-0.84,7.33-1.84,11.04-2.44
		c4.63-0.75,9.29-0.74,13.86,0.63c4.62,1.39,7.72,4.33,8.99,8.98c0.89,3.24,0.87,6.6,0.55,9.93c-0.1,1.01-0.8,1.51-1.82,1.41
		c-3.32-0.3-6.63-0.74-9.96-0.91c-7.41-0.38-14.69,0.25-21.38,3.8c-7.59,4.03-11.19,10.47-11.12,19.03
		c0.07,8.32,3.87,14.43,11.05,18.45c3.73,2.09,7.8,3.19,12.07,3.49c5.55,0.4,11.12,0.39,16.64-0.3c5.52-0.69,10.88-2.1,16.01-4.36
		c2.3-1.01,3.4-2.43,3.36-5.03C871.61,340.92,871.68,333.81,871.68,326.7z M854.33,345.03c-6.22,2.04-12.53,2.64-18.89,0.75
		c-5.14-1.53-7.73-4.96-7.97-10.15c-0.25-5.46,2.25-9.64,7.26-11.4c6.7-2.35,13.49-1.55,20.25-0.07c1.25,0.27,1.92,1.07,1.95,2.28
		c0.06,2.65,0.02,5.3,0.02,7.95c0.02,0,0.05,0,0.07,0c0,2.21-0.07,4.42,0.02,6.63C857.12,343.08,856.26,344.4,854.33,345.03z"/>
</g>
</svg>
