<svg xmlns="http://www.w3.org/2000/svg" xmlns:xlink="http://www.w3.org/1999/xlink" width="42" height="44.787" viewBox="0 0 42 44.787">
  <defs>
    <filter id="Union_6" x="1.5" y="3.5" width="38.891" height="41.287" filterUnits="userSpaceOnUse">
      <feOffset dy="3" input="SourceAlpha"/>
      <feGaussianBlur stdDeviation="3" result="blur"/>
      <feFlood flood-opacity="0.161"/>
      <feComposite operator="in" in2="blur"/>
      <feComposite in="SourceGraphic"/>
    </filter>
  </defs>
  <g id="Anesthesia" transform="translate(-16170 -5929)">
    <g id="Group_20766" data-name="Group 20766" transform="translate(16169.585 5929)">
      <path id="Subtraction_7" data-name="Subtraction 7" d="M21,42A21.005,21.005,0,0,1,12.826,1.65a21.005,21.005,0,0,1,16.349,38.7A20.864,20.864,0,0,1,21,42Z" transform="translate(0.415 0)" fill="#6ab654"/>
    </g>
    <g transform="matrix(1, 0, 0, 1, 16170, 5929)" filter="url(#Union_6)">
      <path id="Union_6-2" data-name="Union 6" d="M9.5,22.271a7.474,7.474,0,0,1-2.727-.709.329.329,0,0,0-.205-.021,10,10,0,0,1-3.45.3c-.384-.031-.77-.076-1.151-.134A1.584,1.584,0,0,1,.66,20.093a1.608,1.608,0,0,1,1.349-1.535,4.414,4.414,0,0,1,1,.069l.318.027c-.192-.3-.381-.584-.552-.876A11.924,11.924,0,0,1,1.3,13.626a13.078,13.078,0,0,1-.174-2.234c0-.3.031-.591.037-.887a.442.442,0,0,0-.062-.237A6.314,6.314,0,0,1,.012,7.221a5.279,5.279,0,0,1,1.224-3.7A7.434,7.434,0,0,1,3.2,1.85,11.855,11.855,0,0,1,7.91.133a14.088,14.088,0,0,1,5.745.4,14.647,14.647,0,0,1,2.243.8,6.851,6.851,0,0,1,2.064,1.431,6.32,6.32,0,0,1,1.85,3.367,5.4,5.4,0,0,1-.464,3.253c-.1.226-.224.445-.344.663a1.343,1.343,0,0,0-.169.735,12.178,12.178,0,0,1-2.193,7.865,8.9,8.9,0,0,1-3.088,2.74,7.472,7.472,0,0,1-3.56.9Q9.749,22.287,9.5,22.271Zm-2.53-1.346a6.707,6.707,0,0,0,5.439.26,8.043,8.043,0,0,0,3.656-2.858,10.447,10.447,0,0,0,1.56-3.077,12.315,12.315,0,0,0,.566-4.334,2.088,2.088,0,0,1-.014-.549,3.293,3.293,0,0,1,.258-.641c.1-.214.227-.416.323-.63a4.807,4.807,0,0,0,.157-3.831A6.59,6.59,0,0,0,16.823,2.6,5.2,5.2,0,0,0,15.6,1.919,15.113,15.113,0,0,0,11.325.726,12.668,12.668,0,0,0,7.208.857,10.078,10.078,0,0,0,2.277,3.341,4.563,4.563,0,0,0,.811,8.067a5.851,5.851,0,0,0,.952,2,.384.384,0,0,1,.074.274c-.027.346-.052.695-.057,1.042a12.124,12.124,0,0,0,.243,2.574,11,11,0,0,0,1.971,4.477c.234.311.459.631.7.964-.036,0-.049.005-.06,0-.753-.067-1.507-.128-2.258-.2a.954.954,0,0,0-1.053.791A.926.926,0,0,0,2.1,21.065c.531.074,1.067.128,1.6.151a8.36,8.36,0,0,0,2.79-.337.631.631,0,0,1,.187-.03A.675.675,0,0,1,6.971,20.925Zm2.436.042a6.235,6.235,0,0,1-2.5-.789.264.264,0,0,0-.24-.019,8.256,8.256,0,0,1-3.187.416c-.415-.024-.829-.078-1.243-.126a.309.309,0,0,1-.288-.355.314.314,0,0,1,.392-.256,8.9,8.9,0,0,0,3.62-.113l.157-.044c-.183-.154-.354-.29-.516-.436a9.167,9.167,0,0,1-2.365-3.428,11.164,11.164,0,0,1-.748-2.937,12.362,12.362,0,0,1,0-2.778.267.267,0,0,0-.049-.171,5.448,5.448,0,0,1-1.089-2.35,3.809,3.809,0,0,1,.635-2.907A6.711,6.711,0,0,1,5,2.28a13.328,13.328,0,0,1,3.585-.958A9.576,9.576,0,0,1,10.112,1.2a13.911,13.911,0,0,1,3.756.669,9,9,0,0,1,2.369,1.085A6.026,6.026,0,0,1,18.2,5.038a3.89,3.89,0,0,1,.224,3.275,5.913,5.913,0,0,1-.878,1.6.321.321,0,0,0-.056.208,11.4,11.4,0,0,1-1.133,6.533,8.231,8.231,0,0,1-3.135,3.442,6.2,6.2,0,0,1-3.215.9Q9.711,21,9.408,20.967ZM8.347,19.31c-.154.094-.3.2-.46.3.011.013.015.022.022.025l.095.04a5.185,5.185,0,0,0,4.344-.167,6.8,6.8,0,0,0,2.835-2.668,10.246,10.246,0,0,0,1.372-6.66.332.332,0,0,0-.1-.192,10.218,10.218,0,0,0-2.681-1.763,9.028,9.028,0,0,0-5.754-.608A9.867,9.867,0,0,0,3.5,10a.308.308,0,0,0-.078.178,10.811,10.811,0,0,0,.1,3.285,9.309,9.309,0,0,0,1.873,4.218,6.8,6.8,0,0,0,1.7,1.526c.04.024.1.057.137.042.143-.066.279-.147.428-.229-.134-.07-.254-.128-.368-.2a1.987,1.987,0,0,1-.9-.958,1.8,1.8,0,0,1,.1-1.449.241.241,0,0,1,.192-.158,2.667,2.667,0,0,0,1.569-.921,2.322,2.322,0,0,0,.491-1.057c.014-.006.017-.01.021-.01q1.2-.005,2.4-.005c.028,0,.069.042.08.074.035.1.05.21.089.309a2.513,2.513,0,0,0,1.762,1.561c.35.1.352.094.464.389a1.654,1.654,0,0,1-.6,2.076,4.246,4.246,0,0,1-2.077.734,6.845,6.845,0,0,1-2.382-.121.2.2,0,0,0-.042,0A.2.2,0,0,0,8.347,19.31ZM10.565,16.8a.636.636,0,0,1-.466.864.311.311,0,0,0-.167.07c-.29.338-.572.683-.86,1.03a6.173,6.173,0,0,0,2.146-.044,3.371,3.371,0,0,0,1.277-.492,1.129,1.129,0,0,0,.524-1.244.242.242,0,0,0-.189-.207,3.1,3.1,0,0,1-2.042-1.806.124.124,0,0,0-.132-.092c-.451,0-.9,0-1.354,0a.149.149,0,0,0-.113.072,3.176,3.176,0,0,1-2.12,1.849.171.171,0,0,0-.1.1,1.031,1.031,0,0,0,.184.994,2.173,2.173,0,0,0,1.071.66.172.172,0,0,0,.131-.042,5.755,5.755,0,0,0,1-1.052.2.2,0,0,0,.033-.22.636.636,0,0,1,.363-.8.644.644,0,0,1,.229-.043A.624.624,0,0,1,10.565,16.8Zm-.266-3.74a3.8,3.8,0,0,1,.213-2.147,1.967,1.967,0,0,1,1.481-1.1A4.818,4.818,0,0,1,14.1,9.9c.362.085.717.2,1.072.319a.305.305,0,0,1-.092.59.653.653,0,0,1-.212-.047,5.9,5.9,0,0,0-2.066-.377,2.089,2.089,0,0,0-1.283.391,1.684,1.684,0,0,0-.616,1.164c-.021.148-.027.3-.04.453.014.19.031.382.044.575a.3.3,0,0,1-.266.336.361.361,0,0,1-.049,0A.282.282,0,0,1,10.3,13.065Zm-5.392-.992a.311.311,0,1,1,.367-.5,2.691,2.691,0,0,0,.93.459A2.643,2.643,0,0,0,8.385,11.6a.535.535,0,0,1,.209-.088.291.291,0,0,1,.305.19.288.288,0,0,1-.1.357,6.268,6.268,0,0,1-.739.414,2.985,2.985,0,0,1-1.265.261A3.107,3.107,0,0,1,4.908,12.074Zm6.5-.062a.31.31,0,1,1,.365-.5,2.568,2.568,0,0,0,1.523.517,2.753,2.753,0,0,0,1.566-.514.353.353,0,0,1,.349-.063.3.3,0,0,1,.057.534,4.789,4.789,0,0,1-.681.386,3.083,3.083,0,0,1-3.178-.364Zm-2.93-1.12a2.745,2.745,0,0,0-1.561-.529,2.534,2.534,0,0,0-1.536.513.481.481,0,0,1-.259.085.27.27,0,0,1-.258-.216.309.309,0,0,1,.127-.35A3.245,3.245,0,0,1,7.01,9.739a3.4,3.4,0,0,1,1.84.653.315.315,0,0,1,.085.452.3.3,0,0,1-.24.123A.382.382,0,0,1,8.476,10.891Z" transform="translate(11 10)" fill="#fff" stroke="rgba(0,0,0,0)" stroke-miterlimit="10" stroke-width="1"/>
    </g>
  </g>
</svg>
