<svg xmlns="http://www.w3.org/2000/svg" xmlns:xlink="http://www.w3.org/1999/xlink" width="42" height="42.282" viewBox="0 0 42 42.282">
  <defs>
    <filter id="Union_61" x="1.36" y="2.949" width="39.491" height="39.333" filterUnits="userSpaceOnUse">
      <feOffset dy="3" input="SourceAlpha"/>
      <feGaussianBlur stdDeviation="3" result="blur"/>
      <feFlood flood-opacity="0.161"/>
      <feComposite operator="in" in2="blur"/>
      <feComposite in="SourceGraphic"/>
    </filter>
  </defs>
  <g id="Audiology_Phoniatrics" data-name="Audiology Phoniatrics" transform="translate(-16364 -7513)">
    <g id="Group_20849" data-name="Group 20849" transform="translate(16363.586 7513)">
      <path id="Subtraction_7" data-name="Subtraction 7" d="M21,42A21.005,21.005,0,0,1,12.826,1.65a21.005,21.005,0,0,1,16.349,38.7A20.864,20.864,0,0,1,21,42Z" transform="translate(0.415 0)" fill="#6ab654"/>
    </g>
    <g transform="matrix(1, 0, 0, 1, 16364, 7513)" filter="url(#Union_61)">
      <path id="Union_61-2" data-name="Union 61" d="M12.31,20.518a4.729,4.729,0,0,1,2.236-3.056,2.141,2.141,0,0,1,1.675.412,4.707,4.707,0,0,0,.629.3c.339-.252.621-.7.578-.824a.281.281,0,0,0-.039-.048,5.671,5.671,0,0,0-2.1-1.289,4.932,4.932,0,0,0-2.014.039l-.729.278a11.556,11.556,0,0,0-2.212,2.4,1.041,1.041,0,0,1,1.31.4c.169.438-.213.986-.847,1.229a1.177,1.177,0,0,1-1.389-.243A.481.481,0,0,1,8.6,19.6c-.464-.026-.815-.581-.786-1.263s.429-1.215.9-1.194c.427.018.756.487.791,1.082a11.071,11.071,0,0,1,2.9-2.951A9.431,9.431,0,0,1,15.015,14.2a15.238,15.238,0,0,1,3.256-.36l.221-.026a5.022,5.022,0,0,0-.121-.552,2.677,2.677,0,0,1-.118-.629c0-.56.565-.8,1.108-1.038.126-.054.309-.134.438-.2a20.982,20.982,0,0,0-1.463-1.871c-.309-.369-.556-.664-.678-.838a3.918,3.918,0,0,1-.4-1.445A7.672,7.672,0,0,0,15.964,3.6a8.757,8.757,0,0,0-6.956-2.4c-2.792.383-4.253,1.546-5.392,4.3a4.732,4.732,0,0,0-.1,3.049,7.591,7.591,0,0,1-1.282-.616,5.431,5.431,0,0,1,.33-2.866C3.856,1.951,5.679.506,8.852.069a9.893,9.893,0,0,1,7.961,2.789,8.635,8.635,0,0,1,1.554,4.189,5.938,5.938,0,0,0,.217,1c.087.126.345.426.613.747,1.5,1.784,1.919,2.383,1.786,2.886s-.639.712-1.181.946c-.119.048-.274.118-.387.174.014.057.031.117.044.169a1.936,1.936,0,0,1-.014,1.6.85.85,0,0,1-.651.346c-1.327.083-1.528.356-1.528.361-.022.2.526.789.7.99a2.453,2.453,0,0,1,.5.664c.378.938-.608,1.946-1.111,2.263s-1.067,0-1.675-.326a3.577,3.577,0,0,0-.756-.343,3.8,3.8,0,0,0-1.51,2.222ZM3.859,19.077c.017-.026,1.828-2.861,1.033-4.771-.2-.478-.5-1.042-.812-1.637-.156-.291-.317-.595-.473-.9a6.048,6.048,0,0,1,1.115-.3c.122.229.238.455.356.678.33.621.638,1.2.855,1.732,1.021,2.462-1.041,5.688-1.129,5.822ZM.017,7.352A7.7,7.7,0,0,0,5.264,9.67l1.34.013A4.226,4.226,0,0,1,6.36,9.2a1.377,1.377,0,0,1,.148-1.355A1.8,1.8,0,0,1,8.1,7.13,1.55,1.55,0,0,1,9.464,8.554a.258.258,0,1,1-.512.061c0-.039-.122-.921-.89-.968a1.312,1.312,0,0,0-1.139.5A.845.845,0,0,0,6.832,9a2.539,2.539,0,0,0,.4.686l1.6.013s0,.859-.009.855l-.994.026s0,.009,0,.014c.02.069.041.143.068.221.16.511.36,1.15.746,1.15.5,0,.547-.143.547-.517a.257.257,0,0,1,.513,0c0,.716-.327,1.033-1.064,1.033-.761,0-1.035-.871-1.24-1.51-.023-.075-.045-.146-.067-.213a1.241,1.241,0,0,0-.068-.165l-2.213.057A7.885,7.885,0,0,0,0,12.9Zm15.85,1.5c-.652-.109-2.162-.417-2.162-1.047S15.228,7,15.884,6.949a.17.17,0,0,1,.13.043.908.908,0,0,1,.5.911.91.91,0,0,1-.5.912.2.2,0,0,1-.118.044h0A.059.059,0,0,1,15.867,8.851ZM14.09,7.812c0,.135.526.378,1.276.556h0a1.206,1.206,0,0,1-.085-.461,1.279,1.279,0,0,1,.105-.517C14.637,7.5,14.09,7.678,14.09,7.812Z" transform="translate(10.61 9.24)" fill="#fff" stroke="#fff" stroke-width="0.5"/>
    </g>
  </g>
</svg>
