<svg xmlns="http://www.w3.org/2000/svg" xmlns:xlink="http://www.w3.org/1999/xlink" width="42" height="44.125" viewBox="0 0 42 44.125">
  <defs>
    <filter id="Union_7" x="3.876" y="3.875" width="33.899" height="40.25" filterUnits="userSpaceOnUse">
      <feOffset dy="3" input="SourceAlpha"/>
      <feGaussianBlur stdDeviation="3" result="blur"/>
      <feFlood flood-opacity="0.161"/>
      <feComposite operator="in" in2="blur"/>
      <feComposite in="SourceGraphic"/>
    </filter>
  </defs>
  <g id="Audiology_Clinic" data-name="Audiology Clinic" transform="translate(-16364 -5929)">
    <g id="Group_20767" data-name="Group 20767" transform="translate(16363.585 5929)">
      <path id="Subtraction_7" data-name="Subtraction 7" d="M21,42A21.005,21.005,0,0,1,12.826,1.65a21.005,21.005,0,0,1,16.349,38.7A20.864,20.864,0,0,1,21,42Z" transform="translate(0.415 0)" fill="#6ab654"/>
    </g>
    <g transform="matrix(1, 0, 0, 1, 16364, 5929)" filter="url(#Union_7)">
      <path id="Union_7-2" data-name="Union 7" d="M5.383,22a6.261,6.261,0,0,1-2.539-.529A4.482,4.482,0,0,1,.437,18.843a7.816,7.816,0,0,1-.416-3.25,13.348,13.348,0,0,1,.41-2.554c.128-.49.387-.7.824-.659a.822.822,0,0,1,.678.84c-.006.515-.062,1.03-.059,1.544a15.755,15.755,0,0,0,.086,2.46,3.474,3.474,0,0,0,1.535,2.452,2.649,2.649,0,0,0,3.471-.423A3.721,3.721,0,0,0,7.811,17.9a5.585,5.585,0,0,1,2.146-2.58,7.49,7.49,0,0,0,2.786-3.531,10.42,10.42,0,0,0,.635-2.7,12.023,12.023,0,0,0-.017-2.827,16.651,16.651,0,0,0-.428-2.093,2.341,2.341,0,0,0-.773-1.061A4.551,4.551,0,0,0,7.224,2.2,5.5,5.5,0,0,0,5.042,3.989c-.509.609-1,1.238-1.492,1.857-.009.012-.019.022-.029.032-.3.352-.576.445-.871.3a.909.909,0,0,1-.417-.988,4.673,4.673,0,0,1,.836-1.6,11.1,11.1,0,0,1,1.974-2.11A6.08,6.08,0,0,1,7.565.266C8,.161,8.449.113,8.891.038,8.939.03,8.985.013,9.031,0H9.8c.3.042.6.074.9.13a5.619,5.619,0,0,1,3.873,2.582A7.361,7.361,0,0,1,15.649,6.65a13.094,13.094,0,0,1-.67,4.256c-.336,1.036-.723,2.055-1.1,3.077a4.15,4.15,0,0,1-1.387,1.738c-.749.609-1.512,1.2-2.247,1.828a1.847,1.847,0,0,0-.429.625c-.291.611-.5,1.263-.837,1.849A3.779,3.779,0,0,1,5.462,22Zm2.512-6.2a.289.289,0,0,1,.039-.408c.359-.418.735-.821,1.085-1.246a11.682,11.682,0,0,0,2.458-5.325,18.1,18.1,0,0,0,.266-2.015,2.3,2.3,0,0,0-.616-1.935A3.141,3.141,0,0,0,9.24,4a3.332,3.332,0,0,0-1.575.207,1.016,1.016,0,0,0-.657.913c-.036.247-.08.492-.124.738a1.163,1.163,0,0,1-.617.852c-.247.137-.265.214-.117.46a3.308,3.308,0,0,0,1.064.949c.335.23.676.452,1.01.684a1.563,1.563,0,0,1,.595.817,7.277,7.277,0,0,1,.4,1.454,1.953,1.953,0,0,1-.856,1.876,3.115,3.115,0,0,1-.884.41.893.893,0,0,0-.7.782,2.194,2.194,0,0,1-.873,1.517,1.361,1.361,0,0,1-1.634-.1A1.29,1.29,0,0,1,3.9,13.972c.246-.446.608-.825.894-1.25A8.554,8.554,0,0,0,5.457,11.6a1.749,1.749,0,0,0,.029-1.194c-.092-.364.017-.469.38-.367a3.549,3.549,0,0,1,1.615.843A5.967,5.967,0,0,1,8,11.574,2.546,2.546,0,0,0,7.3,10.119C6.914,9.753,6.5,9.418,6.1,9.07A2.986,2.986,0,0,1,4.986,7.346,3.008,3.008,0,0,1,5.58,4.983a4.787,4.787,0,0,1,2.565-1.8,3.484,3.484,0,0,1,3.461.732,2.976,2.976,0,0,1,.949,1.917,9.417,9.417,0,0,1-.145,2.882c-.118.7-.244,1.391-.363,2.086A5.768,5.768,0,0,1,10.8,13.416,13.465,13.465,0,0,1,8.918,15.44a4.909,4.909,0,0,1-.615.425.345.345,0,0,1-.179.054A.3.3,0,0,1,7.895,15.8Z" transform="translate(13 10)" fill="#fff" stroke="#fff" stroke-miterlimit="10" stroke-width="0.25"/>
    </g>
  </g>
</svg>
