<svg xmlns="http://www.w3.org/2000/svg" xmlns:xlink="http://www.w3.org/1999/xlink" width="42" height="45.351" viewBox="0 0 42 45.351">
  <defs>
    <filter id="Union_11" x="0.829" y="1.891" width="39.736" height="43.459" filterUnits="userSpaceOnUse">
      <feOffset dy="3" input="SourceAlpha"/>
      <feGaussianBlur stdDeviation="3" result="blur"/>
      <feFlood flood-opacity="0.161"/>
      <feComposite operator="in" in2="blur"/>
      <feComposite in="SourceGraphic"/>
    </filter>
  </defs>
  <g id="Cardiothoracic_Surgery" data-name="Cardiothoracic Surgery" transform="translate(-16170 -6073)">
    <g id="Group_20779" data-name="Group 20779" transform="translate(16169.585 6073)">
      <path id="Subtraction_7" data-name="Subtraction 7" d="M21,42A21.005,21.005,0,0,1,12.826,1.65a21.005,21.005,0,0,1,16.349,38.7A20.864,20.864,0,0,1,21,42Z" transform="translate(0.415 0)" fill="#6ab654"/>
    </g>
    <g transform="matrix(1, 0, 0, 1, 16170, 6073)" filter="url(#Union_11)">
      <path id="Union_11-2" data-name="Union 11" d="M10.151,24.71A12.408,12.408,0,0,1,8.042,23.2q-.817-.774-1.629-1.554a1.61,1.61,0,0,0,1.14-.866q.672.647,1.346,1.292a15.715,15.715,0,0,0,1.556,1.211,2.091,2.091,0,0,0,2.473.089A8.141,8.141,0,0,0,15.662,20.7a9.817,9.817,0,0,0,1.685-4.721,4.71,4.71,0,0,0-.454-2.489,1.35,1.35,0,0,1,.266-1.7,3.4,3.4,0,0,0,.657-3.868,5.858,5.858,0,0,0-.289-.533l.224-.284a9.7,9.7,0,0,1,1.064.021c.123.013.269.214.33.359A4.716,4.716,0,0,1,18.5,12.35a.9.9,0,0,0-.163.993,7.335,7.335,0,0,1,.073,4.675,11.246,11.246,0,0,1-3.068,5.243,10.627,10.627,0,0,1-2.107,1.5,3.063,3.063,0,0,1-1.5.414A3,3,0,0,1,10.151,24.71Zm1.1-3.52c-.428-.265-.187-.587-.042-.9q.784-1.663,1.559-3.331a4.529,4.529,0,0,0,.17-.486c-1,.515-2,1.03-2.993,1.532a.918.918,0,0,1-.509.14c-.175-.031-.423-.163-.463-.3a.616.616,0,0,1,.221-.509,2.808,2.808,0,0,1,.658-.272,9.793,9.793,0,0,0,2.952-1.849,2.58,2.58,0,0,0,.595-2.655.785.785,0,0,0-.223-.789l.618-.692c.429.25.854.509,1.274.772.258.162.54.354.31.715s-.507.212-.778.042c-.059-.037-.128-.062-.269-.13a9.557,9.557,0,0,1-.309,3.814,7,7,0,0,0,.225,1.849,16.068,16.068,0,0,1,.108,1.871.744.744,0,0,1-.352.548c-.343.167-.587-.152-.567-.6.024-.572-.007-1.146-.015-1.719l-.166-.022c-.065.122-.134.241-.194.365-.342.7-.679,1.4-1.025,2.1-.19.382-.376.572-.575.572A.4.4,0,0,1,11.252,21.19Zm-9.013-.207a.909.909,0,0,1-.2-1.144c.256-.409.548-.794.827-1.187a2.046,2.046,0,0,1,.155-.171c-.346-.238-.66-.45-.969-.669a3.324,3.324,0,0,1-.45-.349.944.944,0,0,1,1.22-1.427c.375.261.746.527,1.12.791.046.032.094.059.165.1.289-.414.566-.824.857-1.222a.944.944,0,0,1,1.666.167.921.921,0,0,1-.122.937l-.785,1.1c-.025.034-.047.073-.077.122.416.3.814.58,1.21.866a.928.928,0,0,1,.416.94.906.906,0,0,1-.66.763.886.886,0,0,1-.815-.128c-.414-.292-.824-.59-1.271-.912-.193.281-.37.557-.566.819a3.777,3.777,0,0,1-.573.676.793.793,0,0,1-.509.179A.964.964,0,0,1,2.239,20.983Zm5.32-4.95c.545-.685,1.092-1.369,1.634-2.057.676-.857,1.346-1.718,2.021-2.577.186-.239.337-.254.579-.063.309.245.62.489.93.734a.331.331,0,0,1,.066.526c-.228.293-.454.585-.691.868A7.942,7.942,0,0,1,9.5,15.6a5.144,5.144,0,0,1-2.014.537C7.525,16.081,7.54,16.056,7.559,16.033ZM.81,12.065a.623.623,0,0,0-.081-.376,4.9,4.9,0,0,1,.336-5.6A8.366,8.366,0,0,1,4.549,3.344a.418.418,0,0,1,.329-.023c.365.2.715.42,1.06.629-.877.56-1.729,1.057-2.529,1.627A4.6,4.6,0,0,0,1.42,9.044a8.333,8.333,0,0,0,.057,1.1c.177-.2.257-.294.338-.385a.663.663,0,0,1,.956-.133.619.619,0,0,1,.175.913,4.478,4.478,0,0,0-.5,4.3,1.688,1.688,0,0,0-.976.4,1.629,1.629,0,0,0-.284.311A6.748,6.748,0,0,1,.81,12.065ZM12.1,11.039,13.478,9.5l.592.476L12.7,11.511Zm-5.185-.694a.666.666,0,0,1,.38-.5A6.264,6.264,0,0,1,8.67,9.667c.333-.014.527-.111.5-.459a24.545,24.545,0,0,0-.213-2.766,4.873,4.873,0,0,0-2.38-3.077C5.92,2.912,5.2,2.537,4.514,2.128a.313.313,0,0,1,.026-.034,1.176,1.176,0,0,1,1.731-.05c.6.5,1.253.921,1.866,1.4a5.179,5.179,0,0,1,1.931,4.081c.028.6.018,1.2.007,1.8a1.189,1.189,0,0,1-1.181,1.265c-.476.045-.952.081-1.427.131a.937.937,0,0,1-.1.005C7.114,10.721,6.91,10.608,6.917,10.345ZM12.368,7.4a.816.816,0,0,1,.315-.539A11.15,11.15,0,0,1,15.295,5.5c-.272.347-.543.695-.816,1.041-.138.174-.275.347-.413.519-.135.074-.27.152-.4.233a.694.694,0,0,0-.36.687c0,.012,0,.026,0,.039-.034.041-.068.085-.1.127a.921.921,0,0,0-.234.693.8.8,0,0,0,.151.377l-.86.96C12.3,9.256,12.31,8.328,12.368,7.4Zm2.124,2.363c-.293-.225-.58-.458-.872-.686-.255-.2-.281-.371-.082-.622.427-.536.857-1.069,1.28-1.607.671-.852,1.337-1.71,2.009-2.562q1.449-1.839,2.9-3.675c.215-.273.4-.292.677-.076.257.2.514.4.769.609.272.217.292.39.079.659Q19.78,3.673,18.305,5.54,16.67,7.611,15.032,9.678a1.49,1.49,0,0,1-.289.215A1.694,1.694,0,0,1,14.492,9.766Zm5.395-3.851a9.377,9.377,0,0,0-1.133-.081q.351-.447.7-.892c.16.011.321.025.484.044a1.618,1.618,0,0,1,1.326,1.131C20.8,6.048,20.344,5.975,19.886,5.915Zm-8.233-1.14c-.694-1.8-2.164-2.853-3.685-3.86C7.793.8,7.611.7,7.433.587,7.422.581,7.419.563,7.4.525c.023-.027.03-.043.043-.049,1.019-.6.621-.672,1.6.015a9.812,9.812,0,0,1,3.268,3.525c.143-.065.274-.118.4-.183a12.464,12.464,0,0,1,3.866-1.249.771.771,0,0,1,.46.08c.112.062.22.13.329.2-.16.205-.323.41-.484.616-.319.046-.631.094-.94.157a11.975,11.975,0,0,0-3.451,1.354.937.937,0,0,1-.432.144C11.879,5.135,11.748,5.021,11.653,4.774Z" transform="translate(10 8)" fill="#fff" stroke="#fff" stroke-width="0.35"/>
    </g>
  </g>
</svg>
