<svg xmlns="http://www.w3.org/2000/svg" xmlns:xlink="http://www.w3.org/1999/xlink" width="42" height="45.457" viewBox="0 0 42 45.457">
  <defs>
    <filter id="Union_10" x="1.775" y="2.849" width="39.309" height="42.608" filterUnits="userSpaceOnUse">
      <feOffset dy="3" input="SourceAlpha"/>
      <feGaussianBlur stdDeviation="3" result="blur"/>
      <feFlood flood-opacity="0.161"/>
      <feComposite operator="in" in2="blur"/>
      <feComposite in="SourceGraphic"/>
    </filter>
  </defs>
  <g id="Cardiac_Care_Unit" data-name="Cardiac Care Unit" transform="translate(-15970 -6073)">
    <path id="Subtraction_45" data-name="Subtraction 45" d="M21,42A21.005,21.005,0,0,1,12.826,1.65a21.005,21.005,0,0,1,16.349,38.7A20.864,20.864,0,0,1,21,42Z" transform="translate(15970 6073)" fill="#6ab654"/>
    <g transform="matrix(1, 0, 0, 1, 15970, 6073)" filter="url(#Union_10)">
      <path id="Union_10-2" data-name="Union 10" d="M9.778,23.785a12,12,0,0,1-2.031-1.453c-.808-.765-1.615-1.534-2.411-2.312a.166.166,0,0,0,0-.021V18.206a.3.3,0,0,1,0-.053l.028,0C6.431,19.2,7.511,20.237,8.6,21.265a13.132,13.132,0,0,0,1.764,1.312,1.7,1.7,0,0,0,1.768.07,6.455,6.455,0,0,0,2.246-1.791A9.727,9.727,0,0,0,16.7,15.378a4.457,4.457,0,0,0-.434-2.4,1.308,1.308,0,0,1,.25-1.634,3.265,3.265,0,0,0,.52-3.953c-.076-.137-.158-.271-.3-.509.518-.016.968-.053,1.414-.03.1.005.224.2.279.336a4.562,4.562,0,0,1-.67,4.756.752.752,0,0,0-.12.844,7.146,7.146,0,0,1,.083,4.542,10.835,10.835,0,0,1-2.952,5.049,10.23,10.23,0,0,1-2.027,1.446,2.951,2.951,0,0,1-1.453.4A2.882,2.882,0,0,1,9.778,23.785Zm1.065-3.39c-.315-.158-.266-.422-.131-.7.528-1.1,1.046-2.211,1.561-3.32.084-.179.14-.37.194-.519-.967.5-1.922.991-2.882,1.477a.8.8,0,0,1-.445.134c-.184-.036-.45-.145-.491-.281s.105-.387.239-.515a1.678,1.678,0,0,1,.515-.209,9.4,9.4,0,0,0,2.923-1.809,2.5,2.5,0,0,0-.084-3.573,1.259,1.259,0,0,1-.446-1.107c.049-.947.055-1.895.115-2.84a.781.781,0,0,1,.3-.523,10.049,10.049,0,0,1,7.031-1.815c.685.075.915.6,1.316,1.1-.524-.076-.96-.146-1.4-.2a9.014,9.014,0,0,0-6.031,1.351.6.6,0,0,0-.317.59c-.016.777-.061,1.553-.132,2.326a.46.46,0,0,0,.274.514c.525.3,1.042.612,1.555.932.246.155.523.334.308.686s-.483.218-.746.052a1.34,1.34,0,0,0-.136-.071,11.514,11.514,0,0,1-.184,2.334,6.579,6.579,0,0,0,.033,3.438,5.462,5.462,0,0,1,.04,1.5c-.013.3-.175.539-.532.474s-.352-.336-.343-.635c.016-.537-.013-1.076-.023-1.615l-.153-.023c-.056.1-.116.2-.167.3q-.553,1.123-1.1,2.247c-.1.209-.244.359-.437.359A.488.488,0,0,1,10.842,20.395ZM2.985,18.9a.272.272,0,0,1-.3-.3c0-.362-.006-.724,0-1.085a.431.431,0,0,0-.422-.42H1.19a.274.274,0,0,1-.308-.3q0-.493,0-.984a.275.275,0,0,1,.3-.3h1.12a.353.353,0,0,0,.383-.38q0-.56,0-1.12a.277.277,0,0,1,.305-.307h.984a.274.274,0,0,1,.3.3c0,.364,0,.728,0,1.093a.363.363,0,0,0,.2.373.39.39,0,0,0,.159.037c.2,0,.394,0,.59,0h0c.193,0,.384,0,.575,0a.262.262,0,0,1,.28.277q0,.517,0,1.034a.265.265,0,0,1-.281.277c-.379,0-.758,0-1.137,0a.352.352,0,0,0-.385.383q0,.553,0,1.107a.277.277,0,0,1-.318.315ZM.968,14.449a6.6,6.6,0,0,1-.189-2.832.594.594,0,0,0-.074-.363A4.649,4.649,0,0,1,.832,6.148,7.879,7.879,0,0,1,4.415,3.2a.351.351,0,0,1,.279-.008c.349.193.688.406,1.026.609-.843.539-1.662,1.016-2.432,1.564A4.436,4.436,0,0,0,1.368,8.7a6.57,6.57,0,0,0,.044.928l.12.031c.062-.076.122-.152.185-.226a.655.655,0,0,1,.95-.17.648.648,0,0,1,.13.955,4.341,4.341,0,0,0-.645,1.438.943.943,0,0,0-.225.167,1.044,1.044,0,0,0-.293.765q0,.906,0,1.812a.2.2,0,0,1,0,.049.212.212,0,0,1-.05,0Zm5.691-4.5a.645.645,0,0,1,.374-.473A6.028,6.028,0,0,1,8.355,9.3c.328-.012.5-.121.48-.45A24,24,0,0,0,8.626,6.19,4.655,4.655,0,0,0,6.367,3.256c-.637-.439-1.327-.8-2.019-1.216.842-.6.854-.617,1.687-.06.61.408,1.193.855,1.773,1.306a5.017,5.017,0,0,1,1.886,4c.023.561.016,1.124.005,1.686a1.136,1.136,0,0,1-1.1,1.205c-.471.049-.944.083-1.417.131a.865.865,0,0,1-.089,0C6.844,10.317,6.649,10.2,6.659,9.948ZM11.14,4.43A8.144,8.144,0,0,0,7.7.9C7.512.77,7.313.66,7.079.517,8.148-.16,7.793-.169,8.712.473A9.308,9.308,0,0,1,11.85,3.866c.157-.074.3-.136.432-.2a11.986,11.986,0,0,1,3.684-1.178.828.828,0,0,1,.48.1c.3.165.579.369.978.631-.462.043-.806.064-1.147.109a11.572,11.572,0,0,0-4.142,1.417,1.205,1.205,0,0,1-.527.195C11.407,4.938,11.282,4.781,11.14,4.43Z" transform="translate(11 9)" fill="#fff" stroke="#fff" stroke-width="0.45"/>
    </g>
  </g>
</svg>
