<svg xmlns="http://www.w3.org/2000/svg" xmlns:xlink="http://www.w3.org/1999/xlink" width="42" height="43.345" viewBox="0 0 42 43.345">
  <defs>
    <filter id="Union_12" x="1.738" y="4.493" width="38.85" height="38.852" filterUnits="userSpaceOnUse">
      <feOffset dy="3" input="SourceAlpha"/>
      <feGaussianBlur stdDeviation="3" result="blur"/>
      <feFlood flood-opacity="0.161"/>
      <feComposite operator="in" in2="blur"/>
      <feComposite in="SourceGraphic"/>
    </filter>
  </defs>
  <g id="Clinical_dietitian" data-name="Clinical dietitian" transform="translate(-16364 -6073)">
    <g id="Group_20781" data-name="Group 20781" transform="translate(16363.586 6073)">
      <path id="Subtraction_7" data-name="Subtraction 7" d="M21,42A21.005,21.005,0,0,1,12.826,1.65a21.005,21.005,0,0,1,16.349,38.7A20.864,20.864,0,0,1,21,42Z" transform="translate(0.415 0)" fill="#6ab654"/>
    </g>
    <g transform="matrix(1, 0, 0, 1, 16364, 6073)" filter="url(#Union_12)">
      <path id="Union_12-2" data-name="Union 12" d="M2.456,20.6a1.062,1.062,0,0,1-1.043-.831c-.094-.445-.166-.895-.244-1.342C1.032,17.665.9,16.9.76,16.138a.141.141,0,0,0-.084-.089A.976.976,0,0,1,0,15.032a.957.957,0,0,1,.844-.863,3.424,3.424,0,0,1,.441-.011l.2,0h.137a1.454,1.454,0,0,1,.142-.923,1.3,1.3,0,0,1,.275-.352.688.688,0,0,1,1,.083,1.358,1.358,0,0,1,.338.87c.006.1,0,.207,0,.317h.66a1.466,1.466,0,0,1,.145-.921,1.279,1.279,0,0,1,.276-.351.693.693,0,0,1,1.015.109,1.435,1.435,0,0,1,.311,1.09c0,.023-.005.045-.008.073h.646c.019-.2.022-.408.058-.606a1.1,1.1,0,0,1,.346-.632.706.706,0,0,1,1.063.076A1.441,1.441,0,0,1,8.2,14.083a.622.622,0,0,1-.008.068h.675a1.621,1.621,0,0,1,.067-.742,1.17,1.17,0,0,1,.291-.475.706.706,0,0,1,1.078.056,1.434,1.434,0,0,1,.311,1.1c0,.02,0,.04-.01.071.225,0,.445,0,.665,0a.934.934,0,0,1,.8.436.962.962,0,0,1-.512,1.447.116.116,0,0,0-.094.109q-.284,1.615-.57,3.229h8.737a.5.5,0,0,1,.319.115q0-1.079,0-2.159c0-1.281.009-2.561-.007-3.841A5.128,5.128,0,0,0,18.691,10.2a6.816,6.816,0,0,0-2.656-1.915L16,8.276s0,0-.016.009c.059.212.121.427.18.642q.119.414.236.83c.037.132,0,.172-.128.142l-1.18-.269c.023.047.039.084.055.12.147.323.291.646.436.969a.247.247,0,0,1-.066.325l-2.894,2.6a.087.087,0,0,1-.138,0c-.23-.21-.463-.417-.693-.626a.262.262,0,0,1-.066-.1,2.394,2.394,0,0,0-1.079-1.264.153.153,0,0,1-.064-.082,2.48,2.48,0,0,0-.828-1.231c-.049-.04-.032-.07-.014-.111.089-.193.176-.388.272-.6l-.721.162c-.047-.089-.091-.182-.14-.271a1.18,1.18,0,0,0-.158-.244.3.3,0,0,1-.058-.345c.07-.215.127-.435.2-.687-.261.126-.494.236-.725.353a.158.158,0,0,1-.173,0,1.9,1.9,0,0,0-.72-.224c.154-.093.285-.175.42-.252a8.267,8.267,0,0,1,1.333-.6.19.19,0,0,0,.094-.1A2.18,2.18,0,0,0,9.433,7.2c.039-.13.094-.148.2-.068l1.233.916.639.472c.121.091.135.165.049.291-.159.235-.321.469-.478.707a.135.135,0,0,0-.015.106q.733,1.98,1.471,3.958c0,.005.008.009.021.025.086-.225.167-.442.247-.659q.613-1.644,1.228-3.289a.162.162,0,0,0-.023-.172c-.16-.227-.312-.459-.468-.69a.166.166,0,0,1,.044-.267q.944-.7,1.887-1.4c.1-.076.177-.058.194.066a.5.5,0,0,0,.387.421,7.4,7.4,0,0,1,3.13,2.179,5.8,5.8,0,0,1,1.346,2.947,8.483,8.483,0,0,1,.063,1.142c.007,1.884,0,3.767,0,5.651,0,.235,0,.469,0,.7a.321.321,0,0,1-.318.359h0a.309.309,0,0,1-.323-.327.5.5,0,0,1-.32.116H10.439a1,1,0,0,1-.436.2,1.116,1.116,0,0,1-.2.01c-2.447,0-4.893-.008-7.341.006Zm5.912-1.617a.317.317,0,0,0,.286-.462.321.321,0,0,0-.313-.18H3.89a.472.472,0,0,0-.05,0,.321.321,0,0,0-.256.476.337.337,0,0,0,.321.167H7.8C7.992,18.986,8.18,18.991,8.368,18.985ZM5.492,17.057A.322.322,0,1,0,5.5,17.7H6.725a.323.323,0,1,0,0-.643H5.759C5.67,17.055,5.581,17.055,5.492,17.057ZM.986,14.8a.319.319,0,0,0-.3.466.33.33,0,0,0,.325.177H11.192a.925.925,0,0,0,.1,0,.326.326,0,0,0,.293-.285.31.31,0,0,0-.226-.337.7.7,0,0,0-.188-.019L2.4,14.8C1.93,14.8,1.458,14.8.986,14.8ZM12.23,18.509a.322.322,0,1,1,.323.316A.319.319,0,0,1,12.23,18.509Zm4.633-.2q-1.083-.456-2.165-.908a.323.323,0,0,1-.215-.329c0-.539,0-1.079,0-1.618V13.865a.319.319,0,0,1,.349-.349h4.123a.32.32,0,0,1,.355.354q0,1.6,0,3.2a.329.329,0,0,1-.2.328q-.967.454-1.935.909a.362.362,0,0,1-.157.037A.392.392,0,0,1,16.863,18.309Zm-1.093-2.543a.327.327,0,0,0,.357.323h.445c0,.163-.007.313,0,.463a.507.507,0,0,0,.067.214.292.292,0,0,0,.337.113.311.311,0,0,0,.235-.3c0-.16,0-.319,0-.488h.441a.324.324,0,1,0,0-.643h-.437c0-.158,0-.305,0-.452a.322.322,0,1,0-.642.005c0,.147,0,.292,0,.446h-.442A.327.327,0,0,0,15.771,15.766ZM12.23,17.222a.321.321,0,1,1,.321.317A.317.317,0,0,1,12.23,17.222Zm.316-.97a.322.322,0,1,1,.328-.311.317.317,0,0,1-.328.311Zm-.316-1.607a.321.321,0,1,1,.319.319A.318.318,0,0,1,12.23,14.645ZM2.839,12.117a1.16,1.16,0,0,1,.523-.841.718.718,0,0,1,.967.26,1.382,1.382,0,0,1,.236.58,1.563,1.563,0,0,0-.862.671A1.574,1.574,0,0,0,2.839,12.117Zm4.828,0a1.256,1.256,0,0,1,.367-.724.7.7,0,0,1,1.062.069,1.334,1.334,0,0,1,.3.655,1.572,1.572,0,0,0-.862.669A1.563,1.563,0,0,0,7.667,12.117Zm-2.413-.005a1.189,1.189,0,0,1,.49-.816.723.723,0,0,1,1.011.259,1.4,1.4,0,0,1,.222.563,1.56,1.56,0,0,0-.858.666A1.63,1.63,0,0,0,5.254,12.111Zm1.207-1.523a1.354,1.354,0,0,1,.289-.647.714.714,0,0,1,1.126-.023,1.3,1.3,0,0,1,.308.667,1.581,1.581,0,0,0-.86.675A1.559,1.559,0,0,0,6.461,10.589Zm-2.414,0A1.292,1.292,0,0,1,4.375,9.9a.707.707,0,0,1,1.081.014,1.271,1.271,0,0,1,.31.678,1.57,1.57,0,0,0-.857.669A1.552,1.552,0,0,0,4.047,10.589Zm.158-2.549a5.213,5.213,0,0,1-1.652-.466,4.237,4.237,0,0,1-2.474-3.3,7.245,7.245,0,0,1,.032-2.32c.02-.131.045-.264.071-.394a.322.322,0,0,1,.4-.263A5.929,5.929,0,0,1,3.4,2.73,4.325,4.325,0,0,1,4.769,5.351c.037.265.053.533.077.8a7.952,7.952,0,0,1-.212,1.591c-.05.212-.153.3-.341.3A.769.769,0,0,1,4.206,8.041Zm-3.455-6A6.678,6.678,0,0,0,.71,4.133a3.811,3.811,0,0,0,.666,1.682A3.816,3.816,0,0,0,3.258,7.16c.1.034.2.062.319.1C3.3,6.868,3.049,6.5,2.794,6.132a.294.294,0,0,1-.043-.267A.306.306,0,0,1,3,5.636a.31.31,0,0,1,.323.139c.14.2.276.4.416.593l.383.546c.008-.038.012-.052.013-.068a5.41,5.41,0,0,0,.008-1.283,3.76,3.76,0,0,0-.86-2.01,4.755,4.755,0,0,0-1.87-1.319C1.207,2.147.988,2.076.773,2A.327.327,0,0,0,.751,2.042ZM5.376,7.317a.148.148,0,0,1,.086-.078A3.54,3.54,0,0,0,6.769,6.4,2.326,2.326,0,0,0,7.4,4.568c-.007-.11-.023-.22-.037-.346A2.771,2.771,0,0,0,5.446,5.438c-.055-.266-.112-.53-.163-.795a.141.141,0,0,1,.048-.1,3.257,3.257,0,0,1,1.33-.8,7.761,7.761,0,0,1,.838-.2.332.332,0,0,1,.435.286,3.312,3.312,0,0,1-.186,2.282,3.319,3.319,0,0,1-1.37,1.4,4.771,4.771,0,0,1-1.133.47C5.288,7.755,5.328,7.535,5.376,7.317Zm7.095.407a3.86,3.86,0,1,1,.084,0ZM9.334,3.894A3.219,3.219,0,1,0,12.524.644,3.227,3.227,0,0,0,9.334,3.894Zm1.308.759a2.067,2.067,0,1,1,1.911,1.276A2.068,2.068,0,0,1,10.642,4.653Z" transform="translate(10.87 10.62)" fill="#fff" stroke="#fff" stroke-width="0.25"/>
    </g>
  </g>
</svg>
