<svg xmlns="http://www.w3.org/2000/svg" xmlns:xlink="http://www.w3.org/1999/xlink" width="42.799" height="43.188" viewBox="0 0 42.799 43.188">
  <defs>
    <filter id="Union_13" x="0.5" y="4.474" width="42.299" height="38.714" filterUnits="userSpaceOnUse">
      <feOffset dy="3" input="SourceAlpha"/>
      <feGaussianBlur stdDeviation="3" result="blur"/>
      <feFlood flood-opacity="0.161"/>
      <feComposite operator="in" in2="blur"/>
      <feComposite in="SourceGraphic"/>
    </filter>
  </defs>
  <g id="Dental" transform="translate(-15970 -6217)">
    <path id="Subtraction_52" data-name="Subtraction 52" d="M21,42A21.005,21.005,0,0,1,12.826,1.65a21.005,21.005,0,0,1,16.349,38.7A20.864,20.864,0,0,1,21,42Z" transform="translate(15970 6217)" fill="#6ab654"/>
    <g transform="matrix(1, 0, 0, 1, 15970, 6217)" filter="url(#Union_13)">
      <path id="Union_13-2" data-name="Union 13" d="M6.409,19.687a2.838,2.838,0,0,1-2.723-2.117c-.236-.857-.455-1.718-.683-2.577s-.45-1.721-.684-2.578a6.316,6.316,0,0,0-.884-1.906A8.094,8.094,0,0,1,.063,6.965C.044,6.819.021,6.672,0,6.525V5.449a13.829,13.829,0,0,1,.319-1.37,6.08,6.08,0,0,1,9.918-2.418c.042.04.087.077.1.087.472-.333.9-.689,1.384-.966A6.086,6.086,0,0,1,19.756,2.7a.419.419,0,0,0,.416.226c.426-.013.579.148.579.561V5.43h.656c.47,0,.941-.006,1.41,0a.44.44,0,0,1,.482.479q.006,1.222,0,2.444c0,.312-.184.478-.528.48-.584.006-1.169,0-1.752,0h-.267v1.454c0,.187,0,.373,0,.561a.451.451,0,0,1-.492.493c-.387.01-.775.018-1.16,0a.319.319,0,0,0-.379.256c-.231.788-.479,1.57-.7,2.362-.327,1.188-.626,2.384-.951,3.573a2.871,2.871,0,0,1-5.519.141c-.354-1.071-.7-2.145-1.046-3.218-.026-.08-.063-.158-.1-.237l-.063,0c-.036.083-.08.163-.107.248-.351,1.079-.695,2.162-1.052,3.239a2.84,2.84,0,0,1-2.706,1.981Zm4.922-5.632c.366,1.114.722,2.231,1.088,3.346a1.961,1.961,0,0,0,3.783-.113c.319-1.2.632-2.4.952-3.595.207-.776.423-1.55.635-2.324-.429-.113-.5-.2-.5-.672V8.838h-.265c-.577,0-1.153,0-1.73,0-.391,0-.551-.164-.553-.548q0-1.142,0-2.287c0-.417.152-.57.571-.573q.518,0,1.038,0h.692c.079,0,.158-.008.247-.012V3.688c0-.694.077-.77.782-.77H18.8c-.056-.078-.075-.11-.1-.137a5.209,5.209,0,0,0-8.056.063A3.621,3.621,0,0,1,7.837,4.151a.444.444,0,0,1-.487-.425A.453.453,0,0,1,7.8,3.259c.061-.006.122,0,.182-.007a2.852,2.852,0,0,0,1.814-.821c-.09-.065-.176-.115-.248-.179A5.16,5.16,0,0,0,.96,5.26,6.62,6.62,0,0,0,2.032,9.748a9.977,9.977,0,0,1,1.342,3.065c.374,1.5.782,2.991,1.179,4.486a1.962,1.962,0,0,0,3.778.112c.367-1.114.726-2.23,1.087-3.346a1.026,1.026,0,0,1,.426-.588,1,1,0,0,1,.534-.158A1.015,1.015,0,0,1,11.33,14.055ZM15.507,6.57c0,.374,0,.757,0,1.134v.417H17.34a.718.718,0,0,1,.511.218.688.688,0,0,1,.206.489c-.009.342-.007.691-.006,1.029V9.9l0,.155v.154l0,.416h2V8.773a.611.611,0,0,1,.665-.652h1.876V7.7c0-.453,0-.813,0-1.133l0-.417H21.054c-.145,0-.265,0-.379,0a.679.679,0,0,1-.276-.062.628.628,0,0,1-.35-.627c0-.428.006-.9,0-1.4l0-.417h-2v.42c0,.534,0,1.006,0,1.442a.613.613,0,0,1-.658.647H15.508ZM14.28,17.3a.434.434,0,0,1-.418-.355c-.174-.533-.351-1.076-.521-1.6-.185-.572-.377-1.163-.568-1.744A2.51,2.51,0,0,0,9.03,12.214a2.5,2.5,0,0,0-1.058,1.4l-.129.4c-.312.965-.633,1.962-.955,2.938a.412.412,0,0,1-.438.343.752.752,0,0,1-.084,0,.446.446,0,0,1-.346-.366q-.155-.589-.314-1.179c-.288-1.077-.586-2.191-.86-3.286A11.346,11.346,0,0,0,3.308,8.938a5.116,5.116,0,0,1-.84-3.511A3.628,3.628,0,0,1,5.434,2.444a4.586,4.586,0,0,1,.64-.047h0c.09,0,.177,0,.264.009a1.9,1.9,0,0,0-.506,1.383A1.943,1.943,0,0,0,7.828,5.646h.033A5.155,5.155,0,0,0,11.8,3.806a3.589,3.589,0,0,1,2.032-1.3,4.684,4.684,0,0,1,.949-.1,3.353,3.353,0,0,1,1.166.2,3.024,3.024,0,0,0-.174,1.088v.246H15.31A1.951,1.951,0,0,0,13.228,6c0,.734,0,1.514,0,2.292a1.952,1.952,0,0,0,2.06,2.04l.488,0V10.7a2.347,2.347,0,0,0,.288,1.224c-.125.458-.254.926-.377,1.391-.183.681-.366,1.373-.542,2.042q-.2.778-.411,1.556c-.089.333-.281.382-.438.386Zm4.2-7.084c0-.1,0-.207,0-.31,0-.35,0-.711.006-1.061a1.1,1.1,0,0,0-.327-.792,1.142,1.142,0,0,0-.814-.346h-1.41c0-.377,0-.757,0-1.132h1.463a1.03,1.03,0,0,0,1.083-1.064c0-.436,0-.91,0-1.445h1.15c0,.425,0,.911,0,1.395a1.032,1.032,0,0,0,.59,1.008,1.117,1.117,0,0,0,.451.1c.114,0,.237,0,.389,0h1.114c0,.355,0,.727,0,1.132H20.717a1.033,1.033,0,0,0-1.089,1.071v1.437Z" transform="translate(10 11)" fill="#fff" stroke="rgba(0,0,0,0)" stroke-miterlimit="10" stroke-width="1"/>
    </g>
  </g>
</svg>
