<svg xmlns="http://www.w3.org/2000/svg" xmlns:xlink="http://www.w3.org/1999/xlink" width="42" height="44.719" viewBox="0 0 42 44.719">
  <defs>
    <filter id="Union_14" x="1.875" y="3.874" width="38.718" height="40.845" filterUnits="userSpaceOnUse">
      <feOffset dy="3" input="SourceAlpha"/>
      <feGaussianBlur stdDeviation="3" result="blur"/>
      <feFlood flood-opacity="0.161"/>
      <feComposite operator="in" in2="blur"/>
      <feComposite in="SourceGraphic"/>
    </filter>
  </defs>
  <g id="Dermatology" transform="translate(-16170 -6217)">
    <g id="Group_20786" data-name="Group 20786" transform="translate(16169.585 6217)">
      <path id="Subtraction_7" data-name="Subtraction 7" d="M21,42A21.005,21.005,0,0,1,12.826,1.65a21.005,21.005,0,0,1,16.349,38.7A20.864,20.864,0,0,1,21,42Z" transform="translate(0.415 0)" fill="#6ab654"/>
    </g>
    <g transform="matrix(1, 0, 0, 1, 16170, 6217)" filter="url(#Union_14)">
      <path id="Union_14-2" data-name="Union 14" d="M8.316,22.22a9.187,9.187,0,0,1-3-2.061c-1.083-1.033-1.953-2.287-2.944-3.42A9.525,9.525,0,0,1,0,10.655C.058,4.688,4.342.245,9.8.009A10.2,10.2,0,0,1,20.428,9.3,10.065,10.065,0,0,1,17,17.933a5.184,5.184,0,0,0-.874,1.058,6.965,6.965,0,0,1-5.759,3.6A5.978,5.978,0,0,1,8.316,22.22ZM4,9.737a3.525,3.525,0,0,0-.182.719,11.737,11.737,0,0,0,2,8.458c2.416,3.359,6.559,3.316,8.942-.064a12.886,12.886,0,0,0,2.062-5.7c.2-1.35.1-2.719-1.285-3.485a5.242,5.242,0,0,0-3.687-.929,8.074,8.074,0,0,1-.84.072c.721.589,2.111,1.382,2.92,2.044-3.5.7-6.74.616-9.669-1.58A3.232,3.232,0,0,0,4,9.737Zm.246-4.93C.731,8,.933,13.473,3.028,16.031a12.814,12.814,0,0,1-.2-6.2,7.633,7.633,0,0,1,8.585-5.682A7.8,7.8,0,0,1,17.932,12.6c-.112,1.061-.218,2.123-.34,3.322A8.511,8.511,0,0,0,15.934,4.591a8.437,8.437,0,0,0-5.641-2.118A9.018,9.018,0,0,0,4.248,4.807ZM11.676,19.6a.571.571,0,1,1,.571.571A.571.571,0,0,1,11.676,19.6Zm1.07-.661a.313.313,0,1,1,.313.313A.313.313,0,0,1,12.746,18.938Zm-.319-.6a.19.19,0,1,1,.19.19A.19.19,0,0,1,12.426,18.338Zm-6.064-.647a.419.419,0,1,1,.419.419A.42.42,0,0,1,6.362,17.691Zm-.626-.734a.313.313,0,1,1,.313.314A.313.313,0,0,1,5.736,16.958Zm.947-.222a.191.191,0,1,1,.192.192A.191.191,0,0,1,6.683,16.736Zm7.116-.267a.4.4,0,1,1,.4.4A.405.405,0,0,1,13.8,16.468Zm-2.413-2.375c.2-.151.373-.4.544-.394.989.014,1.977.087,3.1.148a2.258,2.258,0,0,1-1.807.934A3.1,3.1,0,0,1,11.386,14.093Zm-5.968,0c.2-.151.373-.4.543-.394.989.014,1.978.087,3.1.148a2.259,2.259,0,0,1-1.807.934A3.1,3.1,0,0,1,5.418,14.093Z" transform="translate(11 10)" fill="#fff" stroke="#fff" stroke-miterlimit="10" stroke-width="0.25"/>
    </g>
  </g>
</svg>
