<svg xmlns="http://www.w3.org/2000/svg" width="42" height="42" viewBox="0 0 42 42">
  <g id="Elecrtophysiology" transform="translate(-16170 -7801)">
    <g id="Group_20872" data-name="Group 20872" transform="translate(16169.585 7801)">
      <path id="Subtraction_7" data-name="Subtraction 7" d="M21,42A21.005,21.005,0,0,1,12.826,1.65a21.005,21.005,0,0,1,16.349,38.7A20.864,20.864,0,0,1,21,42Z" transform="translate(0.415 0)" fill="#6ab654"/>
    </g>
    <path id="Path_27319" data-name="Path 27319" d="M1882.909-2795.3a3.037,3.037,0,0,1-.642,2.4c-.09.1-.014.409.062.588a3.874,3.874,0,0,0,4.309,2.136,3.4,3.4,0,0,0,3.167-2.414c.058-.179.094-.367.141-.556a3.382,3.382,0,0,1-2.09-3.2,3.35,3.35,0,0,1,3.058-3.319,3.457,3.457,0,0,1,3.639,2.475,3.314,3.314,0,0,1-1.945,3.967,1.04,1.04,0,0,0-.7.8,5.41,5.41,0,0,1-5.594,4.32,6.1,6.1,0,0,1-4.828-1.732,4.856,4.856,0,0,1-.8-1.071,7.85,7.85,0,0,0-1.469-2.293c-.381-.36-.366-1.134-.542-1.717-.055-.181-.1-.444-.234-.509a7.538,7.538,0,0,1-3.571-4.209,15.762,15.762,0,0,1-1.073-4.689,2.658,2.658,0,0,1,1.574-2.568,2.641,2.641,0,0,0,.764-.728,1.94,1.94,0,0,1,2.573-.6,1.837,1.837,0,0,1,.692,2.437,1.86,1.86,0,0,1-2.5.787c-.292-.147-.517-.331-.879-.058s-.312.556-.273.916a12.659,12.659,0,0,0,1.1,4.259,7.712,7.712,0,0,0,1.248,1.876,3.71,3.71,0,0,0,5.566-.122,9.458,9.458,0,0,0,2-4.647,12.834,12.834,0,0,0,.229-1.669.659.659,0,0,0-1.034-.619,1.881,1.881,0,0,1-2.622-.693,1.845,1.845,0,0,1,.7-2.48,1.9,1.9,0,0,1,2.613.741,1.457,1.457,0,0,0,.517.5,2.822,2.822,0,0,1,1.677,3.451,14.8,14.8,0,0,1-1.557,5.089A6.693,6.693,0,0,1,1882.909-2795.3Zm8.363.512a1.526,1.526,0,0,0,1.51-1.522,1.512,1.512,0,0,0-1.549-1.478,1.528,1.528,0,0,0-1.517,1.517A1.534,1.534,0,0,0,1891.272-2794.791Z" transform="translate(14306.769 10620.48)" fill="#fff"/>
  </g>
</svg>
