<svg xmlns="http://www.w3.org/2000/svg" xmlns:xlink="http://www.w3.org/1999/xlink" width="44.067" height="42" viewBox="0 0 44.067 42">
  <defs>
    <filter id="Union_56" x="0" y="3.5" width="44.067" height="38.354" filterUnits="userSpaceOnUse">
      <feOffset dy="3" input="SourceAlpha"/>
      <feGaussianBlur stdDeviation="3" result="blur"/>
      <feFlood flood-opacity="0.161"/>
      <feComposite operator="in" in2="blur"/>
      <feComposite in="SourceGraphic"/>
    </filter>
  </defs>
  <g id="Emergency_Medicine" data-name="Emergency Medicine" transform="translate(-15968.479 -7369)">
    <path id="Subtraction_128" data-name="Subtraction 128" d="M21,42A21.005,21.005,0,0,1,12.826,1.65a21.005,21.005,0,0,1,16.349,38.7A20.864,20.864,0,0,1,21,42Z" transform="translate(15970 7369)" fill="#6ab654"/>
    <g transform="matrix(1, 0, 0, 1, 15968.48, 7369)" filter="url(#Union_56)">
      <path id="Union_56-2" data-name="Union 56" d="M3,19.348a7.6,7.6,0,0,1-1.3-.112A2.038,2.038,0,0,1,.043,16.7c.5-2.917,1.039-5.826,1.589-8.734a23.917,23.917,0,0,1,.6-2.325A3.752,3.752,0,0,1,6.053,2.82c.447.014.9.01,1.345.006.464,0,.929-.008,1.393.009.393.015.475-.125.459-.476a3.088,3.088,0,0,1,.076-.868A1.709,1.709,0,0,1,10.984.054,25.082,25.082,0,0,1,14.007.039c1.252.076,1.769.97,1.81,2.1.008.214,0,.43,0,.689,1.136,0,2.194.024,3.252-.005a3.656,3.656,0,0,1,3.746,2.807c.518,2.014.929,4.057,1.337,6.1.317,1.589.542,3.2.835,4.793A2.142,2.142,0,0,1,22.855,19.3c-.619.019-1.238.051-1.858.052l-6.589,0Q8.7,19.355,3,19.348ZM22.75,18.094a.962.962,0,0,0,1.059-1.217c-.362-2.014-.686-4.035-1.08-6.042-.319-1.625-.678-3.245-1.1-4.848A2.453,2.453,0,0,0,19.1,4.038q-6.591-.007-13.18.01A2.368,2.368,0,0,0,3.576,5.59a7.312,7.312,0,0,0-.451,1.419q-.961,4.963-1.88,9.935c-.124.67.252,1.087.951,1.143.206.017.414.011.62.011H19.94C20.876,18.1,21.813,18.106,22.75,18.094ZM11.159,1.049a.784.784,0,0,0-.84.706,7.353,7.353,0,0,0-.01,1.057h4.479a8.083,8.083,0,0,0-.081-1.13.752.752,0,0,0-.814-.636q-.614-.006-1.229-.006Q11.912,1.038,11.159,1.049Zm1.377,16.614a6.58,6.58,0,1,1,.007,0ZM7.1,11.065A5.424,5.424,0,1,0,12.8,5.65c-.089,0-.177-.006-.265-.006A5.385,5.385,0,0,0,7.1,11.065Zm4.147,3.692c0-.609,0-1.2,0-1.794,0-.612.033-.6-.4-.6l-.213,0c-.5,0-1-.011-1.5,0-.248.007-.353-.073-.349-.331.011-.643.01-1.29,0-1.934,0-.253.1-.343.346-.338s.486,0,.728,0c.329,0,.659-.005.987.011s.416-.109.4-.419c-.022-.571-.014-1.144,0-1.715,0-.1.113-.271.177-.273.775-.019,1.551-.012,2.382-.012,0,.673,0,1.3,0,1.933,0,.48,0,.48.478.481.547,0,1.1.008,1.642,0,.234-.005.327.077.324.316q-.015.984,0,1.97c0,.244-.1.314-.327.31-.247,0-.5,0-.743,0-.336,0-.672,0-1.008-.008-.3-.012-.377.106-.37.379.013.523,0,1.047,0,1.57,0,.143-.016.287-.026.452Z" transform="translate(9.52 10)" fill="#fff" stroke="rgba(0,0,0,0)" stroke-miterlimit="10" stroke-width="1"/>
    </g>
  </g>
</svg>
