<svg xmlns="http://www.w3.org/2000/svg" xmlns:xlink="http://www.w3.org/1999/xlink" width="42" height="43.217" viewBox="0 0 42 43.217">
  <defs>
    <filter id="Union_82" x="1.736" y="4.689" width="40.016" height="38.527" filterUnits="userSpaceOnUse">
      <feOffset dy="3" input="SourceAlpha"/>
      <feGaussianBlur stdDeviation="3" result="blur"/>
      <feFlood flood-opacity="0.161"/>
      <feComposite operator="in" in2="blur"/>
      <feComposite in="SourceGraphic"/>
    </filter>
  </defs>
  <g id="Endovascular" transform="translate(-15970 -8377)">
    <path id="Subtraction_163" data-name="Subtraction 163" d="M21,42A21.005,21.005,0,0,1,12.826,1.65a21.005,21.005,0,0,1,16.349,38.7A20.864,20.864,0,0,1,21,42Z" transform="translate(15970 8377)" fill="#6ab654"/>
    <g transform="matrix(1, 0, 0, 1, 15970, 8377)" filter="url(#Union_82)">
      <path id="Union_82-2" data-name="Union 82" d="M8.379,19.962a.961.961,0,0,1-.873-1,6.589,6.589,0,0,1,.419-1.982,7.618,7.618,0,0,1,1.607-2.559c.042-.045.083-.092.13-.143A4.536,4.536,0,0,1,8.99,11.3a.237.237,0,0,0-.148-.259,4.7,4.7,0,0,0-4.282-.16,10.988,10.988,0,0,0-3.168,2.1c-.271.243-.528.5-.791.752-.191.183-.37.2-.511.05s-.113-.315.067-.494a13.619,13.619,0,0,1,3.783-2.819,6,6,0,0,1,3.3-.614,5.609,5.609,0,0,1,2.3.864c.619.38,1.228.779,1.863,1.132a7.67,7.67,0,0,0,4.033.949c.091,0,.182-.007.272-.005a.317.317,0,0,1,.34.3.312.312,0,0,1-.314.326c-.419.007-.841.017-1.258-.013a8.383,8.383,0,0,1-3.448-1.031c-.023-.014-.049-.023-.113-.05a1.983,1.983,0,0,0,.487,1.1c.252.281.536.533.792.81a5.7,5.7,0,0,1,.5.622.3.3,0,0,0,.3.149,7.18,7.18,0,0,1,4.594,1.3.921.921,0,0,1,.414.982.885.885,0,0,1-.714.738.943.943,0,0,1-.792-.179,5.294,5.294,0,0,0-2.905-.957c-.054,0-.108,0-.179,0,0,.355.011.7,0,1.036a5.052,5.052,0,0,1-.088.707.94.94,0,0,1-1.855-.311,3.669,3.669,0,0,0-.12-1.964,7.675,7.675,0,0,0-.368-.7,5.491,5.491,0,0,0-1.562,3.211c-.009.09-.017.181-.031.27a.955.955,0,0,1-.915.83Q8.42,19.966,8.379,19.962Zm1.216-8.275a3.822,3.822,0,0,0,.615,2.27c.229.34.219.45-.071.743A6.68,6.68,0,0,0,8.39,17.6a11.24,11.24,0,0,0-.248,1.356.319.319,0,0,0,.278.379c.174.019.307-.106.342-.323,0-.027.006-.055.01-.083A6.019,6.019,0,0,1,10.628,15.1a.392.392,0,0,1,.663.026,5.148,5.148,0,0,1,.628,1.005,3.869,3.869,0,0,1,.171,2.187c-.04.264.04.408.229.444s.368-.083.384-.339a15.348,15.348,0,0,0,.043-1.588c-.015-.415.087-.58.5-.584a6.023,6.023,0,0,1,3.58,1.058c.211.147.385.134.5-.023s.065-.35-.146-.5a6.281,6.281,0,0,0-1.842-.887,6.884,6.884,0,0,0-2.533-.257.447.447,0,0,1-.492-.2,4.7,4.7,0,0,0-1.022-1.215,3.055,3.055,0,0,1-1.061-2.184.264.264,0,0,0-.071-.182c-.167-.122-.347-.228-.539-.35A1.544,1.544,0,0,0,9.595,11.687Zm7.291,1.282c-.041-.183.064-.336.287-.387a14.068,14.068,0,0,0,3.762-1.5c.27-.152.38-.125.566.122v.21a2.191,2.191,0,0,1-.288.231,14.153,14.153,0,0,1-3.879,1.544.628.628,0,0,1-.136.016A.291.291,0,0,1,16.886,12.969Zm-5.638-2.3c-.477-.3-.956-.606-1.441-.9A6.232,6.232,0,0,0,3.857,9.45,12.124,12.124,0,0,0,.835,11.359c-.1.081-.19.166-.289.244A.313.313,0,0,1,.08,11.59a.307.307,0,0,1,.059-.462c.332-.278.666-.556,1.012-.817a11.4,11.4,0,0,1,2.9-1.618C4,8.39,3.938,8.1,3.9,7.8a4.1,4.1,0,0,1,.07-1.562.234.234,0,0,0-.112-.292,4.744,4.744,0,0,1-2-3.663A.941.941,0,0,1,2.739,1.2a.971.971,0,0,1,1,1.008A2.915,2.915,0,0,0,4.894,4.372a2.329,2.329,0,0,0,.58-1.751A7.765,7.765,0,0,0,5.192,1.3a.98.98,0,0,1,.159-.93.928.928,0,0,1,1.57.185A5.157,5.157,0,0,1,7.369,2.48a.3.3,0,0,1-.277.334.308.308,0,0,1-.345-.287Q6.591,1.758,6.425.993A.612.612,0,0,0,6.353.819.3.3,0,0,0,5.959.675a.293.293,0,0,0-.176.379c.094.343.211.682.275,1.031a3.26,3.26,0,0,1-.721,2.767.49.49,0,0,1-.724.092,3.541,3.541,0,0,1-1.5-2.671c0-.034,0-.069,0-.1-.02-.214-.144-.34-.329-.335a.3.3,0,0,0-.294.356,8.028,8.028,0,0,0,.281,1.347A3.915,3.915,0,0,0,4.306,5.5c.361.249.4.368.291.8a4.125,4.125,0,0,0,.077,2.193l.6-.139c-.045-.241-.093-.465-.129-.69-.077-.5.119-.725.617-.742A15.639,15.639,0,0,0,9.663,6.3a.562.562,0,0,1,.673.2A6.522,6.522,0,0,0,13.988,8.66a.82.82,0,0,0,.186.024.294.294,0,0,0,.317-.248.285.285,0,0,0-.22-.354c-.181-.051-.368-.082-.55-.133A5.909,5.909,0,0,1,11.3,6.585a.5.5,0,0,1,.156-.888,17.216,17.216,0,0,0,2.621-1.359c.064-.041.159-.083.175-.141a.534.534,0,0,0,.009-.362c-.046-.079-.206-.112-.319-.122-.07-.006-.15.065-.222.105-.5.28-1,.569-1.5.838a.506.506,0,0,1-.795-.315,3.538,3.538,0,0,1,.264-3.071c.021-.037.046-.071.067-.107a.335.335,0,0,0-.066-.482.322.322,0,0,0-.472.161,6.549,6.549,0,0,0-.421.887,4.093,4.093,0,0,0,.1,2.991c.148.366.1.482-.266.616a15.871,15.871,0,0,1-4.479.932.506.506,0,0,1-.47-.8c.22-.331.451-.658.655-1a3.738,3.738,0,0,0,.235-.559c.083-.214.238-.313.412-.257a.313.313,0,0,1,.177.464c-.2.423-.418.833-.634,1.247a2.835,2.835,0,0,1-.174.257,15.151,15.151,0,0,0,3.869-.806c-.082-.363-.185-.71-.236-1.066A4.7,4.7,0,0,1,10.726.428.94.94,0,0,1,12.31,1.443a2.988,2.988,0,0,0-.392,2.391c.012.048.027.094.042.14.008.025.02.05.044.111.485-.284.963-.558,1.436-.84a1.034,1.034,0,0,1,.7-.175.94.94,0,0,1,.374,1.73c-.688.4-1.391.775-2.092,1.155-.177.1-.367.169-.568.26a1.245,1.245,0,0,0,.1.1,5.159,5.159,0,0,0,2.3,1.107A.951.951,0,1,1,13.94,9.3,7.255,7.255,0,0,1,9.976,7.048c-.072-.077-.124-.141-.261-.1a17.088,17.088,0,0,1-3.867.6c-.02,0-.04.008-.09.017.049.23.1.457.145.672.418,0,.81-.018,1.2,0a6.825,6.825,0,0,1,3.2,1.085c.655.4,1.3.834,1.976,1.19a6.576,6.576,0,0,0,4.756.455,12.875,12.875,0,0,0,3.584-1.551c.1-.058.19-.118.284-.177.276-.169.372-.158.6.069v.252c-.355.23-.7.479-1.067.688a12.045,12.045,0,0,1-3.883,1.463,8.016,8.016,0,0,1-1.379.123A7.18,7.18,0,0,1,11.248,10.667Z" transform="translate(11 11)" fill="#fff" stroke="#fff" stroke-width="0.5"/>
    </g>
  </g>
</svg>
