<svg xmlns="http://www.w3.org/2000/svg" xmlns:xlink="http://www.w3.org/1999/xlink" width="45.285" height="44.544" viewBox="0 0 45.285 44.544">
  <defs>
    <filter id="Union_16" x="0" y="3.5" width="45.285" height="41.043" filterUnits="userSpaceOnUse">
      <feOffset dy="3" input="SourceAlpha"/>
      <feGaussianBlur stdDeviation="3" result="blur"/>
      <feFlood flood-opacity="0.161"/>
      <feComposite operator="in" in2="blur"/>
      <feComposite in="SourceGraphic"/>
    </filter>
  </defs>
  <g id="Endocrinology" transform="translate(-15968.499 -6361)">
    <path id="Subtraction_59" data-name="Subtraction 59" d="M21,42A21.005,21.005,0,0,1,12.826,1.65a21.005,21.005,0,0,1,16.349,38.7A20.864,20.864,0,0,1,21,42Z" transform="translate(15970 6361)" fill="#6ab654"/>
    <g transform="matrix(1, 0, 0, 1, 15968.5, 6361)" filter="url(#Union_16)">
      <path id="Union_16-2" data-name="Union 16" d="M13.583,22.044c0-.041-.005-.076-.005-.113q0-5.037,0-10.072a3.061,3.061,0,0,1,2.629-3.066,2.912,2.912,0,0,1,.4-.031c.853,0,1.707,0,2.561,0l.076,0c-.022.289-.042.573-.065.869H17.123a2.192,2.192,0,0,0-2.227,2.23V22.044Zm-2.191,0V13.615A2.174,2.174,0,0,0,9.814,11.48a2.488,2.488,0,0,0-.641-.092c-.647-.012-1.294,0-1.941,0H7.106c-.02-.292-.041-.577-.06-.872H9.639a3.065,3.065,0,0,1,3.066,2.95c0,.078.005.156.005.234v8.348Zm4.376,0v-.106q0-5.05,0-10.1a1.318,1.318,0,0,1,1.43-1.327.154.154,0,0,1,.1.079c.346.653.682,1.309,1.033,1.959a1.441,1.441,0,0,1,.2.781,4.269,4.269,0,0,0,.46,2.173c.1.193.227.374.347.571l-.376.094A2.49,2.49,0,0,0,17.07,18a3.185,3.185,0,0,0-.115.861c-.014,1.016,0,2.033,0,3.049v.127Zm-6.568,0V21.92c0-1.033,0-2.066,0-3.1a2.725,2.725,0,0,0-.761-1.957,2.512,2.512,0,0,0-.727-.529.087.087,0,0,1-.058-.116,5,5,0,0,0,.1-1.413,1.223,1.223,0,0,0-.034-.251.265.265,0,0,1,.065-.265q.78-.964,1.549-1.937a.15.15,0,0,1,.181-.059,1.315,1.315,0,0,1,1,1.286c0,.569,0,1.139,0,1.707v6.754Zm-6.321-4.28a3.421,3.421,0,0,1-2.308-2,6.234,6.234,0,0,1-.5-1.983A16.044,16.044,0,0,1,.318,9.07a7.126,7.126,0,0,1,.941-2.463A3.676,3.676,0,0,1,3.926,4.831,4.031,4.031,0,0,1,4.815,4.8a1.677,1.677,0,0,1,1.395.972,3.318,3.318,0,0,1,.332,1.884,4.884,4.884,0,0,1-.111.681A2.108,2.108,0,0,1,5.89,9.339c-.265.272-.515.558-.771.838l-.085.1.64.586.433-.472a.29.29,0,0,1,.03.005c.024.189.055.377.071.566a4.918,4.918,0,0,1-.228,1.905.461.461,0,0,1-.094.163c-.167.188-.338.371-.516.566l.641.588.342-.371a1.583,1.583,0,0,1,.489.787,2.616,2.616,0,0,1,.039.909,3.136,3.136,0,0,1-.507,1.556,1.971,1.971,0,0,1-1.57.887q-.192.011-.384.011A5.856,5.856,0,0,1,2.879,17.762ZM3.987,5.27A3.224,3.224,0,0,0,1.632,6.845,6.689,6.689,0,0,0,.751,9.158a15.693,15.693,0,0,0-.238,4.584,5.775,5.775,0,0,0,.463,1.841A2.968,2.968,0,0,0,3,17.334a5.354,5.354,0,0,0,1.417.185c.12,0,.242,0,.365-.012a1.524,1.524,0,0,0,1.232-.695,2.688,2.688,0,0,0,.43-1.345,2.215,2.215,0,0,0-.025-.76,1.031,1.031,0,0,0-.085-.221l-.293.319L4.745,13.622l.441-.481c.126-.138.247-.27.371-.408A4.66,4.66,0,0,0,5.781,11.4l-.082.088L4.413,10.307,4.73,9.95l.063-.071c.076-.083.152-.166.228-.251.178-.2.362-.4.552-.6A1.661,1.661,0,0,0,6,8.231a4.423,4.423,0,0,0,.1-.617,2.869,2.869,0,0,0-.283-1.638,1.246,1.246,0,0,0-1.04-.74c-.076-.005-.156-.009-.237-.009A3.932,3.932,0,0,0,3.987,5.27ZM3.2,16.587a2.208,2.208,0,0,1-1.519-1.321,5,5,0,0,1-.4-1.6,14.9,14.9,0,0,1,.227-4.358,5.956,5.956,0,0,1,.774-2.05A2.46,2.46,0,0,1,4.1,6.035,3.193,3.193,0,0,1,4.543,6c.061,0,.121,0,.177.006.126.01.262.044.416.332a2.149,2.149,0,0,1,.194,1.21,3.834,3.834,0,0,1-.084.506.879.879,0,0,1-.231.437c-.2.209-.4.426-.571.616-.074.083-.148.166-.224.248-.022.023-.041.047-.063.072l-.008.008-.317.358-.5.57.561.514,1.077.985a3.853,3.853,0,0,1-.1.483c-.078.086-.157.173-.239.262l-.008.009-.441.481-.522.571.57.523,1.289,1.184.146.133a1.832,1.832,0,0,1-.285.861.753.753,0,0,1-.641.364c-.107.007-.214.01-.319.01A4.588,4.588,0,0,1,3.2,16.587Zm18.3-.347A1.972,1.972,0,0,1,19.818,15.2a3.456,3.456,0,0,1-.388-2.232,1.465,1.465,0,0,1,.5-.864c.117.126.227.244.342.37.216-.2.425-.388.641-.586-.176-.194-.352-.382-.52-.573a.411.411,0,0,1-.085-.147,5.014,5.014,0,0,1-.173-2.39c0-.031.016-.061.029-.11l.448.484c.213-.2.424-.388.637-.585-.027-.031-.047-.057-.07-.081-.248-.273-.49-.553-.75-.816a2.217,2.217,0,0,1-.588-1.084,3.746,3.746,0,0,1,.112-2.267,1.853,1.853,0,0,1,1.088-1.14,2.008,2.008,0,0,1,.809-.107,3.836,3.836,0,0,1,2.024.623,4.157,4.157,0,0,1,1.31,1.473,7.977,7.977,0,0,1,.824,2.4,16.44,16.44,0,0,1,.267,2.849,11.269,11.269,0,0,1-.165,2.327,5.4,5.4,0,0,1-.595,1.688,3.374,3.374,0,0,1-2.142,1.625,5.781,5.781,0,0,1-1.495.193Q21.69,16.252,21.5,16.24ZM19.87,13.028a3.013,3.013,0,0,0,.335,1.952,1.526,1.526,0,0,0,1.32.818c.122.008.244.011.365.011a5.309,5.309,0,0,0,1.376-.178,2.924,2.924,0,0,0,1.873-1.418,4.924,4.924,0,0,0,.544-1.551,10.751,10.751,0,0,0,.158-2.237,15.779,15.779,0,0,0-.26-2.773,7.5,7.5,0,0,0-.775-2.27,3.72,3.72,0,0,0-1.172-1.323,3.413,3.413,0,0,0-1.795-.547l-.115,0a1.458,1.458,0,0,0-.522.082,1.411,1.411,0,0,0-.832.887,3.309,3.309,0,0,0-.093,2.007,1.768,1.768,0,0,0,.472.872c.188.192.367.391.54.583l.222.245c.019.021.037.042.057.066l.3.352L20.59,9.772l-.079-.084a4.581,4.581,0,0,0,.22,1.331c.122.14.247.276.374.416l.438.479L20.251,13.1l-.3-.321A.757.757,0,0,0,19.87,13.028Zm1.7,2a.756.756,0,0,1-.694-.426,2.119,2.119,0,0,1-.257-.8l.149-.136,1.292-1.181.571-.522-.521-.571-.437-.48,0,0c-.086-.094-.17-.185-.251-.276a3.866,3.866,0,0,1-.1-.481l1.07-.977.551-.506L22.457,8.1l-.3-.35c-.026-.031-.05-.06-.076-.088l-.211-.232-.006-.006c-.178-.2-.363-.405-.565-.609a1.007,1.007,0,0,1-.268-.506,2.555,2.555,0,0,1,.059-1.549c.127-.326.263-.4.382-.445a.678.678,0,0,1,.25-.032l.083,0a2.635,2.635,0,0,1,1.4.418,2.959,2.959,0,0,1,.926,1.055A6.722,6.722,0,0,1,24.821,7.8a15.147,15.147,0,0,1,.247,2.64,10.09,10.09,0,0,1-.145,2.077,4.186,4.186,0,0,1-.455,1.311,2.156,2.156,0,0,1-1.4,1.057,4.529,4.529,0,0,1-1.176.152C21.786,15.035,21.681,15.032,21.574,15.026ZM6.87,13.094a.108.108,0,0,1-.019-.089q.073-.342.156-.681a.1.1,0,0,1,.067-.064c.4,0,.8,0,1.228,0l-.982,1.228C7.166,13.352,7.016,13.226,6.87,13.094Zm11.375-2.578a.855.855,0,0,1,.086-.012c.281,0,.562,0,.842,0,.068,0,.093.022.106.087.048.231.1.462.152.693a.132.132,0,0,1-.021.105c-.147.158-.3.311-.459.475C18.718,11.419,18.485,10.974,18.245,10.517ZM6.8,9.632a4.259,4.259,0,0,0,.623-1.787c.338.592.676,1.184,1.021,1.787ZM18.02,7.881l.958-1.15a3.594,3.594,0,0,0,.489,1.15ZM16.546,6.843a1.986,1.986,0,0,1-.337-1.122,8.873,8.873,0,0,1,.418-2.792A5.575,5.575,0,0,1,17.816.8,2.378,2.378,0,0,1,19.06.033a1.244,1.244,0,0,1,.665.025L18.664,1.384l.679.544L20.371.645a14.4,14.4,0,0,1,.678,1.621,2.642,2.642,0,0,0-.813.349,3,3,0,0,0-1.214,1.736,4.51,4.51,0,0,0-.165,1.062.331.331,0,0,1-.067.181q-.764.925-1.535,1.844c-.014.018-.031.035-.051.058A2.372,2.372,0,0,1,16.546,6.843Zm-9.1-.093c-.024-.006-.047-.059-.051-.094a3.507,3.507,0,0,0-.662-1.694,2.6,2.6,0,0,0-2.363-1.05c-.209.013-.418.035-.634.054a.269.269,0,0,1,.009-.055A2.466,2.466,0,0,1,5.178,2.387a5.606,5.606,0,0,0,1.413-.854l.123-.1.615.921.724-.482L7.411.912A1.035,1.035,0,0,1,8.833.818a.607.607,0,0,1,.2.474,8.994,8.994,0,0,1-.09,1.02,19.289,19.289,0,0,0-.307,2.294A10.1,10.1,0,0,0,8.7,6a2.09,2.09,0,0,1-.03.524.371.371,0,0,1-.314.308,1.287,1.287,0,0,1-.277.029A2.362,2.362,0,0,1,7.442,6.75Z" transform="translate(9.5 10)" fill="#fff" stroke="rgba(0,0,0,0)" stroke-miterlimit="10" stroke-width="1"/>
    </g>
  </g>
</svg>
