<svg xmlns="http://www.w3.org/2000/svg" xmlns:xlink="http://www.w3.org/1999/xlink" width="42" height="44.25" viewBox="0 0 42 44.25">
  <defs>
    <filter id="Union_48" x="1.8" y="2.905" width="38.567" height="41.345" filterUnits="userSpaceOnUse">
      <feOffset dy="3" input="SourceAlpha"/>
      <feGaussianBlur stdDeviation="3" result="blur"/>
      <feFlood flood-opacity="0.161"/>
      <feComposite operator="in" in2="blur"/>
      <feComposite in="SourceGraphic"/>
    </filter>
  </defs>
  <g id="ENT" transform="translate(-16364 -7225)">
    <g id="Group_20821" data-name="Group 20821" transform="translate(16363.585 7225)">
      <path id="Subtraction_7" data-name="Subtraction 7" d="M21,42A21.005,21.005,0,0,1,12.826,1.65a21.005,21.005,0,0,1,16.349,38.7A20.864,20.864,0,0,1,21,42Z" transform="translate(0.415 0)" fill="#6ab654"/>
    </g>
    <g transform="matrix(1, 0, 0, 1, 16364, 7225)" filter="url(#Union_48)">
      <path id="Union_48-2" data-name="Union 48" d="M7.221,22.489a2,2,0,0,1-.208-.472c-.129-.391-.238-.789-.368-1.18a1.081,1.081,0,0,0-1.207-.88c-.5,0-1.005.052-1.507.07a2.717,2.717,0,0,1-1.807-.477,2.019,2.019,0,0,1-.694-2.221,2.065,2.065,0,0,0,.079-.842.844.844,0,0,1,.565-.89.854.854,0,0,1,1,.34,1.5,1.5,0,0,1,.189,1.234c-.044.2-.117.4-.161.6-.07.326.008.445.337.5a4.961,4.961,0,0,0,.518.029v-.068c.569,0,1.138-.017,1.706,0A2.57,2.57,0,0,1,8.09,19.85a17.614,17.614,0,0,1,.669,1.989.847.847,0,0,1-.527.937.8.8,0,0,1-.326.068A.821.821,0,0,1,7.221,22.489Zm2.911-1.111a23.155,23.155,0,0,0-1.488-4.319c-.085-.17-.19-.329-.274-.5a1.482,1.482,0,0,0-1.325-.81,3.446,3.446,0,0,0-1.864.242.869.869,0,0,1-1.092-.434.883.883,0,0,1,.347-1.124,3.432,3.432,0,0,1,1.414-.414c.212-.026.427-.036.642-.053l0-.023c.457.065.917.112,1.37.2a2.88,2.88,0,0,1,1.928,1.432,14.493,14.493,0,0,1,1.36,3.123c.248.743.451,1.5.658,2.255a.883.883,0,0,1-.618,1.145.854.854,0,0,1-.205.025A.917.917,0,0,1,10.131,21.378Zm6.154-2.2a6.478,6.478,0,0,1-.7-4.049,4.757,4.757,0,0,1,1.075-2.066,6.721,6.721,0,0,0,1.617-3.555,6.656,6.656,0,0,0-5.306-7.568,10.236,10.236,0,0,0-6.584.893A4.486,4.486,0,0,0,3.834,6.77a.932.932,0,0,1-.676.954A.843.843,0,0,1,2.1,6.872,6.275,6.275,0,0,1,4.955,1.656,9.488,9.488,0,0,1,8.856.24C9.573.13,10.3.079,11.021,0A9.048,9.048,0,0,1,16.4,1.512a8.142,8.142,0,0,1,3.55,5.743,8.147,8.147,0,0,1-.884,5.323,14.906,14.906,0,0,1-1,1.47,4.052,4.052,0,0,0-.791,1.471,3.76,3.76,0,0,0,.219,1.994c.1.314.22.621.329.932a.849.849,0,0,1-.441,1.062.932.932,0,0,1-.4.091A.736.736,0,0,1,16.285,19.177ZM1.621,14.489a.562.562,0,0,0-.455-.339,1.478,1.478,0,0,1-1.1-1.887,2,2,0,0,1,.291-.54c.556-.79,1.124-1.572,1.68-2.362a.787.787,0,0,0,.129-.334A.892.892,0,0,1,3.1,8.2a.882.882,0,0,1,.8.908,1.656,1.656,0,0,1-.336,1.108c-.532.7-1.03,1.436-1.54,2.157-.037.051-.068.108-.108.171.275.089.524.153.758.251a.957.957,0,0,1,.608.984,1.941,1.941,0,0,1-.126.627.806.806,0,0,1-.722.524l-.083,0A.74.74,0,0,1,1.621,14.489Zm8.3-1.843a2.429,2.429,0,0,1,0-.371.867.867,0,0,1,1.715-.2.506.506,0,0,0,.048.082,2.66,2.66,0,0,0,1.148-1.35,5.886,5.886,0,0,0,.259-1.324.65.65,0,0,0-.37-.676.928.928,0,0,0-.9.012c-.237.129-.311.435-.208.8a.8.8,0,0,1-.218.84.822.822,0,0,1-.862.23.887.887,0,0,1-.594-.615A2.349,2.349,0,0,1,11.255,7.16a2.675,2.675,0,0,1,3.008.7,2.513,2.513,0,0,1,.571,1.627,4.682,4.682,0,0,1-1.89,3.905,3.567,3.567,0,0,1-1.185.584,1.484,1.484,0,0,1-.4.057A1.456,1.456,0,0,1,9.923,12.646Z" transform="translate(11.05 9.16)" fill="#fff" stroke="#fff" stroke-width="0.5"/>
    </g>
  </g>
</svg>
