<svg xmlns="http://www.w3.org/2000/svg" xmlns:xlink="http://www.w3.org/1999/xlink" width="42" height="44.721" viewBox="0 0 42 44.721">
  <defs>
    <filter id="Union_18" x="0.999" y="3.652" width="39.999" height="41.069" filterUnits="userSpaceOnUse">
      <feOffset dy="3" input="SourceAlpha"/>
      <feGaussianBlur stdDeviation="3" result="blur"/>
      <feFlood flood-opacity="0.161"/>
      <feComposite operator="in" in2="blur"/>
      <feComposite in="SourceGraphic"/>
    </filter>
  </defs>
  <g id="Gastroenterology" transform="translate(-16364 -6361)">
    <g id="Group_20795" data-name="Group 20795" transform="translate(16363.586 6361)">
      <path id="Subtraction_7" data-name="Subtraction 7" d="M21,42A21.005,21.005,0,0,1,12.826,1.65a21.005,21.005,0,0,1,16.349,38.7A20.864,20.864,0,0,1,21,42Z" transform="translate(0.415 0)" fill="#6ab654"/>
    </g>
    <g transform="matrix(1, 0, 0, 1, 16364, 6361)" filter="url(#Union_18)">
      <path id="Union_18-2" data-name="Union 18" d="M2.794,20.9A6.677,6.677,0,0,1,.4,17.87a4.947,4.947,0,0,1,.783-5.189,3.218,3.218,0,0,1,2.6-1.225,3.272,3.272,0,0,1,1.791.6,5.208,5.208,0,0,0,2,.922A4.636,4.636,0,0,0,11.588,11.9a3.865,3.865,0,0,0,.755-4.523c-.369-.68-.78-1.337-1.17-2.006A6.521,6.521,0,0,1,10.54.107a.364.364,0,0,1,.02-.058A.368.368,0,0,1,10.6,0l1.989.573c-.07.4-.151.773-.2,1.156a3.64,3.64,0,0,0,.8,2.859A1.765,1.765,0,0,0,14.5,5.24a5.034,5.034,0,0,0,1.275-.056A3.752,3.752,0,0,1,19.448,6.4a5.582,5.582,0,0,1,1.478,3.246,8.055,8.055,0,0,1-2.888,7.263,8.936,8.936,0,0,1-4.775,2.261,7.49,7.49,0,0,1-5.326-1.1A6.384,6.384,0,0,1,6,15.924c-.264-.436-.529-.871-.812-1.3a2.65,2.65,0,0,0-.944-.882,1.006,1.006,0,0,0-1.23.112,2.528,2.528,0,0,0-.869,2.109,3.733,3.733,0,0,0,1.042,2.44,6.629,6.629,0,0,0,1.674,1.319c.081.047.16.1.262.159L4.114,21.78C3.658,21.477,3.21,21.208,2.794,20.9ZM15.255,6.553A1.539,1.539,0,0,0,13.972,8.47a4.338,4.338,0,0,1-1,3.866,5.9,5.9,0,0,1-3.933,1.922c-.371.044-.747.03-1.118.076a.579.579,0,0,0-.553.788A2.72,2.72,0,0,0,8.4,16.711a5.613,5.613,0,0,0,4.366,1.167,7.794,7.794,0,0,0,4.467-2.09,6.987,6.987,0,0,0,2.425-5.1A5.406,5.406,0,0,0,19.141,8.3a3.2,3.2,0,0,0-2.886-1.887A3.891,3.891,0,0,0,15.255,6.553Zm-6.8,9.58a2.038,2.038,0,0,1-.63-1.051c-.053-.244-.014-.291.252-.31.427-.031.857-.035,1.279-.094A6.641,6.641,0,0,0,12.8,13.166a.441.441,0,0,1,.58-.013.463.463,0,0,0,.611,0,.545.545,0,0,1,.668.019.411.411,0,0,0,.54,0,.572.572,0,0,1,.719.008.39.39,0,0,0,.506,0,.6.6,0,0,1,.755.007.333.333,0,0,0,.417.033.684.684,0,0,1,.959.068,7.114,7.114,0,0,1-1.594,2.122,7.368,7.368,0,0,1-4.241,2,7.184,7.184,0,0,1-.793.045A4.852,4.852,0,0,1,8.46,16.132Zm5.879-.532a.343.343,0,0,0-.346.351.35.35,0,1,0,.7-.008.342.342,0,0,0-.348-.343Zm-4.01.33a.322.322,0,0,0,.311.332.308.308,0,0,0,.311-.308.294.294,0,0,0-.3-.315h-.009A.307.307,0,0,0,10.329,15.931Zm1.96-1.062a.484.484,0,0,0,.968-.01.489.489,0,0,0-.48-.481h0A.488.488,0,0,0,12.29,14.869Zm3.492-.624a.418.418,0,1,0,.424-.426H16.2A.422.422,0,0,0,15.782,14.245Zm-.929-2.569a.453.453,0,1,1,.465.46H15.3A.454.454,0,0,1,14.853,11.676Zm1.882-.752a.5.5,0,0,1,1.01-.006.5.5,0,1,1-1.01.006ZM15.148,9.06a.62.62,0,1,1,1.24,0,.62.62,0,0,1-1.24,0Z" transform="translate(10.51 10.22)" fill="#fff" stroke="rgba(0,0,0,0)" stroke-miterlimit="10" stroke-width="1"/>
    </g>
  </g>
</svg>
