<svg xmlns="http://www.w3.org/2000/svg" xmlns:xlink="http://www.w3.org/1999/xlink" width="43.223" height="42.72" viewBox="0 0 43.223 42.72">
  <defs>
    <filter id="Union_21" x="4.031" y="3.5" width="39.191" height="39.22" filterUnits="userSpaceOnUse">
      <feOffset dy="3" input="SourceAlpha"/>
      <feGaussianBlur stdDeviation="3" result="blur"/>
      <feFlood flood-opacity="0.161"/>
      <feComposite operator="in" in2="blur"/>
      <feComposite in="SourceGraphic"/>
    </filter>
  </defs>
  <g id="General_Internal_Medicine" data-name="General Internal Medicine" transform="translate(-16364 -6505)">
    <g id="Group_20802" data-name="Group 20802" transform="translate(16363.585 6505)">
      <path id="Subtraction_7" data-name="Subtraction 7" d="M21,42A21.005,21.005,0,0,1,12.826,1.65a21.005,21.005,0,0,1,16.349,38.7A20.864,20.864,0,0,1,21,42Z" transform="translate(0.415 0)" fill="#6ab654"/>
    </g>
    <g transform="matrix(1, 0, 0, 1, 16364, 6505)" filter="url(#Union_21)">
      <path id="Union_21-2" data-name="Union 21" d="M2.288,20.219A2.209,2.209,0,0,1,0,17.944q0-4.807,0-9.616A3.622,3.622,0,0,1,2.384,4.873c.112-.043.16-.094.146-.212a2.085,2.085,0,0,1,0-.226H3.16c0,.261.008.517-.006.77,0,.047-.09.114-.149.129A3.009,3.009,0,0,0,1.044,6.78a8.147,8.147,0,0,0-.354.793h11.22a2.9,2.9,0,0,0-.864-1.488,3.129,3.129,0,0,0-1.555-.779V4.439h.639c-.14.354.111.416.346.523A3.534,3.534,0,0,1,12.57,7.627a6.67,6.67,0,0,1,.012,1.217h-1.2v.626h1.223v.636H9.494v.631h3.137v.228q0,3.484.006,6.97a2.211,2.211,0,0,1-2.3,2.286H6.315Zm-.015-.632q4.046,0,8.093,0a1.91,1.91,0,0,0,.411-.041,1.575,1.575,0,0,0,1.2-1.849H.653A1.6,1.6,0,0,0,2.273,19.587Zm2.787-9.5a7.783,7.783,0,0,0-1.644,2.3A2.666,2.666,0,0,0,3.825,15.3a3.322,3.322,0,0,0,3.647.93A2.848,2.848,0,0,0,9.144,12.2,8.126,8.126,0,0,0,8.07,10.626,14.43,14.43,0,0,0,6.3,8.9C5.882,9.3,5.457,9.68,5.06,10.09Zm5.055-.628h.614v-.6h-.614Zm3.218,9.3a1.752,1.752,0,0,1,.4-1.694c.452-.5.951-.946,1.429-1.417l2.674,2.673c-.1.092-.208.193-.314.3-.365.361-.715.739-1.1,1.081a1.884,1.884,0,0,1-3.093-.94Zm2.288-3.63c.092-.083.2-.175.3-.275.347-.343.683-.695,1.036-1.031a1.891,1.891,0,0,1,3.2,1.047,1.719,1.719,0,0,1-.434,1.521c-.459.489-.958.939-1.439,1.4Zm-2.336-.436c-.029-.781-.007-1.563-.007-2.359h3.769a.15.15,0,0,1,.011.032.8.8,0,0,1-.349.859,10.587,10.587,0,0,0-1.18,1.131c-.532.527-1.06,1.059-1.6,1.6A1.723,1.723,0,0,1,13.284,14.693ZM6.01,14.524v-.932H5.072v-.634H6v-.937h.635v.924h.937v.634H6.644v.945ZM13.3,11.68a16.616,16.616,0,0,1,.014-1.9A1.839,1.839,0,0,1,15.26,8.217,1.88,1.88,0,0,1,17.05,9.951c.034.569.006,1.142.006,1.729Zm-4.765-7.9V1.907H7.911v1.87H7.276V1.912H6.641V3.78H6.014V1.908H5.379V3.776H4.744V1.905H4.117V3.779H3.482V1.91H2.854V3.775H1.6a.124.124,0,0,1-.017-.045c0-.75-.016-1.5,0-2.25A1.561,1.561,0,0,1,2.8.042C2.84.032,2.882.014,2.924,0H9.716a.92.92,0,0,0,.109.039,1.528,1.528,0,0,1,1.219,1.382c.039.78.009,1.563.009,2.358H9.8V1.91H9.167V3.782Z" transform="translate(13.53 10)" fill="#fff" stroke="rgba(0,0,0,0)" stroke-miterlimit="10" stroke-width="1"/>
    </g>
  </g>
</svg>
