<svg xmlns="http://www.w3.org/2000/svg" xmlns:xlink="http://www.w3.org/1999/xlink" width="42" height="43.639" viewBox="0 0 42 43.639">
  <defs>
    <filter id="Union_57" x="0.651" y="4.75" width="38.977" height="38.889" filterUnits="userSpaceOnUse">
      <feOffset dy="3" input="SourceAlpha"/>
      <feGaussianBlur stdDeviation="3" result="blur"/>
      <feFlood flood-opacity="0.161"/>
      <feComposite operator="in" in2="blur"/>
      <feComposite in="SourceGraphic"/>
    </filter>
  </defs>
  <g id="General_Surgery_Clinic" data-name="General Surgery Clinic" transform="translate(-16170 -7369)">
    <g id="Group_20854" data-name="Group 20854" transform="translate(16169.585 7369)">
      <path id="Subtraction_7" data-name="Subtraction 7" d="M21,42A21.005,21.005,0,0,1,12.826,1.65a21.005,21.005,0,0,1,16.349,38.7A20.864,20.864,0,0,1,21,42Z" transform="translate(0.415 0)" fill="#6ab654"/>
    </g>
    <g transform="matrix(1, 0, 0, 1, 16170, 7369)" filter="url(#Union_57)">
      <path id="Union_57-2" data-name="Union 57" d="M18.824,20.389a1.37,1.37,0,0,1-1.011-.756,1.7,1.7,0,0,1-.144-.651q-.012-5.712-.008-11.423a.392.392,0,0,1,.263-.416,2.511,2.511,0,0,1-.209-1.816,9.026,9.026,0,0,1,1.151-3.993A8.639,8.639,0,0,1,19.7.2c.244-.292.457-.263.673.041V19.234a4.838,4.838,0,0,1-.29.617,1.413,1.413,0,0,1-.865.537Zm.8-18.984A9.216,9.216,0,0,0,18.356,6.44a.776.776,0,0,0,.254.431c.037.04.194-.025.292-.053.127-.035.252-.081.378-.122.313-.1.39-.2.415-.536,0-.06,0-.12,0-.179V1.317A.965.965,0,0,0,19.622,1.4Zm-4.1,18.984c-.274-.2-.293-.311-.133-.617a6.756,6.756,0,0,0,.888-3.618,3.869,3.869,0,0,0-.839-2.233,5.333,5.333,0,0,1-1.054-1.9c-.014-.052-.1-.084-.16-.124,0,0-.014,0-.02,0-.067,0-.139-.006-.209-.013a.76.76,0,0,0-.435.038c-.142.084-.158.365-.258.544a7.871,7.871,0,0,1-.721,1.2,4.571,4.571,0,0,0-.865,4.172,7.739,7.739,0,0,0,.749,1.939c.157.292.133.4-.129.606h-.2a1.532,1.532,0,0,1-.253-.266,7.683,7.683,0,0,1-.966-2.821,4.913,4.913,0,0,1,1.1-3.978,3.486,3.486,0,0,0,.886-2.444,34.883,34.883,0,0,1,.3-5c.132-1.247.249-2.494.373-3.74A1.011,1.011,0,0,1,13.588,2a.333.333,0,0,1,.35-.288.313.313,0,0,1,.318.3c.055.467.1.936.148,1.4.142,1.411.266,2.825.429,4.234a22.565,22.565,0,0,1,.1,3.079,3.823,3.823,0,0,0,.922,2.635,4.988,4.988,0,0,1,1,4.339,7.923,7.923,0,0,1-.907,2.447,1.293,1.293,0,0,1-.229.238Zm-8.838,0c-.079-.114-.209-.22-.231-.345-.225-1.251-.433-2.506-.645-3.759q-.126-.737-.252-1.473a.155.155,0,0,0-.068.1Q4.969,17.4,4.453,19.893a.617.617,0,0,1-.278.5h-.2c-.242-.165-.269-.231-.206-.533.473-2.291.954-4.579,1.414-6.872a2.033,2.033,0,0,0-.059-.7Q4.39,7.918,3.647,3.558c-.01-.059-.026-.116-.034-.154a7.026,7.026,0,0,1-.767.5A2.027,2.027,0,0,1,.8.432,1.953,1.953,0,0,1,2.9.215,2.014,2.014,0,0,1,4.063,1.9c.111.827.27,1.648.409,2.47.021.123.045.246.072.393.163,0,.32,0,.477,0,.26.008.4.133.4.341s-.147.329-.407.338c-.111,0-.223,0-.361,0,.311,1.831.617,3.636.924,5.441l.046.007c.373-1.8.748-3.606,1.127-5.433-.109-.007-.2-.009-.3-.02a.336.336,0,0,1,0-.672l.04,0c.41-.029.415-.028.494-.428.179-.9.358-1.793.527-2.691A2.046,2.046,0,0,1,9.281.027,2.03,2.03,0,0,1,9.8,4.055a1.94,1.94,0,0,1-1.738-.593A.988.988,0,0,1,7.949,3.3l-.058.036c-.123.587-.247,1.174-.369,1.76C7,7.618,6.47,10.14,5.963,12.667a2.348,2.348,0,0,0,.058.822q.537,3.2,1.091,6.408a.413.413,0,0,1-.231.492ZM2.03.688A1.374,1.374,0,0,0,.675,2.045,1.356,1.356,0,1,0,2.039.688ZM8.153,2.059a1.355,1.355,0,0,0,2.71-.016A1.368,1.368,0,0,0,9.509.688h0A1.365,1.365,0,0,0,8.153,2.059ZM9.39,20.388c-.256-.248-.525-.485-.761-.751a.662.662,0,0,1-.138-.394c-.017-.444-.006-.889-.006-1.334v-.235c-.1,0-.176,0-.254,0-.293-.009-.417-.134-.426-.431,0-.053,0-.106,0-.159V10.1c0-.5.067-.567.572-.58.026,0,.051,0,.107-.01V9.238c0-.418.005-.836,0-1.254a.634.634,0,0,1,.21-.512c.228-.212.442-.437.689-.684-.205-.2-.4-.381-.6-.568-.058-.055-.115-.11-.169-.168a.341.341,0,1,1,.479-.481c.247.239.489.486.733.73.485.484.485.516.007,1-.22.22-.522.409-.63.677a2.726,2.726,0,0,0-.038.943c0,.192,0,.383,0,.6.118,0,.221-.005.325,0a.336.336,0,0,1,.35.333,2.1,2.1,0,0,1,.006.238v6.945c0,.574-.032.609-.6.638a.739.739,0,0,0-.085.018,9.423,9.423,0,0,1-.007.983.929.929,0,0,0,.4.941.75.75,0,0,1,.086.084c.278.28.275.437-.013.687Z" transform="translate(10 11)" fill="#fff" stroke="#fff" stroke-width="0.5"/>
    </g>
  </g>
</svg>
