<svg xmlns="http://www.w3.org/2000/svg" width="42" height="42" viewBox="0 0 42 42">
  <g id="Hematology_Oncology" data-name="Hematology Oncology" transform="translate(-15970 -6505)">
    <path id="Subtraction_66" data-name="Subtraction 66" d="M21,42A21.005,21.005,0,0,1,12.826,1.65a21.005,21.005,0,0,1,16.349,38.7A20.864,20.864,0,0,1,21,42Z" transform="translate(15970 6505)" fill="#6ab654"/>
    <path id="Union_19" data-name="Union 19" d="M14.752,22.352a1.311,1.311,0,0,1-.258-.219.426.426,0,0,1,.054-.563,6.179,6.179,0,0,1,.99-.906c.624-.409,1.3-.744,1.947-1.114A4.176,4.176,0,0,0,18.916,18.5c.845-1.173,1.649-2.376,2.47-3.568a.316.316,0,0,0,.031-.058.645.645,0,0,0-.607-.911.682.682,0,0,0-.573.341c-.661.957-1.328,1.91-1.988,2.868a3.278,3.278,0,0,1-1.765,1.316q-.811.253-1.623.5a.451.451,0,0,1-.621-.265c-.076-.251.065-.473.367-.567.527-.164,1.056-.321,1.581-.488a.691.691,0,0,0,.506-.894.708.708,0,0,0-.939-.425c-.74.238-1.486.455-2.216.72a4.315,4.315,0,0,0-1.077.553,2.229,2.229,0,0,0-.848,1.857c-.017.756-.015,1.513,0,2.269a.57.57,0,0,1-.354.605h-.174a.567.567,0,0,1-.354-.605c.015-.72.01-1.44,0-2.16A2.4,2.4,0,0,0,8.951,17.11c-.8-.273-1.616-.525-2.426-.78a.714.714,0,0,0-.3-.029.69.69,0,0,0-.115,1.347c.545.176,1.1.338,1.643.511a.44.44,0,1,1-.261.831q-.814-.245-1.624-.5A3.272,3.272,0,0,1,4.1,17.178c-.373-.546-.754-1.087-1.132-1.63-.3-.436-.6-.873-.909-1.307a.63.63,0,0,0-.69-.263.615.615,0,0,0-.487.5.725.725,0,0,0,.162.59c.622.9,1.272,1.792,1.855,2.72a5.061,5.061,0,0,0,1.988,1.776c.666.356,1.332.718,1.964,1.127a4.273,4.273,0,0,1,.91.833c.3.351.2.636-.214.824H7.418c-.119-.109-.237-.22-.358-.327a5.508,5.508,0,0,0-.737-.639c-.714-.433-1.449-.831-2.18-1.235a4.924,4.924,0,0,1-1.79-1.621C1.679,17.5.961,16.5.275,15.483A1.524,1.524,0,1,1,2.789,13.76c.616.874,1.221,1.755,1.832,2.632.044.064.092.126.152.208A1.575,1.575,0,0,1,6.1,15.438a1.42,1.42,0,0,1,.6.036c.827.249,1.65.515,2.469.788a3.479,3.479,0,0,1,1.976,1.5c.023-.01.049-.013.057-.027a3.622,3.622,0,0,1,2.108-1.523c.692-.222,1.384-.441,2.075-.664a1.607,1.607,0,0,1,2.18,1.051c.055-.073.1-.131.144-.193.619-.889,1.231-1.783,1.857-2.668a1.531,1.531,0,0,1,2.672.32c.041.1.07.2.1.306v.48a11.225,11.225,0,0,1-.536,1.01c-.576.872-1.2,1.713-1.763,2.594a5.115,5.115,0,0,1-1.966,1.771c-.607.325-1.222.642-1.807,1a9.18,9.18,0,0,0-.98.785c-.13.107-.247.229-.371.344Zm-7.1-7.68q-.8-.8-1.6-1.605c-.279-.28-.28-.487,0-.765q1.288-1.29,2.578-2.576a2.179,2.179,0,0,1,.212-.163c-.34-.34-.667-.629-.949-.957A7.85,7.85,0,0,1,6.965,7.4,4.928,4.928,0,0,1,9.071.518.574.574,0,0,1,9.5.475a.585.585,0,0,1,.264.356.383.383,0,0,1-.257.434A4.08,4.08,0,0,0,7.251,5.689c.711-1.882,1.938-3.108,3.977-3.12,2.056-.012,3.246,1.249,3.961,3.082a3.951,3.951,0,0,0-.114-1.91A3.991,3.991,0,0,0,13,1.3c-.2-.1-.356-.236-.334-.483A.44.44,0,0,1,13.343.5a4.825,4.825,0,0,1,2.034,1.826,5.033,5.033,0,0,1-.727,6.2c-.334.334-.67.665-1.026,1.019.228.222.442.428.652.638q1.043,1.04,2.083,2.084c.325.326.324.518-.005.848q-.794.8-1.59,1.59c-.29.289-.507.286-.8-.006Q12.683,13.413,11.4,12.13a1.6,1.6,0,0,1-.146-.2c-.1.093-.157.146-.213.2L8.5,14.675a.639.639,0,0,1-.421.241A.644.644,0,0,1,7.652,14.672ZM8.675,4.723a3.679,3.679,0,0,0-.684,1.792c-.108.944-.2.756.519,1.484,1.88,1.9,3.78,3.788,5.673,5.68.059.059.121.116.154.148l1.192-1.189a2.215,2.215,0,0,1-.17-.142C13.523,10.661,11.7,8.816,9.847,7A2.824,2.824,0,0,1,8.89,4.462C8.79,4.582,8.729,4.65,8.675,4.723ZM6.946,12.7,8.051,13.81l2.48-2.48-1.1-1.107Zm5.6-5.664c-.242.217-.464.458-.681.674l1.194,1.2c.45-.482.913-.971,1.367-1.47a.369.369,0,0,0,.086-.253,10.548,10.548,0,0,0-.156-1.164,2.972,2.972,0,0,0-.769-1.486A2.805,2.805,0,0,1,12.541,7.041ZM10.773,3.494a1.548,1.548,0,0,0-.638,2.523c.334.38.724.711,1.044,1.021a14.084,14.084,0,0,0,1.186-1.1,1.544,1.544,0,0,0,.07-1.884,1.492,1.492,0,0,0-1.215-.623A1.513,1.513,0,0,0,10.773,3.494ZM10.8.562A.427.427,0,0,1,11,.075c.042-.027.085-.05.128-.075H11.3c.044.024.088.046.131.072a.431.431,0,0,1,.207.484.425.425,0,0,1-.417.32h0A.424.424,0,0,1,10.8.562Z" transform="translate(15979.283 6514.561)" fill="#fff" stroke="#fff" stroke-miterlimit="10" stroke-width="0.5"/>
  </g>
</svg>
