<svg xmlns="http://www.w3.org/2000/svg" xmlns:xlink="http://www.w3.org/1999/xlink" width="42" height="42" viewBox="0 0 42 42">
  <defs>
    <filter id="Union_62" x="1.313" y="4.298" width="38.432" height="37.697" filterUnits="userSpaceOnUse">
      <feOffset dy="3" input="SourceAlpha"/>
      <feGaussianBlur stdDeviation="3" result="blur"/>
      <feFlood flood-opacity="0.161"/>
      <feComposite operator="in" in2="blur"/>
      <feComposite in="SourceGraphic"/>
    </filter>
  </defs>
  <g id="Home_Health_Care" data-name="Home Health Care" transform="translate(-15970 -7657)">
    <path id="Subtraction_114" data-name="Subtraction 114" d="M21,42A21.005,21.005,0,0,1,12.826,1.65a21.005,21.005,0,0,1,16.349,38.7A20.864,20.864,0,0,1,21,42Z" transform="translate(15970 7657)" fill="#6ab654"/>
    <g transform="matrix(1, 0, 0, 1, 15970, 7657)" filter="url(#Union_62)">
      <path id="Union_62-2" data-name="Union 62" d="M11.425,18.709c-.613,0-.94-.215-.974-.659-.04-.514.275-.73.73-.873a5.419,5.419,0,0,0,3.674-5.358A5.153,5.153,0,0,0,5.434,9.2a5.291,5.291,0,0,0,.149,6.027,5.07,5.07,0,0,0,2.68,1.965c.549.171.786.465.722.877s-.356.616-.951.616q-3.237,0-6.473,0A1.381,1.381,0,0,1,0,17.125c0-3.1,0-6.2,0-9.3A1.592,1.592,0,0,1,.681,6.44Q4.734,3.42,8.771.378A1.327,1.327,0,0,1,10.613.365Q14.7,3.42,18.788,6.482a1.513,1.513,0,0,1,.643,1.3c-.007,1.585,0,3.169,0,4.753,0,1.551,0,3.1,0,4.652A1.364,1.364,0,0,1,17.9,18.708q-1.531,0-3.06,0ZM9.335,1.756Q5.589,4.592,1.82,7.4a.83.83,0,0,0-.387.747c.015,2.848.009,5.694.009,8.541v.493H5.37a6.806,6.806,0,0,1-.667-9.4,6.551,6.551,0,0,1,8.641-1.209,6.356,6.356,0,0,1,2.934,5.106,6.907,6.907,0,0,1-2.222,5.493H17.95c.011-.124.027-.222.027-.319,0-2.948.008-5.9-.014-8.845a.9.9,0,0,0-.343-.6c-2.512-1.9-5.042-3.775-7.554-5.674a.592.592,0,0,0-.352-.15A.651.651,0,0,0,9.335,1.756ZM9.209,16.075c-.8,0-.914-.112-.915-.893V13.729c-.571,0-1.09.005-1.607,0-.585-.007-.724-.145-.73-.709-.005-.5,0-1.011,0-1.516a.513.513,0,0,1,.59-.584c.555,0,1.111,0,1.748,0,0-.517,0-1.014,0-1.511,0-.75.085-.831.851-.832.422,0,.842,0,1.265,0,.546.008.691.146.7.686s0,1.068,0,1.656c.571,0,1.09,0,1.607,0,.6,0,.728.137.733.752q.005.657,0,1.314c-.005.591-.149.735-.755.743-.5.005-1.006,0-1.585,0,0,.5,0,.966,0,1.43,0,.8-.111.914-.89.916ZM6.944,12.746H9.258v2.3h.9V12.731h2.318v-.9H10.164v-2.3h-.9v2.319H6.944Z" transform="translate(10.81 10.78)" fill="#fff" stroke="rgba(0,0,0,0)" stroke-miterlimit="10" stroke-width="1"/>
    </g>
  </g>
</svg>
