<svg xmlns="http://www.w3.org/2000/svg" xmlns:xlink="http://www.w3.org/1999/xlink" width="43.875" height="43.845" viewBox="0 0 43.875 43.845">
  <defs>
    <filter id="Union_20" x="0" y="3.494" width="43.875" height="40.351" filterUnits="userSpaceOnUse">
      <feOffset dy="3" input="SourceAlpha"/>
      <feGaussianBlur stdDeviation="3" result="blur"/>
      <feFlood flood-opacity="0.161"/>
      <feComposite operator="in" in2="blur"/>
      <feComposite in="SourceGraphic"/>
    </filter>
  </defs>
  <g id="Infectious_Diseases" data-name="Infectious Diseases" transform="translate(-16169.488 -6505)">
    <g id="Group_20800" data-name="Group 20800" transform="translate(16169.585 6505)">
      <path id="Subtraction_7" data-name="Subtraction 7" d="M21,42A21.005,21.005,0,0,1,12.826,1.65a21.005,21.005,0,0,1,16.349,38.7A20.864,20.864,0,0,1,21,42Z" transform="translate(0.415 0)" fill="#6ab654"/>
    </g>
    <g transform="matrix(1, 0, 0, 1, 16169.49, 6505)" filter="url(#Union_20)">
      <path id="Union_20-2" data-name="Union 20" d="M9.423,21.344a.815.815,0,0,1-.762-.862c0-.365-.006-.731.027-1.094.022-.249-.045-.37-.3-.4-.363-.035-.725-.113-1.086-.119a.493.493,0,0,0-.368.253c-.138.337-.209.7-.32,1.047a.751.751,0,0,1-.991.544.738.738,0,0,1-.556-.978c.087-.339.191-.674.288-1.011.021-.073.077-.2.056-.212a10.045,10.045,0,0,0-.985-.659.441.441,0,0,0-.38.092c-.277.236-.519.511-.789.758a.829.829,0,0,1-1.153.019.792.792,0,0,1,.006-1.147c.244-.27.53-.5.768-.779a.416.416,0,0,0,.045-.377c-.226-.429-.486-.84-.765-1.31-.3.071-.631.149-.965.23C.59,15.49.133,15.276.023,14.8s.175-.851.746-1.007c.35-.094.808-.1,1.013-.331.183-.206.085-.661.111-1.007.005-.076.008-.152.021-.227.123-.756.123-.755-.544-1.111-.2-.107-.4-.214-.6-.335A.808.808,0,0,1,.418,9.76a.773.773,0,0,1,1.038-.392c.432.178.839.418,1.257.63L4,8.614c-.178-.446-.377-.937-.57-1.43A.839.839,0,0,1,3.809,5.99a.855.855,0,0,1,1.112.582c.169.406.335.813.49,1.187L7.96,7.382c-.03-.213-.064-.475-.1-.737-.088-.594.147-.987.637-1.065s.83.2.945.763c.092.445.169.893.251,1.33A1.935,1.935,0,0,0,11.5,6.566c.437-.954.437-.954-.308-1.7-.14-.14-.284-.274-.416-.422a.8.8,0,1,1,1.136-1.132c.26.233.5.487.754.736.441-.365.875-.714,1.289-1.083a.371.371,0,0,0,.023-.32c-.112-.3-.266-.581-.382-.879A.823.823,0,0,1,13.968.712a.747.747,0,0,1,1.067.389c.271.979.815,1.164,1.759.958.478-.1.731-.19.768-.685A5.206,5.206,0,0,1,17.7.657a.778.778,0,0,1,.853-.651.747.747,0,0,1,.726.867c-.04.377-.166.745-.193,1.121a.576.576,0,0,0,.221.451c.45.277.929.5,1.461.785.312-.318.658-.673,1.009-1.025a.817.817,0,0,1,1.244-.082.834.834,0,0,1-.092,1.216c-.292.31-.609.6-.879.926a.558.558,0,0,0-.05.454,6.194,6.194,0,0,0,.328.65c.321.695.318.692,1.112.635a3.386,3.386,0,0,1,.77,0,.722.722,0,0,1,.653.752.784.784,0,0,1-.679.8,8.057,8.057,0,0,1-1,.085c-.246.007-.337.1-.37.348a12.476,12.476,0,0,1-.266,1.384.351.351,0,0,0,.247.49c.313.118.633.224.932.371a.778.778,0,0,1-.561,1.445,2.534,2.534,0,0,1-.689-.234c-.429-.263-.685-.177-.846.3a3.631,3.631,0,0,1-.292.567c-.094.171-.2.337-.315.535.341.227.658.429.968.645a.817.817,0,0,1,.294,1.182.829.829,0,0,1-1.175.17c-.014-.008-.025-.019-.038-.027-1.152-.715-1.152-.715-1.977.469.316.39.643.788.963,1.191a.826.826,0,0,1-.02,1.218.844.844,0,0,1-1.237-.21c-.313-.372-.618-.75-.959-1.164l-1.567,1.026c.224.472.448.949.675,1.423.292.61.193,1.067-.283,1.286-.448.206-.905-.029-1.186-.608l-.675-1.386-1.513.514c.1.562.19,1.111.281,1.661.1.587-.146,1-.634,1.075s-.851-.211-.961-.8c-.1-.519-.184-1.04-.282-1.581-.419.037-.8.051-1.168.116-.089.016-.2.194-.212.307-.036.392-.023.789-.042,1.184a.81.81,0,0,1-.811.818Zm-3.686-10.9A3.033,3.033,0,0,0,4.357,13.68,3.219,3.219,0,0,0,7,16.327c.4.067.807.144,1.213.2A11.047,11.047,0,0,0,20.248,8.622a3.255,3.255,0,0,0-2.1-4.015,3.21,3.21,0,0,0-4.116,2.178A4.6,4.6,0,0,1,8.353,10a2.976,2.976,0,0,0-2.615.442Zm4.948,2.2c.038-.189.238-.347.363-.517l.205.008c.118.179.347.374.323.535a.665.665,0,0,1-.441.447.438.438,0,0,1-.077.007A.384.384,0,0,1,10.686,12.642Zm5.342-.753a.829.829,0,0,1-.568-1.11.821.821,0,0,1,1.092-.527.862.862,0,0,1-.237,1.68A1.011,1.011,0,0,1,16.027,11.889Zm.847-2.428a1.381,1.381,0,1,1,.8-2.643,1.381,1.381,0,0,1-.8,2.643Z" transform="translate(9.51 10)" fill="#fff" stroke="rgba(0,0,0,0)" stroke-miterlimit="10" stroke-width="1"/>
    </g>
  </g>
</svg>
