<svg xmlns="http://www.w3.org/2000/svg" xmlns:xlink="http://www.w3.org/1999/xlink" width="42" height="43.553" viewBox="0 0 42 43.553">
  <defs>
    <filter id="Path_27249" x="1.44" y="4.049" width="39.246" height="39.504" filterUnits="userSpaceOnUse">
      <feOffset dy="3" input="SourceAlpha"/>
      <feGaussianBlur stdDeviation="3" result="blur"/>
      <feFlood flood-opacity="0.161"/>
      <feComposite operator="in" in2="blur"/>
      <feComposite in="SourceGraphic"/>
    </filter>
  </defs>
  <g id="IVF" transform="translate(-16170 -7657)">
    <g id="Group_20840" data-name="Group 20840" transform="translate(16169.585 7657)">
      <path id="Subtraction_7" data-name="Subtraction 7" d="M21,42A21.005,21.005,0,0,1,12.826,1.65a21.005,21.005,0,0,1,16.349,38.7A20.864,20.864,0,0,1,21,42Z" transform="translate(0.415 0)" fill="#6ab654"/>
    </g>
    <g transform="matrix(1, 0, 0, 1, 16170, 7657)" filter="url(#Path_27249)">
      <path id="Path_27249-2" data-name="Path 27249" d="M1370.784-3102.266a6.207,6.207,0,0,1,4.4,1.825l0,0a6.21,6.21,0,0,1,1.823,4.4,6.207,6.207,0,0,1-1.825,4.4l0,0a6.233,6.233,0,0,1-2.675,1.581,3.016,3.016,0,0,0-.2-.854,5.345,5.345,0,0,0,2.255-1.345,5.333,5.333,0,0,0,1.568-3.786,5.332,5.332,0,0,0-1.567-3.785,5.331,5.331,0,0,0-3.784-1.567,5.334,5.334,0,0,0-3.784,1.566,5.336,5.336,0,0,0-1.516,3.038,5.389,5.389,0,0,0-.926.621,6.208,6.208,0,0,1,1.823-4.275l0,0a6.207,6.207,0,0,1,4.4-1.823Zm1.922,6.078a1.056,1.056,0,0,1,1.056,1.056,1.057,1.057,0,0,1-1.056,1.057,1.057,1.057,0,0,1-1.056-1.057,1.056,1.056,0,0,1,1.056-1.056Zm-2.975-3.116a1.371,1.371,0,0,1,1.371,1.37,1.371,1.371,0,0,1-1.371,1.371,1.371,1.371,0,0,1-1.37-1.371A1.371,1.371,0,0,1,1369.731-3099.3Zm-1.295,4.547c.742.742.507,2.18-.526,3.213a2.673,2.673,0,0,1-2.762.828,2.289,2.289,0,0,0-1.476.651c-1.226,1.419.058,2.119-1.438,3.515a3,3,0,0,1-1.823.827,2.919,2.919,0,0,1-.765-.058c1.683-.279,2.388-.99,2.678-1.74.422-1.089-.14-1.725.679-2.748a3.865,3.865,0,0,1,1.437-1.1,2.61,2.61,0,0,1,.783-2.859C1366.256-3095.264,1367.694-3095.5,1368.436-3094.757Zm1.532,4.615a1.481,1.481,0,0,0-2.01.33,1.674,1.674,0,0,0-.518,1.727,1.427,1.427,0,0,1-.407.923c-.888.767-1.326-.036-2.2.9a1.877,1.877,0,0,0-.518,1.14,1.857,1.857,0,0,0,.036.479c.174-1.053.619-1.494,1.088-1.675.681-.264,1.079.088,1.718-.424a2.433,2.433,0,0,0,.692-.9,1.633,1.633,0,0,0,1.788-.489A1.482,1.482,0,0,0,1369.968-3090.142Zm.816-15.4a9.479,9.479,0,0,1,6.722,2.784,9.477,9.477,0,0,1,2.785,6.722,9.478,9.478,0,0,1-2.785,6.722,9.478,9.478,0,0,1-6.722,2.785h-.086a4.108,4.108,0,0,0,.639-.522l.008-.008a4.088,4.088,0,0,0,.346-.391,8.611,8.611,0,0,0,5.2-2.481,8.6,8.6,0,0,0,2.528-6.1,8.6,8.6,0,0,0-2.528-6.1,8.6,8.6,0,0,0-6.1-2.528,8.6,8.6,0,0,0-6.1,2.528,8.6,8.6,0,0,0-2.528,6.1,8.607,8.607,0,0,0,.563,3.074c-.016.108-.027.217-.034.325a5.531,5.531,0,0,0-.553.541,9.476,9.476,0,0,1-.852-3.94,9.477,9.477,0,0,1,2.785-6.722A9.476,9.476,0,0,1,1370.784-3105.545Z" transform="translate(-1349.1 3116.09)" fill="#fff" stroke="#fff" stroke-width="1"/>
    </g>
  </g>
</svg>
