<svg xmlns="http://www.w3.org/2000/svg" xmlns:xlink="http://www.w3.org/1999/xlink" width="43.66" height="43.943" viewBox="0 0 43.66 43.943">
  <defs>
    <filter id="Union_28" x="0" y="4.874" width="43.66" height="39.07" filterUnits="userSpaceOnUse">
      <feOffset dy="3" input="SourceAlpha"/>
      <feGaussianBlur stdDeviation="3" result="blur"/>
      <feFlood flood-opacity="0.161"/>
      <feComposite operator="in" in2="blur"/>
      <feComposite in="SourceGraphic"/>
    </filter>
  </defs>
  <g id="Nephrology" transform="translate(-16169.171 -6649)">
    <g id="Group_20814" data-name="Group 20814" transform="translate(16169.585 6649)">
      <path id="Subtraction_7" data-name="Subtraction 7" d="M21,42A21.005,21.005,0,0,1,12.826,1.65a21.005,21.005,0,0,1,16.349,38.7A20.864,20.864,0,0,1,21,42Z" transform="translate(0.415 0)" fill="#6ab654"/>
    </g>
    <g transform="matrix(1, 0, 0, 1, 16169.17, 6649)" filter="url(#Union_28)">
      <path id="Union_28-2" data-name="Union 28" d="M14.848,20.817c-.286,0-.319-.03-.319-.286,0-3.048-.011-6.1.014-9.145a3.85,3.85,0,0,1,1-2.594,5.117,5.117,0,0,1,1.883-1.3c.544-.229,1.1-.426,1.652-.639A5.849,5.849,0,0,0,21.8,4.866a1.528,1.528,0,0,1,.16-.164v0a.331.331,0,0,1,.467.033.328.328,0,0,1,.032.461c-.14.209-.32.39-.471.592a3.563,3.563,0,0,1-.973.882c-.408.257-.844.471-1.268.7-.076.041-.153.08-.229.121,0,.015,0,.031.006.046l.427.122a6.318,6.318,0,0,1,1.666.691,4.889,4.889,0,0,1,.6.46.314.314,0,0,1,.039.417.33.33,0,0,1-.423.147,1.392,1.392,0,0,1-.262-.153,5.38,5.38,0,0,0-2.674-1.008c-.34-.031-.685-.033-1.028-.031a.837.837,0,0,0-.555.251c.082.03.141.054.2.072A3.915,3.915,0,0,1,19.65,9.962a1.438,1.438,0,0,1,.123.2.342.342,0,0,1-.144.478.333.333,0,0,1-.406-.051c-.115-.113-.212-.248-.319-.371a3.008,3.008,0,0,0-1.831-1.036,1.265,1.265,0,0,0-1.333.6A3.175,3.175,0,0,0,15.3,11.2c-.033.4-.039.811-.039,1.217q0,4,0,7.994c0,.364-.011.4-.319.4Zm-1.1,0c-.409,0-.43-.023-.43-.429,0-2.694-.01-5.387.005-8.08a11.288,11.288,0,0,1,.122-2.126,4.6,4.6,0,0,1,1.829-3.016c.1-.074.2-.158.31-.243-.143-.13-.28-.247-.407-.373a1,1,0,0,1-.346-.727.319.319,0,0,1,.252-.319.29.29,0,0,1,.363.137,2.878,2.878,0,0,0,.3.427.918.918,0,0,0,1.081.222c.427-.19.871-.349,1.279-.574a3.489,3.489,0,0,0,1.648-1.546.515.515,0,0,1,.283-.259.353.353,0,0,1,.412.458A2.962,2.962,0,0,1,19.364,5.8,15.174,15.174,0,0,1,16.746,7.16,4.465,4.465,0,0,0,14.66,9.014a4.375,4.375,0,0,0-.549,2.005c-.039,1.466-.049,2.934-.062,4.4-.009,1.112,0,2.224,0,3.335,0,.581.014,1.163.019,1.744,0,.287-.025.318-.3.318Zm-2.4-.465c0-2.85,0-5.7-.007-8.552a5.992,5.992,0,0,0-.5-2.586,4.062,4.062,0,0,0-1.115-1.4,7.087,7.087,0,0,0-1.5-.858c-.511-.247-1.026-.488-1.534-.742A3.433,3.433,0,0,1,5.042,4.6a1.247,1.247,0,0,1-.1-.354.293.293,0,0,1,.225-.333.325.325,0,0,1,.383.1c.058.068.088.157.141.229a9.975,9.975,0,0,0,.62.813,4.24,4.24,0,0,0,1.307.795c.306.156.634.27.937.431a.973.973,0,0,0,1.3-.518.373.373,0,0,1,.35-.274.347.347,0,0,1,.362.448,1.357,1.357,0,0,1-.528.782l-.218.172c.355.321.721.6,1.031.941a4.613,4.613,0,0,1,1.08,2.26,8.85,8.85,0,0,1,.139,1.785q0,4.293,0,8.585c0,.034,0,.068,0,.1,0,.231-.023.25-.256.25h-.057C11.352,20.816,11.35,20.8,11.35,20.352Zm-.781.464c-.391,0-.408-.016-.408-.41q0-3.285,0-6.571c0-.633.005-1.264-.006-1.9a5.407,5.407,0,0,0-.3-1.776,1.4,1.4,0,0,0-1.852-.915,3.682,3.682,0,0,0-1.461.885c-.1.1-.163.243-.264.347a.747.747,0,0,1-.3.2.314.314,0,0,1-.348-.155.337.337,0,0,1,.013-.4,5.821,5.821,0,0,1,.536-.652,3.847,3.847,0,0,1,1.7-.966c.068-.02.134-.041.2-.063L8.1,8.386a1.226,1.226,0,0,0-.369-.164,7.387,7.387,0,0,0-1.093-.03,4.44,4.44,0,0,0-1.557.362c-.429.2-.834.442-1.249.668-.049.026-.091.067-.139.1a.359.359,0,0,1-.525-.065.349.349,0,0,1,.083-.522,4.742,4.742,0,0,1,.864-.557c.509-.224,1.043-.39,1.567-.58.047-.017.1-.028.145-.044.014,0,.025-.02.06-.049l-.2-.116c-.47-.263-.959-.5-1.4-.8a4.935,4.935,0,0,1-1.3-1.331.374.374,0,0,1-.008-.509c.215-.2.418-.17.614.074a5.635,5.635,0,0,0,.7.816,6.114,6.114,0,0,0,1.142.779,15.792,15.792,0,0,0,1.567.661,10.926,10.926,0,0,1,1.923.91,3.888,3.888,0,0,1,1.9,3.018c.06.621.064,1.25.066,1.875.008,2.535,0,5.07.005,7.6,0,.309-.016.33-.3.33ZM16.137,12a2.725,2.725,0,0,1,.2-1.606.555.555,0,0,1,.743-.376,2.454,2.454,0,0,1,.492.177c.144.069.165.178.07.286a1.605,1.605,0,0,0-.279,1.606,2.432,2.432,0,0,0,1.5,1.556,2.51,2.51,0,0,0,2.672-.382,5.935,5.935,0,0,0,1.722-2.191,9.061,9.061,0,0,0,.962-4.369,6.3,6.3,0,0,0-1.987-4.544A3.26,3.26,0,0,0,20.1,1.192,2.981,2.981,0,0,0,17.8,2a2.477,2.477,0,0,0-.59,2.586c.033.125.074.248.109.373a.191.191,0,0,1-.116.249c-.251.114-.5.228-.753.346-.109.05-.154-.005-.19-.1a3.748,3.748,0,0,1,2.507-5.3,4.324,4.324,0,0,1,4.064.966,7.073,7.073,0,0,1,2.383,4.163c.117.566.148,1.15.191,1.507a10.132,10.132,0,0,1-2.188,6.447,4.968,4.968,0,0,1-2.048,1.567,3.506,3.506,0,0,1-1.262.229A3.8,3.8,0,0,1,16.137,12ZM2.92,14.008A7.464,7.464,0,0,1,1,11.375,10.116,10.116,0,0,1,0,6.9,7.74,7.74,0,0,1,1.689,2.017,5.357,5.357,0,0,1,4.182.219a4.217,4.217,0,0,1,3.3.263,3.617,3.617,0,0,1,1.9,4.131c-.052.248-.122.493-.2.734-.056.174-.141.214-.312.154-.229-.081-.454-.172-.676-.27-.175-.077-.191-.173-.1-.394a2.78,2.78,0,0,0,.142-1.695A2.462,2.462,0,0,0,6.273,1.278a3.149,3.149,0,0,0-2.626.51A5,5,0,0,0,2.116,3.461a6.819,6.819,0,0,0-.94,3.381,8.982,8.982,0,0,0,1.9,5.657,3.479,3.479,0,0,0,2.038,1.337A2.677,2.677,0,0,0,8.1,11.845,1.676,1.676,0,0,0,7.8,10.5c-.136-.19-.129-.224.082-.326a2.072,2.072,0,0,1,.346-.136.663.663,0,0,1,.893.443,2.952,2.952,0,0,1,.126,1.552,3.42,3.42,0,0,1-2.269,2.691,4.01,4.01,0,0,1-1.525.32A3.842,3.842,0,0,1,2.92,14.008Z" transform="translate(9.13 11)" fill="#fff" stroke="#fff" stroke-width="0.25"/>
    </g>
  </g>
</svg>
