<svg xmlns="http://www.w3.org/2000/svg" xmlns:xlink="http://www.w3.org/1999/xlink" width="43.469" height="44.281" viewBox="0 0 43.469 44.281">
  <defs>
    <filter id="Union_30" x="2.032" y="2.903" width="41.437" height="41.377" filterUnits="userSpaceOnUse">
      <feOffset dy="3" input="SourceAlpha"/>
      <feGaussianBlur stdDeviation="3" result="blur"/>
      <feFlood flood-opacity="0.161"/>
      <feComposite operator="in" in2="blur"/>
      <feComposite in="SourceGraphic"/>
    </filter>
  </defs>
  <g id="Neurosurgery" transform="translate(-15970 -6793)">
    <path id="Subtraction_75" data-name="Subtraction 75" d="M21,42A21.005,21.005,0,0,1,12.826,1.65a21.005,21.005,0,0,1,16.349,38.7A20.864,20.864,0,0,1,21,42Z" transform="translate(15970 6793)" fill="#6ab654"/>
    <g transform="matrix(1, 0, 0, 1, 15970, 6793)" filter="url(#Union_30)">
      <path id="Union_30-2" data-name="Union 30" d="M10.277,22.109c-.038-.031-.079-.057-.038-.028a8.677,8.677,0,0,1-1.553.7,2.552,2.552,0,0,1-2.984-1.7.582.582,0,0,0-.542-.447A2.522,2.522,0,0,1,3.053,18.5a.627.627,0,0,0-.407-.539,2.694,2.694,0,0,1-1.531-2.753.7.7,0,0,0-.187-.493,2.863,2.863,0,0,1,.01-4.229.7.7,0,0,0,.179-.494,2.789,2.789,0,0,1,1.529-2.77.808.808,0,0,0,.383-.48A2.628,2.628,0,0,1,5.183,4.568.519.519,0,0,0,5.676,4.2,2.619,2.619,0,0,1,9.968,3.059l.175.148a2.692,2.692,0,0,1,2.377-.812,2.648,2.648,0,0,1,2.208,2.289c.041.36.051.748-.426.8-.457.047-.493-.315-.536-.664a1.665,1.665,0,0,0-2.481-1.285A1.177,1.177,0,0,0,10.6,4.689c.042.872.019,1.749.005,2.623a.489.489,0,0,0,.356.547,2.079,2.079,0,0,1,1.342,1.755c.046.344,0,.663-.409.71-.375.044-.5-.216-.537-.558a1.121,1.121,0,0,0-.706-.985v5.271c.392.042.781.065,1.163.132a1.371,1.371,0,0,1,.486.233c.287.191.571.434.332.806s-.539.236-.844.013a1.147,1.147,0,0,0-.593-.2c-.37-.018-.6.113-.595.576.025,1.617.008,3.234.011,4.851a1.416,1.416,0,0,0,1.614,1.424,1.689,1.689,0,0,0,1.507-1.315,9.97,9.97,0,0,1-.824-.6,2.492,2.492,0,0,1-.823-1.643c-.038-.337,0-.666.417-.708s.507.255.548.6a1.62,1.62,0,0,0,3.228.033c-.2-.053-.405-.1-.6-.163A2.67,2.67,0,0,1,13.837,15.8c-.024-.332-.019-.669.4-.717s.5.253.543.6a1.718,1.718,0,0,0,3.43-.122.748.748,0,0,0-.029-.147c-.415,0-.793.019-1.167-.006-.322-.021-.538-.206-.485-.553.048-.315.285-.379.586-.4a3.145,3.145,0,0,0,1.192-.208,1.83,1.83,0,0,0,.472-2.949c-.513.308-1.008.61-1.51.9a.745.745,0,0,1-.285.076c-.342.039-.749.146-.851-.331s.274-.549.638-.614A1.664,1.664,0,0,0,18.208,9.8c.036-.359.145-.644.548-.6s.482.375.4.71a.587.587,0,0,0,.231.633,2.814,2.814,0,0,1,.014,4.106.664.664,0,0,0-.245.63,2.627,2.627,0,0,1-1.494,2.67.636.636,0,0,0-.431.522,2.55,2.55,0,0,1-2.181,2.185.624.624,0,0,0-.41.309,2.706,2.706,0,0,1-2.487,1.879A2.937,2.937,0,0,1,10.277,22.109ZM7.753,17.641c.157.009.343.247.433.427a.873.873,0,0,1-.029.484A2.709,2.709,0,0,1,6.552,20.53a1.671,1.671,0,0,0,1.527,1.357,1.414,1.414,0,0,0,1.59-1.448q0-1.955,0-3.91c0-.223,0-.445,0-.68a2.032,2.032,0,0,1-.612.024,5.527,5.527,0,0,1-1.249-.508A.707.707,0,0,1,7.7,14.7c.131-.276.408-.213.683-.074a2.383,2.383,0,0,0,.908.254c.117.007.356-.253.359-.394.028-1.366.017-2.732.017-4.165a1.1,1.1,0,0,0-.745,1.036c-.046.329-.192.548-.528.52s-.449-.293-.422-.611A2.076,2.076,0,0,1,9.319,9.406a.489.489,0,0,0,.358-.543c-.014-1.435.011-2.87-.022-4.3a1.283,1.283,0,0,0-.335-.771A1.59,1.59,0,0,0,7.408,3.5a1.7,1.7,0,0,0-.876,1.831A1.654,1.654,0,0,0,8,6.667c.362.039.694.117.638.562s-.42.449-.766.4A2.457,2.457,0,0,1,6.181,6.7a10.619,10.619,0,0,1-.688-1.2A1.578,1.578,0,0,0,3.983,6.9,1.619,1.619,0,0,0,5.045,8.657c.092.037.228.046.267.113.1.169.245.393.2.54a.646.646,0,0,1-.471.315.8.8,0,0,1-.55-.176c-.5-.407-.965-.849-1.48-1.309A1.64,1.64,0,0,0,2.1,9.923a1.676,1.676,0,0,0,1.486,1.436c.1.018.236,0,.283.063.121.153.282.342.274.508-.007.134-.218.32-.374.369a.856.856,0,0,1-.578-.048c-.563-.274-1.107-.589-1.776-.952A4.908,4.908,0,0,0,.99,12.443a1.87,1.87,0,0,0,2.146,2.037c.316-.057.576.045.619.4s-.185.52-.5.54c-.373.023-.748.005-1.165.005a2.715,2.715,0,0,0,0,.364,1.718,1.718,0,0,0,3.416-.121c.042-.334.129-.608.514-.581.425.03.453.354.432.693a2.68,2.68,0,0,1-2.006,2.369l-.459.112a1.631,1.631,0,0,0,3.25-.058c.009-.065-.01-.158.026-.192.153-.14.327-.369.483-.369Zm-2.61-3.853c-.03-.32.163-.46.469-.518.585-.111.882-.43.879-.893s-.278-.74-.889-.877c-.294-.066-.5-.216-.457-.536.043-.348.3-.442.614-.422A1.845,1.845,0,0,1,7.438,12.41a1.826,1.826,0,0,1-1.689,1.8H5.693C5.4,14.214,5.174,14.124,5.143,13.788Zm7.638-.68c-.44-.289-.168-.625.04-.93.584-.858,1.16-1.721,1.752-2.573a.535.535,0,0,0,.059-.655,2.084,2.084,0,0,1,.235-2.114c.933-1.494,1.95-2.936,2.955-4.384.4-.579.938-.649,1.8-.29.259-.377.493-.735.744-1.08A2.51,2.51,0,0,1,22.329,0c.319-.019.578.08.606.428s-.2.491-.525.515a1.7,1.7,0,0,0-1.375.845c-.193.3-.4.6-.6.891.765.932.775,1.228.095,2.229-.851,1.254-1.675,2.528-2.564,3.754a2.357,2.357,0,0,1-2.189,1.184c-.124-.012-.3.151-.394.278-.6.85-1.171,1.714-1.757,2.57-.153.224-.3.511-.558.511A.523.523,0,0,1,12.781,13.108ZM15.675,7.34a2.246,2.246,0,0,0-.24.946.649.649,0,0,0,.835.566,2.326,2.326,0,0,0,.79-.574c.642-.872,1.232-1.781,1.872-2.72L17.51,4.6C16.877,5.537,16.249,6.421,15.675,7.34Zm2.358-3.6a2.594,2.594,0,0,0,.206.189c.391.269.784.536,1.283.875.187-.406.567-.91.459-1.057A2.234,2.234,0,0,0,18.8,2.952l-.021,0C18.6,2.949,18.292,3.462,18.033,3.739Z" transform="translate(11.28 9.15)" fill="#fff" stroke="#fff" stroke-miterlimit="10" stroke-width="0.5"/>
    </g>
  </g>
</svg>
