<svg xmlns="http://www.w3.org/2000/svg" xmlns:xlink="http://www.w3.org/1999/xlink" width="42" height="43.631" viewBox="0 0 42 43.631">
  <defs>
    <filter id="Union_69" x="2.745" y="4.747" width="36.384" height="38.885" filterUnits="userSpaceOnUse">
      <feOffset dy="3" input="SourceAlpha"/>
      <feGaussianBlur stdDeviation="3" result="blur"/>
      <feFlood flood-opacity="0.161"/>
      <feComposite operator="in" in2="blur"/>
      <feComposite in="SourceGraphic"/>
    </filter>
  </defs>
  <g id="Neuroscience_Specailists" data-name="Neuroscience Specailists" transform="translate(-16364 -7801)">
    <g id="Group_20873" data-name="Group 20873" transform="translate(16363.585 7801)">
      <path id="Subtraction_7" data-name="Subtraction 7" d="M21,42A21.005,21.005,0,0,1,12.826,1.65a21.005,21.005,0,0,1,16.349,38.7A20.864,20.864,0,0,1,21,42Z" transform="translate(0.415 0)" fill="#6ab654"/>
    </g>
    <g transform="matrix(1, 0, 0, 1, 16364, 7801)" filter="url(#Union_69)">
      <path id="Union_69-2" data-name="Union 69" d="M10.854,20.422a1.8,1.8,0,0,1-1.62-1.6,6.012,6.012,0,0,1-.008-.65q0-7.622,0-15.242a4.9,4.9,0,0,1,.115-1.249A2.18,2.18,0,0,1,11.259.048c.073-.013.144-.032.217-.048h.531l.251.068a2.574,2.574,0,0,1,1.993,2.11.261.261,0,0,0,.251.249A1.8,1.8,0,0,1,15.8,4.9c-.037.088-.081.172-.13.278A2.525,2.525,0,0,1,16.443,9.1c.067.039.123.073.181.1a2.529,2.529,0,0,1,.8,3.72c-.062.085-.111.149-.056.271a2.516,2.516,0,0,1-1.4,3.3c-.117.047-.189.093-.2.238a2.506,2.506,0,0,1-2.643,2.318.153.153,0,0,1-.04,0c-.2-.049-.3.025-.379.233a1.8,1.8,0,0,1-1.647,1.145A1.546,1.546,0,0,1,10.854,20.422Zm-.134-3.384a.227.227,0,0,1-.114.311c-.049.024-.1.041-.149.066a1.337,1.337,0,0,0-.733,1.478,1.354,1.354,0,0,0,1.268,1.058,1.334,1.334,0,0,0,1.311-.969c.033-.116.023-.246.063-.359.03-.086.1-.2.171-.217s.177.048.266.084c.053.021.1.071.152.078a2.055,2.055,0,0,0,2.34-2.15,2.332,2.332,0,0,0-.325-1.02.341.341,0,0,1,.039-.3c.039-.051.185-.049.272-.026.058.015.11.1.14.167.122.268.236.54.353.812a1.969,1.969,0,0,0,1.148-2.6,1.068,1.068,0,0,1-.154.1c-.313.125-.625.255-.944.362a.209.209,0,0,1-.275-.178.223.223,0,0,1,.177-.277c.078-.023.158-.043.236-.065a2.048,2.048,0,1,0-1.246-3.9c-.161.052-.313.083-.4-.108-.068-.149.023-.268.247-.346a2.629,2.629,0,0,1,1.208-.117.338.338,0,0,0,.261-.088,1.968,1.968,0,0,0,.45-2.009,2.012,2.012,0,0,0-1.564-1.373,4,4,0,0,0-.531-.045,2.385,2.385,0,0,1,.275,1.53,2.211,2.211,0,1,1-.758-2.085.635.635,0,0,0,.326.1c.276.024.555.017.831.044a.2.2,0,0,0,.221-.129,1.279,1.279,0,0,0-.049-1.409,1.252,1.252,0,0,0-1.249-.573,1.3,1.3,0,0,0-1.125.938c-.018.051-.015.125-.05.152-.078.06-.185.148-.26.131s-.145-.139-.179-.229c-.023-.059.016-.146.04-.216a1.787,1.787,0,0,1,1.2-1.19L13.8,2.4a.786.786,0,0,0,0-.093A2.127,2.127,0,0,0,11.239.535,1.718,1.718,0,0,0,9.77,1.911a4.3,4.3,0,0,0-.068.932Q9.7,9.975,9.7,17.107c0,.07.007.14.01.2.246-.136.472-.27.706-.387a.233.233,0,0,1,.106-.027A.218.218,0,0,1,10.72,17.038Zm.029-10.492A1.736,1.736,0,1,0,12.5,4.815h-.007A1.737,1.737,0,0,0,10.749,6.546ZM5.2,19.232a.233.233,0,0,0-.289-.188A2.465,2.465,0,0,1,2.2,16.985a.732.732,0,0,0-.473-.617A2.492,2.492,0,0,1,.509,13.262a.363.363,0,0,0-.043-.388,2.523,2.523,0,0,1,.818-3.657l.176-.1A2.545,2.545,0,0,1,.905,6.953,2.5,2.5,0,0,1,2.21,5.21a6.621,6.621,0,0,1-.219-.878A1.774,1.774,0,0,1,3.462,2.42c.134-.022.2-.063.214-.211A2.517,2.517,0,0,1,5.765.046,1.178,1.178,0,0,0,5.917,0h.531c.1.027.207.057.31.081A2.5,2.5,0,0,1,8.7,2.618c0,.055,0,.109,0,.164q0,7.663,0,15.324a4.517,4.517,0,0,1-.052.931,1.782,1.782,0,0,1-1.66,1.391l-.092,0A1.8,1.8,0,0,1,5.2,19.232Zm.355-.648c.025.105.021.217.043.322a1.33,1.33,0,0,0,2.593.023,1.324,1.324,0,0,0-.669-1.487c-.078-.041-.185-.058-.231-.122a.352.352,0,0,1-.075-.281c.032-.071.164-.121.259-.133a.408.408,0,0,1,.223.087c.171.1.337.215.529.339V17.11q0-7.214,0-14.429a2.66,2.66,0,0,0-.032-.529,2.04,2.04,0,0,0-4.042.258c.052.017.1.034.141.049a1.779,1.779,0,0,1,1.22,1.19c.086.258.049.4-.109.457s-.251-.038-.344-.3a1.292,1.292,0,0,0-1.134-.927,1.25,1.25,0,0,0-1.231.571A1.293,1.293,0,0,0,2.62,4.839a.24.24,0,0,0,.291.14,6.143,6.143,0,0,1,.873-.019.238.238,0,1,1-.04.472c-.055-.005-.109-.007-.163-.013a2.041,2.041,0,0,0-1.715,3.4.352.352,0,0,0,.261.091,2.694,2.694,0,0,1,1.228.113c.226.078.309.191.255.345s-.178.182-.4.111A1.994,1.994,0,0,0,2.205,9.4,1.99,1.99,0,0,0,.6,10.746a1.947,1.947,0,0,0,.406,2.035,1.95,1.95,0,0,0,1.13.647c.153.031.276.114.239.294a.233.233,0,0,1-.333.173c-.232-.071-.463-.149-.688-.242a3.171,3.171,0,0,1-.382-.218,1.985,1.985,0,0,0,1.183,2.586c.119-.267.226-.537.356-.8.1-.2.241-.245.376-.166s.148.211.036.408a1.972,1.972,0,0,0,.014,2.147,1.949,1.949,0,0,0,1.942.951.55.55,0,0,0,.266-.113.319.319,0,0,1,.187-.07A.228.228,0,0,1,5.552,18.584Zm-.98-1.569a.222.222,0,0,1,.2-.3A1.332,1.332,0,0,0,5.86,15.79a1.29,1.29,0,0,0-.054-.936.219.219,0,0,0-.229-.152,2.518,2.518,0,0,1-2.5-2.177A2.367,2.367,0,0,1,3.208,11.3c.058-.154.148-.248.321-.2.144.036.192.184.13.37a2.046,2.046,0,0,0,1.476,2.7A2,2,0,0,0,6.8,13.822c.06-.042.129-.113.189-.108.089.006.23.051.248.111a.329.329,0,0,1-.062.3c-.258.171-.539.309-.813.457-.034.018-.072.03-.12.05a2.007,2.007,0,0,1,.119,1.145,1.823,1.823,0,0,1-1.491,1.412.468.468,0,0,1-.073.006A.209.209,0,0,1,4.572,17.015Zm5.951-1.459c-.171-.125-.218-.276-.113-.393.128-.142.26-.092.4,0a1.472,1.472,0,0,0,2.346-1.229,1.563,1.563,0,0,0-.085-.437c-.049-.157-.048-.287.115-.362s.272.014.346.217a1.954,1.954,0,0,1-1.4,2.533c-.146.031-.3.041-.443.061A2.035,2.035,0,0,1,10.523,15.557Zm.757-2.576a2.372,2.372,0,0,1,.595-1.529,1.109,1.109,0,0,0,.23-1.1,1.321,1.321,0,0,0-1.257-.989c-.232-.015-.322-.089-.309-.256s.13-.23.352-.221a1.807,1.807,0,0,1,1.732,1.627c.01.094.022.186.035.3a2.7,2.7,0,0,1,1.256-.265,2.515,2.515,0,0,1,1.234.379c.167.1.218.243.143.371s-.22.139-.4.037A2.057,2.057,0,0,0,11.759,13c-.01.17-.051.3-.239.317H11.5C11.357,13.314,11.272,13.186,11.28,12.981ZM5.988,11.93a2.133,2.133,0,0,1-.53-2.493c.034-.073.071-.145.115-.236-.092-.059-.168-.1-.239-.152a1.745,1.745,0,0,1-.787-1.688A1.751,1.751,0,0,1,5.7,5.856c.013-.005.026-.008.039-.013.155-.057.305-.069.374.116s-.043.274-.205.332a1.306,1.306,0,0,0-.808.783A1.335,1.335,0,0,0,5.75,8.74a.236.236,0,0,0,.273-.028,5.391,5.391,0,0,1,.729-.4c.183-.081.325-.009.362.144.044.18-.07.257-.217.311a1.631,1.631,0,0,0-.59,2.8c.148.14.176.277.076.387a.216.216,0,0,1-.162.08A.376.376,0,0,1,5.988,11.93Zm5.745-5.384a.745.745,0,0,1,.75-.756.752.752,0,1,1,.007,1.5h0A.741.741,0,0,1,11.732,6.547ZM6.4,4.8c-.093-.124-.035-.263.146-.381a1.325,1.325,0,0,0-.047-2.3c-.118-.069-.225-.139-.2-.294.025-.18.205-.242.4-.144A1.866,1.866,0,0,1,7.664,3.4,1.767,1.767,0,0,1,6.8,4.829a.413.413,0,0,1-.211.077A.226.226,0,0,1,6.4,4.8Z" transform="translate(11.98 10.97)" fill="#fff" stroke="#fff" stroke-width="0.45"/>
    </g>
  </g>
</svg>
