<svg xmlns="http://www.w3.org/2000/svg" xmlns:xlink="http://www.w3.org/1999/xlink" width="44.292" height="44.25" viewBox="0 0 44.292 44.25">
  <defs>
    <filter id="Union_29" x="0" y="3.913" width="44.292" height="40.337" filterUnits="userSpaceOnUse">
      <feOffset dy="3" input="SourceAlpha"/>
      <feGaussianBlur stdDeviation="3" result="blur"/>
      <feFlood flood-opacity="0.161"/>
      <feComposite operator="in" in2="blur"/>
      <feComposite in="SourceGraphic"/>
    </filter>
  </defs>
  <g id="Neurology" transform="translate(-16362.847 -6649)">
    <g id="Group_20816" data-name="Group 20816" transform="translate(16363.586 6649)">
      <path id="Subtraction_7" data-name="Subtraction 7" d="M21,42A21.005,21.005,0,0,1,12.826,1.65a21.005,21.005,0,0,1,16.349,38.7A20.864,20.864,0,0,1,21,42Z" transform="translate(0.415 0)" fill="#6ab654"/>
    </g>
    <g transform="matrix(1, 0, 0, 1, 16362.85, 6649)" filter="url(#Union_29)">
      <path id="Union_29-2" data-name="Union 29" d="M12.129,21.775a14.741,14.741,0,0,0-1.622-.007c-.45.013-.63-.215-.616-.682.012-.415,0-.831,0-1.345a3.824,3.824,0,0,1-3.468.385,4.158,4.158,0,0,1-2.38-2.674A2.88,2.88,0,0,1,.53,16.135,3.422,3.422,0,0,1,.58,12.44,2.658,2.658,0,0,1,.2,9.777c.251-.593.892-1,1.129-1.594s.09-1.35.28-1.976a2.4,2.4,0,0,1,1.46-1.422A.855.855,0,0,0,3.5,4.26,3.276,3.276,0,0,1,7.238,1.47a.694.694,0,0,0,.792-.285A2.849,2.849,0,0,1,11.8.428c.165.093.434.2.554.12a2.7,2.7,0,0,1,3.745.476,2.835,2.835,0,0,1,4.927,1.34c.157,0,.325.006.492,0a2.86,2.86,0,0,1,2.944,2.511,1.663,1.663,0,0,0,.431.794A2.624,2.624,0,0,1,25.689,8.3a2.389,2.389,0,0,1-1.948,1.885,9.705,9.705,0,0,0-1.091.443c-.5.178-1.019.317-1.525.491a1.968,1.968,0,0,0-.565.287c-.169.131-.271.408-.448.473-.923.341-1.095,1.248-1.553,2.012a13.516,13.516,0,0,1-2.7,2.947c-.361.323-1.015.266-1.672.413-.373,1.21-.8,2.523-1.179,3.848-.133.459-.345.675-.764.675Q12.188,21.78,12.129,21.775Zm-.633-.919c.514.088.752-.132.887-.678a16.607,16.607,0,0,1,.792-2.538,1.236,1.236,0,0,0-.384-1.676,1.894,1.894,0,0,0-1.437,1.787.8.8,0,0,1-.173.39c-.635.795-.368,1.726-.407,2.71.191,0,.346-.011.486-.011A1.394,1.394,0,0,1,11.5,20.856ZM4.95,17.273a2.931,2.931,0,0,0,2.974,2.173,2.963,2.963,0,0,0,2.731-2.631L8.65,15.956a2.544,2.544,0,0,1-3.252.256C5.228,16.589,4.9,16.971,4.95,17.273ZM1.666,16.117a2.036,2.036,0,0,0,2.769-.023c.289-.269.478-.517.174-.935a2.884,2.884,0,0,1-.26-.761l.838-.1c.646,1.568,1.952,1.922,2.917.853l-.4-1.671h.873c.281,1.44,1,2.211,2.076,2.268,1.135.059,1.819-.606,2.334-2.262h.8a4.842,4.842,0,0,1-.22,1.074,1.006,1.006,0,0,0,.384,1.331,1.378,1.378,0,0,0,1.732.035,1.683,1.683,0,0,0,.575-1.82c-.056-.19-.142-.37-.22-.57l.7-.577.533,1.325A2.066,2.066,0,0,0,18,12.329a2.04,2.04,0,0,0-1.848-1.7V9.813a2.373,2.373,0,0,1,2.285,1.308c.281.538.559.469.916.213a5.952,5.952,0,0,0,.586-.556L19.306,10l.685-.487c.837.8,1.439.887,2.146.32a2.621,2.621,0,0,1-1.055-2.151h.775c.328,1.173.819,1.63,1.67,1.579a1.483,1.483,0,0,0,1.349-1.311c.146-.949-.186-1.423-1.424-2.012,0-.216-.075-.489.014-.662.255-.492,0-.84-.229-1.182a1.812,1.812,0,0,0-2.227-.676c-.617.223-.73.145-.815-.556a1.924,1.924,0,0,0-2.681-1.739A2.137,2.137,0,0,0,16.319,3h-.925a1.2,1.2,0,0,0-.627-1.836,1.688,1.688,0,0,0-1.89.2l.535,1.864h-.9c-.281-1.406-.93-2.14-1.956-2.241C9.366.875,8.737,1.449,8.093,3.238H7.337V2.489A2.216,2.216,0,0,0,4.7,3.534c-.654,1.114-.464,2.124.687,3.584l-.418.7A3.65,3.65,0,0,1,3.512,5.633,1.75,1.75,0,0,0,2.229,7.1c-.035.235-.042.663.05.7.516.222.283.616.293.956-1.2.409-1.657.925-1.678,1.871s.479,1.519,1.675,1.972v.882l-1.3-.342A2.333,2.333,0,0,0,1.666,16.117ZM5.889,17.38l.681-.422c1.017.869,1.417.868,2.354-.008l.673.411A1.974,1.974,0,0,1,7.964,18.51a2.364,2.364,0,0,1-.24.013A2.134,2.134,0,0,1,5.889,17.38Zm4.949-3.5a2.564,2.564,0,0,1,2.291-2.742,2.651,2.651,0,0,1,2.765,2.718h-.778c-.428-1.3-.967-1.831-1.836-1.793s-1.416.608-1.719,1.817ZM4.293,12.715c.071-.666-.427-1.007-1-1.152v-.872A2.02,2.02,0,0,1,4.975,13.6C4.588,13.45,4.221,13.387,4.293,12.715Zm1.812.248a2.152,2.152,0,0,1,1.981-2.3A2.205,2.205,0,0,1,10.3,12.954H9.527c-.188-.77-.553-1.4-1.437-1.335-.765.053-1.079.624-1.238,1.344ZM9.531,10.4a1.943,1.943,0,0,1,1.377-1.977,1.9,1.9,0,0,1,2.23,1.133l-.6.31c-.415-.222-.754-.553-1.078-.536a1.248,1.248,0,0,0-.959.593c-.161.411-.36.529-.613.528A1.662,1.662,0,0,1,9.531,10.4ZM3.678,9.612l.413-.6a6.142,6.142,0,0,0,1.09.25A1.7,1.7,0,0,0,6.865,7.775,1.776,1.776,0,0,0,5.74,5.716c-.621-.16-.642-.5-.483-1.164L6.991,5.3l1.585-.775V5.536a4.282,4.282,0,0,0-.569.23c-.331.189-.566.428-.358.9a1.114,1.114,0,0,1,.1.607c-.136.735.219,1.025.839,1.107v.967l-1.2-.387A2.739,2.739,0,0,1,5.2,10.213,2.3,2.3,0,0,1,3.678,9.612Zm10.549-.368V8.412c1.595-.448,2.274-1.371,2.025-2.806a2.146,2.146,0,0,1-1.979-.858A9.4,9.4,0,0,1,13.636,3.3h.946c.24.917.622,1.316,1.263,1.345.7.031,1.078-.332,1.42-1.344h.748A2.3,2.3,0,0,1,17.4,4.95a1.069,1.069,0,0,0-.214.674,3.148,3.148,0,0,1-2.912,3.619Zm4.266,0V8.456c1.012-.47,1.311-.854,1.259-1.6-.046-.658-.4-1.039-1.243-1.312V4.711a2.167,2.167,0,0,1,2.125,2.278,2.184,2.184,0,0,1-2.126,2.25ZM10.382,5.16h.727c.469,1.366.565,1.468,1.775,1.876v.779a1.74,1.74,0,0,1-.243.017A2.513,2.513,0,0,1,10.382,5.16Z" transform="translate(9.26 10.22)" fill="#fff" stroke="#fff" stroke-miterlimit="10" stroke-width="0.5"/>
    </g>
  </g>
</svg>
