<svg xmlns="http://www.w3.org/2000/svg" xmlns:xlink="http://www.w3.org/1999/xlink" width="42" height="43.333" viewBox="0 0 42 43.333">
  <defs>
    <filter id="Path_26973" x="2.376" y="4.375" width="37.317" height="38.958" filterUnits="userSpaceOnUse">
      <feOffset dy="3" input="SourceAlpha"/>
      <feGaussianBlur stdDeviation="3" result="blur"/>
      <feFlood flood-opacity="0.161"/>
      <feComposite operator="in" in2="blur"/>
      <feComposite in="SourceGraphic"/>
    </filter>
  </defs>
  <g id="NICU" transform="translate(-15970 -6649)">
    <path id="Subtraction_82" data-name="Subtraction 82" d="M21,42A21.005,21.005,0,0,1,12.826,1.65a21.005,21.005,0,0,1,16.349,38.7A20.864,20.864,0,0,1,21,42Z" transform="translate(15970 6649)" fill="#6ab654"/>
    <g transform="matrix(1, 0, 0, 1, 15970, 6649)" filter="url(#Path_26973)">
      <path id="Path_26973-2" data-name="Path 26973" d="M-3087.65-1025.552c.814.195,1.194.788.952,1.456a1,1,0,0,1-.963.693c-.292.011-.365.134-.426.393a3.08,3.08,0,0,1-3.015,2.362q-1.453,0-2.907,0h-.4v2.316c.123.006.254.019.385.019,1.026,0,2.052.007,3.079,0,1.129-.009,1.728.715,1.569,1.924-.038.289-.247.456-.649.569.057,1-.527,1.39-1.143,1.348s-.979-.538-.94-1.35h-8.124a1.051,1.051,0,0,1-.373,1.114,1.449,1.449,0,0,1-.791.22c-.6-.02-.968-.6-.878-1.294-.631-.256-.774-.489-.712-1.162a1.4,1.4,0,0,1,1.064-1.309,2.708,2.708,0,0,1,.542-.054c1.026,0,2.052,0,3.079,0h.4v-2.313c-.109-.007-.229-.022-.348-.022q-1.419,0-2.839,0a3.09,3.09,0,0,1-3.189-2.494c-.016-.066-.033-.131-.05-.194-1.039-.234-1.343-.478-1.362-1.091-.019-.578.292-.936,1.019-1.136v-.391c0-2.2.036-4.4-.012-6.6a2.527,2.527,0,0,1,2.6-2.622c3.979.041,7.959.014,11.939.014a2.406,2.406,0,0,1,2.489,2.475c.009,2.235,0,4.47,0,6.7Zm-.771.016a1.006,1.006,0,0,0,.035-.178c0-2.337.021-4.675-.008-7.011a1.641,1.641,0,0,0-1.77-1.675q-6,0-12.005,0a1.664,1.664,0,0,0-1.768,1.781q0,3.352,0,6.7v.371h3.189c-.983-1.3-.366-2.674-.271-4.054h-.807a1.069,1.069,0,0,1-1.164-1.031,1.089,1.089,0,0,1,1.148-1.1c.6-.006,1.208,0,1.813,0a1.415,1.415,0,0,1,1.466,1.843c-.038.175-.071.351-.106.526.054.024.083.049.113.049.832,0,1.664.014,2.5,0,.074,0,.2-.162.208-.255.024-.4,0-.8.016-1.2a1.016,1.016,0,0,1,1.282-.921,1.077,1.077,0,0,1,.807,1.16c0,1.528,0,3.056,0,4.583v.4h1.023c-.6-1.322-.5-2.24.3-2.93a2.048,2.048,0,0,1,2.5-.148,2.011,2.011,0,0,1,.892,1.437,2.221,2.221,0,0,1-.433,1.645Zm-.367,2.183h-14.731a2.265,2.265,0,0,0,2.229,1.944q5.111,0,10.222,0A2.3,2.3,0,0,0-3088.789-1023.353Zm-13.424,6.767h12.1c.092-.657-.172-.966-.811-.966h-10.464C-3102.056-1017.552-3102.28-1017.3-3102.212-1016.586Zm6.065-7.565h8.205c.1,0,.227.031.3-.016.1-.063.223-.184.228-.286a.431.431,0,0,0-.207-.294.668.668,0,0,0-.333-.038q-8.222,0-16.445,0a.649.649,0,0,0-.331.043c-.1.065-.221.2-.213.3s.144.216.251.278c.078.045.2.014.3.014Zm-.994-4.4v3.008h2.592a.367.367,0,0,0,.031-.086c0-1.665.011-3.33,0-4.995,0-.114-.188-.226-.29-.34-.1.116-.269.222-.288.351a5.968,5.968,0,0,0-.015.887q0,.7,0,1.4c0,.248-.094.432-.369.435-.257,0-.356-.16-.359-.4a2.164,2.164,0,0,0-.034-.261Zm4.752,1.67a1.34,1.34,0,0,0,1.324,1.36,1.382,1.382,0,0,0,1.324-1.345,1.379,1.379,0,0,0-1.343-1.359A1.335,1.335,0,0,0-3092.389-1026.881Zm-6.452-1.673c-.037.154-.068.274-.1.4-.061.277-.1.562-.185.829a1.171,1.171,0,0,1-1.284.829c.348,1,1.282,1.082,2.5.93v-2.984Zm1.7,7.927v2.286h1.924v-2.286Zm-3.731-10.341c-.308,0-.615,0-.922,0-.223,0-.432.036-.434.311s.219.3.437.3c.49,0,.981-.024,1.468.015a.583.583,0,0,1,.417.3c.039.1-.13.285-.213.428-.041.07-.122.125-.142.2a4.814,4.814,0,0,0-.1.536c-.061.416-.137.831-.162,1.249-.007.118.132.34.219.348a.792.792,0,0,0,.427-.192c.052-.035.063-.142.08-.219.177-.821.357-1.642.526-2.465a.639.639,0,0,0-.646-.805C-3100.231-1030.975-3100.55-1030.968-3100.869-1030.968Zm.04,15.46c-.186-.149-.315-.325-.4-.307a.465.465,0,0,0-.3.31c-.014.082.173.272.282.282S-3101.022-1015.369-3100.829-1015.509Zm9.76-.452c-.138.194-.289.313-.284.425s.164.221.255.332c.112-.106.289-.2.316-.322C-3090.761-1015.621-3090.927-1015.758-3091.069-1015.96Z" transform="translate(3117.19 1045.68)" fill="#fff" stroke="#fff" stroke-width="0.25"/>
    </g>
  </g>
</svg>
