<svg xmlns="http://www.w3.org/2000/svg" xmlns:xlink="http://www.w3.org/1999/xlink" width="42" height="43.027" viewBox="0 0 42 43.027">
  <defs>
    <filter id="Union_83" x="4.781" y="4.738" width="35.003" height="38.289" filterUnits="userSpaceOnUse">
      <feOffset dy="3" input="SourceAlpha"/>
      <feGaussianBlur stdDeviation="3" result="blur"/>
      <feFlood flood-opacity="0.161"/>
      <feComposite operator="in" in2="blur"/>
      <feComposite in="SourceGraphic"/>
    </filter>
  </defs>
  <g id="ObGyne_ER" data-name="ObGyne ER" transform="translate(-16170 -8377)">
    <g id="Group_20880" data-name="Group 20880" transform="translate(16169.585 8377)">
      <path id="Subtraction_7" data-name="Subtraction 7" d="M21,42A21.005,21.005,0,0,1,12.826,1.65a21.005,21.005,0,0,1,16.349,38.7A20.864,20.864,0,0,1,21,42Z" transform="translate(0.415 0)" fill="#6ab654"/>
    </g>
    <g transform="matrix(1, 0, 0, 1, 16170, 8377)" filter="url(#Union_83)">
      <path id="Union_83-2" data-name="Union 83" d="M1.819,19.8A1.331,1.331,0,0,1,.34,18.31a10.167,10.167,0,0,1,.09-1.84,3.253,3.253,0,0,1,3.2-2.6c.1,0,.2,0,.294,0,.11-.593.1-.6-.372-.862a4.192,4.192,0,0,1-2.132-2.841A.427.427,0,0,0,1.1,9.79,1.428,1.428,0,0,1,.042,8.516,6.886,6.886,0,0,1,.535,4.9,5.8,5.8,0,0,1,2.445,2.642a.51.51,0,0,0,.218-.266A2.735,2.735,0,0,1,4.97.076,3.038,3.038,0,0,1,8.305,1.551a.8.8,0,0,1,.122.282,1.66,1.66,0,0,0,.781,1.157A5.47,5.47,0,0,1,11.22,7.37a7.847,7.847,0,0,1-.036,1.138,1.531,1.531,0,0,1-1.122,1.3.355.355,0,0,0-.28.305,4.288,4.288,0,0,1-2.326,2.979c-.372.189-.109.49-.2.7.524.1.991.206,1.464.281a.438.438,0,0,0,.3-.141c.631-.617,1.249-1.247,1.877-1.868a3.159,3.159,0,0,1,3.344-.837,3.124,3.124,0,0,1,2.255,2.6,2.974,2.974,0,0,1-.715,2.615c-.82.891-1.673,1.755-2.567,2.572a3.112,3.112,0,0,1-2.791.715,1.9,1.9,0,0,0-.479.013c-.174.013-.347.056-.518.056q-2.253,0-4.505,0Zm-.684-3.45a9.772,9.772,0,0,0-.143,2.014c-.018.55.237.791.78.792q1.493,0,2.987,0c.086,0,.173-.014.3-.023a10.569,10.569,0,0,1-1.094-4.583,2.619,2.619,0,0,0-.363-.025A2.518,2.518,0,0,0,1.135,16.352Zm7.637,1.407a2.612,2.612,0,0,0,2.644,1.362,12.863,12.863,0,0,1-2.548-3.946A2.477,2.477,0,0,0,8.772,17.759ZM6.167,19.144H9.085A3.424,3.424,0,0,1,8.378,14.6L7.26,14.5A10.634,10.634,0,0,1,6.167,19.144ZM9.6,14.255a.482.482,0,0,0-.149.617,11.713,11.713,0,0,0,2.578,3.938.282.282,0,0,0,.254.063c.244-.138.47-.3.722-.473a10.772,10.772,0,0,1-2.912-4.686A5.451,5.451,0,0,1,9.6,14.255Zm-4.012,4.5a7.46,7.46,0,0,0,.929-3.165,1.8,1.8,0,0,1-1.831-.014A9.22,9.22,0,0,0,5.585,18.751Zm6.939-1.84.909,1.007.616-.617-1.484-.449Zm-.968-4.583a8.991,8.991,0,0,0-.722.713.478.478,0,0,0-.11.325,5.274,5.274,0,0,0,.963,2.4.436.436,0,0,0,.226.148q1.256.409,2.517.8a.307.307,0,0,0,.249-.041,2.939,2.939,0,0,0,1.21-2.083,2.7,2.7,0,0,0-1.419-2.581,2.784,2.784,0,0,0-1.244-.3A2.523,2.523,0,0,0,11.557,12.328Zm-6.934,1.9a1,1,0,0,0,.929.968.974.974,0,0,0,1.027-.785,5.928,5.928,0,0,0,.009-.935H4.622C4.622,13.706,4.615,13.97,4.623,14.232ZM5.855,4.957a6.564,6.564,0,0,0-3.565,1.2.7.7,0,0,0-.317.629c0,.453,0,.9,0,1.356h.012c0,.522-.043,1.05.007,1.569A3.592,3.592,0,0,0,5.545,12.88,3.628,3.628,0,0,0,9.2,9.744c.092-.967.049-1.948.059-2.922.006-.5-.068-.567-.576-.627A3.907,3.907,0,0,1,6.26,5.1a.6.6,0,0,0-.386-.148ZM.649,8.273a.878.878,0,0,0,.655.875V7.357A.922.922,0,0,0,.649,8.273Zm9.265.873a.9.9,0,0,0,.657-.961.834.834,0,0,0-.657-.81Zm-3.3-4.58A3.544,3.544,0,0,0,8.961,5.587a1,1,0,0,1,.926.844.471.471,0,0,0,.2.257,3,3,0,0,0,.446.2A4.938,4.938,0,0,0,5.241,2.309C2.883,2.447.475,4.849.715,6.876a1.434,1.434,0,0,1,.225-.1.627.627,0,0,0,.5-.523A1.127,1.127,0,0,1,1.85,5.7a7.037,7.037,0,0,1,4.1-1.384h.012A.983.983,0,0,1,6.616,4.566ZM7.8,2.1A2.213,2.213,0,0,0,5.563.648,2.175,2.175,0,0,0,3.432,2.093a5.849,5.849,0,0,1,2.176-.434A5.882,5.882,0,0,1,7.8,2.1ZM3.232,17.484c-.2,0-.391,0-.586,0H2.03c-.2,0-.342-.084-.354-.3S1.8,16.86,2,16.856a.443.443,0,0,0,.421-.223.259.259,0,0,1,.462.021.373.373,0,0,0,.37.2c.214,0,.373.1.364.327s-.156.308-.363.308Zm10.732-1.655a2.185,2.185,0,0,0-.427-.023A1.646,1.646,0,0,1,11.8,14.07a2.1,2.1,0,0,0-.019-.426.974.974,0,0,1,1.154-1.134,2.257,2.257,0,0,0,.426.033,1.58,1.58,0,0,1,1.686,1.716c.019.142.033.283.057.422a.968.968,0,0,1-.968,1.161A1.149,1.149,0,0,1,13.964,15.829Zm.081-.633c.289.049.467-.142.41-.44a1.368,1.368,0,0,1-.02-.445,1.018,1.018,0,0,0-1.069-1.141,2.559,2.559,0,0,1-.537-.023.336.336,0,0,0-.418.387c.028.2.054.4.082.6a.929.929,0,0,0,1.041,1.03l.1,0A2.373,2.373,0,0,1,14.045,15.2ZM5.562,11.874a1.734,1.734,0,0,1-1.5-.7c-.131-.171-.2-.353,0-.513s.353-.054.5.113a1.3,1.3,0,0,0,2.033-.008c.135-.165.287-.255.474-.125.2.14.174.322.037.507a1.718,1.718,0,0,1-1.452.73Z" transform="translate(14 11)" fill="#fff" stroke="#fff" stroke-width="0.45"/>
    </g>
  </g>
</svg>
