<svg xmlns="http://www.w3.org/2000/svg" xmlns:xlink="http://www.w3.org/1999/xlink" width="42" height="42.502" viewBox="0 0 42 42.502">
  <defs>
    <filter id="Union_58" x="1.225" y="3.875" width="39.834" height="38.628" filterUnits="userSpaceOnUse">
      <feOffset dy="3" input="SourceAlpha"/>
      <feGaussianBlur stdDeviation="3" result="blur"/>
      <feFlood flood-opacity="0.161"/>
      <feComposite operator="in" in2="blur"/>
      <feComposite in="SourceGraphic"/>
    </filter>
  </defs>
  <g id="ObGyne" transform="translate(-16364 -7369)">
    <g id="Group_20855" data-name="Group 20855" transform="translate(16363.585 7369)">
      <path id="Subtraction_7" data-name="Subtraction 7" d="M21,42A21.005,21.005,0,0,1,12.826,1.65a21.005,21.005,0,0,1,16.349,38.7A20.864,20.864,0,0,1,21,42Z" transform="translate(0.415 0)" fill="#6ab654"/>
    </g>
    <g transform="matrix(1, 0, 0, 1, 16364, 7369)" filter="url(#Union_58)">
      <path id="Union_58-2" data-name="Union 58" d="M9.363,20.372A12.356,12.356,0,0,1,4.605,19.4a7.3,7.3,0,0,1-4.421-5.75A11.3,11.3,0,0,1,1.879,5.292,11.393,11.393,0,0,1,10.049.085a6.446,6.446,0,0,1,.707-.077c.356-.014.711,0,1.066,0a12.784,12.784,0,0,1,4.6.724,7.308,7.308,0,0,1,4.974,6,11.287,11.287,0,0,1-2.585,9.527,11.325,11.325,0,0,1-9.008,4.127C9.66,20.378,9.512,20.376,9.363,20.372ZM5.747,3.281A10.062,10.062,0,0,0,1.6,13.389a5.761,5.761,0,0,0,3.745,4.759,11.377,11.377,0,0,0,7.24.447A10.208,10.208,0,0,0,20,6.954a5.838,5.838,0,0,0-3.819-4.779,11.518,11.518,0,0,0-7.879-.2c-.487.16-.95.391-1.424.588.021.053.022.063.026.066l.2.137A2.9,2.9,0,0,1,8.348,4.511,6.436,6.436,0,0,1,8.5,6.385c-.026.785-.06,1.57-.061,2.354A2.487,2.487,0,0,0,8.762,10a2.261,2.261,0,0,0,1.969,1.2,1.163,1.163,0,0,1,.912.409c-.217.158-.411.3-.611.442a.2.2,0,0,1-.122.023c-.147-.015-.292-.042-.438-.056a3.124,3.124,0,0,1-2.7-2.242,8.154,8.154,0,0,1-.154-2.56,18.777,18.777,0,0,0,.015-1.975A2.168,2.168,0,0,0,6.148,3.218a.452.452,0,0,0-.16-.034A.387.387,0,0,0,5.747,3.281Zm3.489,14.1a1.29,1.29,0,0,1-.93-1.226,3.942,3.942,0,0,1,.246-1.5c.086-.26.18-.517.254-.78a1.456,1.456,0,0,0,.046-.4.563.563,0,0,0-.6-.626c-.05,0-.1,0-.152,0H8.011a.413.413,0,0,1-.409-.286q-.159-.45-.3-.905a.3.3,0,0,1,.159-.41.406.406,0,0,1,.329.137,3.427,3.427,0,0,1,.36.532.455.455,0,0,0,.539.238,1.306,1.306,0,0,1,.5,0,.65.65,0,0,1,.568.572,2.894,2.894,0,0,0,.116.474c.1.289.258.356.53.21a3.025,3.025,0,0,0,.455-.316c.428-.342.85-.69,1.3-1.059.2.309.4.6.576.893a.759.759,0,0,0,.784.39c.278-.029.558-.046.861-.07l-.026-.261c-.293.022-.566.035-.837.065a.535.535,0,0,1-.562-.269c-.381-.608-.788-1.2-1.156-1.816a7.6,7.6,0,0,1-.446-.99.332.332,0,0,1,.193-.472.348.348,0,0,1,.477.192c.236.451.444.921.721,1.344a1.714,1.714,0,0,0,1.982.535c.186-.082.221-.241.042-.323a2.117,2.117,0,0,0-.716-.177,1,1,0,0,1-.991-.534,2.547,2.547,0,0,1-.207-1.212A2.711,2.711,0,0,1,12.9,9a.923.923,0,0,0-.123-.671A1.684,1.684,0,0,1,12.72,6.89a2.577,2.577,0,0,1,2.346-1.753,3.191,3.191,0,0,1,3.44,2.022,3.05,3.05,0,0,1-.029,2.09,16.4,16.4,0,0,1-1.963,3.775A22.825,22.825,0,0,1,14.8,15.366a6.25,6.25,0,0,1-4.576,2.149l-.1,0A3.186,3.186,0,0,1,9.237,17.384Z" transform="translate(10.35 10)" fill="#fff" stroke="#fff" stroke-miterlimit="10" stroke-width="0.25"/>
    </g>
  </g>
</svg>
