<svg xmlns="http://www.w3.org/2000/svg" xmlns:xlink="http://www.w3.org/1999/xlink" width="42" height="43.296" viewBox="0 0 42 43.296">
  <defs>
    <filter id="Union_31" x="0.19" y="3.861" width="41.65" height="39.435" filterUnits="userSpaceOnUse">
      <feOffset dy="3" input="SourceAlpha"/>
      <feGaussianBlur stdDeviation="3" result="blur"/>
      <feFlood flood-opacity="0.161"/>
      <feComposite operator="in" in2="blur"/>
      <feComposite in="SourceGraphic"/>
    </filter>
  </defs>
  <g id="Ophthalmology" transform="translate(-16170 -6793)">
    <g id="Group_20809" data-name="Group 20809" transform="translate(16169.585 6793)">
      <path id="Subtraction_7" data-name="Subtraction 7" d="M21,42A21.005,21.005,0,0,1,12.826,1.65a21.005,21.005,0,0,1,16.349,38.7A20.864,20.864,0,0,1,21,42Z" transform="translate(0.415 0)" fill="#6ab654"/>
    </g>
    <g transform="matrix(1, 0, 0, 1, 16170, 6793)" filter="url(#Union_31)">
      <path id="Union_31-2" data-name="Union 31" d="M4.572,17.9a5.842,5.842,0,0,1-.515-.475c-.869-.9-1.752-1.785-2.595-2.708A6,6,0,0,1,1.91,6.41a1.906,1.906,0,0,0,.384-.441,11.4,11.4,0,0,1,2.719-3.1A6.191,6.191,0,0,0,7.2,0L8.249.156c-.11.356-.206.671-.293.951.958-.2,1.907-.473,2.875-.572A9.116,9.116,0,0,1,21.049,8.122a18.435,18.435,0,0,1,.239,2.892,1.032,1.032,0,0,0,.616,1.031c.472.216.947.422,1.464.652-.107.309-.21.608-.341.987a6.356,6.356,0,0,1-2.281-1.159A1.9,1.9,0,0,1,20.219,11a9.751,9.751,0,0,0-1.26-5.436A8.214,8.214,0,0,0,9,1.994,9.975,9.975,0,0,0,3.15,6.644a1.853,1.853,0,0,1-.415.48,4.833,4.833,0,0,0,.4,7.594,1.907,1.907,0,0,1,.466.5,10.062,10.062,0,0,0,10.907,4A7.541,7.541,0,0,0,18.638,16.1c.846-1.263,1.495-1.434,2.846-.732.221.115.44.233.722.383l-.53.928c-.312-.161-.594-.31-.879-.453-.608-.3-.775-.257-1.15.313a8.786,8.786,0,0,1-6.119,4.014,10.611,10.611,0,0,1-5.257-.506c-.085-.029-.169-.056-.256-.08-.013,0-.03.011-.073.028.1.308.194.621.3.979l-1.03.176A7.365,7.365,0,0,0,4.572,17.9Zm-.475-3A7.155,7.155,0,0,1,3.83,6.7,9.124,9.124,0,0,1,16.223,3.78a8.025,8.025,0,0,1,3.615,6.776H18.832c-.06-.452-.094-.915-.186-1.366A7.11,7.11,0,0,0,9.491,3.83,7.419,7.419,0,0,0,3.9,9.388a5.79,5.79,0,0,0,.669,4.264,8.2,8.2,0,0,0,9.947,3.5,6.96,6.96,0,0,0,3.067-2.53l.885.6a7.658,7.658,0,0,1-5.881,3.5q-.474.038-.933.038A9.013,9.013,0,0,1,4.1,14.9Zm9.927.188.475-.883a1.138,1.138,0,0,0,1.262-.43c.446-.455.919-.886,1.408-1.355a1.241,1.241,0,0,0-1.54.032,2.261,2.261,0,0,1-3.271-.754l.8-.616c.174.156.323.309.492.436A1.048,1.048,0,0,0,15,11.584a2.218,2.218,0,0,1,2.057-.419c.033-.157.06-.289.09-.42.1-.457-.012-.7-.545-.716a1.576,1.576,0,0,1-1.5-1.111c-.322-.814-.34-.806-1.215-.594-.1.024-.2.046-.339.076l-.266-.935c1.3-.74,2.191-.469,2.729.843a.959.959,0,0,0,.9.686c1.013.1,1.453.581,1.317,1.568a1.834,1.834,0,0,0,1.084,2.022c.963.516,1.967.954,2.955,1.425.192.091.388.175.623.283l-.45,1.007c-1.177-.556-2.319-1.069-3.436-1.632a1.445,1.445,0,0,0-1.85.2c-.309.272-.555.611-.855.894a1.9,1.9,0,0,1-1.314.589A2.125,2.125,0,0,1,14.024,15.091ZM6,13.935A1.273,1.273,0,0,1,4.953,12.9c-.206-.735-.316-1.5-.468-2.254.149-.782.25-1.546.451-2.282A1.311,1.311,0,0,1,6.009,7.277a1.4,1.4,0,0,1,1.321.769,4.857,4.857,0,0,1-.006,5.137,1.461,1.461,0,0,1-1.162.763A1.25,1.25,0,0,1,6,13.935Zm.182-1.126a3.4,3.4,0,0,0-.023-4.422C5.476,9.429,5.5,11.988,6.179,12.809Z" transform="translate(9.32 10)" fill="#fff" stroke="#fff" stroke-miterlimit="10" stroke-width="0.25"/>
    </g>
  </g>
</svg>
