<svg xmlns="http://www.w3.org/2000/svg" xmlns:xlink="http://www.w3.org/1999/xlink" width="42" height="44.125" viewBox="0 0 42 44.125">
  <defs>
    <filter id="Union_32" x="1.756" y="3.03" width="38.484" height="41.095" filterUnits="userSpaceOnUse">
      <feOffset dy="3" input="SourceAlpha"/>
      <feGaussianBlur stdDeviation="3" result="blur"/>
      <feFlood flood-opacity="0.161"/>
      <feComposite operator="in" in2="blur"/>
      <feComposite in="SourceGraphic"/>
    </filter>
  </defs>
  <g id="Orthopedics" transform="translate(-16364 -6793)">
    <g id="Group_20817" data-name="Group 20817" transform="translate(16363.585 6793)">
      <path id="Subtraction_7" data-name="Subtraction 7" d="M21,42A21.005,21.005,0,0,1,12.826,1.65a21.005,21.005,0,0,1,16.349,38.7A20.864,20.864,0,0,1,21,42Z" transform="translate(0.415 0)" fill="#6ab654"/>
    </g>
    <g transform="matrix(1, 0, 0, 1, 16364, 6793)" filter="url(#Union_32)">
      <path id="Union_32-2" data-name="Union 32" d="M8.446,22.526a7.231,7.231,0,0,1-.771-1.537,23.041,23.041,0,0,1-.866-5.309C6.7,14.5,6.6,13.312,6.52,12.127a1.609,1.609,0,0,0-.764-1.363C4.541,10.015,3.333,9.256,2.1,8.53,1.567,8.213.982,7.978.428,7.686a.725.725,0,0,1-.4-.889A.784.784,0,0,1,.86,6.2a1.614,1.614,0,0,1,.316.107c1.717.968,3.44,1.927,5.145,2.916a3.793,3.793,0,0,1,1.854,3.326c.13,2,.336,4,.567,5.991a6.638,6.638,0,0,0,.994,3.135.749.749,0,0,1-.22,1.026.812.812,0,0,1-.464.145A.7.7,0,0,1,8.446,22.526ZM11.922,19.3c-.149-.739-.335-1.472-.456-2.215-.219-1.328-.4-2.661-.606-3.991a.951.951,0,0,0-.2-.348,3.735,3.735,0,0,1-.392-.536c-.116-.25-.075-.494.267-.522a19.468,19.468,0,0,1,2.718-.172c1.024.061,1.151.383,1.322,1.375.25,1.449.625,2.876.952,4.312.042.186.122.365.172.55a1.145,1.145,0,1,1-2.2.6c-.25-.929-.464-1.868-.726-2.793-.133-.468-.34-.914-.514-1.372l-.135.041a13.882,13.882,0,0,0,.5,4.66c.021.077.05.153.067.231.052.251.069.509-.244.587a.559.559,0,0,1-.134.018C12.081,19.735,11.973,19.553,11.922,19.3Zm6.774-.253a15.806,15.806,0,0,1-.5-2.249c-.343-2.577-.6-5.166-.993-7.736a3.542,3.542,0,0,0-.867-1.724c-1.353-1.5-2.779-2.938-4.2-4.373-.518-.524-1.106-.978-1.664-1.463-.442-.383-.531-.849-.23-1.214a.8.8,0,0,1,1.229,0C13.238,1.948,15,3.612,16.736,5.3a8.041,8.041,0,0,1,2.352,5.425c.172,2.3.543,4.589.845,6.88a9.7,9.7,0,0,0,.3,1.159.747.747,0,0,1-.6.767,1.08,1.08,0,0,1-.239.028A.676.676,0,0,1,18.7,19.051Zm-3.875-7.676c-.049-.355.268-.355.531-.352.026,0,.054,0,.082-.005a.267.267,0,0,1,.153.012,5.513,5.513,0,0,1,.453.316c-.148.127-.287.265-.446.376-.053.037-.154.005-.233.005l-.088.094C15.114,11.674,14.845,11.542,14.821,11.375Zm-4.943-.254c-.056-.869-.8-1.169-1.292-1.668C7.432,8.29,6.259,7.145,5.094,5.992c-.057-.057-.152-.11-.16-.174a4.652,4.652,0,0,1-.014-.561,1.9,1.9,0,0,0,.2,0,.577.577,0,0,1,.383.055,10.614,10.614,0,0,1,.922.984,10.694,10.694,0,0,0,3,2.252,7.756,7.756,0,0,0-.573-.9C8.141,6.791,7.4,5.965,6.677,5.125a1.114,1.114,0,0,1-.157-1.379,1.045,1.045,0,0,1,1.193-.515,1.867,1.867,0,0,1,.766.524c.958,1.036,1.886,2.1,2.836,3.144a2.377,2.377,0,0,0,.6.485c.491.269.7.517.482,1.3a5.885,5.885,0,0,1-1.942,2.7.331.331,0,0,1-.223.1A.4.4,0,0,1,9.878,11.121Zm2.488-.7a6.5,6.5,0,0,1,.785-.592c.06-.034.26.176.4.275l0,.2a7.181,7.181,0,0,1-.866.44h-.008C12.612,10.742,12.469,10.529,12.366,10.419Zm2-1a3.65,3.65,0,0,1,.759-.577c.047-.026.239.212.364.328l-.795.775A3.177,3.177,0,0,1,14.368,9.417ZM12.977,7.981a6.8,6.8,0,0,1,.449-.869l.208.007c.088.142.284.345.246.415a6.284,6.284,0,0,1-.6.792C13.173,8.209,12.952,8.05,12.977,7.981Z" transform="translate(10.88 9.15)" fill="#fff" stroke="#fff" stroke-miterlimit="10" stroke-width="0.25"/>
    </g>
  </g>
</svg>
