<svg xmlns="http://www.w3.org/2000/svg" xmlns:xlink="http://www.w3.org/1999/xlink" width="42.958" height="42.636" viewBox="0 0 42.958 42.636">
  <defs>
    <filter id="Union_41" x="0" y="5.25" width="42.958" height="37.386" filterUnits="userSpaceOnUse">
      <feOffset dy="3" input="SourceAlpha"/>
      <feGaussianBlur stdDeviation="3" result="blur"/>
      <feFlood flood-opacity="0.161"/>
      <feComposite operator="in" in2="blur"/>
      <feComposite in="SourceGraphic"/>
    </filter>
  </defs>
  <g id="Patient_Experince_Services" data-name="Patient Experince Services" transform="translate(-15969.25 -6937)">
    <path id="Subtraction_107" data-name="Subtraction 107" d="M21,42A21.005,21.005,0,0,1,12.826,1.65a21.005,21.005,0,0,1,16.349,38.7A20.864,20.864,0,0,1,21,42Z" transform="translate(15970 6937)" fill="#6ab654"/>
    <g transform="matrix(1, 0, 0, 1, 15969.25, 6937)" filter="url(#Union_41)">
      <path id="Union_41-2" data-name="Union 41" d="M14.144,18.791q-.907-.617-1.812-1.238a.146.146,0,0,0-.2,0c-.588.407-1.18.808-1.77,1.21-.027.019-.055.038-.083.055a.358.358,0,0,1-.413-.007.316.316,0,0,1-.112-.373c.182-.532.367-1.063.551-1.595.053-.153.1-.306.161-.457a.1.1,0,0,0-.047-.135q-.925-.626-1.847-1.258a.322.322,0,0,1-.133-.43.359.359,0,0,1,.347-.188H9.924c.372,0,.745,0,1.117,0,.086,0,.126-.019.155-.1.225-.664.458-1.326.688-1.989a.354.354,0,0,1,.691,0c.231.666.464,1.331.691,2,.027.08.067.1.148.1q1.132,0,2.265,0c.274,0,.452.227.35.453a.454.454,0,0,1-.154.172q-.911.628-1.829,1.248a.1.1,0,0,0-.049.142q.351,1,.7,2.006a.331.331,0,0,1-.1.417.335.335,0,0,1-.2.066A.444.444,0,0,1,14.144,18.791Zm-1.953-5.9q-.291.839-.581,1.677a.352.352,0,0,1-.4.279H9.357c-.037,0-.074,0-.141.006l.115.081,1.477,1.008a.342.342,0,0,1,.163.473L10.4,18.053c-.011.032-.02.065-.039.127l.105-.07,1.519-1.035a.378.378,0,0,1,.49,0l.829.565.762.519.021-.012c-.011-.036-.022-.072-.034-.108q-.285-.825-.571-1.65a.329.329,0,0,1,.148-.437l1.5-1.025c.03-.021.059-.043.089-.065l-.011-.021H13.259a.354.354,0,0,1-.408-.282q-.289-.834-.578-1.668c-.01-.029-.023-.056-.042-.1C12.212,12.836,12.2,12.862,12.191,12.888ZM9.175,16.761c-.19-.128-.377-.259-.564-.388-.308-.213-.617-.423-.921-.64a.125.125,0,0,0-.173,0q-.728.51-1.461,1.011a.329.329,0,0,1-.534-.162.4.4,0,0,1,.018-.207q.273-.819.557-1.634A.1.1,0,0,0,6.05,14.6c-.495-.338-.986-.68-1.48-1.02A.314.314,0,0,1,4.758,13c.6,0,1.2,0,1.8,0a.15.15,0,0,0,.175-.122c.178-.54.363-1.078.548-1.616a.334.334,0,0,1,.641,0c.185.545.374,1.088.557,1.633a.128.128,0,0,0,.146.1c.607,0,1.215,0,1.822,0a.322.322,0,0,1,.311.177.288.288,0,0,1-.035.328.444.444,0,0,1-.1.084q-.326.227-.653.452a.261.261,0,0,1-.375-.032.242.242,0,0,1,.091-.351l.239-.168-.008-.022H8.458a.339.339,0,0,1-.391-.274l-.438-1.285c0-.012-.01-.023-.025-.056-.019.046-.033.076-.043.106q-.214.624-.426,1.248a.328.328,0,0,1-.369.261H5.282l-.006.02c.025.019.049.038.075.056l1.095.756a.337.337,0,0,1,.159.465l-.418,1.22c-.01.03-.018.06-.034.112.045-.028.072-.043.1-.061l1.111-.768a.358.358,0,0,1,.485,0L9,16.06c.024.017.049.031.079.05.012-.026.02-.046.029-.066a.226.226,0,0,1,.216-.146.231.231,0,0,1,.231.143,3.915,3.915,0,0,1,.137.4.3.3,0,0,1-.137.328.328.328,0,0,1-.177.052A.36.36,0,0,1,9.175,16.761Zm9.247-.006c-.272-.184-.54-.372-.81-.558-.226-.156-.454-.31-.677-.47a.113.113,0,0,0-.156,0c-.486.339-.973.676-1.463,1.009a.462.462,0,0,1-.229.081.3.3,0,0,1-.313-.377,3.5,3.5,0,0,1,.132-.4.234.234,0,0,1,.227-.148.227.227,0,0,1,.22.14c.01.02.016.042.03.077l.828-.571.409-.282a.359.359,0,0,1,.485,0l1.111.768.1.064c-.037-.113-.064-.2-.093-.287q-.181-.528-.363-1.055a.334.334,0,0,1,.155-.458l1.119-.773a.13.13,0,0,0,.052-.062h-1.49a.324.324,0,0,1-.363-.255L16.9,11.962c-.011-.032-.024-.064-.046-.121l-.235.683c-.081.235-.16.471-.242.706a.316.316,0,0,1-.338.234H14.524a.491.491,0,0,0,.053.056c.065.046.13.091.2.136a.241.241,0,0,1,.087.351.262.262,0,0,1-.375.029q-.327-.225-.653-.452a.314.314,0,0,1-.148-.369A.335.335,0,0,1,14.035,13c.6,0,1.2,0,1.8,0a.122.122,0,0,0,.142-.1c.182-.542.369-1.083.554-1.624a.334.334,0,0,1,.649-.005c.184.538.369,1.076.549,1.616a.133.133,0,0,0,.152.11c.6,0,1.2,0,1.8,0a.315.315,0,0,1,.2.585q-.707.487-1.413.976c-.138.095-.138.095-.085.251.174.511.351,1.021.522,1.533a.482.482,0,0,1,.03.235.3.3,0,0,1-.307.245A.383.383,0,0,1,18.421,16.755ZM4.3,15.024c-.438-.3-.876-.607-1.311-.914a.111.111,0,0,0-.155,0c-.427.3-.857.6-1.287.9a.342.342,0,0,1-.425.031.31.31,0,0,1-.1-.391c.163-.481.324-.962.491-1.442a.113.113,0,0,0-.052-.158c-.432-.3-.86-.6-1.288-.9a.307.307,0,0,1-.153-.373.331.331,0,0,1,.348-.209c.53,0,1.061,0,1.591,0,.079,0,.118-.019.143-.1.157-.479.322-.956.482-1.434A.372.372,0,0,1,2.763,9.8a.325.325,0,0,1,.462.2c.111.328.221.656.332.983.056.165.116.33.167.5a.1.1,0,0,0,.121.083q.811,0,1.621,0c.218,0,.366.134.341.328a.355.355,0,0,1-.121.22c-.258.2-.527.377-.8.56a.255.255,0,0,1-.349-.051A.235.235,0,0,1,4.6,12.3a3.152,3.152,0,0,0,.332-.262H3.653a.31.31,0,0,1-.336-.235c-.132-.385-.261-.771-.392-1.157l-.025,0c-.013.035-.026.07-.038.105q-.177.524-.355,1.047a.316.316,0,0,1-.35.243H.978c-.032,0-.063,0-.123.005.133.094.242.172.352.249l.677.47a.321.321,0,0,1,.147.434q-.179.528-.357,1.057c-.008.023-.013.048-.024.093.041-.025.066-.037.088-.053l.937-.652a.346.346,0,0,1,.467,0l.929.647c.028.02.058.037.11.071-.03-.091-.051-.154-.071-.218a.238.238,0,0,1,.147-.316A.252.252,0,0,1,4.578,14c.077.226.154.453.228.681a.3.3,0,0,1-.112.362.312.312,0,0,1-.178.057A.378.378,0,0,1,4.3,15.024Zm18.618-.015c-.432-.3-.865-.6-1.295-.9a.1.1,0,0,0-.146,0c-.43.3-.863.6-1.295.9a.342.342,0,0,1-.418.03.31.31,0,0,1-.1-.382q.109-.332.222-.662a.252.252,0,0,1,.322-.172.239.239,0,0,1,.143.318.782.782,0,0,0-.045.2l.112-.076.913-.636a.341.341,0,0,1,.443,0l.945.658c.024.017.049.031.091.057-.009-.04-.012-.064-.019-.086q-.181-.538-.363-1.075a.313.313,0,0,1,.138-.412l.945-.659c.026-.018.05-.038.093-.071-.056,0-.088-.005-.12-.005H22.3a.315.315,0,0,1-.349-.245q-.177-.519-.352-1.038c-.012-.036-.026-.072-.049-.138-.02.051-.032.078-.041.105l-.355,1.047a.327.327,0,0,1-.381.269H19.531l-.009.025.307.215a.241.241,0,0,1,.089.351.26.26,0,0,1-.374.03l-.734-.51a.31.31,0,0,1-.147-.368.329.329,0,0,1,.346-.211c.53,0,1.06,0,1.591,0,.079,0,.118-.018.143-.1.16-.485.326-.968.489-1.452a.322.322,0,0,1,.314-.251.316.316,0,0,1,.32.244c.165.484.33.967.49,1.452a.127.127,0,0,0,.148.1c.534,0,1.067,0,1.6,0a.309.309,0,0,1,.2.573c-.435.3-.868.607-1.305.906a.108.108,0,0,0-.052.15c.167.483.33.967.494,1.451a.315.315,0,0,1-.278.449A.426.426,0,0,1,22.919,15.009Zm-8.38-4.915a.241.241,0,0,1-.237-.26c0-.19,0-.379,0-.569s0-.373,0-.559a.244.244,0,1,1,.486,0q0,.564,0,1.129a.244.244,0,0,1-.242.26Zm-4.864-.26q0-.564,0-1.129a.244.244,0,1,1,.486,0c0,.19,0,.379,0,.569s0,.373,0,.559a.241.241,0,0,1-.238.259H9.917A.244.244,0,0,1,9.674,9.834Zm6.2-.023a8.116,8.116,0,0,0-.046-1.06A2.157,2.157,0,0,0,14.6,7.138a2.2,2.2,0,0,0-.995-.244.873.873,0,0,0-.378.075,2.152,2.152,0,0,1-1.988,0,.787.787,0,0,0-.328-.076A2.3,2.3,0,0,0,8.591,9.106q0,.338,0,.677c0,.2-.09.313-.247.31S8.1,9.979,8.1,9.778v-.4a2.857,2.857,0,0,1,.175-1.187A2.738,2.738,0,0,1,9.732,6.677,2.892,2.892,0,0,1,10.9,6.42a1.17,1.17,0,0,1,.562.127,1.6,1.6,0,0,0,1.538,0,1.178,1.178,0,0,1,.6-.126,2.814,2.814,0,0,1,2.41,1.415,2.536,2.536,0,0,1,.348,1.286c0,.232,0,.464,0,.7a.245.245,0,0,1-.241.277h0C15.97,10.093,15.878,9.983,15.873,9.811ZM1.579,8.863q0-.564,0-1.129a.248.248,0,0,1,.245-.264.245.245,0,0,1,.241.266c0,.186,0,.373,0,.56s0,.379,0,.569a.245.245,0,0,1-.239.259H1.821A.249.249,0,0,1,1.579,8.863Zm16.436.262a.249.249,0,0,1-.242-.268c0-.186,0-.373,0-.56s0-.373,0-.56a.245.245,0,1,1,.488,0q0,.564,0,1.129a.249.249,0,0,1-.242.263Zm4.621,0a.247.247,0,0,1-.241-.267c0-.19,0-.379,0-.569s0-.373,0-.56a.244.244,0,0,1,.24-.258.248.248,0,0,1,.247.262q0,.564,0,1.129a.248.248,0,0,1-.243.264Zm-16.195,0A.251.251,0,0,1,6.2,8.848c0-.183,0-.367,0-.55s0-.373,0-.56a.245.245,0,1,1,.489,0q0,.555,0,1.109a.251.251,0,0,1-.246.274Zm17.77,0a.25.25,0,0,1-.242-.268,9.072,9.072,0,0,0-.023-.955,2.283,2.283,0,0,0-2.27-1.979A.842.842,0,0,0,21.31,6a2.125,2.125,0,0,1-1.434.184,1.763,1.763,0,0,1-.443-.152,1.131,1.131,0,0,0-.781-.086A2.332,2.332,0,0,0,16.866,7.3a.259.259,0,0,1-.329.144.235.235,0,0,1-.122-.326,2.817,2.817,0,0,1,1.736-1.535,2.4,2.4,0,0,1,.991-.125,1.369,1.369,0,0,1,.429.126,1.608,1.608,0,0,0,1.495,0,1.465,1.465,0,0,1,.8-.131A2.8,2.8,0,0,1,24.4,7.628a1.7,1.7,0,0,1,.041.277c.007.167,0,.335,0,.5h.012c0,.151,0,.3,0,.454a.247.247,0,0,1-.244.264ZM0,8.843c0-.145,0-.29,0-.493A2.634,2.634,0,0,1,.2,7.167,2.754,2.754,0,0,1,2.356,5.493a3.387,3.387,0,0,1,.38-.039,1.234,1.234,0,0,1,.651.133,1.593,1.593,0,0,0,1.5,0,1.127,1.127,0,0,1,.531-.132,2.806,2.806,0,0,1,2.636,1.7.228.228,0,0,1-.13.3A.257.257,0,0,1,7.6,7.322c0-.009-.007-.018-.012-.027A2.32,2.32,0,0,0,5.481,5.923.744.744,0,0,0,5.133,6a2.152,2.152,0,0,1-2,0,.775.775,0,0,0-.328-.075A2.3,2.3,0,0,0,.492,8.14c0,.235,0,.47,0,.706a.25.25,0,0,1-.241.279h0A.251.251,0,0,1,0,8.843ZM12.219,5.881A2.508,2.508,0,0,1,9.676,3.393a2.558,2.558,0,0,1,5.112.062,2.521,2.521,0,0,1-2.549,2.426ZM10.161,3.418a2.071,2.071,0,0,0,4.139.007,2.071,2.071,0,0,0-4.139-.007ZM4.133,4.908A2.5,2.5,0,0,1,1.581,2.423,2.5,2.5,0,0,1,4.175,0,2.51,2.51,0,0,1,6.69,2.493,2.518,2.518,0,0,1,4.136,4.908ZM2.066,2.431a2.027,2.027,0,0,0,2.067,2A2.028,2.028,0,0,0,6.2,2.49,2.026,2.026,0,0,0,4.159.47h0A2.033,2.033,0,0,0,2.066,2.431Zm15.707.048a2.556,2.556,0,0,1,5.109-.043,2.5,2.5,0,0,1-2.557,2.471h0A2.509,2.509,0,0,1,17.774,2.48Zm.489.012A2.069,2.069,0,0,0,22.4,2.449,2.033,2.033,0,0,0,20.341.47h0A2.026,2.026,0,0,0,18.262,2.492Z" transform="translate(9.25 11.5)" fill="#fff" stroke="#fff" stroke-miterlimit="10" stroke-width="0.5"/>
    </g>
  </g>
</svg>
