<svg xmlns="http://www.w3.org/2000/svg" xmlns:xlink="http://www.w3.org/1999/xlink" width="42.376" height="44.674" viewBox="0 0 42.376 44.674">
  <defs>
    <filter id="Union_63" x="0" y="2.616" width="42.046" height="42.058" filterUnits="userSpaceOnUse">
      <feOffset dy="3" input="SourceAlpha"/>
      <feGaussianBlur stdDeviation="3" result="blur"/>
      <feFlood flood-opacity="0.161"/>
      <feComposite operator="in" in2="blur"/>
      <feComposite in="SourceGraphic"/>
    </filter>
  </defs>
  <g id="PCR" transform="translate(-16363.624 -7657)">
    <g id="Group_20841" data-name="Group 20841" transform="translate(16363.585 7657)">
      <path id="Subtraction_7" data-name="Subtraction 7" d="M21,42A21.005,21.005,0,0,1,12.826,1.65a21.005,21.005,0,0,1,16.349,38.7A20.864,20.864,0,0,1,21,42Z" transform="translate(0.415 0)" fill="#6ab654"/>
    </g>
    <g transform="matrix(1, 0, 0, 1, 16363.62, 7657)" filter="url(#Union_63)">
      <path id="Union_63-2" data-name="Union 63" d="M4.6,21.529q-.281-1.035-.556-2.072-.406-1.517-.813-3.035-.4-1.489-.8-2.978c-.024-.093-.048-.185-.072-.278-.013-.076-.026-.15-.04-.226-.085-.288-.175-.575-.253-.865q-.367-1.354-.726-2.709a.154.154,0,0,0-.114-.12.574.574,0,0,1-.391-.411Q.418,7.325.015,5.813A.286.286,0,0,1,.241,5.43l3.071-.822c.224-.059.448-.119.674-.176a.2.2,0,0,1,.062,0h.028l0,0c.275-.079.55-.161.826-.239a.282.282,0,0,1,.391.224c.265.981.526,1.963.792,2.944A.677.677,0,0,1,5.956,8a.191.191,0,0,0-.02.149q.571,2.148,1.149,4.294,1.052,3.922,2.105,7.843A2.38,2.38,0,1,1,4.6,21.529ZM2.83,12.785l.048.191.125.5c.029.086.062.169.086.256L4.5,18.983c.218.81.429,1.623.654,2.431a1.812,1.812,0,0,0,3.5-.924c-.41-1.571-.835-3.136-1.256-4.7q-.445-1.663-.9-3.325c-.165-.613-.329-1.225-.5-1.847l-3.5.937c.063.24.123.473.184.706l.121.446h0C2.814,12.731,2.822,12.758,2.83,12.785ZM1.87,9.194c.166.614.325,1.21.487,1.811l3.506-.937C5.7,9.455,5.539,8.86,5.377,8.255ZM4.106,4.982l-.235.063v0l-.4.1L.628,5.914c.245.914.488,1.813.727,2.714.024.094.078.1.152.079l.6-.164c1.106-.3,2.21-.595,3.317-.886.123-.032.128-.086.1-.19C5.351,6.812,5.177,6.157,5,5.5c-.064-.234-.13-.468-.2-.707Zm14.84,18c0-.274,0-.547,0-.831a2.99,2.99,0,0,1-1.593-.663l-.44.455c-.05.051-.1.1-.154.153a.286.286,0,0,1-.41.013.283.283,0,0,1,.009-.41c.2-.2.4-.4.608-.606a2.914,2.914,0,0,1-.66-1.583h-.585c-.1,0-.193,0-.29,0a.279.279,0,0,1,.005-.558c.242,0,.483,0,.725,0h.11a8.125,8.125,0,0,1,.248-.84,8.162,8.162,0,0,1,.422-.781l-.513-.5c-.025-.025-.053-.049-.077-.076a.284.284,0,0,1-.006-.4.28.28,0,0,1,.392-.01c.175.16.339.332.507.5.037.036.068.078.109.126a2.985,2.985,0,0,1,1.593-.661v-.569c0-.1,0-.193,0-.29a.273.273,0,0,1,.275-.288.269.269,0,0,1,.286.276c.006.262,0,.524,0,.786,0,.023,0,.047.006.083a3,3,0,0,1,1.585.664c.194-.2.385-.4.581-.592a.394.394,0,0,1,.159-.1.27.27,0,0,1,.31.13.288.288,0,0,1-.041.336c-.17.177-.346.348-.519.523-.031.03-.06.062-.1.1a2.977,2.977,0,0,1,.654,1.585h.689c.061,0,.122,0,.182,0a.265.265,0,0,1,.274.274.271.271,0,0,1-.278.285c-.145,0-.29,0-.435,0H22.15a2.962,2.962,0,0,1-.654,1.58l.572.573a.305.305,0,0,1,.059.42.28.28,0,0,1-.433.012l-.6-.6a2.969,2.969,0,0,1-1.576.652c0,.042-.008.085-.008.127,0,.237,0,.475,0,.712a.283.283,0,0,1-.278.313h0A.281.281,0,0,1,18.946,22.98ZM18.781,16.9a2.383,2.383,0,0,0-1.924,2.333,2.585,2.585,0,0,0,.312,1.185c.032.046.064.092.1.138a2.312,2.312,0,0,0,2.325,1.009,2.366,2.366,0,0,0-.369-4.7A2.469,2.469,0,0,0,18.781,16.9Zm-1.74,3.531h0Zm.007-.007h0Zm0,0h0Zm.115,0h0a.1.1,0,0,0-.107,0,.089.089,0,0,1,.047-.013A.121.121,0,0,1,17.167,20.417Zm-.111,0,0,0Zm2.721.322a.566.566,0,0,1,.035-1.132.569.569,0,0,1,.549.573.561.561,0,0,1-.573.559Zm-1.705-1.048h0c-.038,0-.066-.005-.066-.005v-.007a.449.449,0,0,1-.381-.365.478.478,0,0,1,.28-.521.473.473,0,0,1,.531.759.3.3,0,0,1-.047.039s0,.008-.007.011-.012.005-.017.01a.274.274,0,0,1-.036.019.465.465,0,0,1-.233.063ZM9.105,17.016a3.329,3.329,0,0,1,.166-1.245c.176-.647.347-1.3.522-1.943q.714-2.664,1.43-5.327.607-2.264,1.219-4.526a.159.159,0,0,0-.037-.17.583.583,0,0,1-.13-.562q.324-1.211.65-2.42c.052-.194.1-.39.154-.583a.283.283,0,0,1,.382-.225l3.176.851c.477.128.955.256,1.433.379.273.072.342.183.268.457q-.389,1.455-.778,2.911a.647.647,0,0,1-.432.479.174.174,0,0,0-.088.11c-.078.27-.148.542-.221.813q-.728,2.711-1.454,5.422-.66,2.461-1.322,4.921c-.106.392-.194.789-.323,1.173a2.353,2.353,0,0,1-2.258,1.595h-.009A2.374,2.374,0,0,1,9.105,17.016Zm2.9-9.263q-.691,2.58-1.384,5.161c-.293,1.09-.583,2.181-.882,3.269a1.8,1.8,0,0,0,.22,1.57,1.815,1.815,0,0,0,3.251-.5c.217-.723.393-1.457.589-2.186l1.9-7.052c.056-.208.109-.417.165-.631l-3.5-.937C12.241,6.894,12.126,7.323,12.01,7.753Zm4.453-.795c.009-.022.022-.046.032-.068C16.484,6.913,16.472,6.937,16.463,6.959ZM12.507,5.9l3.506.938c.164-.61.324-1.209.486-1.814l-3.505-.937C12.83,4.7,12.671,5.29,12.507,5.9ZM13.551.677q-.36,1.331-.72,2.663c-.027.1.023.127.1.148l3.875,1.032c.178.048.176.047.225-.132q.259-.972.521-1.944l.188-.7L13.568.628C13.559.655,13.554.665,13.551.677Zm6.432,17.79a.37.37,0,0,1-.374-.374.358.358,0,0,1,.368-.374.368.368,0,0,1,.383.363.38.38,0,0,1-.376.386ZM5.268,16.311c-.038-.126-.07-.253-.109-.391-.126.032-.246.062-.365.095a.285.285,0,1,1-.146-.546l.338-.092c.006,0,.012-.009.023-.017-.031-.118-.065-.237-.094-.356a.285.285,0,1,1,.548-.142l.086.326a.228.228,0,0,0,.025.032c.12-.031.246-.068.373-.1a.278.278,0,0,1,.364.314.268.268,0,0,1-.216.231c-.127.036-.254.069-.388.105.036.136.071.263.1.392a.276.276,0,0,1-.189.35.33.33,0,0,1-.088.013A.275.275,0,0,1,5.268,16.311Zm14.91-3.343a.386.386,0,0,1-.069-.2c-.01-.156,0-.313,0-.476a2.2,2.2,0,0,1-1.446-.836c-.132.077-.263.154-.4.227a.285.285,0,1,1-.282-.49l.39-.227a2.247,2.247,0,0,1,0-1.669c-.132-.078-.261-.151-.389-.228a.285.285,0,1,1,.289-.485l.366.209.023.006a1.855,1.855,0,0,1,.635-.548c.254-.124.524-.214.808-.328,0-.114,0-.266,0-.418a.287.287,0,0,1,.281-.311.281.281,0,0,1,.282.308c0,.129,0,.258,0,.386a.119.119,0,0,0,.062.091,2.22,2.22,0,0,1,1.386.823c.13-.074.26-.151.392-.224a.291.291,0,0,1,.419.086.294.294,0,0,1-.139.407L22.4,9.3a2.208,2.208,0,0,1,0,1.669c.135.079.267.154.4.232a.293.293,0,0,1,.129.409.288.288,0,0,1-.412.08l-.4-.227a2.215,2.215,0,0,1-1.451.833c0,.17,0,.342,0,.512a.251.251,0,0,1-.184.245.346.346,0,0,1-.107.018A.232.232,0,0,1,20.178,12.967Zm-1.4-2.817A1.612,1.612,0,1,0,20.4,8.519H20.39A1.621,1.621,0,0,0,18.774,10.15Zm-5.137,1.706c-.466-.117-.931-.242-1.394-.371a.267.267,0,0,1-.178-.337.271.271,0,0,1,.333-.2q.682.177,1.36.363a.259.259,0,0,1,.208.273.272.272,0,0,1-.263.282A.267.267,0,0,1,13.637,11.857Zm7.4-.971a.375.375,0,1,1,.014-.751.375.375,0,1,1-.009.751ZM19.355,10.5a.375.375,0,0,1,.751,0,.364.364,0,0,1-.371.374H19.73A.367.367,0,0,1,19.355,10.5Zm.654-1.136a.378.378,0,1,1,.382.38h0A.372.372,0,0,1,20.01,9.369Z" transform="translate(9.38 9)" fill="#fff" stroke="#fff" stroke-width="0.75"/>
    </g>
  </g>
</svg>
