<svg xmlns="http://www.w3.org/2000/svg" xmlns:xlink="http://www.w3.org/1999/xlink" width="42" height="43.894" viewBox="0 0 42 43.894">
  <defs>
    <filter id="Union_71" x="1.709" y="4.762" width="38.653" height="39.132" filterUnits="userSpaceOnUse">
      <feOffset dy="3" input="SourceAlpha"/>
      <feGaussianBlur stdDeviation="3" result="blur"/>
      <feFlood flood-opacity="0.161"/>
      <feComposite operator="in" in2="blur"/>
      <feComposite in="SourceGraphic"/>
    </filter>
  </defs>
  <g id="Pediatric_Neurology" data-name="Pediatric Neurology" transform="translate(-16170 -7945)">
    <g id="Group_20862" data-name="Group 20862" transform="translate(16169.585 7945)">
      <path id="Subtraction_7" data-name="Subtraction 7" d="M21,42A21.005,21.005,0,0,1,12.826,1.65a21.005,21.005,0,0,1,16.349,38.7A20.864,20.864,0,0,1,21,42Z" transform="translate(0.415 0)" fill="#6ab654"/>
    </g>
    <g transform="matrix(1, 0, 0, 1, 16170, 7945)" filter="url(#Union_71)">
      <path id="Union_71-2" data-name="Union 71" d="M13.319,20.644c-.839,0-1.183-.358-1.259-1.2-.1-1.082-.285-1.308-1.345-1.589-.394-.1-.8-.166-1.191-.284a2.721,2.721,0,0,1-2.086-2.64c-.009-.114-.023-.228-.033-.319-.653-.14-1.288-.238-1.9-.417a4.688,4.688,0,0,1-2.462-1.687,1.905,1.905,0,0,0-.526-.437A3.176,3.176,0,0,1,.79,8.995a1.532,1.532,0,0,0-.14-.6c-.1-.253-.242-.488-.342-.74a3.079,3.079,0,0,1,1.71-4.289,1.272,1.272,0,0,0,.689-.709A2.528,2.528,0,0,1,5.548,1.1a1.825,1.825,0,0,0,.88-.119A9.877,9.877,0,0,1,12.694.237c2.73.686,4.465,2.557,5.773,4.928a5.762,5.762,0,0,0,.878,1.2,2.6,2.6,0,0,1,.3,3.327.642.642,0,0,0-.07.731,3.288,3.288,0,0,1-.849,4.479,9.839,9.839,0,0,1-3.655,1.887c-.184.055-.368.108-.532.156.068.814.156,1.6.2,2.392.053,1.019-.425,1.31-1.4,1.31Zm-3.382-3.9c.562.154,1.134.279,1.682.472a1.934,1.934,0,0,1,1.356,1.912c.027.654.124.707.9.472-.087-.706-.186-1.432-.266-2.161-.038-.351-.258-.429-.554-.553-.616-.257-1.188-.616-1.778-.933-.145-.078-.3-.233-.435-.222a3.788,3.788,0,0,1-2.4-.583A1.73,1.73,0,0,0,9.937,16.747Zm2.335-4.783c.478.363.013.676-.2.968a1.837,1.837,0,0,0,1.277,3.108,2.755,2.755,0,0,0,.987-.021,8.257,8.257,0,0,0,3.794-1.84,3.746,3.746,0,0,0,.949-1.364,2.461,2.461,0,0,0-.617-2.434c-.405-.531-.916-.18-1.4-.131a.627.627,0,0,1-.525-.288c-.041-.15.136-.506.268-.534.625-.135,1.269-.188,2.082-.293a1.573,1.573,0,0,0-.152-2.073c-.538-.564-1.049-.545-2.054,0-.161.087-.436-.038-.659-.064.048-.222.022-.555.158-.645A13.166,13.166,0,0,1,17.6,5.61a7.435,7.435,0,0,0-3.416-3.73c-.037.266-.057.538-.117.8-.076.33-.247.621-.643.5-.351-.109-.335-.388-.25-.718.2-.765-.113-1.216-.9-1.384a9.126,9.126,0,0,0-5.144.608c-.995.364-1.246.71-1.317,1.933-.019.32-.04.616-.425.637-.428.024-.524-.3-.493-.634.049-.529.15-1.054.231-1.6a1.13,1.13,0,0,0-1.321.606C3.47,3.655,2.677,4.054,1.842,4.534a1.971,1.971,0,0,0-.785,2.514c.433,1.386.772,1.659,1.979,1.727.2.012.389.265.583.4-.179.16-.345.433-.542.458A8.175,8.175,0,0,1,1.73,9.6a2.364,2.364,0,0,0,1.3,1.71,2.988,2.988,0,0,1,.76.667A4.341,4.341,0,0,0,6.8,13.554c-.1-.879-.22-1.7-.266-2.528-.021-.384-.158-1,.5-.97.606.031.4.6.394.979A3.553,3.553,0,0,0,8.582,14.08a2.429,2.429,0,0,0,2.071.689,3.367,3.367,0,0,1,.665-2.346c.176-.226.353-.584.64-.584A.523.523,0,0,1,12.272,11.965Zm4.292.126a1.89,1.89,0,0,0-1.757-.746,10.054,10.054,0,0,1-.094,1c-.015.078-.2.167-.309.171-.058,0-.192-.171-.179-.247.183-1.106-.647-1.434-1.391-1.816-.258-.133-.553-.191-.812-.322-.114-.058-.178-.213-.264-.324.141-.061.319-.211.418-.169.608.252,1.193.555,1.794.823a5.423,5.423,0,0,0,.886.311,7.824,7.824,0,0,1,1.3.283,2.272,2.272,0,0,1,.852.751c.118.164.032.473.039.717A2.611,2.611,0,0,1,16.564,12.091Zm-11.5-4.6a2.1,2.1,0,0,1,.367-.3c.368-.181.75-.337,1.231-.548a5.464,5.464,0,0,1-.75-.6c-.1-.114-.085-.32-.123-.485a1.771,1.771,0,0,1,.46.085,6.728,6.728,0,0,0,1.391.683A7.733,7.733,0,0,0,9.25,6.278,2.387,2.387,0,0,1,9.8,6.4c-.136.136-.26.374-.408.39-.63.065-1.268.049-1.9.093a1.905,1.905,0,0,0-.653.185c-.449.21-.876.472-1.334.656a.077.077,0,0,1-.03.005C5.375,7.733,5.2,7.565,5.067,7.486ZM13.287,4.5a2.819,2.819,0,0,1-2.5-1.347c-.1-.15-.044-.406-.059-.613.163.1.381.154.479.294a2.492,2.492,0,0,0,2.3,1.129,1.752,1.752,0,0,1,.582.2c-.188.114-.372.237-.566.338a.173.173,0,0,1-.079.015C13.39,4.51,13.336,4.5,13.287,4.5Z" transform="translate(11 11)" fill="#fff" stroke="#fff" stroke-width="0.5"/>
    </g>
  </g>
</svg>
