<svg xmlns="http://www.w3.org/2000/svg" xmlns:xlink="http://www.w3.org/1999/xlink" width="44.809" height="43.713" viewBox="0 0 44.809 43.713">
  <defs>
    <filter id="Union_15" x="0" y="4.874" width="44.809" height="38.84" filterUnits="userSpaceOnUse">
      <feOffset dy="3" input="SourceAlpha"/>
      <feGaussianBlur stdDeviation="3" result="blur"/>
      <feFlood flood-opacity="0.161"/>
      <feComposite operator="in" in2="blur"/>
      <feComposite in="SourceGraphic"/>
    </filter>
  </defs>
  <g id="Pediatric_ER" data-name="Pediatric ER" transform="translate(-16362.873 -6217)">
    <g id="Group_20788" data-name="Group 20788" transform="translate(16363.585 6217)">
      <path id="Subtraction_7" data-name="Subtraction 7" d="M21,42A21.005,21.005,0,0,1,12.826,1.65a21.005,21.005,0,0,1,16.349,38.7A20.864,20.864,0,0,1,21,42Z" transform="translate(0.415 0)" fill="#6ab654"/>
    </g>
    <g transform="matrix(1, 0, 0, 1, 16362.87, 6217)" filter="url(#Union_15)">
      <path id="Union_15-2" data-name="Union 15" d="M13.234,20.588c-4.636-.011-7.755-2.469-9.647-6.6C1.44,14.026.138,13.014.008,11.21c-.121-1.682,1.03-2.845,3.164-3.16A10.094,10.094,0,0,1,6.283,2.735,10.011,10.011,0,0,1,15.932.382l.01,0,.013,0L15.995.4c.051.012.131.034.239.067a10.941,10.941,0,0,1,2.611,1.209,10.8,10.8,0,0,1,1.82,1.436s0,0,0,0a10.745,10.745,0,0,1,.861.962c.027.037.056.074.085.112l.013.017-.013-.017.028.035h0a9.082,9.082,0,0,1,1.566,3.241.69.69,0,0,0,.673.617,2.967,2.967,0,0,1-.6,5.9c-.106-.005-.213-.016-.322-.025-1.91,4.172-5.042,6.63-9.689,6.629Zm0-8.889a3.71,3.71,0,1,0,.025,0Zm3.011-.5c2,1.4,2.569,3.568,1.824,6.611a22.341,22.341,0,0,0,2.03-1.934,8.87,8.87,0,0,0,.365-10.815s0-.007-.014-.02A.289.289,0,0,0,20.431,5a9.876,9.876,0,0,0-5.114-3.347c-.1-.023-.2-.046-.3-.067l-.072-.014A8.824,8.824,0,0,0,8.6,17.743c-.907-2.815-.358-5.051,1.531-6.448a5.275,5.275,0,0,1,3.138-1.047A5.176,5.176,0,0,1,16.248,11.194ZM1.655,10.3a1.325,1.325,0,0,0,.095,1.533,1.292,1.292,0,0,0,1.342.581c-.062-.975-.122-1.9-.184-2.854a1.373,1.373,0,0,0-.149-.008A1.258,1.258,0,0,0,1.655,10.3Zm21.956-.717c-.058.93-.117,1.858-.177,2.837a1.482,1.482,0,0,0,1.642-1.444,1.377,1.377,0,0,0-1.415-1.393Zm-10.371,8a2.2,2.2,0,1,1,.017,0Zm-.714-2.194c.026.466.246.728.73.731a.649.649,0,0,0,.734-.716.654.654,0,0,0-.722-.732h-.007A.675.675,0,0,0,12.527,15.393Zm3.542-5.561c-.508-.073-.589-.445-.565-.873a2.621,2.621,0,0,1,2.563-2.407,2.649,2.649,0,0,1,2.552,2.423c.019.43-.095.8-.6.859s-.759-.165-.844-.678c-.122-.733-.566-1.146-1.132-1.139s-.963.4-1.11,1.162c-.086.448-.308.666-.692.666A1.23,1.23,0,0,1,16.069,9.832Zm-9.588,0c-.5-.071-.6-.44-.577-.872a2.645,2.645,0,0,1,2.57-2.406,2.638,2.638,0,0,1,2.552,2.421c.023.433-.085.8-.59.859s-.761-.158-.852-.669c-.133-.749-.56-1.15-1.125-1.147s-.977.4-1.113,1.159c-.081.452-.308.667-.69.667A1.23,1.23,0,0,1,6.482,9.83ZM20.669,3.112a.845.845,0,0,1,.151.126c.251.27.489.548.71.836A10.474,10.474,0,0,0,20.669,3.112Z" transform="translate(9.13 11)" fill="#fff" stroke="#fff" stroke-width="0.25"/>
    </g>
  </g>
</svg>
