<svg xmlns="http://www.w3.org/2000/svg" xmlns:xlink="http://www.w3.org/1999/xlink" width="42" height="43.771" viewBox="0 0 42 43.771">
  <defs>
    <filter id="Union_80" x="2.845" y="4.875" width="35.659" height="38.896" filterUnits="userSpaceOnUse">
      <feOffset dy="3" input="SourceAlpha"/>
      <feGaussianBlur stdDeviation="3" result="blur"/>
      <feFlood flood-opacity="0.161"/>
      <feComposite operator="in" in2="blur"/>
      <feComposite in="SourceGraphic"/>
    </filter>
  </defs>
  <g id="Pediatric_Surgery" data-name="Pediatric Surgery" transform="translate(-16170 -8233)">
    <g id="Group_20883" data-name="Group 20883" transform="translate(16169.585 8233)">
      <path id="Subtraction_7" data-name="Subtraction 7" d="M21,42A21.005,21.005,0,0,1,12.826,1.65a21.005,21.005,0,0,1,16.349,38.7A20.864,20.864,0,0,1,21,42Z" transform="translate(0.415 0)" fill="#6ab654"/>
    </g>
    <g transform="matrix(1, 0, 0, 1, 16170, 8233)" filter="url(#Union_80)">
      <path id="Union_80-2" data-name="Union 80" d="M8.5,20.527a1.743,1.743,0,0,1-.952-2.444,1.715,1.715,0,0,0-.2-2.023,1.7,1.7,0,0,0-1.516-.311,1.793,1.793,0,0,0-.655,1.972,4.061,4.061,0,0,1,.266,1.47,1.505,1.505,0,0,1-1.191,1.368,1.616,1.616,0,0,1-1.761-.5,4.424,4.424,0,0,1-.942-2.914,5.064,5.064,0,0,1,1.4-3.488.855.855,0,0,0,.235-.517c.022-.816.027-1.634-.01-2.45a.758.758,0,0,0-.322-.535A6.474,6.474,0,0,1,.137,6.881,1.551,1.551,0,0,1,.8,4.889a1.544,1.544,0,0,1,1.975.368c.355.389.687.8,1.057,1.175a3.532,3.532,0,0,0,5.387-.16c.292-.332.561-.685.861-1.008a1.568,1.568,0,0,1,2.072-.331,1.607,1.607,0,0,1,.529,2.078,6.31,6.31,0,0,1-2.747,3.181.655.655,0,0,0-.229.49q-.05,1.249-.029,2.5a.851.851,0,0,0,.245.464,5.051,5.051,0,0,1,.925,5.643,1.946,1.946,0,0,1-1.735,1.357A1.669,1.669,0,0,1,8.5,20.527ZM3.126,19.182a.691.691,0,0,0,.914.326.708.708,0,0,0,.346-.949,2.208,2.208,0,0,0-.132-.329,2.425,2.425,0,0,1,.326-2.666c.075-.1.146-.208.213-.307l-1.075-.8A4,4,0,0,0,3.126,19.182Zm4.911-3.907a2.612,2.612,0,0,1,.469,3.252.7.7,0,0,0,.332.987c.443.18.707-.067.917-.412a3.945,3.945,0,0,0-.59-4.65Zm-3.515-2.79c-.1,0-.274.188-.283.3A1.345,1.345,0,0,0,4.85,14a2.382,2.382,0,0,0,3.16.009,1.386,1.386,0,0,0,.565-1.542H7.031C6.19,12.47,5.356,12.472,4.523,12.485Zm-3.2-6.674a.572.572,0,0,0-.164.812A5.221,5.221,0,0,0,3.911,9.491a.619.619,0,0,1,.3.43c.065.481-.108,1.191.146,1.4a1.585,1.585,0,0,0,1.028.127c.153-.011.305-.022.445-.02.913.009,1.826,0,2.8,0a8.645,8.645,0,0,0-.009-1.12c-.076-.551.163-.8.658-1a4.69,4.69,0,0,0,2.449-2.792.769.769,0,0,0-.212-.685c-.1-.088-.487.019-.644.156a8.842,8.842,0,0,0-.8.92,4.58,4.58,0,0,1-6.923.352c-.391-.374-.726-.807-1.082-1.218a.7.7,0,0,0-.486-.308A.472.472,0,0,0,1.323,5.811Zm12.912,8.743a4.134,4.134,0,0,1,.015-.915c.106-.463.294-.906.483-1.463a1.643,1.643,0,0,1-.5-1.4c.011-2.38,0-4.761.008-7.141a1.354,1.354,0,1,1,2.7-.023c.013,2.482.015,4.964-.01,7.447a4.751,4.751,0,0,1-.3,1.1c.835.468.861,1.258.622,2.128a6.726,6.726,0,0,1-3.02,4.139Zm1.7-1.472c-.219.036-.571.236-.582.39-.059.779-.027,1.565-.027,2.485a5.306,5.306,0,0,0,.99-2.423c.021-.134-.258-.453-.372-.453Zm-.589-1.829a2.55,2.55,0,0,0,.287.113c.113-.215.206-.439.3-.662l-.229-.1C15.59,10.819,15.47,11.036,15.35,11.253Zm.008-1.8c.724-.374.48-.976.492-1.538C15.249,8.3,15.224,8.379,15.358,9.457ZM15.33,3.585c-.023,1.03-.014,2.06-.014,3.09l.154.053c.132-.2.369-.4.379-.6.043-.846.026-1.7,0-2.544,0-.111-.155-.219-.238-.329C15.515,3.362,15.332,3.471,15.33,3.585ZM6.374,6.473a3.254,3.254,0,1,1,.058,0Zm.041-5.439A2.249,2.249,0,0,0,4.233,3.227,2.22,2.22,0,0,0,6.454,5.421a2.194,2.194,0,0,0-.015-4.387Z" transform="translate(12 11)" fill="#fff" stroke="#fff" stroke-miterlimit="10" stroke-width="0.25"/>
    </g>
  </g>
</svg>
