<svg xmlns="http://www.w3.org/2000/svg" xmlns:xlink="http://www.w3.org/1999/xlink" width="42" height="42.844" viewBox="0 0 42 42.844">
  <defs>
    <filter id="Union_70" x="1.875" y="3.875" width="38.965" height="38.969" filterUnits="userSpaceOnUse">
      <feOffset dy="3" input="SourceAlpha"/>
      <feGaussianBlur stdDeviation="3" result="blur"/>
      <feFlood flood-opacity="0.161"/>
      <feComposite operator="in" in2="blur"/>
      <feComposite in="SourceGraphic"/>
    </filter>
  </defs>
  <g id="Pediatric_Infectious_Diseases" data-name="Pediatric Infectious Diseases" transform="translate(-15970 -7945)">
    <path id="Subtraction_141" data-name="Subtraction 141" d="M21,42A21.005,21.005,0,0,1,12.826,1.65a21.005,21.005,0,0,1,16.349,38.7A20.864,20.864,0,0,1,21,42Z" transform="translate(15970 7945)" fill="#6ab654"/>
    <g transform="matrix(1, 0, 0, 1, 15970, 7945)" filter="url(#Union_70)">
      <path id="Union_70-2" data-name="Union 70" d="M.65,20.474A1.182,1.182,0,0,1,0,19.408c0-2.725-.012-5.45.024-8.176A5.7,5.7,0,0,1,1.141,8.151a12.911,12.911,0,0,1,4.7-4.1A1.5,1.5,0,0,1,8.092,5.428c-.062.62-.011,1.251-.011,1.962a2.519,2.519,0,0,0,1.3-2.167c0-1.355,0-2.711,0-4.066,0-.724.356-1.15.956-1.156.621-.006.98.422.981,1.176,0,1.268.024,2.536-.007,3.8a2.629,2.629,0,0,0,1.306,2.41c0-.608.017-1.166,0-1.722a1.482,1.482,0,0,1,.679-1.579,1.8,1.8,0,0,1,1.9.136,13.556,13.556,0,0,1,4.131,3.584,6.774,6.774,0,0,1,1.39,4.232c-.04,2.375-.049,4.752.005,7.126a1.483,1.483,0,0,1-2.076,1.424,13.406,13.406,0,0,1-4.23-2.574A5.414,5.414,0,0,1,12.673,15.1a4.312,4.312,0,0,1-.055-.739c-.005-1.3-.012-2.594,0-3.891a.677.677,0,0,0-.294-.629c-.224-.16-.421-.359-.644-.523A2.264,2.264,0,0,0,9.027,9.3a1.814,1.814,0,0,0-.968,1.85c.1.981-.006,1.981.031,2.971a4.617,4.617,0,0,1-1.135,3.172,9.008,9.008,0,0,1-2.61,2.164c-.7.392-1.418.743-2.142,1.083a1.688,1.688,0,0,1-.72.168A1.647,1.647,0,0,1,.65,20.474Zm12.605-9.31c0,.961.028,1.924-.007,2.885a4.178,4.178,0,0,0,1.117,2.988A11.869,11.869,0,0,0,18.9,19.989a.8.8,0,0,0,1.153-.8c0-2.507.007-5.012-.005-7.518a4.333,4.333,0,0,0-.145-1.166c-.826-2.866-2.975-4.543-5.433-5.9-.622-.344-1.212.128-1.214.855,0,.655-.01,1.311.005,1.966,0,.222,0,.516.128.647.351.359.754.883,1.171.915.777.063,1.7.407,2.343-.454.041-.055.167-.047.292-.04.058,0,.116.007.166.005-.011.168.032.37-.046.5a1.626,1.626,0,0,1-.437.349,6.068,6.068,0,0,1,.515.823.5.5,0,0,1-.114.436c-.049.052-.281-.025-.4-.094-.092-.051-.138-.183-.2-.279-.4-.592-.513-.634-1.346-.452.582.5,1.138.986,1.7,1.465a.261.261,0,0,0,.157.06,3.74,3.74,0,0,0,1.251-.053c.184-.069.209-.558.306-.859,0-.013,0-.034.009-.041.131-.107.263-.212.394-.318a1.9,1.9,0,0,1,.219.484.951.951,0,0,1-.1.464,1.014,1.014,0,0,0,.189,1.121c.172.212.5.515.106.764-.368.23-.509-.182-.629-.412a.806.806,0,0,0-1.1-.434,1.032,1.032,0,0,1-.5,1.327.238.238,0,0,0-.07.217c.292.815.216,1.814,1.229,2.264.388.172.359.416.014.709.549.422.706.823.508,1.3a.96.96,0,0,1-1.062.58.879.879,0,0,1-.778-.862,1.257,1.257,0,0,1,.264-.745,2.563,2.563,0,0,1,.742-.414c-.212-.141-.437-.291-.682-.452l-.662.678c-.164.167-.352.312-.556.091s-.082-.427.114-.557a1.218,1.218,0,0,0,.425-1.745.724.724,0,0,1-.075-.25c-.076-.868-.763-1.236-1.351-1.7a1.207,1.207,0,0,0,.74,1.351c.065.03.155.068.175.123a4.2,4.2,0,0,1,.122.488c-.156.018-.333.092-.463.041a3.723,3.723,0,0,1-.62-.382c-.087.144-.125.277-.212.332-.108.069-.3.141-.376.09-.1-.072-.206-.316-.16-.382.423-.6.148-1.208.058-1.812a1.19,1.19,0,0,0-.167-.616c-.348-.359-.757-.659-1.228-1.054ZM6.048,4.675a13.1,13.1,0,0,0-3.82,3.086,6.484,6.484,0,0,0-1.6,4.409c.053,2.3.013,4.6.013,6.907,0,.833.564,1.2,1.339.849.531-.239,1.054-.5,1.57-.765a9.34,9.34,0,0,0,2.793-2.142,3.812,3.812,0,0,0,1.079-2.381c.036-1.282.006-2.564,0-3.846,0-.02-.038-.038-.067-.065-.046.031-.1.059-.141.094-1.183.949-1.193.963-1.339,2.5a1.146,1.146,0,0,0,.063.416c.076.256.409.547.015.742-.138.068-.427-.169-.648-.267a.726.726,0,0,0-.445.179c-.2.139-.428.276-.6,0s.037-.442.257-.547A1.257,1.257,0,0,0,5.3,12.408c-.407.378-.956.654-1.107,1.075-.36,1-.859,2.032-.358,3.16.049.109-.133.319-.208.482-.14-.115-.327-.2-.406-.353a3.21,3.21,0,0,1-.192-.7,2.36,2.36,0,0,1-.525.311,1.549,1.549,0,0,1-.5-.034c.045-.162.043-.368.145-.476a5.788,5.788,0,0,1,.6-.428A.77.77,0,0,0,3,15.115c.154-.47.291-.946.413-1.425.027-.105.007-.3-.057-.338a1.062,1.062,0,0,1-.49-1.334c-.491-.137-.863-.066-1.072.416a.609.609,0,0,1-.2.284,2.392,2.392,0,0,1-.479.159c-.022-.167-.124-.411-.051-.488a1.59,1.59,0,0,0,.263-1.844c-.016-.041-.041-.1-.026-.126.067-.13.146-.355.221-.356a.507.507,0,0,1,.391.222,4.9,4.9,0,0,1,.21.754c.027.091.087.242.135.243.463.009,1.017.149,1.368-.053A12.435,12.435,0,0,0,5.382,9.767c-.932-.157-.949-.149-1.392.511-.033.048-.055.12-.1.14-.163.074-.334.131-.5.194a1.355,1.355,0,0,1-.033-.531A4.321,4.321,0,0,1,3.8,9.366c-.113-.087-.224-.16-.32-.248-.189-.175-.389-.382-.131-.621.236-.22.447-.028.585.162.256.352.6.354.992.4A2.342,2.342,0,0,0,7.2,8.189a.972.972,0,0,0,.231-.517c.026-.728.013-1.457.011-2.186,0-.6-.348-.975-.821-.975A1.18,1.18,0,0,0,6.048,4.675Zm11.768,12.8c-.023.088.149.226.3.427.14-.2.292-.315.284-.424s-.168-.214-.262-.321C18.023,17.265,17.849,17.354,17.816,17.479Zm-5.41-8.413q1.509,1.264,3.009,2.535c.423.356.835.729,1.28,1.055.1.077.323-.006.489-.015a2.991,2.991,0,0,0-.091-.46c-.025-.071-.125-.117-.191-.174q-2.561-2.218-5.124-4.432a2.964,2.964,0,0,1-1.1-2.413c.012-.6,0-1.194,0-1.793V2.408c0-.437.027-.877-.014-1.309-.015-.158-.176-.408-.3-.429-.281-.048-.338.2-.339.44,0,.1,0,.2,0,.306,0,1.253-.009,2.507,0,3.759A3,3,0,0,1,8.909,7.583Q6.34,9.791,3.785,12.016c-.055.048-.14.085-.159.144a4.5,4.5,0,0,0-.106.491,2.629,2.629,0,0,0,.5,0c.087-.014.158-.122.236-.188q2.022-1.7,4.045-3.406a3.188,3.188,0,0,1,2.047-.844A3.217,3.217,0,0,1,12.406,9.066ZM1.287,17.951a.811.811,0,1,1,.842.8H2.1A.8.8,0,0,1,1.287,17.951Zm2.922-2.1a.947.947,0,0,1,.958-.969.969.969,0,0,1,.978.958.98.98,0,0,1-.968.976H5.169A.961.961,0,0,1,4.209,15.852Zm.665.021c-.019.088.157.219.316.418.134-.21.28-.338.266-.445s-.18-.212-.28-.317C5.07,15.642,4.9,15.743,4.874,15.872Zm9.355-.172a.812.812,0,1,1,.815.785h-.005A.8.8,0,0,1,14.229,15.7ZM4.209,7.411A1.285,1.285,0,1,1,5.494,8.726,1.274,1.274,0,0,1,4.209,7.411Zm1.279-.623a.671.671,0,0,0-.639.642.645.645,0,0,0,1.29.031.666.666,0,0,0-.645-.672Zm8.741.669a.974.974,0,0,1,1.947-.043,1,1,0,0,1-.952,1H15.2A1,1,0,0,1,14.229,7.457Zm1-.317c-.128.026-.227.194-.338.3.1.1.194.265.307.28s.234-.13.442-.262c-.187-.152-.312-.32-.4-.32Z" transform="translate(11 10)" fill="#fff" stroke="#fff" stroke-width="0.25"/>
    </g>
  </g>
</svg>
