<svg xmlns="http://www.w3.org/2000/svg" xmlns:xlink="http://www.w3.org/1999/xlink" width="45.314" height="42.477" viewBox="0 0 45.314 42.477">
  <defs>
    <filter id="Union_74" x="0" y="4.42" width="45.314" height="38.056" filterUnits="userSpaceOnUse">
      <feOffset dy="3" input="SourceAlpha"/>
      <feGaussianBlur stdDeviation="3" result="blur"/>
      <feFlood flood-opacity="0.161"/>
      <feComposite operator="in" in2="blur"/>
      <feComposite in="SourceGraphic"/>
    </filter>
  </defs>
  <g id="Pediatric_Immunology_Allergy" data-name="Pediatric Immunology Allergy" transform="translate(-16167.626 -8089)">
    <g id="Group_20863" data-name="Group 20863" transform="translate(16169.585 8089)">
      <path id="Subtraction_7" data-name="Subtraction 7" d="M21,42A21.005,21.005,0,0,1,12.826,1.65a21.005,21.005,0,0,1,16.349,38.7A20.864,20.864,0,0,1,21,42Z" transform="translate(0.415 0)" fill="#6ab654"/>
    </g>
    <g transform="matrix(1, 0, 0, 1, 16167.63, 8089)" filter="url(#Union_74)">
      <path id="Union_74-2" data-name="Union 74" d="M9.226,19.792a1.761,1.761,0,0,1-1.742-1.779c-.005-1.259-.015-2.518,0-3.777A6.654,6.654,0,0,1,8.827,10.3,6.785,6.785,0,0,1,11.58,8.1c.034-.014.068-.031.122-.057a3.6,3.6,0,0,1-.9-3.309,3.459,3.459,0,0,1,1.343-2.068,3.605,3.605,0,0,1,4.656.263,3.642,3.642,0,0,1,.14,5.113l.18.091a6.733,6.733,0,0,1,4.022,6.185c.041,1.209.011,2.419.006,3.628A1.779,1.779,0,0,1,19.309,19.8c-1.634,0-3.27,0-4.9,0-.328,0-.526-.155-.544-.418a.45.45,0,0,1,.481-.5q.771,0,1.543,0H17v-.216q0-2.265,0-4.529a1.244,1.244,0,0,1,.013-.225.452.452,0,0,1,.484-.38.459.459,0,0,1,.427.426c.008.086,0,.175,0,.262q0,2.21,0,4.417v.245h.841c.194,0,.388,0,.582,0a.858.858,0,0,0,.876-.885c0-1.246.012-2.494,0-3.739a5.889,5.889,0,0,0-4-5.48.5.5,0,0,0-.332.019,3.632,3.632,0,0,1-3.179-.014.41.41,0,0,0-.28-.015,5.793,5.793,0,0,0-2.977,2.243,5.857,5.857,0,0,0-1.05,3.446c.005,1.153,0,2.306,0,3.458a.879.879,0,0,0,.964.969H10.71v-.218q0-2.313,0-4.623a.457.457,0,0,1,.345-.495.437.437,0,0,1,.519.234.934.934,0,0,1,.054.347q0,2.218,0,4.435v.319c.2,0,.383,0,.562,0a.461.461,0,1,1,0,.918c-.555,0-1.111,0-1.666,0C10.094,19.8,9.66,19.8,9.226,19.792Zm5.08-16.933a2.684,2.684,0,1,0,.008,0ZM5.6,18.534a.7.7,0,0,1-.012-.131c0-1.359-.041-2.721.016-4.078a8.607,8.607,0,0,1,3.629-6.8c.116-.087.157-.145.1-.3A5.335,5.335,0,1,1,19.631,5.8a5.932,5.932,0,0,1-.133.815c-.062.266-.159.526-.247.806a8.8,8.8,0,0,1,3.792,7.123c.011,1.29,0,2.58,0,3.871a.458.458,0,0,1-.373.492.441.441,0,0,1-.5-.269.846.846,0,0,1-.041-.293c0-1.221,0-2.443,0-3.665a7.793,7.793,0,0,0-1.968-5.227,7.447,7.447,0,0,0-1.649-1.415c-.347-.221-.4-.4-.221-.769A4.414,4.414,0,1,0,10.3,7.17c.023.051.049.1.073.152A.464.464,0,0,1,10.181,8a7.866,7.866,0,0,0-3.67,6.535c-.016,1.254,0,2.507,0,3.759a1.7,1.7,0,0,1-.005.225.46.46,0,0,1-.454.4h0A.458.458,0,0,1,5.6,18.534ZM25.44,15.8c-.263,0-.526,0-.788,0a.458.458,0,0,1-.483-.464.447.447,0,0,1,.472-.453q.817-.009,1.634,0a.455.455,0,0,1,.477.452.463.463,0,0,1-.484.465H25.44ZM3.994,14.357a.47.47,0,0,1-.453-.5c0-.17,0-.339-.007-.509l-1.349-.558c-.082.09-.2.232-.335.364a.459.459,0,0,1-.683.023.465.465,0,0,1,.032-.671c.132-.13.279-.248.418-.371a3.2,3.2,0,0,1-.538-1.226.172.172,0,0,0-.127-.095c-.1-.008-.192-.007-.288-.006-.055,0-.109,0-.163,0a.46.46,0,1,1-.007-.917c.171,0,.342,0,.513-.005.182-.441.356-.865.563-1.37-.08-.068-.225-.175-.354-.3a.466.466,0,1,1,.657-.649c.123.124.235.258.314.346l1.355-.564c0-.119,0-.3,0-.478a.467.467,0,1,1,.926.005c0,.174,0,.348,0,.473l1.356.56c.086-.094.2-.232.331-.359a.461.461,0,1,1,.654.645c-.127.13-.264.249-.4.378.084.144.161.264.227.39a.467.467,0,1,1-.816.434,2.048,2.048,0,0,0-3.245-.514c-.033.033-.063.073-.126.147h.685c.081,0,.163,0,.244,0a.459.459,0,1,1,0,.918c-.388,0-.777,0-1.166,0H1.989a2.061,2.061,0,0,0,2.455,2.407.464.464,0,1,1,.188.9l-.165.042c0,.2,0,.377,0,.558a.47.47,0,0,1-.465.5Zm-.46-1.027v0Zm21.46-.58a.467.467,0,0,1-.51-.46.473.473,0,0,1,.507-.464c.263,0,.526,0,.788,0h0c.257,0,.513,0,.77,0a.465.465,0,1,1,0,.925l-.779,0ZM3.828,11.517a.456.456,0,0,1-.013-.911c.162-.008.325,0,.487,0h0c.157,0,.313-.005.47,0a.456.456,0,0,1-.005.913q-.234.005-.469.005T3.828,11.517ZM22.63,9.94a.455.455,0,0,1-.453-.473c0-.057,0-.113,0-.169.016-.239.042-.454-.309-.5-.229-.032-.328-.317-.257-.546a.448.448,0,0,1,.545-.311,2.065,2.065,0,0,0,2.5-2.4h-.833c-.181,0-.364,0-.545,0a.463.463,0,1,1,0-.924c.231-.005.464,0,.695,0h.22a2.043,2.043,0,0,0-3.288.239c-.047.074-.084.154-.131.228a.464.464,0,0,1-.61.161.458.458,0,0,1-.2-.582,1.978,1.978,0,0,1,.122-.233,2.539,2.539,0,0,1,.184-.275c-.143-.121-.3-.232-.427-.363a.454.454,0,0,1-.024-.683.468.468,0,0,1,.684.042c.123.125.238.257.332.362.348-.152.648-.3.963-.415.381-.135.386-.121.386-.526,0-.057,0-.113,0-.169a.459.459,0,1,1,.919,0c.007.163,0,.327.007.489a.172.172,0,0,0,.091.13,3.266,3.266,0,0,1,1.228.54c.12-.137.237-.283.368-.416a.461.461,0,1,1,.653.647c-.128.129-.266.248-.4.368.117.22.233.406.317.6s.125.406.2.6a.191.191,0,0,0,.131.109,2.873,2.873,0,0,0,.292.006h.158a.463.463,0,1,1,0,.924c-.186,0-.374,0-.509,0-.188.455-.362.875-.568,1.371.083.072.227.182.356.306a.462.462,0,1,1-.644.653c-.128-.127-.24-.271-.357-.4a3.352,3.352,0,0,1-1.224.542c-.042.008-.092.091-.1.143-.014.156,0,.313-.009.47a.446.446,0,0,1-.459.461ZM21.9,7.11a.463.463,0,1,1,.011-.925q.432-.007.863,0a.463.463,0,1,1,.008.925c-.144,0-.288,0-.432,0l-.281,0C22.008,7.113,21.952,7.112,21.9,7.11ZM5.529,5.211a.446.446,0,0,1-.451-.456.456.456,0,0,1,.47-.458c.275,0,.551,0,.826,0s.538,0,.807,0a.458.458,0,1,1,.018.916q-.381,0-.762,0Q5.983,5.218,5.529,5.211ZM7.048,2.6a.464.464,0,1,1,0-.924c.526,0,1.051,0,1.577,0a.465.465,0,1,1,0,.926c-.263,0-.526,0-.788,0h-.43C7.287,2.6,7.167,2.6,7.048,2.6Z" transform="translate(9.13 10.55)" fill="#fff" stroke="#fff" stroke-width="0.25"/>
    </g>
  </g>
</svg>
