<svg xmlns="http://www.w3.org/2000/svg" xmlns:xlink="http://www.w3.org/1999/xlink" width="42" height="43.628" viewBox="0 0 42 43.628">
  <defs>
    <filter id="Path_27318" x="3.428" y="3.276" width="34.263" height="40.352" filterUnits="userSpaceOnUse">
      <feOffset dy="3" input="SourceAlpha"/>
      <feGaussianBlur stdDeviation="3" result="blur"/>
      <feFlood flood-opacity="0.161"/>
      <feComposite operator="in" in2="blur"/>
      <feComposite in="SourceGraphic"/>
    </filter>
  </defs>
  <g id="Pediatric_Cardiology" data-name="Pediatric Cardiology" transform="translate(-15970 -7801)">
    <path id="Subtraction_149" data-name="Subtraction 149" d="M21,42A21.005,21.005,0,0,1,12.826,1.65a21.005,21.005,0,0,1,16.349,38.7A20.864,20.864,0,0,1,21,42Z" transform="translate(15970 7801)" fill="#6ab654"/>
    <g transform="matrix(1, 0, 0, 1, 15970, 7801)" filter="url(#Path_27318)">
      <path id="Path_27318-2" data-name="Path 27318" d="M1548.893-2860.756c-.511.042-.963.077-1.415.118a.946.946,0,0,1-1-.479,1.206,1.206,0,0,1-.045-1.274.911.911,0,0,1,.522-.364c.6-.14,1.209-.23,1.817-.329.194-.031.3-.1.289-.318-.009-.24.021-.482.032-.723a.9.9,0,0,1,.551-.821,1.507,1.507,0,0,1,1.071-.083.92.92,0,0,1,.717.809l.757-.627c-.163-.448-.321-.9-.492-1.347a.86.86,0,0,1,.255-1.015,1.847,1.847,0,0,1,2.048-.317c.02-.023.054-.046.061-.075a.982.982,0,0,1,1-.77,1.462,1.462,0,0,1,1.374.5,1.021,1.021,0,0,1,.136.921q-.19.78-.391,1.557a.219.219,0,0,0,.124.3,2.876,2.876,0,0,1,1.5,1.737.351.351,0,0,0,.048.073c.347-.075.691-.171,1.041-.22.837-.119,1.229.241,1.191,1.086a.92.92,0,0,1-1.015,1.011,10.33,10.33,0,0,0-1.441.2v.094c.2.143.4.3.61.424a.407.407,0,0,0,.257,0c.516-.1,1.029-.22,1.545-.321a.718.718,0,0,1,.314.018,1.356,1.356,0,0,1,.629,1.936,1.3,1.3,0,0,1-.571.3c-.286.1-.587.146-.87.213,0,.231-.007.434,0,.636a.241.241,0,0,0,.1.167,3.247,3.247,0,0,1,1.246,1.7,10.714,10.714,0,0,1,.653,4.339,9.129,9.129,0,0,1-.707,3.467,3.3,3.3,0,0,1-1.108,1.418,1.919,1.919,0,0,1-2.079.211,19.965,19.965,0,0,0-4.054-1.425,7.021,7.021,0,0,1-2.2-.923c-.013.082-.022.115-.023.148a1.256,1.256,0,0,1-1.253,1.373,2.373,2.373,0,0,1-.561,0,1.026,1.026,0,0,1-1.006-1.2c.06-.873.12-1.747.193-2.619a.809.809,0,0,0-.14-.55,8.639,8.639,0,0,1-1.359-3.235,4.407,4.407,0,0,1,.111-2.12.317.317,0,0,0-.209-.455,1.921,1.921,0,0,0-.544-.116.9.9,0,0,1-.961-.925,1.008,1.008,0,0,1,.987-1.056,3.273,3.273,0,0,1,1.933.5Zm1.848,5.192-.9.6a.426.426,0,0,1-.635-.055.415.415,0,0,1,.165-.616c.564-.36,1.124-.73,1.708-1.054a3.438,3.438,0,0,0,1.564-1.7c.235-.552.234-.553-.259-.891l-.022-.016a1.826,1.826,0,0,0-2.5.031c-.058.042-.115.084-.171.129a3.891,3.891,0,0,0-1.629,3.943,8.706,8.706,0,0,0,3.888,5.617,8.273,8.273,0,0,0,2.448.909,15.678,15.678,0,0,1,3.483,1.272,1.3,1.3,0,0,0,1.578-.265,3.205,3.205,0,0,0,.778-1.3,10.075,10.075,0,0,0,.467-3.99,8.693,8.693,0,0,0-.664-2.991,2.855,2.855,0,0,0-2.785-1.63,9.477,9.477,0,0,1,.2,2.845.328.328,0,0,0,.033.154,8.117,8.117,0,0,0,1.408,2.6.409.409,0,0,1-.01.6.414.414,0,0,1-.6-.055,4.7,4.7,0,0,1-.481-.608c-.229-.356-.432-.729-.674-1.144a8.771,8.771,0,0,0-.028,3.314.4.4,0,0,1-.286.524.391.391,0,0,1-.5-.312,5.516,5.516,0,0,1-.154-.867,13.8,13.8,0,0,1,.394-3.983c.066-.312.1-.63.145-.946l-.119-.049c-.287.349-.58.694-.861,1.047-.179.226-.4.295-.6.165a.4.4,0,0,1-.076-.628,7.549,7.549,0,0,1,1.068-1.191.89.89,0,0,0,.378-1.047c-.134-.538-.1-.546-.63-.633a.885.885,0,0,1-.1-.024l-2.226-.653c.035-.036.016-.026.012-.011a4.259,4.259,0,0,1-1.824,2.369.264.264,0,0,0-.113.188,2.634,2.634,0,0,0,.19,1.464.366.366,0,0,1-.139.517.358.358,0,0,1-.525-.076,1.8,1.8,0,0,1-.278-.6A8.83,8.83,0,0,1,1550.741-2855.564Zm6.281-7.438a1.689,1.689,0,0,0-.546-.98,2.921,2.921,0,0,0-2.23-.729,3.6,3.6,0,0,0-2.746,1.746.315.315,0,0,0-.049.2q.13,1.047.275,2.092a.281.281,0,0,0,.122.19c.245.121.5.221.811.355.314-.522.634-1.035.936-1.558a1.427,1.427,0,0,1,1.11-.788,3.347,3.347,0,0,1,.356,0c-.091-.423-.392-.546-.714-.645s-.447-.282-.374-.54c.066-.232.292-.33.591-.251a1.628,1.628,0,0,1,1.323,1.324Zm2.193.286a1.752,1.752,0,0,0-.327.043c-1.074.354-2.147.707-3.216,1.076a.772.772,0,0,1-.615.005.5.5,0,0,0-.69.22c-.09.143-.151.3-.241.448-.262.421-.532.838-.805,1.264a6.073,6.073,0,0,0,2.072.921c.009-.157.013-.289.025-.42a3.072,3.072,0,0,1,1.552-2.568,4.222,4.222,0,0,1,1.948-.51C1559.284-2862.255,1559.323-2862.316,1559.215-2862.717Zm-.513,4.519c-.013-.108-.019-.231-.043-.35a2.848,2.848,0,0,0-1.7-1.967.232.232,0,0,0-.216.048,2.681,2.681,0,0,0-.5,1.88Zm-7.843-2.446c-.05-.3-.132-.641-.155-.982-.052-.782-.071-1.566-.111-2.349,0-.087-.027-.211-.086-.25a.387.387,0,0,0-.6.3c-.01.125-.01.25-.018.374-.054.862-.1,1.724-.165,2.586-.019.274-.07.547-.105.813Zm-1.321,10.113c-.06.682-.121,1.328-.169,1.976a.318.318,0,0,0,.093.247c.209.151.928.089.988-.132a1.807,1.807,0,0,0,.039-1.14C1550.312-2849.952,1549.882-2850.2,1549.539-2850.53Zm5.785-14.924c.017-.023.032-.036.037-.051.133-.526.256-1.055.4-1.579.059-.215.042-.362-.2-.434-.332-.1-.643-.029-.72.18-.093.25-.161.511-.27.753a1.094,1.094,0,0,0,.109.948c.052.111.337.115.517.165A.853.853,0,0,0,1555.324-2865.453Zm-1.521-.065a.231.231,0,0,0,.007-.063c-.069-.285-.143-.568-.21-.853-.121-.506-.232-.566-.727-.375a1.3,1.3,0,0,0-.3.167c-.048.035-.1.125-.09.168.139.406.292.809.441,1.214Zm-4.823,3.247-1.637.268c-.122.02-.268.02-.233.21.03.165.038.351.289.327.461-.044.923-.077,1.383-.132a.266.266,0,0,0,.189-.162A3.154,3.154,0,0,0,1548.979-2862.271Zm10.321,2.945c.3-.074.571-.153.849-.207.144-.028.249-.065.2-.23s-.034-.434-.282-.411a10.512,10.512,0,0,0-1.118.218Zm-12.832.7,1.353.374.2-.3a2.468,2.468,0,0,0-1.32-.324C1546.526-2858.887,1546.438-2858.784,1546.468-2858.629Z" transform="translate(-1533.04 2877.83)" fill="#fff" stroke="#fff" stroke-width="0.35"/>
    </g>
  </g>
</svg>
