<svg xmlns="http://www.w3.org/2000/svg" xmlns:xlink="http://www.w3.org/1999/xlink" width="43.325" height="42.079" viewBox="0 0 43.325 42.079">
  <defs>
    <filter id="Union_72" x="0" y="4.961" width="43.325" height="37.118" filterUnits="userSpaceOnUse">
      <feOffset dy="3" input="SourceAlpha"/>
      <feGaussianBlur stdDeviation="3" result="blur"/>
      <feFlood flood-opacity="0.161"/>
      <feComposite operator="in" in2="blur"/>
      <feComposite in="SourceGraphic"/>
    </filter>
  </defs>
  <g id="Pediatric_Nephrology" data-name="Pediatric Nephrology" transform="translate(-16363.366 -7945)">
    <g id="Group_20859" data-name="Group 20859" transform="translate(16363.585 7945)">
      <path id="Subtraction_7" data-name="Subtraction 7" d="M21,42A21.005,21.005,0,0,1,12.826,1.65a21.005,21.005,0,0,1,16.349,38.7A20.864,20.864,0,0,1,21,42Z" transform="translate(0.415 0)" fill="#6ab654"/>
    </g>
    <g transform="matrix(1, 0, 0, 1, 16363.37, 7945)" filter="url(#Union_72)">
      <path id="Union_72-2" data-name="Union 72" d="M11.061,18.613c-.251-.039-.365-.253-.339-.585.088-1.145.209-2.289.242-3.434a11.937,11.937,0,0,0-.369-3.5A2.783,2.783,0,0,0,8.91,9.163c-.222-.094-.446-.185-.67-.277l-.017.037c.2.269.407.527.584.808a4.152,4.152,0,0,1,.307,3.981A4.587,4.587,0,0,1,4.793,16.5a4.764,4.764,0,0,1-3.675-1.9,5.271,5.271,0,0,1-.867-2.189A11.286,11.286,0,0,1,1.6,4.3,8.582,8.582,0,0,1,6.151.385,5.237,5.237,0,0,1,8.986.076a2.94,2.94,0,0,1,2.507,3.735,5.877,5.877,0,0,1-.767,1.706c-.292.5-.615.988-.932,1.475-.18.276-.422.344-.638.2s-.22-.384-.039-.685C9.6,5.7,10.132,4.9,10.535,4.048A2.155,2.155,0,0,0,10.3,1.681,2.414,2.414,0,0,0,8.44.842,5.9,5.9,0,0,0,4.691,2.075a8.8,8.8,0,0,0-3.232,4.53,10.04,10.04,0,0,0-.24,6.2,3.8,3.8,0,0,0,3.825,2.86A3.655,3.655,0,0,0,7.616,14.48a3.482,3.482,0,0,0-.035-4.964A11.723,11.723,0,0,0,6.2,8.425c-.245-.179-.348-.327-.273-.543s.244-.313.544-.269a10.252,10.252,0,0,1,2.909.846,3.592,3.592,0,0,1,2,2.363,11.567,11.567,0,0,1,.429,3.585c-.035,1.25-.16,2.5-.255,3.748a.45.45,0,0,1-.426.464A.43.43,0,0,1,11.061,18.613Zm2.607,0a.376.376,0,0,1-.361-.314c-.05-.278-.088-.56-.118-.841a24.442,24.442,0,0,1-.137-4.2,9.741,9.741,0,0,1,.563-2.885A3.317,3.317,0,0,1,15.2,8.594a9.344,9.344,0,0,1,3.232-.988.4.4,0,0,1,.472.281.426.426,0,0,1-.226.506c-.025.015-.053.026-.079.041a5.98,5.98,0,0,0-1.7,1.472,3.548,3.548,0,0,0,.308,4.583A3.811,3.811,0,0,0,23.1,14.01a5.152,5.152,0,0,0,.691-1.9,10.475,10.475,0,0,0-.966-6.8,8.093,8.093,0,0,0-3.9-3.942A4.736,4.736,0,0,0,15.84.92a2.112,2.112,0,0,0-1.712,2.6,5.2,5.2,0,0,0,.712,1.6c.277.485.591.95.895,1.418.171.266.155.5-.059.649a.422.422,0,0,1-.627-.177C14.531,6.153,13.97,5.31,13.541,4.4A3.061,3.061,0,0,1,14.177.84,3.519,3.519,0,0,1,16.441.01a6.68,6.68,0,0,1,3.818,1.148,9.383,9.383,0,0,1,3.707,4.664A11.428,11.428,0,0,1,24.8,10.9a8.775,8.775,0,0,1-.748,3.114,4.2,4.2,0,0,1-2.218,2.052,4.49,4.49,0,0,1-5.664-1.529,4.25,4.25,0,0,1-.032-4.984c.152-.211.315-.413.472-.619a2.944,2.944,0,0,0-2.359,2.13,15.215,15.215,0,0,0-.348,2.113A22.856,22.856,0,0,0,14.1,18a.8.8,0,0,1-.019.373.361.361,0,0,1-.354.247A.486.486,0,0,1,13.668,18.612Zm4.195-6.79a4.3,4.3,0,0,1,.31-.81.413.413,0,0,1,.58-.212.454.454,0,0,1,.156.6,4.6,4.6,0,0,0-.265.913.664.664,0,0,0,.354.676,1.038,1.038,0,0,0,1.072.159,1.113,1.113,0,0,0,.544-.923,1.324,1.324,0,0,0,.007-.134c.024-.522.1-.6.619-.627a1.1,1.1,0,0,0,.97-1.444,1.455,1.455,0,0,0-.706-.833c-.412-.22-.448-.446-.137-.787a1.026,1.026,0,0,0,.165-1.294.63.63,0,0,0-.837-.3.44.44,0,0,1-.518-.051.426.426,0,0,1-.076-.535,1.049,1.049,0,0,0,.061-.191.858.858,0,0,0-.808-1.2c-.147-.023-.3-.034-.444-.05a.416.416,0,0,1-.392-.5c.072-.576-.077-.808-.654-.939-.287-.066-.592-.179-.862.087a.855.855,0,0,0-.264.727c.027.31-.122.514-.374.533s-.428-.164-.454-.472a1.65,1.65,0,0,1,.982-1.7,1.717,1.717,0,0,1,1.12,0,1.564,1.564,0,0,1,1.376,1.337c.01.062.115.14.188.157a1.912,1.912,0,0,1,1.172.683A1.775,1.775,0,0,1,21.04,5.9,1.66,1.66,0,0,1,22.5,7.35a1.646,1.646,0,0,1-.183,1.125.217.217,0,0,0,.056.319,2.21,2.21,0,0,1,.7,1.2,1.938,1.938,0,0,1-1.394,2.24.307.307,0,0,0-.267.289,1.786,1.786,0,0,1-1.632,1.556q-.076.006-.151.006A1.824,1.824,0,0,1,17.863,11.821Zm-14.1,1.512a4.552,4.552,0,0,1-.348-.86c-.035-.082-.106-.2-.176-.208a1.965,1.965,0,0,1-.95-3.28.582.582,0,0,0,.139-.746A1.726,1.726,0,0,1,3.669,5.925c.035,0,.07-.017.05-.012a5.9,5.9,0,0,1,.237-1,1.559,1.559,0,0,1,1.2-.875.349.349,0,0,0,.329-.33,1.372,1.372,0,0,1,1.023-1.1A6.687,6.687,0,0,1,7.584,2.43a.578.578,0,0,1,.261.047,1.673,1.673,0,0,1,1.072,1.8.428.428,0,0,1-.441.413.435.435,0,0,1-.4-.479,1.516,1.516,0,0,0-.1-.58.582.582,0,0,0-.7-.347,4.44,4.44,0,0,0-.6.156.617.617,0,0,0-.387.725c.067.427-.069.583-.5.622a2.647,2.647,0,0,0-.653.136A.731.731,0,0,0,4.63,5.8c.026.168.11.329.121.5a.618.618,0,0,1-.09.424.483.483,0,0,1-.416.105c-.328-.108-.622-.139-.853.156a.959.959,0,0,0-.142,1.106,1.757,1.757,0,0,0,.266.356.426.426,0,0,1-.105.709,2.7,2.7,0,0,0-.627.55,1.066,1.066,0,0,0-.049,1.239,1.018,1.018,0,0,0,.993.523c.3,0,.446.155.479.473a3.331,3.331,0,0,0,.113.679.838.838,0,0,0,1.032.589c.643-.177.939-.554.826-1.1a3.414,3.414,0,0,0-.247-.69.439.439,0,0,1,.134-.607A.406.406,0,0,1,6.65,11,2.435,2.435,0,0,1,7,12.647a1.434,1.434,0,0,1-.5.878,2.2,2.2,0,0,1-1.38.553A1.643,1.643,0,0,1,3.758,13.333Z" transform="translate(9.25 11.21)" fill="#fff" stroke="#fff" stroke-width="0.5"/>
    </g>
  </g>
</svg>
