<svg xmlns="http://www.w3.org/2000/svg" width="42" height="42" viewBox="0 0 42 42">
  <g id="Pediatric_Gastroenterology" data-name="Pediatric Gastroenterology" transform="translate(-16364 -8089)">
    <g id="Group_20857" data-name="Group 20857" transform="translate(16363.585 8089)">
      <path id="Subtraction_7" data-name="Subtraction 7" d="M21,42A21.005,21.005,0,0,1,12.826,1.65a21.005,21.005,0,0,1,16.349,38.7A20.864,20.864,0,0,1,21,42Z" transform="translate(0.415 0)" fill="#6ab654"/>
    </g>
    <g id="Group_20875" data-name="Group 20875" transform="translate(13951.205 12473.887)">
      <path id="Path_27358" data-name="Path 27358" d="M2599.887-4336.813a.352.352,0,0,1-.341.352.352.352,0,0,1-.356-.351.347.347,0,0,1,.341-.35A.349.349,0,0,1,2599.887-4336.813Z" transform="translate(-157.633 -31.651)" fill="#fff" stroke="#fff" stroke-width="0.25"/>
      <path id="Path_27359" data-name="Path 27359" d="M2581.281-4343.857a.312.312,0,0,1-.317-.307.315.315,0,0,1,.315-.322.313.313,0,0,1,.317.308A.31.31,0,0,1,2581.281-4343.857Z" transform="translate(-141.373 -25.116)" fill="#fff" stroke="#fff" stroke-width="0.25"/>
      <path id="Path_27360" data-name="Path 27360" d="M2571.164-4324.231a.24.24,0,0,1-.262.227.245.245,0,0,1-.226-.251.251.251,0,0,1,.257-.236A.247.247,0,0,1,2571.164-4324.231Z" transform="translate(-132.195 -42.953)" fill="#fff" stroke="#fff" stroke-width="0.25"/>
      <path id="Path_27361" data-name="Path 27361" d="M2592.4-4322.736a.238.238,0,0,1-.246.243.236.236,0,0,1-.24-.233.239.239,0,0,1,.237-.251A.242.242,0,0,1,2592.4-4322.736Z" transform="translate(-151.146 -44.305)" fill="#fff" stroke="#fff" stroke-width="0.25"/>
      <path id="Path_27362" data-name="Path 27362" d="M2584.935-4331.708c-.1-.012-.152-.062-.146-.155a.129.129,0,0,1,.145-.132.131.131,0,0,1,.139.139A.139.139,0,0,1,2584.935-4331.708Z" transform="translate(-144.786 -36.26)" fill="#fff" stroke="#fff" stroke-width="0.25"/>
      <g id="Group_20874" data-name="Group 20874" transform="translate(2422.499 -4372.639)">
        <path id="Path_27363" data-name="Path 27363" d="M2512.03-4299.593c-.021.07-.086.27-.271.756a4.268,4.268,0,0,1-.505.864,3.673,3.673,0,0,1-3.2,1.577,2.539,2.539,0,0,1-.535-.054c-.261-.067-.512-.168-.784-.261a3.141,3.141,0,0,1-.343.992c-.064.132-.128.263-.185.4a.587.587,0,0,0,.179.764,2.925,2.925,0,0,0,.722.417,7.711,7.711,0,0,0,3.894.4,7.1,7.1,0,0,0,4.433-2.516,9.826,9.826,0,0,0,2.181-5.075.139.139,0,0,0-.013-.084.536.536,0,0,0-.857-.142c-.07.063-.128.139-.193.208a.508.508,0,0,1-.81.01c-.054-.055-.1-.117-.156-.173a.507.507,0,0,0-.819,0c-.081.083-.154.176-.243.25a.45.45,0,0,1-.6.017,1.658,1.658,0,0,1-.228-.227.524.524,0,0,0-.881-.011.772.772,0,0,1-.573.35A6.242,6.242,0,0,1,2512.03-4299.593Zm4.332-1a.365.365,0,0,1,.361.376.365.365,0,0,1-.374.362.369.369,0,0,1-.362-.375A.368.368,0,0,1,2516.362-4300.6Zm-.89,3.33a.189.189,0,0,1-.184.193.186.186,0,0,1-.184-.179.187.187,0,0,1,.183-.193A.19.19,0,0,1,2515.472-4297.266Zm-.273-4.028a.188.188,0,0,1,.195.182.193.193,0,0,1-.176.188.184.184,0,0,1-.192-.183A.182.182,0,0,1,2515.2-4301.294Zm-.17,1.857a.269.269,0,0,1,.26.267.27.27,0,0,1-.264.264.271.271,0,0,1-.267-.273A.271.271,0,0,1,2515.029-4299.437Zm-.634,2.178a.182.182,0,0,1,.177.2.184.184,0,0,1-.186.174.187.187,0,0,1-.179-.2A.188.188,0,0,1,2514.395-4297.259Zm-.462-3.009a.267.267,0,0,1,.273.251.266.266,0,0,1-.259.279.265.265,0,0,1-.267-.258A.265.265,0,0,1,2513.932-4300.268Zm-.622-.841a.189.189,0,0,1,.185.179.189.189,0,0,1-.187.19.193.193,0,0,1-.185-.193A.188.188,0,0,1,2513.31-4301.109Zm-.549,2.522a.362.362,0,0,1,.362.373.356.356,0,0,1-.367.353.365.365,0,0,1-.36-.363A.372.372,0,0,1,2512.761-4298.587Z" transform="translate(-2497.115 4309.368)" fill="#fff" stroke="#fff" stroke-width="0.25"/>
        <path id="Path_27364" data-name="Path 27364" d="M2576.62-4315.919a.521.521,0,0,0,.525-.523.52.52,0,0,0-.534-.527.517.517,0,0,0-.518.53A.519.519,0,0,0,2576.62-4315.919Z" transform="translate(-2559.527 4322.974)" fill="#fff" stroke="#fff" stroke-width="0.25"/>
        <path id="Path_27365" data-name="Path 27365" d="M2563.52-4303.712a.237.237,0,0,0-.231-.243.246.246,0,0,0-.257.235.253.253,0,0,0,.241.254A.243.243,0,0,0,2563.52-4303.712Z" transform="translate(-2547.875 4311.363)" fill="#fff" stroke="#fff" stroke-width="0.25"/>
        <path id="Path_27366" data-name="Path 27366" d="M2603.878-4315.464a.238.238,0,0,0-.241-.234.243.243,0,0,0-.245.246.248.248,0,0,0,.25.244A.247.247,0,0,0,2603.878-4315.464Z" transform="translate(-2583.881 4321.839)" fill="#fff" stroke="#fff" stroke-width="0.25"/>
        <path id="Path_27367" data-name="Path 27367" d="M2594.077-4306c-.007-.059-.066-.11-.1-.165l-.061,0c-.041.055-.1.105-.115.166a.124.124,0,0,0,.132.143C2594.024-4305.854,2594.088-4305.912,2594.077-4306Z" transform="translate(-2575.322 4313.336)" fill="#fff" stroke="#fff" stroke-width="0.25"/>
        <path id="Path_27368" data-name="Path 27368" d="M2598.182-4302.829c.055.041.112.114.166.112a.2.2,0,0,0,.139-.131.117.117,0,0,0-.138-.143c-.058.008-.109.065-.164.1C2598.184-4302.87,2598.183-4302.85,2598.182-4302.829Z" transform="translate(-2579.234 4310.504)" fill="#fff" stroke="#fff" stroke-width="0.25"/>
        <path id="Path_27369" data-name="Path 27369" d="M2598.77-4312.067c.022.035.046.07.07.1l.131-.126a.732.732,0,0,0-.111-.137c-.021-.016-.068,0-.1.005,0,.042.008.085.011.127C2598.769-4312.084,2598.766-4312.074,2598.77-4312.067Z" transform="translate(-2579.746 4318.747)" fill="#fff" stroke="#fff" stroke-width="0.25"/>
        <path id="Path_27370" data-name="Path 27370" d="M2444.948-4367.91a5.141,5.141,0,0,0-.911-2.271,3.6,3.6,0,0,0-3.71-1.458,3.318,3.318,0,0,0-1.776,1,7.256,7.256,0,0,0-1.049,1.2,1.3,1.3,0,0,1-.29.238.7.7,0,0,1-1.124-.139,2.934,2.934,0,0,1-.434-.947,7.828,7.828,0,0,1-.251-2.048c0-.174-.027-.2-.2-.21q-.658-.041-1.317-.079a.769.769,0,0,0-.089.006.4.4,0,0,1-.145,0,.238.238,0,0,0-.338.126.7.7,0,0,0-.062.223c-.041.528-.094,1.057-.109,1.586a5.054,5.054,0,0,0,.393,2.159,6.7,6.7,0,0,0,.995,1.521,4.989,4.989,0,0,1,.836,1.286,3.467,3.467,0,0,1-.2,2.984,1.831,1.831,0,0,1-1.063.932,1.452,1.452,0,0,1-1.849-.845c-.068-.182-.133-.364-.2-.544a2.018,2.018,0,0,0-2.062-1.377,4.5,4.5,0,0,0-2.055.6,9.966,9.966,0,0,0-5.086,6.432,9.432,9.432,0,0,0-.349,2.4h.265a7.539,7.539,0,0,1,.236-1.686,9.544,9.544,0,0,1,5.583-6.551,3.261,3.261,0,0,1,1.452-.328,1.123,1.123,0,0,1,1.109.738c.077.192.145.388.215.582a2.388,2.388,0,0,0,.69,1.061,2.508,2.508,0,0,0,3.34-.151,3.574,3.574,0,0,0,1.03-2.044,4.03,4.03,0,0,0-.763-3.287c-.272-.351-.557-.693-.857-1.021a4.372,4.372,0,0,1-1.16-2.718c-.039-.537-.035-1.077-.054-1.615l1.709-.151h0c0,.044-.006.088-.01.131a7.057,7.057,0,0,0,.091,2.035,2.586,2.586,0,0,0,.5,1.177,1.077,1.077,0,0,0,1.47.251,3.247,3.247,0,0,0,.505-.4c.41-.388.8-.8,1.217-1.178a2.641,2.641,0,0,1,1.821-.726,2.987,2.987,0,0,1,2.785,1.735,6.12,6.12,0,0,1,.6,2.575,13.348,13.348,0,0,1-.327,3.519c-.017.075-.032.152-.049.232l-.171.634a10.176,10.176,0,0,1-2.2,4.054,8.179,8.179,0,0,1-3.712,2.4l-.027.01h0l-.588.164h0l-.406.073a9.2,9.2,0,0,1-3.947-.214,4.524,4.524,0,0,1-1.9-.926,1.911,1.911,0,0,1-.7-1.7,2.969,2.969,0,0,1,.357-1,4.025,4.025,0,0,0,.272-.653.425.425,0,0,0-.313-.532,1.152,1.152,0,0,0-.318-.027,2.5,2.5,0,0,1-.5.013c-.335-.071-.666-.172-.994-.276a1.844,1.844,0,0,0-1.918.372,9.553,9.553,0,0,0-.7.756c-.1.118-.19.251-.286.378l0,0-.273.422h0c-.03.043-.059.086-.084.132a7.821,7.821,0,0,0-1.1,3.746h.905c0-.133.009-.267.02-.4a7.083,7.083,0,0,1,1.083-3.229,5.551,5.551,0,0,1,.968-1.24,1.06,1.06,0,0,1,1.019-.262c.042.011.084.018.126.028a3.723,3.723,0,0,0,1.638.249l-.062.154c-.1.239-.213.474-.291.718a2.344,2.344,0,0,0,.245,2.025,3.2,3.2,0,0,0,1.52,1.219,8.255,8.255,0,0,0,2.464.6,9.664,9.664,0,0,0,3.187-.161h0l.024-.006.029-.006.007,0,.424-.109a.8.8,0,0,0,.081-.017l.09-.027.02,0h0a8.312,8.312,0,0,0,1.953-.849,11.1,11.1,0,0,0,1.1-.764,10.2,10.2,0,0,0,.995-.9,10.346,10.346,0,0,0,.86-1.016,11.037,11.037,0,0,0,.734-1.125c.221-.389.395-.8.6-1.2a7.686,7.686,0,0,0,.392-1.2l.118-.331a8.113,8.113,0,0,0,.215-.869A11.2,11.2,0,0,0,2444.948-4367.91Z" transform="translate(-2422.499 4372.639)" fill="#fff" stroke="#fff" stroke-width="0.25"/>
      </g>
    </g>
  </g>
</svg>
