<svg xmlns="http://www.w3.org/2000/svg" xmlns:xlink="http://www.w3.org/1999/xlink" width="42" height="42" viewBox="0 0 42 42">
  <defs>
    <filter id="Union_81" x="1.327" y="5.536" width="36.247" height="36.174" filterUnits="userSpaceOnUse">
      <feOffset dy="3" input="SourceAlpha"/>
      <feGaussianBlur stdDeviation="3" result="blur"/>
      <feFlood flood-opacity="0.161"/>
      <feComposite operator="in" in2="blur"/>
      <feComposite in="SourceGraphic"/>
    </filter>
  </defs>
  <g id="Pediatric_Rheumatology" data-name="Pediatric Rheumatology" transform="translate(-16364 -8233)">
    <g id="Group_20884" data-name="Group 20884" transform="translate(16363.585 8233)">
      <path id="Subtraction_7" data-name="Subtraction 7" d="M21,42A21.005,21.005,0,0,1,12.826,1.65a21.005,21.005,0,0,1,16.349,38.7A20.864,20.864,0,0,1,21,42Z" transform="translate(0.415 0)" fill="#6ab654"/>
    </g>
    <g transform="matrix(1, 0, 0, 1, 16364, 8233)" filter="url(#Union_81)">
      <path id="Union_81-2" data-name="Union 81" d="M10.573,16.731c-.033-.346-.027-.7-.026-1.046q0-.643.023-1.286a.8.8,0,0,0-.544-.874,2.444,2.444,0,0,1-.412-4.179,2.1,2.1,0,0,1,2.132-.212,3.058,3.058,0,0,0,2.132.094c.179-.058.351-.139.529-.2a2.214,2.214,0,0,1,2.749,1.659,2.413,2.413,0,0,1-.468,2.236,2.741,2.741,0,0,1-.778.579.857.857,0,0,0-.571.946q.018,1.079.007,2.159c0,.419-.165.57-.546.563a.434.434,0,0,1-.467-.462c-.016-.247-.008-.495-.009-.742s0-.494,0-.742h0c0-.385.011-.771,0-1.157a1.415,1.415,0,0,1,.878-1.381,2.429,2.429,0,0,0,.715-.513,1.438,1.438,0,0,0-.257-1.988.983.983,0,0,0-.854-.148c-.45.11-.891.261-1.342.37a2.321,2.321,0,0,1-1.27-.062c-.276-.087-.554-.175-.832-.258A1.238,1.238,0,0,0,9.7,11.318a1.351,1.351,0,0,0,.811,1.288,4.478,4.478,0,0,1,.564.325,1.185,1.185,0,0,1,.5.976c.014.923.009,1.848,0,2.771a.449.449,0,0,1-.443.494h-.056A.441.441,0,0,1,10.573,16.731ZM.463,12a.329.329,0,0,1,.22-.45c.865-.335,1.733-.665,2.6-1,.176-.068.349-.142.528-.2.213-.068.424.087.429.383-.05.051-.122.185-.231.228-1.031.407-2.068.8-3.106,1.194a.419.419,0,0,1-.149.029A.305.305,0,0,1,.463,12Zm6.089-.076a4.326,4.326,0,0,1,.1-6.012A.5.5,0,0,1,7.4,5.844a.522.522,0,0,1-.019.773,3.3,3.3,0,0,0-.077,4.626A.515.515,0,0,1,7.3,12a.479.479,0,0,1-.325.128A.591.591,0,0,1,6.551,11.922ZM2,9.242H.383c-.193,0-.347-.06-.378-.277S.123,8.591.4,8.59c.886,0,1.771,0,2.658,0,.189,0,.377,0,.566,0,.253,0,.4.131.4.333s-.145.316-.39.317q-.408,0-.816,0ZM14.445,8.148a11.236,11.236,0,0,0-1.135-.3,2.926,2.926,0,0,0-1.518.191A2.261,2.261,0,0,1,8.651,5.762a2.282,2.282,0,0,1,1.382-2.105.827.827,0,0,0,.529-.89c-.031-.726-.016-1.455-.01-2.183,0-.374.174-.557.491-.569a.457.457,0,0,1,.53.493c.01.472,0,.945,0,1.418,0,.414,0,.83,0,1.244a1.355,1.355,0,0,1-.86,1.32,2.909,2.909,0,0,0-.392.189,1.43,1.43,0,0,0-.1,2.29,1.058,1.058,0,0,0,1.015.156c.223-.06.444-.136.663-.212a3.162,3.162,0,0,1,2.239.04,3.807,3.807,0,0,0,.727.222,1.172,1.172,0,0,0,1.294-1.03A1.383,1.383,0,0,0,15.429,4.6c-.089-.049-.184-.088-.274-.134a1.392,1.392,0,0,1-.834-1.3q-.008-1.3,0-2.6c0-.363.166-.54.476-.561a.449.449,0,0,1,.533.467c.02.676.015,1.353.019,2.029,0,.109-.012.218-.014.327a.811.811,0,0,0,.526.825A2.47,2.47,0,0,1,16.3,7.817a1.892,1.892,0,0,1-1.2.425A2.464,2.464,0,0,1,14.445,8.148ZM3.782,7.476C3.44,7.356,3.1,7.22,2.764,7.091q-1.038-.4-2.075-.8a.322.322,0,0,1-.238-.405.313.313,0,0,1,.342-.239,1.181,1.181,0,0,1,.127.036L3.973,6.852a.385.385,0,0,1,.04.018.324.324,0,0,1,.2.422.311.311,0,0,1-.3.209A.415.415,0,0,1,3.782,7.476Z" transform="translate(10.83 12.04)" fill="#fff" stroke="#fff" stroke-width="1"/>
    </g>
  </g>
</svg>
