<svg xmlns="http://www.w3.org/2000/svg" xmlns:xlink="http://www.w3.org/1999/xlink" width="42" height="43.47" viewBox="0 0 42 43.47">
  <defs>
    <filter id="Union_42" x="1.874" y="3.874" width="37.86" height="39.596" filterUnits="userSpaceOnUse">
      <feOffset dy="3" input="SourceAlpha"/>
      <feGaussianBlur stdDeviation="3" result="blur"/>
      <feFlood flood-opacity="0.161"/>
      <feComposite operator="in" in2="blur"/>
      <feComposite in="SourceGraphic"/>
    </filter>
  </defs>
  <g id="Pediatrics" transform="translate(-16170 -6937)">
    <g id="Group_20834" data-name="Group 20834" transform="translate(16169.585 6937)">
      <path id="Subtraction_7" data-name="Subtraction 7" d="M21,42A21.005,21.005,0,0,1,12.826,1.65a21.005,21.005,0,0,1,16.349,38.7A20.864,20.864,0,0,1,21,42Z" transform="translate(0.415 0)" fill="#6ab654"/>
    </g>
    <g transform="matrix(1, 0, 0, 1, 16170, 6937)" filter="url(#Union_42)">
      <path id="Union_42-2" data-name="Union 42" d="M9.067,21.3a9.569,9.569,0,0,1-7.991-5.3A9.215,9.215,0,0,1,0,11.575,9.8,9.8,0,0,1,11.424,1.93a1.042,1.042,0,0,0,1.02-.711,3.361,3.361,0,0,0,.112-.684c.01-.069-.01-.142,0-.212.029-.3.2-.4.471-.265a1.766,1.766,0,0,1,.431.305A2.364,2.364,0,0,1,14.3,2.212a5.491,5.491,0,0,1-.1.6c.324.2.653.375.965.582A9.338,9.338,0,0,1,19.4,9.634a9.449,9.449,0,0,1-3.536,9.6,9.113,9.113,0,0,1-5.889,2.11Q9.528,21.345,9.067,21.3ZM4.2,17.8A8.4,8.4,0,0,0,16.3,16.871a8.274,8.274,0,0,0-.146-10.736c-.207.191-.4.4-.623.571a5.893,5.893,0,0,1-2.008.94A14.151,14.151,0,0,1,7.2,7.91.656.656,0,0,1,6.7,7,4.565,4.565,0,0,1,7.07,6.2c.256-.412.55-.8.828-1.2l-.016-.043c-.317.194-.644.37-.949.581A5.2,5.2,0,0,0,5.667,6.869a.644.644,0,0,1-.885.266c-.391-.234-.751-.522-1.119-.8a1.447,1.447,0,0,1-.206-.234A8.322,8.322,0,0,0,4.2,17.8Zm1.929-1.028a4.27,4.27,0,0,1-.516-.374.679.679,0,0,1-.1-.967.688.688,0,0,1,.951-.133,5.921,5.921,0,0,0,5.505.67,5.37,5.37,0,0,0,1.155-.656.728.728,0,0,1,.962.1.7.7,0,0,1-.118,1.03,5.391,5.391,0,0,1-2.525,1.139c-.527.1-1.065.134-1.356.168A7.524,7.524,0,0,1,6.126,16.768ZM12.6,12.7a1.125,1.125,0,1,1,.052-2.25,1.125,1.125,0,0,1-.037,2.25ZM5.856,11.577a1.138,1.138,0,0,1,2.276-.014A1.137,1.137,0,0,1,7,12.7H6.993A1.126,1.126,0,0,1,5.856,11.577Z" transform="translate(11 10)" fill="#fff" stroke="#fff" stroke-miterlimit="10" stroke-width="0.25"/>
    </g>
  </g>
</svg>
