<svg xmlns="http://www.w3.org/2000/svg" xmlns:xlink="http://www.w3.org/1999/xlink" width="42.166" height="42.606" viewBox="0 0 42.166 42.606">
  <defs>
    <filter id="Union_73" x="0.747" y="5.381" width="41.419" height="37.225" filterUnits="userSpaceOnUse">
      <feOffset dy="3" input="SourceAlpha"/>
      <feGaussianBlur stdDeviation="3" result="blur"/>
      <feFlood flood-opacity="0.161"/>
      <feComposite operator="in" in2="blur"/>
      <feComposite in="SourceGraphic"/>
    </filter>
  </defs>
  <g id="Pediatric_Endocrinolog" data-name="Pediatric Endocrinolog" transform="translate(-15970 -8089)">
    <path id="Subtraction_142" data-name="Subtraction 142" d="M21,42A21.005,21.005,0,0,1,12.826,1.65a21.005,21.005,0,0,1,16.349,38.7A20.864,20.864,0,0,1,21,42Z" transform="translate(15970 8089)" fill="#6ab654"/>
    <g transform="matrix(1, 0, 0, 1, 15970, 8089)" filter="url(#Union_73)">
      <path id="Union_73-2" data-name="Union 73" d="M14.433,15.861a.261.261,0,0,0-.227-.285,3.363,3.363,0,0,0-1.649.012c-.053.012-.114.148-.114.225-.009.787-.005,1.575-.005,2.362a1.786,1.786,0,0,1,0,.208.352.352,0,0,1-.354.328.347.347,0,0,1-.353-.328,2.784,2.784,0,0,1-.005-.3q0-1.318,0-2.638c0-.335.062-.416.391-.5a4.227,4.227,0,0,1,2.415-.025c.166-.293.315-.571.477-.838a.421.421,0,0,1,.495-.193,1.913,1.913,0,0,0,2.255-1.408c.077-.284.229-.405.446-.356s.318.249.249.532a2.611,2.611,0,0,1-2.716,1.983.322.322,0,0,0-.366.22,2.187,2.187,0,1,0,4.153,1.066c0-.076,0-.15,0-.228-.267-.018-.512-.024-.755-.054-.279-.034-.423-.2-.391-.417s.218-.332.49-.294a2.416,2.416,0,0,0,.941-4.738c-.267-.07-.394-.244-.337-.46s.244-.294.5-.238a3.173,3.173,0,0,1,1.467.787,2.538,2.538,0,0,0-.364-3.9c-.2.237-.4.482-.614.707-.258.268-.46.3-.635.127s-.137-.383.138-.645a2.6,2.6,0,1,0-3.493.09c.047.041.1.076.143.117a.363.363,0,0,1,.089.511.358.358,0,0,1-.531.056A3.123,3.123,0,0,1,15.116,6a.338.338,0,0,0-.313-.242,5.155,5.155,0,0,1-2.165-.94,6.74,6.74,0,0,1-.739-.555.54.54,0,0,1-.169-.353c-.013-1.174-.009-2.345-.005-3.517A.351.351,0,0,1,12.085,0a.359.359,0,0,1,.351.4c0,1.034.008,2.068,0,3.1a.489.489,0,0,0,.237.454,7.2,7.2,0,0,0,1.752.974c.129.044.263.067.419.106,0-.141,0-.247,0-.354a3.212,3.212,0,0,1,1.924-3,3.125,3.125,0,0,1,3.443.385A3.181,3.181,0,0,1,21.42,5.359a.445.445,0,0,0,.2.526,3.3,3.3,0,0,1,.448,4.835c-.046.051-.089.1-.14.166a3.2,3.2,0,0,1,.469,1.673,3.124,3.124,0,0,1-1.927,2.884.282.282,0,0,0-.218.312,2.9,2.9,0,0,1-2.817,2.957H17.36A2.9,2.9,0,0,1,14.433,15.861ZM5.494,18.71a2.9,2.9,0,0,1-2.828-2.947.283.283,0,0,0-.207-.319,3.125,3.125,0,0,1-1.57-4.364.271.271,0,0,0-.044-.373,3.3,3.3,0,0,1,.5-4.859A.358.358,0,0,0,1.5,5.414,3.187,3.187,0,0,1,2.7,2.077,3.124,3.124,0,0,1,6.16,1.69,3.215,3.215,0,0,1,8.074,4.746c0,.077,0,.154,0,.231,0,.007.008.013.033.054a3.476,3.476,0,0,0,.352-.085,6.71,6.71,0,0,0,1.919-1.1.369.369,0,0,0,.095-.26c.006-1.033,0-2.067.005-3.1a.741.741,0,0,1,.034-.272.29.29,0,0,1,.368-.2.785.785,0,0,1,.3.275c.035.045.014.135.014.2,0,1.1-.005,2.206,0,3.308a.62.62,0,0,1-.272.547,6.423,6.423,0,0,1-2.6,1.363.748.748,0,0,0-.636.5,2.812,2.812,0,0,1-.9,1.1A.379.379,0,0,1,6.216,7.3c-.137-.173-.1-.381.128-.556a2.6,2.6,0,1,0-3.4-.18l.05.048c.23.218.266.426.1.6s-.373.154-.6-.079-.428-.481-.645-.729a2.52,2.52,0,0,0-.382,3.883A3.264,3.264,0,0,1,2.82,9.527a1.761,1.761,0,0,1,.225-.05.351.351,0,0,1,.4.271.339.339,0,0,1-.238.418c-.166.06-.341.1-.5.168a2.413,2.413,0,0,0,1.311,4.6c.208-.031.389-.022.493.191a.341.341,0,0,1-.259.492c-.271.047-.549.057-.866.086a4.023,4.023,0,0,0,.056.551,2.08,2.08,0,0,0,1.636,1.67,2.06,2.06,0,0,0,2.207-.77,2.128,2.128,0,0,0,.259-2.309.3.3,0,0,0-.35-.21,2.6,2.6,0,0,1-2.724-2,.577.577,0,0,1,.053-.389A.338.338,0,0,1,5.1,12.3a.763.763,0,0,1,.06.174,1.906,1.906,0,0,0,2.247,1.419.446.446,0,0,1,.527.22c.154.256.292.522.449.809a4.308,4.308,0,0,1,2.454.036c.283.075.356.167.356.455q0,1.435,0,2.87c0,.268-.13.423-.347.429s-.367-.156-.368-.433c0-.818-.005-1.636,0-2.453,0-.174-.049-.242-.225-.268a3.673,3.673,0,0,0-1.537.015.274.274,0,0,0-.238.3,2.9,2.9,0,0,1-2.917,2.839Zm6.43-4.8a.5.5,0,0,1-.193-.358c-.025-.352-.008-.707-.009-1.062s-.011-.694.005-1.04a.66.66,0,0,1,.119-.358,2.054,2.054,0,0,1,2.17-.663.36.36,0,0,1,.235.574,1.907,1.907,0,0,0,.246,2.331.351.351,0,0,1-.089.584,2.429,2.429,0,0,1-1.222.346A2.581,2.581,0,0,1,11.923,13.908Zm.581-2.462a.286.286,0,0,0-.064.185c0,.533-.005,1.065,0,1.6a.233.233,0,0,0,.094.18,1.655,1.655,0,0,0,1.134.052,2.764,2.764,0,0,1-.266-2.384H13.39A1.213,1.213,0,0,0,12.5,11.446Zm-3.955,2.5c-.291-.159-.322-.385-.105-.643a1.9,1.9,0,0,0,.241-2.255c-.183-.342-.088-.553.3-.64a2,2,0,0,1,2.048.647.676.676,0,0,1,.153.39c.022.346.007.693.007,1.04s0,.709,0,1.064a.4.4,0,0,1-.234.392,2.685,2.685,0,0,1-1.23.321A2.429,2.429,0,0,1,8.55,13.943Zm.693-.484a1.642,1.642,0,0,0,1.1-.039.265.265,0,0,0,.124-.2c.01-.525.006-1.049,0-1.574a.276.276,0,0,0-.041-.172,1.249,1.249,0,0,0-.922-.4A2.765,2.765,0,0,1,9.243,13.459Zm-1.15-3.053a1.466,1.466,0,0,0-.943-.317.321.321,0,0,1-.218-.054c-.086-.085-.193-.2-.194-.3s.106-.287.184-.3a5.092,5.092,0,0,1,.837-.011,1.851,1.851,0,0,1,.344.087,2.286,2.286,0,0,0-.256-1.886c-.248-.4-.243-.467.074-.822a2.9,2.9,0,0,1,3.03-.682.362.362,0,0,1,.24.359c0,.832.007,1.665-.01,2.5a.411.411,0,0,1-.216.283,3.728,3.728,0,0,1-1.9.384c-.161-.014-.234.023-.276.183a2.048,2.048,0,0,1-.188.445.358.358,0,0,1-.309.2A.334.334,0,0,1,8.093,10.406Zm.383-3.149a3.28,3.28,0,0,1,.45,1.5c0,.058.113.162.163.157.424-.05.847-.115,1.266-.194.051-.01.113-.133.115-.205.011-.422.005-.845.005-1.269v-.5a3.2,3.2,0,0,0-.583-.058A1.926,1.926,0,0,0,8.476,7.257Zm5.789,2.957a1.1,1.1,0,0,1-.047-.105c-.172-.446-.172-.459-.659-.452a3.986,3.986,0,0,1-1.646-.406.354.354,0,0,1-.175-.264c-.015-.848-.021-1.7,0-2.544a.449.449,0,0,1,.244-.317,2.818,2.818,0,0,1,3.112.792.414.414,0,0,1,.031.62A2.266,2.266,0,0,0,14.759,9.3a1.327,1.327,0,0,0,.033.134.179.179,0,0,0,.028.048c.3-.04.581-.084.87-.113a.4.4,0,0,1,.266.041c.1.079.214.2.218.308a.47.47,0,0,1-.2.318.607.607,0,0,1-.333.061,1.234,1.234,0,0,0-.749.263.479.479,0,0,1-.281.108A.4.4,0,0,1,14.265,10.213ZM12.439,6.742c0,.622,0,1.237,0,1.85a.159.159,0,0,0,.081.12,2.7,2.7,0,0,0,1.306.2.225.225,0,0,0,.14-.162,3.657,3.657,0,0,1,.467-1.492,1.909,1.909,0,0,0-1.412-.573A3.24,3.24,0,0,0,12.439,6.742Z" transform="translate(10 11.64)" fill="#fff" stroke="#fff" stroke-width="0.5"/>
    </g>
  </g>
</svg>
