<svg xmlns="http://www.w3.org/2000/svg" xmlns:xlink="http://www.w3.org/1999/xlink" width="42.828" height="42.377" viewBox="0 0 42.828 42.377">
  <defs>
    <filter id="Path_27093" x="0" y="4" width="42.828" height="38.377" filterUnits="userSpaceOnUse">
      <feOffset dy="3" input="SourceAlpha"/>
      <feGaussianBlur stdDeviation="3" result="blur"/>
      <feFlood flood-opacity="0.161"/>
      <feComposite operator="in" in2="blur"/>
      <feComposite in="SourceGraphic"/>
    </filter>
  </defs>
  <g id="Physiotherapy" transform="translate(-16363.586 -6937)">
    <g id="Group_20835" data-name="Group 20835" transform="translate(16363.585 6937)">
      <path id="Subtraction_7" data-name="Subtraction 7" d="M21,42A21.005,21.005,0,0,1,12.826,1.65a21.005,21.005,0,0,1,16.349,38.7A20.864,20.864,0,0,1,21,42Z" transform="translate(0.415 0)" fill="#6ab654"/>
    </g>
    <g transform="matrix(1, 0, 0, 1, 16363.59, 6937)" filter="url(#Path_27093)">
      <path id="Path_27093-2" data-name="Path 27093" d="M-1930.354-2597.736a6.938,6.938,0,0,1,.622-1.1,2.424,2.424,0,0,1,2.482-.864,2.54,2.54,0,0,1,2.006,1.8c.027.083.056.167.074.222h2.739v-.317c0-2.543.02-5.086-.009-7.629a3.536,3.536,0,0,1,1.286-3.024,2.832,2.832,0,0,1-.822-2.532,2.723,2.723,0,0,1,1.029-1.734,2.83,2.83,0,0,1,3.729.178,2.855,2.855,0,0,1,.06,4.043c1.375,1.686,2.582,3.489,3.875,5.226a.414.414,0,0,0,.376.194,16.427,16.427,0,0,1,1.649.039,2.192,2.192,0,0,1,1.891,1.928,2.2,2.2,0,0,1-1.5,2.363,3.2,3.2,0,0,1-.833.131c-.672.018-1.344.006-2.016.006h-.271v1.112h6.08a2.216,2.216,0,0,1,2.087,1.173,2.25,2.25,0,0,1-1.815,3.345c-.137.011-.275.011-.413.011-5.353,0-10.706-.014-16.059.012a2.5,2.5,0,0,1-2.643-1.521,2.635,2.635,0,0,1-1.626.122,2.65,2.65,0,0,1-1.93-1.839c-.015-.045-.035-.088-.053-.132Zm12.462-4.961-1.684-2.362,1.18-.843c.061.082.11.145.157.21q.8,1.126,1.61,2.251c.048.066.125.155.191.157.48.013.96.007,1.486.007l-.385-.531c-.809-1.113-1.609-2.232-2.429-3.337a1.731,1.731,0,0,0-1.924-.633,1.789,1.789,0,0,0-1.282,1.8c0,1.481,0,2.963,0,4.445,0,.071.008.141.012.219h2.408A2.209,2.209,0,0,1-1917.892-2602.7Zm.54,8.076h9.418c.065,0,.13,0,.194,0a.807.807,0,0,0,.759-.748.806.806,0,0,0-.626-.841,1.625,1.625,0,0,0-.338-.02h-9.407Zm1.9-5.642h.286c1.182,0,2.364,0,3.545,0a.769.769,0,0,0,.813-.871.779.779,0,0,0-.833-.682q-2.319,0-4.638,0c-.575,0-.814.235-.815.8q0,1.53,0,3.06c0,.079.007.157.012.246h1.63Zm-3.381,4.028h-4.877c-.3,0-.6-.006-.9,0a.791.791,0,0,0-.787.882.793.793,0,0,0,.824.726q2.8.006,5.606,0a.857.857,0,0,0,.146-.026c0-.487,0-.964,0-1.441C-1918.824-2596.128-1918.831-2596.167-1918.838-2596.235Zm1.026-14.468a1.379,1.379,0,0,0-1.381-1.369,1.384,1.384,0,0,0-1.366,1.385,1.386,1.386,0,0,0,1.383,1.37A1.382,1.382,0,0,0-1917.812-2610.7Zm-3.147,12.993h2.381v-2.114h-2.381Zm-6.8,1.773a1.193,1.193,0,0,0,1.183-1.174,1.2,1.2,0,0,0-1.19-1.2,1.2,1.2,0,0,0-1.181,1.178A1.191,1.191,0,0,0-1927.754-2595.937Z" transform="translate(1939.35 2623.53)" fill="#fff"/>
    </g>
  </g>
</svg>
