<svg xmlns="http://www.w3.org/2000/svg" width="42" height="42" viewBox="0 0 42 42">
  <g id="Plastic_Surgery" data-name="Plastic Surgery" transform="translate(-15970 -7081)">
    <path id="Subtraction_99" data-name="Subtraction 99" d="M21,42A21.005,21.005,0,0,1,12.826,1.65a21.005,21.005,0,0,1,16.349,38.7A20.864,20.864,0,0,1,21,42Z" transform="translate(15970 7081)" fill="#6ab654"/>
    <path id="Union_43" data-name="Union 43" d="M9.308,20.706a5.624,5.624,0,0,1-4-1.637,10.7,10.7,0,0,1-3.033-4.83.216.216,0,0,0-.186-.175,2.071,2.071,0,0,1-1.469-1.2A6.344,6.344,0,0,1,0,9.9,1.452,1.452,0,0,1,1.071,8.45c.138-.048.166-.1.144-.249a6,6,0,0,1,.857-4.524A8.164,8.164,0,0,1,5.623.781,9.593,9.593,0,0,1,9.153,0a8.871,8.871,0,0,1,3.063.53,8.138,8.138,0,0,1,4.329,3.33A5.672,5.672,0,0,1,17.363,7.5c-.019.252-.054.5-.091.754-.014.1.013.14.111.177A1.505,1.505,0,0,1,18.5,10.055a6.411,6.411,0,0,1-.631,2.821,2.055,2.055,0,0,1-1.457,1.185.234.234,0,0,0-.2.193A10.38,10.38,0,0,1,12.4,19.688a5.041,5.041,0,0,1-2.955,1.02ZM8.442,1.265A7.224,7.224,0,0,0,4.11,3.151a5.1,5.1,0,0,0-1.681,2.6,6.3,6.3,0,0,0,0,2.569c.06.335.112.672.172,1.027-.37.07-.718.131-1.066.2-.278.058-.35.142-.354.417a5.243,5.243,0,0,0,.52,2.406.956.956,0,0,0,.835.57c.1.01.205.008.308.015.442.03.339-.054.437.37A9.14,9.14,0,0,0,6.62,18.6a4.166,4.166,0,0,0,5.247.016,9.42,9.42,0,0,0,2.6-3.191,7.742,7.742,0,0,0,.785-2.282.184.184,0,0,1,.216-.181c.157,0,.315-.007.472-.02a.96.96,0,0,0,.856-.572,5.282,5.282,0,0,0,.52-2.262c0-.441-.069-.522-.5-.59-.3-.049-.6-.112-.917-.171.014-.1.023-.181.035-.261.082-.554.192-1.107.242-1.665a4.349,4.349,0,0,0-.77-3.119A7.305,7.305,0,0,0,9.3,1.227Q8.88,1.227,8.442,1.265ZM7.116,16.88a.34.34,0,0,1,.168-.5,7.437,7.437,0,0,1,1.184-.446,3.553,3.553,0,0,1,2.843.413,1.257,1.257,0,0,1,.263.274.414.414,0,0,1-.616.409,6.478,6.478,0,0,0-1.094-.391,3.066,3.066,0,0,0-1.939.274c-.1.045-.2.1-.3.136a.522.522,0,0,1-.186.037A.354.354,0,0,1,7.116,16.88Zm1.037-2.8a.4.4,0,0,1,.041-.587q.267-.209.557.1a.677.677,0,0,0,1.16-.014.376.376,0,0,1,.543-.1.39.39,0,0,1,.059.567,1.4,1.4,0,0,1-1.237.645A1.339,1.339,0,0,1,8.153,14.082Zm5.295-1.573a1.9,1.9,0,0,1,.55-.071c.111.018.2.172.344.307l-.826.266C13.49,12.821,13.471,12.677,13.448,12.509Zm-7.311.008.491-.12c.068.137.131.266.214.435L6.222,13C6.191,12.825,6.166,12.681,6.137,12.517Zm5.835.333c.052-.163.1-.305.146-.456.061.012.1.018.139.028.406.1.406.1.319.568Zm-7.381-.11,0,0-.009,0,.12-.416.639.2c-.016.143-.032.288-.05.445A1.142,1.142,0,0,1,4.591,12.74Zm10.116-.872.365-.393.374.286c-.114.131-.239.271-.382.433Zm-11.251.025c-.035-.041-.068-.085-.119-.15.13-.065.263-.191.375-.175.132.02.247.162.378.257-.164.219-.249.324-.335.324S3.6,12.062,3.456,11.894Zm8.058-.355c-.148-.074-.331-.076-.487-.139a.415.415,0,0,1-.235-.2c-.041-.131.055-.238.2-.255.352-.038.707-.065,1.059-.1l0,.08c.4,0,.806,0,1.21,0a2.92,2.92,0,0,0,1.319-.333c.108-.056.229-.092.283.03a.327.327,0,0,1-.053.283,2.822,2.822,0,0,1-2.042.862q-.111.008-.22.008A2.257,2.257,0,0,1,11.514,11.539Zm-5.429.232a3.171,3.171,0,0,1-1.616-.452,4.685,4.685,0,0,1-.5-.421c-.085-.073-.143-.156-.059-.264s.171-.1.291-.055a4.061,4.061,0,0,0,.95.3,7.343,7.343,0,0,0,.923.012c.175-.005.35-.011.525-.008.373,0,.748.023,1.121.047.148.009.3.058.288.249s-.149.207-.3.232a1.715,1.715,0,0,0-.465.145,2.231,2.231,0,0,1-1.045.217Zm4.73-1.763a.374.374,0,0,1-.106-.688.659.659,0,0,1,.271-.136c.795-.137,1.59-.266,2.386-.4a1.369,1.369,0,0,1,.154,0,1.894,1.894,0,0,1,1.354.47c.052.044.122.091.137.149a.692.692,0,0,1,.026.36c-.048.137-.2.153-.335.122-.287-.061-.572-.14-.863-.178a4.067,4.067,0,0,0-1.8.185,5.4,5.4,0,0,1-.984.156l-.034,0A.63.63,0,0,1,10.814,10.008ZM7.034,9.977C6.611,9.9,6.2,9.753,5.776,9.7a3.8,3.8,0,0,0-1.6.168c-.172.053-.333.062-.432-.113s-.01-.318.118-.436a1.909,1.909,0,0,1,1.486-.524c0-.02.005-.04.007-.059.693.122,1.386.238,2.076.366a2.665,2.665,0,0,1,.584.175.391.391,0,0,1,.246.432.36.36,0,0,1-.356.317q-.114,0-.228.005A3.755,3.755,0,0,1,7.034,9.977ZM8.276,8.251c-.1-.094-.188-.19-.3-.3l.338-.334c.085.076.148.126.2.184s.13.151.2.235L8.4,8.346A1.487,1.487,0,0,1,8.276,8.251Zm1.76-.267c.082-.073.154-.142.232-.2.063-.05.132-.091.227-.155L10.783,8c-.124.1-.229.178-.337.257-.038.028-.081.047-.133.077Zm1.335-.862a2.029,2.029,0,0,1,.184-.089c.294-.129.292-.127.392.176.038.114.031.186-.1.237-.176.069-.346.158-.532.246C11.081,7.456,11.1,7.273,11.372,7.122ZM6.81,7.367c.042-.134.087-.279.144-.462.255.125.479.229.695.349a.16.16,0,0,1,.04.155,2.246,2.246,0,0,1-.2.278Zm-3.27-.41c.108-.033.184-.062.263-.079.1-.022.2-.034.3-.052l.1.436a1.452,1.452,0,0,1-.143.055c-.13.034-.26.064-.412.1C3.615,7.264,3.581,7.122,3.541,6.958Zm11.076.328c-.039-.478.06-.527.62-.33-.032.158-.06.3-.093.458ZM12.85,6.964c0-.086-.008-.173-.014-.3.248,0,.472,0,.7,0,.1,0,.153.036.148.142a1.148,1.148,0,0,1-.01.244.178.178,0,0,1-.124.108,1.95,1.95,0,0,1-.218.005,1.934,1.934,0,0,0-.229.008.477.477,0,0,1-.057,0C12.916,7.169,12.855,7.107,12.85,6.964Zm-7.32.178a.7.7,0,0,0-.122,0c-.268.014-.385-.145-.29-.4a.135.135,0,0,1,.1-.072c.242-.006.484,0,.734,0,0,.089.006.1.005.115-.027.316-.035.393-.183.393A2.344,2.344,0,0,1,5.53,7.142Z" transform="translate(15981.5 7091.5)" fill="#fff" stroke="#fff" stroke-miterlimit="10" stroke-width="0.25"/>
  </g>
</svg>
