<svg xmlns="http://www.w3.org/2000/svg" xmlns:xlink="http://www.w3.org/1999/xlink" width="42.657" height="44.155" viewBox="0 0 42.657 44.155">
  <defs>
    <filter id="Union_17" x="0" y="3.48" width="42.657" height="40.674" filterUnits="userSpaceOnUse">
      <feOffset dy="3" input="SourceAlpha"/>
      <feGaussianBlur stdDeviation="3" result="blur"/>
      <feFlood flood-opacity="0.161"/>
      <feComposite operator="in" in2="blur"/>
      <feComposite in="SourceGraphic"/>
    </filter>
  </defs>
  <g id="Primary_Care" data-name="Primary Care" transform="translate(-16169.499 -6361)">
    <g id="Group_20793" data-name="Group 20793" transform="translate(16169.585 6361)">
      <path id="Subtraction_7" data-name="Subtraction 7" d="M21,42A21.005,21.005,0,0,1,12.826,1.65a21.005,21.005,0,0,1,16.349,38.7A20.864,20.864,0,0,1,21,42Z" transform="translate(0.415 0)" fill="#6ab654"/>
    </g>
    <g transform="matrix(1, 0, 0, 1, 16169.5, 6361)" filter="url(#Union_17)">
      <path id="Union_17-2" data-name="Union 17" d="M4.155,12.844a.43.43,0,0,0-.2-.313,3.142,3.142,0,0,1-1.8-1.682,3.746,3.746,0,0,1-.517-1.965,1.156,1.156,0,0,0-.1-.415Q.857,6.393.176,4.317A3.246,3.246,0,0,1,.335,1.822,2.666,2.666,0,0,1,2.029.355c.23-.068.452-.166.681-.236A.926.926,0,0,1,3.793.376.933.933,0,0,1,3.847,1.4a1.1,1.1,0,0,1-1.109.446c-.244-.051-.469-.292-.74-.059a1.688,1.688,0,0,0-.7,1.141,2.519,2.519,0,0,0,.106.956c.465,1.4.9,2.826,1.476,4.186.269.635.525,1.279.8,1.913a2.045,2.045,0,0,0,.3.489,1,1,0,0,0,1.661-.021,7.581,7.581,0,0,0,.546-1.24c.121-.265.268-.517.405-.773a2.9,2.9,0,0,0,.175-.306Q7.458,6.341,8.135,4.55A2.467,2.467,0,0,0,8.018,2.1c-.3-.436-.418-.484-.927-.318A.97.97,0,0,1,5.94,1.431.838.838,0,0,1,6.006.423.852.852,0,0,1,7.152.112a9.58,9.58,0,0,1,1.8,1.122,2.537,2.537,0,0,1,.654,2.733c-.282,1.08-.691,2.126-1.047,3.187-.076.228-.177.449-.238.68-.138.519-.276,1.04-.382,1.565a3.968,3.968,0,0,1-1.962,3,.5.5,0,0,0-.164.406A7.536,7.536,0,0,0,7.3,16.667,8.116,8.116,0,0,0,21.935,12.8a7.98,7.98,0,0,0-1.1-5.06c-.055-.094-.112-.185-.167-.279a.433.433,0,0,1-.025-.068l.141.1,1.137-1.167c.265.5.644,1.114.92,1.769a9.769,9.769,0,0,1-7.243,13.4,9.62,9.62,0,0,1-1.76.163A9.781,9.781,0,0,1,4.155,12.844Zm9.814,4.847a10.155,10.155,0,0,1-4.524-7.357c-.163-1.183-.143-1.184.963-1.587.994-.362,1.985-.733,2.983-1.087.28-.1.577-.15.856-.221a7.211,7.211,0,0,1,.8.186c1.2.425,2.4.864,3.6,1.3a.709.709,0,0,1,.531.83,10.284,10.284,0,0,1-4.592,7.932.553.553,0,0,1-.309.117A.539.539,0,0,1,13.97,17.691ZM11.659,11.81v1.434h1.92v1.876H15V13.2h1.884V11.768H14.954V9.9H13.542c0,.547-.01,1.065,0,1.581.007.248-.068.342-.327.333-.214-.007-.429-.01-.645-.01C12.273,11.806,11.969,11.81,11.659,11.81Zm7.149-4.881a2.537,2.537,0,0,1,.044-5.074,2.537,2.537,0,0,1-.034,5.074Z" transform="translate(9.5 10)" fill="#fff" stroke="rgba(0,0,0,0)" stroke-miterlimit="10" stroke-width="1"/>
    </g>
  </g>
</svg>
