<svg xmlns="http://www.w3.org/2000/svg" xmlns:xlink="http://www.w3.org/1999/xlink" width="42" height="44" viewBox="0 0 42 44">
  <defs>
    <filter id="Union_44" x="3" y="5" width="36.678" height="39" filterUnits="userSpaceOnUse">
      <feOffset dy="3" input="SourceAlpha"/>
      <feGaussianBlur stdDeviation="3" result="blur"/>
      <feFlood flood-opacity="0.161"/>
      <feComposite operator="in" in2="blur"/>
      <feComposite in="SourceGraphic"/>
    </filter>
  </defs>
  <g id="Psychaitry" transform="translate(-16170 -7081)">
    <g id="Group_20824" data-name="Group 20824" transform="translate(16169.585 7081)">
      <path id="Subtraction_7" data-name="Subtraction 7" d="M21,42A21.005,21.005,0,0,1,12.826,1.65a21.005,21.005,0,0,1,16.349,38.7A20.864,20.864,0,0,1,21,42Z" transform="translate(0.415 0)" fill="#6ab654"/>
    </g>
    <g transform="matrix(1, 0, 0, 1, 16170, 7081)" filter="url(#Union_44)">
      <path id="Union_44-2" data-name="Union 44" d="M5.848,21v-.265c0-.994-.005-1.99,0-2.985,0-.2-.06-.246-.244-.237-.281.014-.562,0-.844,0A2.34,2.34,0,0,1,2.349,15.1c0-.68,0-1.359,0-2.039,0-.158-.04-.218-.207-.213-.343.01-.687.012-1.029-.007a1.15,1.15,0,0,1-1.068-.879c-.012-.044-.032-.087-.048-.13v-.288a4.893,4.893,0,0,1,.2-.49q.981-1.785,1.975-3.563a3.214,3.214,0,0,0,.354-.954A8.152,8.152,0,0,1,18.653,8.726a7.988,7.988,0,0,1-4.461,6.736.306.306,0,0,0-.185.318c.005,1.661,0,3.322,0,4.982V21ZM8.2,15.413c-.009,1,0,1.99,0,2.985v.25h3.469v-.282c0-1.352,0-2.7,0-4.055a.324.324,0,0,1,.23-.355c.322-.134.633-.3.951-.441A5.823,5.823,0,1,0,4.8,7.271a2.746,2.746,0,0,1-.365,1.053c-.385.641-.746,1.3-1.116,1.946-.038.067-.069.138-.114.23.445,0,.85.011,1.255,0,.2-.008.249.062.248.257-.008,1.379,0,2.759,0,4.138v.273h.282c.988,0,1.976,0,2.965,0h.009C8.146,15.159,8.206,15.216,8.2,15.413Zm1.128-2.849c-.034-.32-.088-.638-.124-.958a.28.28,0,0,0-.186-.262,1.46,1.46,0,0,1-.411-.23.385.385,0,0,0-.481-.04c-.261.12-.532.219-.8.323-.22.086-.312.057-.427-.14q-.428-.738-.851-1.481c-.119-.211-.1-.285.089-.436.252-.2.5-.405.761-.6a.284.284,0,0,0,.119-.3c-.015-.19.016-.382.008-.574a.356.356,0,0,0-.09-.237c-.25-.213-.516-.409-.777-.61-.191-.148-.219-.249-.1-.456.285-.5.577-1,.863-1.5a.271.271,0,0,1,.382-.127c.312.125.626.245.935.376a.252.252,0,0,0,.3-.035A.708.708,0,0,1,8.8,5.122c.356-.1.437-.357.456-.68.013-.231.058-.462.088-.692a.259.259,0,0,1,.287-.257H11.4a.277.277,0,0,1,.3.27c.047.333.1.665.139,1a.265.265,0,0,0,.179.245,1.042,1.042,0,0,1,.322.178.526.526,0,0,0,.67.053c.23-.118.481-.2.723-.294a.286.286,0,0,1,.4.132q.443.767.886,1.532a1.572,1.572,0,0,1,.072.18A1.167,1.167,0,0,1,14.931,7c-.25.2-.5.4-.765.592a.321.321,0,0,0-.155.325,2.644,2.644,0,0,1,0,.534.312.312,0,0,0,.143.311c.248.185.486.382.727.573.194.156.212.229.094.436-.285.5-.577,1-.858,1.5a.273.273,0,0,1-.392.137c-.311-.128-.625-.246-.933-.381a.248.248,0,0,0-.279.034,1.974,1.974,0,0,1-.442.259.363.363,0,0,0-.242.358c-.032.293-.074.585-.119.876-.039.246-.111.309-.352.31h-.844c-.281,0-.563,0-.843,0h0A.293.293,0,0,1,9.332,12.563ZM8.852,8.184a1.667,1.667,0,1,0,1.668-1.679A1.666,1.666,0,0,0,8.852,8.184Z" transform="translate(12 11)" fill="#fff"/>
    </g>
  </g>
</svg>
