<svg xmlns="http://www.w3.org/2000/svg" xmlns:xlink="http://www.w3.org/1999/xlink" width="42.601" height="42" viewBox="0 0 42.601 42">
  <defs>
    <filter id="Union_45" x="0" y="4.351" width="42.601" height="36.529" filterUnits="userSpaceOnUse">
      <feOffset dy="3" input="SourceAlpha"/>
      <feGaussianBlur stdDeviation="3" result="blur"/>
      <feFlood flood-opacity="0.161"/>
      <feComposite operator="in" in2="blur"/>
      <feComposite in="SourceGraphic"/>
    </filter>
  </defs>
  <g id="Pulmonology" transform="translate(-16363.815 -7081)">
    <g id="Group_20825" data-name="Group 20825" transform="translate(16363.586 7081)">
      <path id="Subtraction_7" data-name="Subtraction 7" d="M21,42A21.005,21.005,0,0,1,12.826,1.65a21.005,21.005,0,0,1,16.349,38.7A20.864,20.864,0,0,1,21,42Z" transform="translate(0.415 0)" fill="#6ab654"/>
    </g>
    <g transform="matrix(1, 0, 0, 1, 16363.82, 7081)" filter="url(#Union_45)">
      <path id="Union_45-2" data-name="Union 45" d="M.15,15.26a7.263,7.263,0,0,1,.151-3.5A33.03,33.03,0,0,1,2.372,6.022a6.354,6.354,0,0,1,2.7-3.057,4.94,4.94,0,0,1,2.337-.7,2.624,2.624,0,0,1,2.6,2.5.265.265,0,0,1-.035.175,2.216,2.216,0,0,1-.88.65,6.175,6.175,0,0,1-.066-.665A1.689,1.689,0,0,0,6.86,3.321,5.121,5.121,0,0,0,3.506,6.006a28.991,28.991,0,0,0-1.854,4.662,11.446,11.446,0,0,0-.635,2.885,4.164,4.164,0,0,0,.451,2.364,2.084,2.084,0,0,0,2.209,1.1,19.015,19.015,0,0,0,3.736-.739,4.015,4.015,0,0,0,2.849-3.45,7.642,7.642,0,0,0-.383-3.915c-.07-.2-.066-.329.129-.455a7.9,7.9,0,0,0,.626-.486c.139.451.266.871.4,1.291a8.014,8.014,0,0,1,.078,4.352,4.728,4.728,0,0,1-3.077,3.493,16.368,16.368,0,0,1-4.326.9q-.2.018-.384.018A3.236,3.236,0,0,1,.15,15.26ZM20.4,18.005a15.523,15.523,0,0,1-4.262-.866,4.851,4.851,0,0,1-3.229-3.863,8.463,8.463,0,0,1,.309-4.509c.074-.217.14-.436.212-.653.007-.023.02-.043.044-.1.265.208.527.4.774.618.033.029.01.146-.012.214a8.743,8.743,0,0,0-.5,2.259,6.856,6.856,0,0,0,.525,3.129,3.824,3.824,0,0,0,2.519,2.074,18.982,18.982,0,0,0,3.577.7,2.321,2.321,0,0,0,2.66-2.192,6.336,6.336,0,0,0-.183-2.794A29.774,29.774,0,0,0,20.6,6.023a4.965,4.965,0,0,0-2.648-2.465,5.3,5.3,0,0,0-.931-.267,1.632,1.632,0,0,0-1.931,1.482c-.024.274-.051.547-.076.822l-.078.054c-.273-.245-.549-.487-.816-.738-.031-.028-.025-.1-.023-.156a2.625,2.625,0,0,1,2.469-2.484,4.907,4.907,0,0,1,2.683.823,6.317,6.317,0,0,1,2.476,2.923,29.163,29.163,0,0,1,2.255,6.625,6,6,0,0,1-.094,2.866,3.121,3.121,0,0,1-3.162,2.51Q20.563,18.017,20.4,18.005Zm-.831-2.474c-.318-.883-.663-1.758-.936-2.655a3.347,3.347,0,0,1-.013-1.715.282.282,0,0,0-.023-.216,1.771,1.771,0,0,0-1.215-.7.924.924,0,0,0-.132.014c-.056.479-.112.955-.168,1.432-.071.6-.137,1.193-.218,1.788a1.349,1.349,0,0,0,.785,1.628c.071.043.095.167.14.252-.1.02-.205.08-.284.052a1.611,1.611,0,0,1-1.178-1.626c0-1.027.014-2.056.073-3.082a2.3,2.3,0,0,0-.978-2.1c-.932-.718-1.827-1.486-2.73-2.242-.234-.2-.436-.431-.663-.659A30.484,30.484,0,0,1,8.472,8.735a2.3,2.3,0,0,0-.808,2.131c.052.947.067,1.9.076,2.845A1.651,1.651,0,0,1,6.579,15.4c-.112.044-.236.1-.306-.051s.041-.211.156-.267a1.3,1.3,0,0,0,.787-1.446c-.134-1.105-.258-2.213-.388-3.32a.366.366,0,0,0-.028-.073,1.679,1.679,0,0,0-1.348.709.2.2,0,0,0-.027.151,4.867,4.867,0,0,1-.346,2.965c-.181.472-.375.94-.568,1.407-.021.05-.075.086-.113.129a.454.454,0,0,1-.031-.18c.179-.671.381-1.337.546-2.012a3.974,3.974,0,0,0,.063-1.67,1.014,1.014,0,0,0-.06-.158c-.144.2-.273.364-.391.538a1.1,1.1,0,0,1-.914.512c-.388.013-.775.013-1.162.007-.062,0-.123-.061-.185-.094.055-.032.107-.087.167-.094.345-.045.69-.085,1.037-.113a.925.925,0,0,0,.753-.5q.448-.738.95-1.443a2.173,2.173,0,0,1,1.5-.9.278.278,0,0,0,.272-.232A3.39,3.39,0,0,1,8.035,7.719c.225-.205.456-.4.72-.637a6.591,6.591,0,0,0-1.857-.1q-.733.051-1.465.095a.454.454,0,0,1-.186-.028.455.455,0,0,1-.114-.1c.04-.029.076-.075.119-.084.585-.13,1.171-.253,1.756-.38a1.1,1.1,0,0,0,.14-.058c-.106-.148-.191-.289-.3-.412a2.347,2.347,0,0,1-.536-1.51c0-.069.059-.14.091-.21.049.061.127.114.143.183A2.253,2.253,0,0,0,7.34,5.8a1.415,1.415,0,0,1,.337.422.233.233,0,0,0,.265.129,7.951,7.951,0,0,1,.97-.028,1.214,1.214,0,0,0,.914-.313,5.877,5.877,0,0,0,1.24-1.664.649.649,0,0,0,.043-.3q0-1.91,0-3.82c0-.069.006-.14.01-.224h1.825V.313c0,1.25,0,2.5,0,3.748a.631.631,0,0,0,.071.338c.35.5.7,1.011,1.084,1.492a1.317,1.317,0,0,0,1.228.478c.32-.028.646-.005.911-.005a4.391,4.391,0,0,1,.49-.581A2.285,2.285,0,0,0,17.5,4.511c.02-.078.109-.139.166-.209a.791.791,0,0,1,.073.247A2.36,2.36,0,0,1,17.2,6.033c-.1.119-.182.254-.311.438.646.139,1.244.266,1.84.4a1.5,1.5,0,0,1,.2.074c-.065.041-.131.121-.2.119q-.768-.026-1.535-.076a6.882,6.882,0,0,0-1.889.1c.092.086.158.146.222.208a13.259,13.259,0,0,1,1.064,1.045,6.654,6.654,0,0,1,.54.962c.043.076.122.173.2.184a2.419,2.419,0,0,1,1.7,1.094c.279.41.553.827.8,1.257a.923.923,0,0,0,.769.514c.338.026.676.064,1.013.108.064.008.122.068.183.105-.064.03-.128.085-.193.085-.355.009-.712.007-1.067,0a1.157,1.157,0,0,1-1.006-.526c-.117-.175-.249-.339-.4-.545a3.263,3.263,0,0,0-.031,1.57c.165.732.377,1.452.568,2.177.023.087.038.177.056.266l-.065.031C19.627,15.588,19.58,15.566,19.568,15.531Z" transform="translate(9.25 10.6)" fill="#fff" stroke="#fff" stroke-width="0.5"/>
    </g>
  </g>
</svg>
