<svg xmlns="http://www.w3.org/2000/svg" xmlns:xlink="http://www.w3.org/1999/xlink" width="42" height="44" viewBox="0 0 42 44">
  <defs>
    <filter id="Path_26816" x="2" y="4" width="38.324" height="40" filterUnits="userSpaceOnUse">
      <feOffset dy="3" input="SourceAlpha"/>
      <feGaussianBlur stdDeviation="3" result="blur"/>
      <feFlood flood-opacity="0.161"/>
      <feComposite operator="in" in2="blur"/>
      <feComposite in="SourceGraphic"/>
    </filter>
  </defs>
  <g id="Radiology" transform="translate(-15970 -5929)">
    <path id="Subtraction_44" data-name="Subtraction 44" d="M21,42A21.005,21.005,0,0,1,12.826,1.65a21.005,21.005,0,0,1,16.349,38.7A20.864,20.864,0,0,1,21,42Z" transform="translate(15970 5929)" fill="#6ab654"/>
    <g transform="matrix(1, 0, 0, 1, 15970, 5929)" filter="url(#Path_26816)">
      <path id="Path_26816-2" data-name="Path 26816" d="M-1540.9,714.819a2.925,2.925,0,0,0-.269-.151,7.849,7.849,0,0,0-2.2-.67,29.632,29.632,0,0,0-3.773-.308.68.68,0,0,0-.745.542.413.413,0,0,0,.186.513,1.37,1.37,0,0,0,.71.211q1.366.05,2.724.189a9.938,9.938,0,0,1,2.079.359c.135.044.325.082.326.25s-.179.216-.315.271a6.4,6.4,0,0,1-1.519.35c-1.849.26-3.712.344-5.574.443-.18.01-.219-.04-.218-.212.008-.963,0-1.926,0-2.889a1.26,1.26,0,0,0-.078-.475.935.935,0,0,0-1.053-.568.924.924,0,0,0-.758.9q-.007,1.544,0,3.087c0,.137-.009.219-.182.2-.271-.022-.543-.02-.814-.03a51.1,51.1,0,0,1-5.112-.418,6.281,6.281,0,0,1-1.437-.315c-.077-.03-.184-.054-.182-.166,0-.1.1-.124.166-.159a2.979,2.979,0,0,1,.775-.241,29.713,29.713,0,0,1,4.289-.445.786.786,0,0,0,.733-.741.546.546,0,0,0-.552-.557c-.235,0-.47.009-.7.019a19.632,19.632,0,0,0-4.03.541,4.64,4.64,0,0,0-1.752.74.962.962,0,0,0-.093,1.555,3.235,3.235,0,0,0,1.6.742c.218.053.441.088.713.141a3.081,3.081,0,0,0-.9.468,1.25,1.25,0,0,0,.154,2.143,4.33,4.33,0,0,0,1.682.477c.022.021.1.01.044.075a2.68,2.68,0,0,0-.866.368,1.117,1.117,0,0,0-.215,1.806,2.593,2.593,0,0,0,1.036.648c.2.074.4.131.632.2-.123.049-.22.083-.312.127a1.392,1.392,0,0,0-.883,1.327,1.4,1.4,0,0,0,.889,1.166,7.406,7.406,0,0,0,2.148.621,26.215,26.215,0,0,0,3,.3c.141.007.186.048.181.191-.011.308-.01.618,0,.926a.192.192,0,0,1-.156.219,2.514,2.514,0,0,1-1.766-.01c-.486-.186-.953-.42-1.446-.591a2.955,2.955,0,0,0-3.349,1.177,1.528,1.528,0,0,0-.215,1.615c.1.2.183.4.294.59a5.975,5.975,0,0,0,3.89,2.624,1.431,1.431,0,0,0,1.47-.437,2.1,2.1,0,0,0,.621-1.281c.007-.076.013-.168.126-.086.305.222.64.419.535.9a2.6,2.6,0,0,0-.006.55.948.948,0,0,0,.938,1.009.959.959,0,0,0,.951-1c0-.309,0-.617,0-.926,0-.072-.015-.148.056-.2.166-.129.331-.26.5-.394.041.195.072.367.114.536a1.745,1.745,0,0,0,.216.48,1.66,1.66,0,0,0,1.969.829,7.319,7.319,0,0,0,.967-.364,5.115,5.115,0,0,0,3.09-2.921,1.328,1.328,0,0,0,0-1.027,2.509,2.509,0,0,0-.68-.99,2.918,2.918,0,0,0-3.292-.546c-.378.161-.756.322-1.138.474a2.421,2.421,0,0,1-1.619.025.211.211,0,0,1-.184-.246c.014-.227,0-.455,0-.683,0-.384,0-.379.375-.385a14.243,14.243,0,0,0,3.6-.443,4.278,4.278,0,0,0,1.834-.916,1.082,1.082,0,0,0,.03-1.783,5.119,5.119,0,0,0-.622-.5.785.785,0,0,1,.294-.108,2.784,2.784,0,0,0,1.525-1.062.792.792,0,0,0-.216-1.252,2.948,2.948,0,0,0-.39-.248c-.227-.119-.461-.225-.711-.345.185-.082.354-.151.519-.23a5.1,5.1,0,0,0,1.546-1,.774.774,0,0,0,.093-1.092,1.832,1.832,0,0,0-.493-.466,4.882,4.882,0,0,0-.851-.432c.235-.037.431-.063.624-.1a3.223,3.223,0,0,0,1.553-.626A1.106,1.106,0,0,0-1540.9,714.819Zm-14.95,16.7a.972.972,0,0,1-.968-.986.971.971,0,0,1,.983-.971.976.976,0,0,1,.981.975A.975.975,0,0,1-1555.847,731.515Zm4.333-5.521a18.908,18.908,0,0,1-4.055-.484,1.92,1.92,0,0,1-.548-.224c-.243-.156-.248-.316,0-.464a3.435,3.435,0,0,1,1.146-.37,23.709,23.709,0,0,1,3.479-.344c.108,0,.123.036.122.124,0,.272,0,.544,0,.815s0,.529,0,.793C-1551.369,725.948-1551.391,726-1551.514,725.994Zm.145-4.678c-.012.242,0,.485,0,.727s-.007.515,0,.772c0,.132-.03.18-.17.174-.844-.035-1.687-.064-2.528-.147a13.832,13.832,0,0,1-2.344-.379,1.768,1.768,0,0,1-.566-.236c-.182-.129-.184-.258,0-.379a2.962,2.962,0,0,1,1.058-.354,23.559,23.559,0,0,1,3.611-.372c.242-.01.485-.007.726-.03C-1551.394,721.075-1551.362,721.154-1551.37,721.316Zm0-3.069c-.02.233,0,.469,0,.7,0,.272,0,.543,0,.815,0,.108-.038.139-.141.135a34.674,34.674,0,0,1-5.057-.436,3.47,3.47,0,0,1-1.005-.307c-.091-.048-.193-.1-.187-.221s.1-.159.184-.2a4.429,4.429,0,0,1,1.33-.366,35.047,35.047,0,0,1,4.625-.368C-1551.43,717.994-1551.35,718.035-1551.368,718.246Zm6.3,11.311a.979.979,0,0,1,.967.99.981.981,0,0,1-.991.967,1,1,0,0,1-.985-.98A.992.992,0,0,1-1545.064,729.558Zm.37-4.226a4.125,4.125,0,0,1-1.178.346,23.605,23.605,0,0,1-3.416.318c-.15,0-.208-.027-.2-.188.014-.256,0-.514,0-.771s0-.529,0-.794c0-.1.03-.146.138-.141a20.249,20.249,0,0,1,4.168.487,2.96,2.96,0,0,1,.491.19c.118.055.253.12.25.277S-1544.578,725.272-1544.694,725.332Zm.761-3.075a3.258,3.258,0,0,1-1.063.337,25.042,25.042,0,0,1-3.87.374c-.146.005-.293.006-.439.021s-.187-.049-.182-.189c.01-.256,0-.514,0-.77s.005-.514,0-.77c0-.121.029-.168.158-.164a24.28,24.28,0,0,1,4.759.489,2.176,2.176,0,0,1,.636.237C-1543.687,721.968-1543.687,722.112-1543.933,722.257Zm.832-3.116a3.317,3.317,0,0,1-1.045.325,23.6,23.6,0,0,1-3.236.352c-.615.032-1.232.049-1.847.084-.193.011-.278-.032-.259-.247.021-.233,0-.47,0-.7,0-.257.006-.514,0-.771,0-.128.024-.181.168-.179a38.534,38.534,0,0,1,4.063.253,10.549,10.549,0,0,1,1.708.314,1.822,1.822,0,0,1,.448.181C-1542.885,718.879-1542.881,719.015-1543.1,719.141Z" transform="translate(1571.62 -702.66)" fill="#fff"/>
    </g>
  </g>
</svg>
