<svg xmlns="http://www.w3.org/2000/svg" xmlns:xlink="http://www.w3.org/1999/xlink" width="42" height="42" viewBox="0 0 42 42">
  <defs>
    <filter id="Union_84" x="3.775" y="5.775" width="35.953" height="35.954" filterUnits="userSpaceOnUse">
      <feOffset dy="3" input="SourceAlpha"/>
      <feGaussianBlur stdDeviation="3" result="blur"/>
      <feFlood flood-opacity="0.161"/>
      <feComposite operator="in" in2="blur"/>
      <feComposite in="SourceGraphic"/>
    </filter>
  </defs>
  <g id="Rheumatology" transform="translate(-16364 -8377)">
    <g id="Group_20877" data-name="Group 20877" transform="translate(16363.585 8377)">
      <path id="Subtraction_7" data-name="Subtraction 7" d="M21,42A21.005,21.005,0,0,1,12.826,1.65a21.005,21.005,0,0,1,16.349,38.7A20.864,20.864,0,0,1,21,42Z" transform="translate(0.415 0)" fill="#6ab654"/>
    </g>
    <g transform="matrix(1, 0, 0, 1, 16364, 8377)" filter="url(#Union_84)">
      <path id="Union_84-2" data-name="Union 84" d="M10.8,17.5C9.5,17.5,8.2,17.5,6.893,17.5H5.332c-.414,0-.464-.052-.467-.478q-.019-2.769-.036-5.536c-.006-.883-.293-1.162-1.172-1.163-1.071,0-2.142-.006-3.212.005-.321,0-.446-.112-.445-.44C.008,7.313,0,4.739.005,2.165c0-.38.071-.446.44-.4q2.919.319,5.837.642c.189.022.436.021.416.293-.022.3-.271.248-.474.226l-5.43-.6C.719,2.308.642,2.307.542,2.3V4.924H.868c1.276,0,2.552,0,3.828,0a.528.528,0,0,0,.458-.215,1.31,1.31,0,0,1,1.322-.453,1.088,1.088,0,0,1,.839.936q.321,1.43.592,2.87a.975.975,0,0,1-.362,1.039.939.939,0,0,1-1.1.043,8.621,8.621,0,0,1-1.2-.943.72.72,0,0,0-.562-.235c-.421.016-.842.008-1.264,0-.03,0-.061,0-.093,0-.192,0-.4.01-.412-.256s.2-.272.392-.266l.093,0c.163,0,.326,0,.49,0,.3,0,.607.007.911-.009a.845.845,0,0,1,.761.337,5.747,5.747,0,0,0,.858.773,1.123,1.123,0,0,0,.5.194.362.362,0,0,0,.466-.4,3.441,3.441,0,0,0-.076-.642c-.13-.668-.272-1.336-.409-2a3.363,3.363,0,0,0-.081-.366c-.083-.264-.173-.535-.5-.582a.766.766,0,0,0-.83.35.679.679,0,0,1-.708.34c-1.287-.011-2.574,0-3.861,0H.542V7.453c.488,0,.963,0,1.438,0,.2,0,.4.016.4.258s-.209.258-.4.257H.551V9.786c.114.006.235.018.355.018H2.135c.547,0,1.094,0,1.641,0a1.417,1.417,0,0,1,1.563,1.568q.02,2.6.046,5.193c0,.122.01.245.016.391H6.832c.006-.1.02-.2.02-.3,0-1.241.007-2.483-.007-3.724A.714.714,0,0,0,6.66,12.5a1.582,1.582,0,0,1-.5-1.289A1.261,1.261,0,0,1,7.717,10.09a2.993,2.993,0,0,0,1.348.023,1.238,1.238,0,0,1,1.485,1.749,4.626,4.626,0,0,1-.681.955c-.074.1-.182.22-.183.331-.012,1.229-.005,2.461,0,3.69a.509.509,0,0,0,.032.119h1.076q.177-1.068.356-2.141a1.1,1.1,0,0,1,.072-.365,1.512,1.512,0,0,1,.3-.292c.064.125.2.26.18.376-.084.666-.2,1.327-.31,1.989a4.865,4.865,0,0,0-.09.538c-.014.327-.164.443-.488.443ZM6.676,11.223a.948.948,0,0,0,.411.951.763.763,0,0,1,.3.677c-.014,1.241-.005,2.483-.005,3.724v.387H9.164v-.394c0-1.162.007-2.324-.005-3.485a.636.636,0,0,1,.31-.621,1.264,1.264,0,0,0,.649-1.3c-.068-.478-.308-.668-.769-.581a3.805,3.805,0,0,1-1.786.007.739.739,0,0,0-.2-.028A.73.73,0,0,0,6.676,11.223Zm4.736,2.1c.07-.587.207-1.165.266-1.754.089-.893.133-1.792.2-2.688l-.032,0a16.468,16.468,0,0,0-.021-2.45,3.947,3.947,0,0,0-3.54-3.28,6.069,6.069,0,0,1-.811-.1c-.1-.023-.156-.182-.232-.279.1-.075.2-.217.294-.212a5.043,5.043,0,0,1,3.659,1.5A4.233,4.233,0,0,1,12.421,7.04a31.539,31.539,0,0,1-.508,6.252c-.007.033,0,.08-.017.1-.087.088-.182.168-.274.251C11.548,13.534,11.4,13.417,11.412,13.319ZM15.28,9.685c-.576-.268-1.174-.489-1.752-.752-.111-.05-.176-.2-.264-.3.105-.082.2-.212.318-.239.352-.086.714-.133,1.065-.194.018-.026.041-.044.042-.063.021-.563.02-.563.6-.557s1.183,0,1.774.017a1.787,1.787,0,0,1,.437.131V9.5a2.073,2.073,0,0,1-.544,0c-.315-.084-.617-.218-.922-.329-.022.032-.046.05-.044.068.039.407-.028.59-.244.59A1.228,1.228,0,0,1,15.28,9.685Zm-.207-1.076a1.77,1.77,0,0,1-.615.165l.981.407c.007-.1.013-.142.013-.187,0-.49.1-.554.574-.379l.942.347V8.114H15.3C15.227,8.292,15.2,8.509,15.073,8.609Zm-6.26-.3A1.9,1.9,0,0,1,8.392,7,1.908,1.908,0,0,1,8.8,5.729a.883.883,0,0,1,1.44,0A2.2,2.2,0,0,1,10.229,8.3a.878.878,0,0,1-1.417,0Zm.366-2.228a1.706,1.706,0,0,0,0,1.862c.219.267.5.289.67,0a6,6,0,0,0,.363-.925,5.977,5.977,0,0,0-.363-.926.371.371,0,0,0-.313-.215A.486.486,0,0,0,9.179,6.078Zm4.069.595a.365.365,0,0,1,.014-.333c.266-.423.555-.831.831-1.236-.013-.037-.014-.066-.029-.077-.656-.523-.41-.554-.021-.955.508-.524,1.022-1.039,1.534-1.556.3-.308.37-.305.693,0L17.5,3.69v.274l-1.619.8c.147.133.274.241.392.359.212.21.2.386-.068.5Q14.9,6.2,13.573,6.741a.241.241,0,0,1-.089.015A.334.334,0,0,1,13.248,6.673Zm1.077-2.128a1.3,1.3,0,0,0,.149.137.384.384,0,0,1,.092.653c-.127.157-.23.335-.345.5l.057.058,1.4-.6c-.107-.1-.171-.165-.238-.226-.414-.379-.4-.487.123-.734l1.144-.546-.731-.84Zm-2.064-.663c-.084-.34-.124-.69-.179-1.023-.037-.021-.056-.041-.075-.041-.559-.014-.558-.014-.55-.58.007-.6,0-1.2.026-1.805A1.633,1.633,0,0,1,11.625,0h1.708A1.291,1.291,0,0,1,13.4.485a10.433,10.433,0,0,1-.351.993c.777.122.777.122.47.846-.229.544-.448,1.092-.7,1.626-.056.121-.212.193-.322.288C12.422,4.12,12.293,4.011,12.262,3.881Zm.44-.937c.121-.287.24-.575.369-.88-.088-.006-.132-.013-.177-.013-.522-.005-.571-.081-.386-.587.11-.3.217-.6.331-.923h-.846V2.3a.827.827,0,0,1,.244-.044C12.6,2.251,12.564,2.666,12.7,2.944Z" transform="translate(13 12)" fill="#fff" stroke="#fff" stroke-width="0.45"/>
    </g>
  </g>
</svg>
