<svg xmlns="http://www.w3.org/2000/svg" xmlns:xlink="http://www.w3.org/1999/xlink" width="42" height="43.601" viewBox="0 0 42 43.601">
  <defs>
    <filter id="Union_47" x="0.851" y="3.85" width="40.09" height="39.75" filterUnits="userSpaceOnUse">
      <feOffset dy="3" input="SourceAlpha"/>
      <feGaussianBlur stdDeviation="3" result="blur"/>
      <feFlood flood-opacity="0.161"/>
      <feComposite operator="in" in2="blur"/>
      <feComposite in="SourceGraphic"/>
    </filter>
  </defs>
  <g id="Surgery" transform="translate(-16170 -7225)">
    <g id="Group_20819" data-name="Group 20819" transform="translate(16169.585 7225)">
      <path id="Subtraction_7" data-name="Subtraction 7" d="M21,42A21.005,21.005,0,0,1,12.826,1.65a21.005,21.005,0,0,1,16.349,38.7A20.864,20.864,0,0,1,21,42Z" transform="translate(0.415 0)" fill="#6ab654"/>
    </g>
    <g transform="matrix(1, 0, 0, 1, 16170, 7225)" filter="url(#Union_47)">
      <g id="Union_47-2" data-name="Union 47" transform="translate(10 10)" fill="#fff">
        <path d="M 13.32260990142822 21.52569007873535 L 13.32260036468506 21.52569007873535 C 13.06645011901855 21.52570152282715 12.80300998687744 21.46788024902344 12.53960037231445 21.35383033752441 C 11.83650970458984 21.05083084106445 11.43097019195557 20.46327018737793 11.36693000793457 19.65472030639648 C 11.3606595993042 19.57755088806152 11.36229991912842 19.50057029724121 11.36402988433838 19.41907119750977 C 11.36437225341797 19.40294647216797 11.36472129821777 19.38652038574219 11.36501884460449 19.36972618103027 C 11.32668113708496 19.37125205993652 11.28872680664062 19.37202072143555 11.25152015686035 19.37202072143555 C 10.66504001617432 19.37204170227051 10.17523002624512 19.17959022521973 9.795670509338379 18.8000316619873 C 9.381422996520996 18.38493156433105 9.189502716064453 17.85906982421875 9.224494934082031 17.23600959777832 C 8.112165451049805 17.23322105407715 7.40137243270874 16.70688819885254 7.110185623168945 15.671142578125 C 6.938621520996094 15.81574153900146 6.839868068695068 15.93997383117676 6.858950138092041 16.17226028442383 C 6.889900207519531 16.53734016418457 6.878530025482178 16.90964126586914 6.86752986907959 17.26969146728516 L 6.862770080566406 17.42971038818359 C 6.861299991607666 17.49006080627441 6.847790241241455 17.69645118713379 6.736100196838379 17.80676078796387 C 6.525949954986572 18.01389122009277 6.314280033111572 18.22737121582031 6.109580039978027 18.43381118774414 C 5.518939971923828 19.02949142456055 4.908190250396729 19.64545059204102 4.253700256347656 20.19063186645508 C 3.236740112304688 21.03680038452148 1.961750030517578 21.48110008239746 0.4641100466251373 21.51118087768555 L 0.4392700493335724 21.51142120361328 C 0.08232004940509796 21.51143074035645 -0.07039994746446609 21.3528003692627 -0.07139994949102402 20.98100090026855 C -0.07167994976043701 20.66594123840332 -0.07142995297908783 20.35091018676758 -0.07117994874715805 20.03586196899414 C -0.07062994688749313 19.36478042602539 -0.07006994634866714 18.67085075378418 -0.07499995082616806 17.98884010314941 C -0.07596994936466217 17.77828025817871 -0.007519949693232775 17.61604118347168 0.1469400525093079 17.46259117126465 C 0.9201300740242004 16.6922607421875 1.692390084266663 15.92059135437012 2.464570045471191 15.149001121521 C 3.151040077209473 14.46306133270264 3.837440013885498 13.77717113494873 4.524449825286865 13.0922908782959 C 4.564393520355225 13.05233860015869 4.611329555511475 13.02419090270996 4.658078193664551 12.99833583831787 C 4.639450073242188 12.99315166473389 4.620821952819824 12.98794174194336 4.602190017700195 12.98273086547852 C 4.564529895782471 12.97219085693359 4.526860237121582 12.96165084838867 4.489190101623535 12.951340675354 C 3.816240072250366 12.76131057739258 3.304559946060181 12.24938106536865 3.119869947433472 11.58175086975098 C 2.941310167312622 10.93626117706299 3.108799934387207 10.26007080078125 3.567919969558716 9.772960662841797 C 4.1603102684021 9.145140647888184 4.786839962005615 8.530941009521484 5.392740249633789 7.93696117401123 C 5.66526985168457 7.669801235198975 5.947080135345459 7.393540859222412 6.221879959106445 7.119861125946045 L 6.275800228118896 7.066151142120361 L 6.328710079193115 7.120861053466797 C 6.399809837341309 7.194371223449707 6.471260070800781 7.268590927124023 6.543720245361328 7.343851089477539 C 6.633590221405029 7.437201023101807 6.724989891052246 7.532151222229004 6.819159984588623 7.629301071166992 L 6.870540142059326 7.682321071624756 L 6.81833028793335 7.734530925750732 C 5.992660045623779 8.560211181640625 5.138880252838135 9.41399097442627 4.289219856262207 10.26005077362061 C 3.975100040435791 10.57326126098633 3.864560127258301 10.91471099853516 3.951300144195557 11.30388069152832 C 4.063509941101074 11.80642127990723 4.496119976043701 12.15742111206055 5.003320217132568 12.15742111206055 C 5.252590179443359 12.15742111206055 5.490829944610596 12.07178115844727 5.692299842834473 11.90976142883301 C 5.741519927978516 11.87072086334229 5.786370277404785 11.82586097717285 5.833869934082031 11.77837085723877 C 7.93986988067627 9.673260688781738 10.04496002197266 7.56817102432251 12.15005970001221 5.462181091308594 C 12.15698528289795 5.455420970916748 12.16386890411377 5.448539257049561 12.17070579528809 5.441579818725586 C 11.98162364959717 5.442601203918457 11.7922191619873 5.442601203918457 11.6028003692627 5.442601203918457 L 11.56676006317139 5.442601203918457 L 11.53071975708008 5.442601203918457 C 11.04187965393066 5.442601203918457 10.48781967163086 5.442601203918457 9.953089714050293 5.4811110496521 C 9.352230072021484 5.522931098937988 8.783180236816406 5.796421051025391 8.261569976806641 6.293971061706543 C 8.083609580993652 6.464460849761963 7.909649848937988 6.645801067352295 7.741430282592773 6.821170806884766 C 7.666679859161377 6.899091243743896 7.592170238494873 6.976770877838135 7.51740026473999 7.053461074829102 L 7.463980197906494 7.108251094818115 L 7.410270214080811 7.053730964660645 C 7.294970035552979 6.936690807342529 7.186009883880615 6.825621128082275 7.07017993927002 6.707551002502441 L 6.869289875030518 6.502851009368896 L 6.813129901885986 6.445671081542969 L 6.873909950256348 6.393431186676025 C 7.010910034179688 6.275650978088379 7.149610042572021 6.151551246643066 7.283740043640137 6.031540870666504 C 7.604490280151367 5.744561195373535 7.936150074005127 5.447801113128662 8.293910026550293 5.191441059112549 C 8.862990379333496 4.783000946044922 9.564949989318848 4.57387113571167 10.38022994995117 4.569900989532471 C 10.71333026885986 4.568100929260254 11.04736042022705 4.568100929260254 11.38049983978271 4.568100929260254 L 11.54730987548828 4.568120956420898 L 11.7140998840332 4.568140983581543 C 12.08584022521973 4.568140983581543 12.48213958740234 4.567720890045166 12.88076019287109 4.562711238861084 C 12.9727897644043 4.561211109161377 13.09045028686523 4.513121128082275 13.15419006347656 4.450850963592529 C 13.78542041778564 3.833681106567383 14.41849040985107 3.197120904922485 15.03071022033691 2.581521034240723 L 15.19373035430908 2.417611122131348 C 15.22646999359131 2.38434100151062 15.25434970855713 2.341660976409912 15.28662014007568 2.292241096496582 C 15.3033504486084 2.266621112823486 15.32087993621826 2.239820957183838 15.34045028686523 2.21212100982666 L 15.394700050354 2.135340929031372 L 15.45750999450684 2.205291032791138 C 15.56031036376953 2.319791078567505 15.65097045898438 2.420290946960449 15.73777961730957 2.516530990600586 C 15.81132984161377 2.598081111907959 15.88212966918945 2.676561117172241 15.95518970489502 2.75787091255188 L 16.00271987915039 2.810770988464355 L 15.95242023468018 2.861051082611084 L 11.02614593505859 7.784687995910645 C 11.02726554870605 7.784696578979492 11.02838325500488 7.784700870513916 11.02950000762939 7.784700870513916 C 11.23630046844482 7.784700870513916 11.44313049316406 7.784881114959717 11.6499605178833 7.785060882568359 C 11.85675048828125 7.785231113433838 12.0635404586792 7.78541088104248 12.27029991149902 7.78541088104248 C 12.57001781463623 7.78541088104248 12.93603515625 7.785072326660156 13.32084369659424 7.783004760742188 L 13.27507019042969 7.737231254577637 C 13.07349967956543 7.535661220550537 12.84582996368408 7.307991027832031 12.60015964508057 7.063230991363525 L 12.5467700958252 7.010031223297119 L 12.60023975372314 6.956901073455811 C 12.67037963867188 6.887200832366943 12.74435043334961 6.813230991363525 12.81832027435303 6.73927116394043 C 12.89239978790283 6.665181159973145 12.96648025512695 6.591101169586182 13.03674030303955 6.521300792694092 L 13.08979988098145 6.468571186065674 L 13.14266967773438 6.521501064300537 L 13.83747005462646 7.217201232910156 L 13.89299964904785 7.272800922393799 L 13.83487033843994 7.325681209564209 C 13.69532012939453 7.452630996704102 13.52875995635986 7.603880882263184 13.37839984893799 7.73983097076416 L 13.33070850372314 7.782951831817627 C 13.49193859100342 7.782073974609375 13.65637874603271 7.780890941619873 13.82056999206543 7.779301166534424 C 13.90414047241211 7.778541088104248 14.00706005096436 7.739561080932617 14.06002044677734 7.68864107131958 C 15.39463996887207 6.396000862121582 16.74797058105469 5.077630996704102 18.05673980712891 3.802660942077637 L 19.19778060913086 2.691271066665649 C 19.52079963684082 2.376380920410156 19.63496971130371 2.029191017150879 19.5467700958252 1.629881024360657 C 19.43993949890137 1.142081022262573 19.01827049255371 0.7881410121917725 18.54408073425293 0.7881410121917725 C 18.3922004699707 0.7881410121917725 18.24365043640137 0.8235610127449036 18.10257911682129 0.8934110403060913 C 17.85185050964355 1.017641067504883 17.62936973571777 1.221711039543152 17.41422080993652 1.419061064720154 C 17.38229942321777 1.448341012001038 17.35047912597656 1.477521061897278 17.31867980957031 1.50636100769043 C 17.16575050354004 1.645871043205261 17.02216911315918 1.803351044654846 16.88331985473633 1.955651044845581 C 16.81088066101074 2.035110950469971 16.73596954345703 2.117280960083008 16.66007995605469 2.196561098098755 C 16.6313591003418 2.22602105140686 16.59976959228516 2.247920989990234 16.56632041931152 2.271100997924805 C 16.55083084106445 2.281841039657593 16.53429985046387 2.293271064758301 16.51679992675781 2.306401014328003 L 16.45965957641602 2.349261045455933 L 16.41406059265137 2.294270992279053 C 16.32073020935059 2.181710958480835 16.22989082336426 2.073060989379883 16.1314697265625 1.955340981483459 L 15.94709968566895 1.734641075134277 L 15.9015998840332 1.680081009864807 L 15.95361042022705 1.631690979003906 C 16.10445022583008 1.491351008415222 16.25416946411133 1.343991041183472 16.39895057678223 1.201490998268127 C 16.72522926330566 0.8803510069847107 17.06262016296387 0.5482710003852844 17.43539047241211 0.2743610143661499 C 17.74675941467285 0.04600102081894875 18.11907005310059 -0.07468897849321365 18.51213073730469 -0.07468897849321365 C 19.08078956604004 -0.07468897849321365 19.63528060913086 0.1839510202407837 19.99538040161133 0.6171610355377197 C 20.61940956115723 1.367891073226929 20.57755088806152 2.482650995254517 19.89801025390625 3.210191011428833 C 19.56298065185547 3.569111108779907 19.22190093994141 3.928700923919678 18.89204978942871 4.276451110839844 C 18.8009033203125 4.372538566589355 18.71010398864746 4.468267440795898 18.61978721618652 4.563601016998291 L 21.4281005859375 4.563601016998291 L 21.50309944152832 4.563601016998291 L 21.50309944152832 4.638600826263428 L 21.50309944152832 5.357700824737549 L 21.50309944152832 5.432701110839844 L 21.4281005859375 5.432701110839844 L 21.18689918518066 5.432701110839844 L 20.47236061096191 5.432381153106689 L 19.75782012939453 5.432061195373535 C 19.17831993103027 5.432061195373535 18.49167060852051 5.432890892028809 17.79276084899902 5.439001083374023 C 17.69581985473633 5.439751148223877 17.56967926025391 5.491150856018066 17.49926948547363 5.558570861816406 C 17.00090980529785 6.034440994262695 16.49961090087891 6.523321151733398 16.01481056213379 6.996100902557373 C 15.77793025970459 7.227110862731934 15.54106044769287 7.45810079574585 15.30362987518311 7.688520908355713 C 15.26933097839355 7.721831321716309 15.23150062561035 7.74973201751709 15.19339179992676 7.77570104598999 L 17.85330009460449 7.77570104598999 L 17.92830085754395 7.77570104598999 L 17.92830085754395 7.850700855255127 L 17.92830085754395 8.574300765991211 L 17.92830085754395 8.649300575256348 L 17.85330009460449 8.649300575256348 L 17.59499931335449 8.649300575256348 C 16.94758987426758 8.649300575256348 16.3000602722168 8.64906120300293 15.65248966217041 8.648811340332031 C 15.00489044189453 8.648571014404297 14.35723972320557 8.648330688476562 13.70965957641602 8.648330688476562 C 12.84619045257568 8.648330688476562 11.98291969299316 8.648760795593262 11.11962985992432 8.650200843811035 C 10.34016990661621 8.651050567626953 9.728300094604492 9.242791175842285 9.72659969329834 9.997370719909668 C 9.725749969482422 10.74220085144043 10.34957027435303 11.35167121887207 11.11721038818359 11.35590076446533 C 11.78660011291504 11.35903072357178 12.39457035064697 11.36055088043213 12.97581005096436 11.36055088043213 C 13.75168991088867 11.36055088043213 14.46551990509033 11.35785102844238 15.15810012817383 11.3523006439209 L 15.16777038574219 11.35227108001709 C 15.45507049560547 11.35227108001709 15.65388011932373 11.44261074066162 15.83252048492432 11.65433120727539 C 16.50423049926758 12.45080089569092 17.10732078552246 13.07696056365967 17.86737060546875 13.54410076141357 C 18.92011070251465 14.18982124328613 20.07254981994629 14.53554058074951 21.2926197052002 14.57163143157959 C 21.32209968566895 14.57224082946777 21.35223960876465 14.57450103759766 21.38965034484863 14.57737064361572 C 21.40727043151855 14.57871055603027 21.42658996582031 14.58019065856934 21.44845962524414 14.5816707611084 L 21.51840019226074 14.58640098571777 L 21.51840019226074 14.65650081634521 L 21.51840019226074 14.9940013885498 L 21.51840019226074 15.37380123138428 L 21.51840019226074 15.45462131500244 L 21.43781089782715 15.4485912322998 C 21.33654022216797 15.44102096557617 21.23607063293457 15.43503093719482 21.13629913330078 15.4290714263916 C 20.92032051086426 15.41619110107422 20.69699096679688 15.40287113189697 20.48019981384277 15.37342071533203 C 18.51256942749023 15.10543060302734 16.87239074707031 14.20276069641113 15.60521030426025 12.69047069549561 C 15.31321048736572 12.34280109405518 15.0400505065918 12.20732116699219 14.63100051879883 12.20732116699219 C 14.6072998046875 12.20732116699219 14.58322048187256 12.20780086517334 14.55858039855957 12.20874118804932 C 14.01506042480469 12.22925090789795 13.45419025421143 12.23965072631836 12.89150047302246 12.23966121673584 C 12.31288051605225 12.23966121673584 11.71518039703369 12.22866058349609 11.114990234375 12.20695114135742 C 11.09628009796143 12.20628070831299 11.07789039611816 12.20595073699951 11.05986976623535 12.20595073699951 C 10.75827026367188 12.20595073699951 10.54901027679443 12.29937076568604 10.31350994110107 12.53915119171143 C 9.721010208129883 13.14123058319092 9.013999938964844 13.84910106658936 8.262129783630371 14.5346212387085 C 8.077170372009277 14.70250129699707 7.96028995513916 14.96999073028564 7.949359893798828 15.25028133392334 C 7.938149929046631 15.53789138793945 8.037879943847656 15.80865097045898 8.230179786682129 16.01266098022461 C 8.43988037109375 16.23500061035156 8.733030319213867 16.3625316619873 9.034440040588379 16.3625316619873 C 9.296339988708496 16.3625316619873 9.544380187988281 16.26612091064453 9.73285961151123 16.09105110168457 C 9.978119850158691 15.86263084411621 10.21846961975098 15.6190710067749 10.45090007781982 15.38352108001709 C 10.55412006378174 15.27892112731934 10.65736961364746 15.17430114746094 10.76144027709961 15.07050132751465 L 11.15618991851807 14.67588138580322 C 11.67378997802734 14.15857124328613 12.20901012420654 13.62365055084229 12.73305034637451 13.09529113769531 C 12.76447010040283 13.06386089324951 12.78913021087646 13.01955127716064 12.81768989562988 12.96823120117188 C 12.83255958557129 12.94152069091797 12.84809017181396 12.91367149353027 12.86569023132324 12.88533115386963 L 12.91802978515625 12.80105113983154 L 12.98484039306641 12.87439060211182 C 13.18739032745361 13.09675121307373 13.33683013916016 13.26149082183838 13.50247001647949 13.4442310333252 L 13.54864025115967 13.49516105651855 L 13.50191020965576 13.54558086395264 L 13.47630977630615 13.57343101501465 C 13.4432201385498 13.6095609664917 13.4020299911499 13.65453147888184 13.3577299118042 13.69883060455322 C 13.03164958953857 14.02521133422852 12.70524978637695 14.35151100158691 12.37882041931152 14.6778507232666 C 11.73684024810791 15.31963062286377 11.07299995422363 15.9832706451416 10.42205047607422 16.63721084594727 C 10.1003303527832 16.95980072021484 10.00504016876221 17.33395195007324 10.13879013061523 17.74931144714355 C 10.26778030395508 18.15229034423828 10.55595016479492 18.40639114379883 10.97218990325928 18.48428153991699 C 11.04374027252197 18.4977912902832 11.11464977264404 18.50463104248047 11.18307018280029 18.50463104248047 C 11.4709300994873 18.50463104248047 11.7384204864502 18.38274192810059 11.97809028625488 18.1423511505127 C 12.62314033508301 17.49609184265137 13.26895999908447 16.85067176818848 13.91477966308594 16.20525169372559 L 14.8833703994751 15.23707103729248 C 14.92772960662842 15.19270133972168 14.97371959686279 15.14942073822021 15.02303981781006 15.10302066802979 L 15.06667995452881 15.06189060211182 L 15.12094974517822 15.01060104370117 L 15.1724796295166 15.06465148925781 L 15.45549011230469 15.36130142211914 L 15.65847015380859 15.57403087615967 L 15.70728015899658 15.62521076202393 L 15.65906047821045 15.67694091796875 L 15.64294052124023 15.69424057006836 C 15.59871006011963 15.74175071716309 15.54856967926025 15.79559135437012 15.49703025817871 15.84713077545166 C 15.17094993591309 16.17352104187012 14.84463977813721 16.49982070922852 14.51830005645752 16.826171875 C 13.8656702041626 17.47880172729492 13.21290016174316 18.13157081604004 12.56132984161377 18.78554153442383 C 12.24194049835205 19.10493087768555 12.14820003509521 19.4793815612793 12.28262042999268 19.89860153198242 C 12.41048049926758 20.29669189453125 12.69108009338379 20.54868125915527 13.09405994415283 20.62729072570801 C 13.16662979125977 20.64151191711426 13.23847007751465 20.64872169494629 13.30764961242676 20.64872169494629 C 13.5886697769165 20.64872169494629 13.84025001525879 20.5318717956543 14.05537986755371 20.30142021179199 C 14.2717399597168 20.06831169128418 14.48781967163086 19.82733154296875 14.69678020477295 19.59428024291992 C 14.79213047027588 19.48794174194336 14.88751983642578 19.38156127929688 14.98332977294922 19.27544021606445 C 15.01508045196533 19.24023056030273 15.04794025421143 19.2060718536377 15.08374977111816 19.16886138916016 C 15.10416984558105 19.14765167236328 15.12555980682373 19.12543106079102 15.14828968048096 19.10138130187988 L 15.19824981689453 19.04854011535645 L 15.252610206604 19.09683036804199 C 15.41024017333984 19.23685073852539 15.56147003173828 19.37261009216309 15.7227201461792 19.51737022399902 L 15.78390026092529 19.57229042053223 L 15.84029006958008 19.62291145324707 L 15.78909015655518 19.67877197265625 C 15.66190052032471 19.81756019592285 15.53596973419189 19.96053123474121 15.4141902923584 20.09880065917969 C 15.14043998718262 20.40959167480469 14.85737991333008 20.73097038269043 14.5499095916748 21.01518058776855 C 14.18389987945557 21.35389137268066 13.77097034454346 21.52566146850586 13.32260990142822 21.52569007873535 Z M 8.861186027526855 9.977838516235352 C 8.855697631835938 9.983092308044434 8.850381851196289 9.988279342651367 8.84512996673584 9.993531227111816 L 8.121529579162598 10.71713066101074 C 5.750120162963867 13.08846092224121 3.297980070114136 15.54052066802979 0.8901100754737854 17.95575141906738 C 0.8395100235939026 18.00635147094727 0.7993500232696533 18.11026191711426 0.7986000776290894 18.19239044189453 C 0.7911900281906128 18.82941055297852 0.7923400402069092 19.47743034362793 0.7934500575065613 20.10410118103027 L 0.7941000461578369 20.51451110839844 C 0.7941000461578369 20.55146598815918 0.797231912612915 20.58973121643066 0.8008473515510559 20.62993812561035 C 2.115142822265625 20.51444244384766 3.248806476593018 20.01571083068848 4.171380043029785 19.14690017700195 C 4.679570198059082 18.66839027404785 5.177289962768555 18.16084098815918 5.658629894256592 17.67001152038574 L 5.924320220947266 17.39932060241699 C 5.965340137481689 17.3576717376709 5.996779918670654 17.27284049987793 5.99914026260376 17.19756126403809 C 6.009980201721191 16.66808128356934 6.009990215301514 16.26286125183105 5.999130249023438 15.88445091247559 C 5.992310047149658 15.64877128601074 6.067649841308594 15.46798133850098 6.243400096893311 15.29825115203857 C 6.928979873657227 14.63615131378174 7.623559951782227 13.96029090881348 8.295269966125488 13.30669116973877 C 8.764450073242188 12.85016059875488 9.233670234680176 12.39358139038086 9.703789710998535 11.93775081634521 C 9.743937492370605 11.89888668060303 9.790730476379395 11.87154960632324 9.840463638305664 11.84417533874512 C 9.197162628173828 11.35673141479492 8.882671356201172 10.75796508789062 8.861186027526855 9.977838516235352 Z M 1.497490048408508 19.72059059143066 L 1.474090099334717 19.64985084533691 C 1.39671003818512 19.4159107208252 1.329230070114136 19.21346092224121 1.251850008964539 18.98132133483887 L 1.227930068969727 18.90957069396973 L 1.299870014190674 18.88626098632812 C 2.361150026321411 18.54222106933594 3.132400035858154 17.84219169616699 3.94894003868103 17.10106086730957 C 4.313260078430176 16.77038192749023 4.689980030059814 16.42845153808594 5.09112024307251 16.12573051452637 L 5.145530223846436 16.08468055725098 L 5.191589832305908 16.13492012023926 L 5.249810218811035 16.19817161560059 C 5.303910255432129 16.25682067871094 5.361589908599854 16.31936073303223 5.418320178985596 16.38334083557129 C 5.464759826660156 16.4354419708252 5.510260105133057 16.48875045776367 5.557809829711914 16.54447174072266 C 5.585870265960693 16.57735061645508 5.614650249481201 16.61107063293457 5.644810199737549 16.64592170715332 L 5.688060283660889 16.69590187072754 L 5.643919944763184 16.74509048461914 C 5.634829998016357 16.75522041320801 5.62621021270752 16.76536178588867 5.617760181427002 16.77530097961426 C 5.596260070800781 16.80056190490723 5.574039936065674 16.82669067382812 5.547039985656738 16.84993171691895 C 5.394599914550781 16.98342132568359 5.24183988571167 17.11746025085449 5.089089870452881 17.25149154663086 C 4.585020065307617 17.69377136230469 4.063789844512939 18.1511116027832 3.54623007774353 18.59512138366699 C 3.043070077896118 19.02755165100098 2.456310033798218 19.37266159057617 1.802310109138489 19.62082099914551 C 1.753380060195923 19.63949012756348 1.704750061035156 19.65470123291016 1.648430109024048 19.67232131958008 C 1.623460054397583 19.68013191223145 1.596980094909668 19.68841171264648 1.568390011787415 19.69766044616699 L 1.497490048408508 19.72059059143066 Z M 16.16341018676758 19.25420188903809 L 16.10766983032227 19.20427131652832 L 15.95265007019043 19.06537055969238 C 15.82787990570068 18.95354080200195 15.70551013946533 18.84385108947754 15.57588958740234 18.72828102111816 L 15.51955032348633 18.67805099487305 L 15.57013988494873 18.62204170227051 C 15.68467998504639 18.49518013000488 15.79786014556885 18.3688907623291 15.91038990020752 18.24332046508789 C 16.23249053955078 17.88389015197754 16.53672027587891 17.54440116882324 16.85849952697754 17.2066707611084 C 16.95890045166016 17.10380172729492 17.15181922912598 17.08315086364746 17.25793075561523 17.07993125915527 C 17.39541053771973 17.07527160644531 17.54171943664551 17.07319068908691 17.73207092285156 17.07319068908691 C 17.78787994384766 17.07319068908691 17.84369087219238 17.07337188720703 17.89952087402344 17.07360076904297 C 18.2444896697998 17.07360076904297 18.60153007507324 17.07360076904297 18.9483699798584 17.04328155517578 C 19.75190925598145 16.97023010253906 20.44865036010742 16.59177017211914 21.01897048950195 15.91843128204346 C 21.03556060791016 15.89865112304688 21.05326080322266 15.87903118133545 21.07596015930176 15.85392093658447 L 21.10763931274414 15.81876087188721 L 21.15347099304199 15.76759147644043 L 21.20845031738281 15.80877113342285 C 21.39480972290039 15.94831085205078 21.57576942443848 16.08425140380859 21.77293014526367 16.23280143737793 L 21.83375930786133 16.27863121032715 L 21.78700065612793 16.3387508392334 C 21.21332931518555 17.07619094848633 20.5013599395752 17.55520057678223 19.61041069030762 17.80315017700195 C 19.16249084472656 17.92814064025879 18.72253036499023 17.94499015808105 18.35124969482422 17.94500160217285 C 18.18746948242188 17.94500160217285 18.02136039733887 17.94108009338379 17.86071014404297 17.93729019165039 C 17.79322052001953 17.93569183349609 17.72575950622559 17.93410110473633 17.65834045410156 17.93279075622559 C 17.65022087097168 17.9326114654541 17.64228057861328 17.93253135681152 17.63446044921875 17.93253135681152 C 17.41362953186035 17.93253135681152 17.2727108001709 17.99936103820801 17.13186073303223 18.17089080810547 C 16.93170928955078 18.41434097290039 16.7230396270752 18.64153099060059 16.50212097167969 18.88207054138184 C 16.40637016296387 18.9863109588623 16.30986976623535 19.09137153625488 16.21346092224121 19.19856071472168 L 16.16341018676758 19.25420188903809 Z M 7.640270233154297 13.54144096374512 L 7.587069988250732 13.48823070526123 C 7.354000091552734 13.25517082214355 7.125430107116699 13.02660083770752 6.88877010345459 12.79083061218262 L 6.83282995223999 12.73511123657227 L 6.891350269317627 12.68211078643799 L 7.001790046691895 12.58203125 C 7.11667013168335 12.47789096832275 7.239739894866943 12.36634063720703 7.35414981842041 12.26344108581543 L 7.40703010559082 12.21587085723877 L 7.457330226898193 12.2661714553833 L 7.764800071716309 12.57405090332031 C 7.881850242614746 12.69134140014648 8.004230499267578 12.8139705657959 8.13053035736084 12.94027137756348 L 8.183230400085449 12.99297142028809 L 8.13086986541748 13.04600143432617 C 7.98861026763916 13.19005107879639 7.833750247955322 13.34671115875244 7.693300247192383 13.48806095123291 L 7.640270233154297 13.54144096374512 Z M 8.672039985656738 12.4276008605957 L 8.6220703125 12.37763118743896 C 8.511879920959473 12.26745128631592 8.390810012817383 12.14724063873291 8.262570381164551 12.01990127563477 C 8.163539886474609 11.92158126831055 8.060230255126953 11.81900119781494 7.954370021820068 11.71353149414062 L 7.901470184326172 11.66083145141602 L 7.953939914703369 11.60770130157471 C 8.024379730224609 11.5363712310791 8.097880363464355 11.4622106552124 8.170989990234375 11.38843059539795 C 8.246399879455566 11.312331199646 8.321399688720703 11.23665142059326 8.392230033874512 11.1649112701416 L 8.445159912109375 11.11130142211914 L 8.498530387878418 11.16446113586426 L 8.514189720153809 11.18006134033203 C 8.742770195007324 11.40776062011719 8.966360092163086 11.63049125671387 9.192529678344727 11.85667133331299 L 9.24862003326416 11.91276073455811 L 9.189479827880859 11.96562099456787 L 9.052209854125977 12.08845138549805 C 8.944339752197266 12.18503093719482 8.830699920654297 12.28678131103516 8.724889755249023 12.380690574646 L 8.672039985656738 12.4276008605957 Z M 14.39017963409424 6.703151226043701 L 14.33977031707764 6.652730941772461 L 14.05039024353027 6.362950801849365 C 13.93282985687256 6.245161056518555 13.80720043182373 6.119270801544189 13.67646980285645 5.988531112670898 L 13.62326049804688 5.935320854187012 L 13.67664051055908 5.882290840148926 L 13.9082498550415 5.652141094207764 L 14.10953998565674 5.452101230621338 L 14.16263961791992 5.399341106414795 L 14.21549987792969 5.452341079711914 L 14.89770030975342 6.136341094970703 L 14.9532299041748 6.192010879516602 L 14.89500045776367 6.244851112365723 L 14.72823047637939 6.396450996398926 C 14.63415050506592 6.482070922851562 14.53536033630371 6.57197093963623 14.44307994842529 6.655351161956787 L 14.39017963409424 6.703151226043701 Z M 15.46189975738525 5.638041019439697 L 15.411789894104 5.588150978088379 C 15.24188995361328 5.419031143188477 15.04701995849609 5.225621223449707 14.8400297164917 5.020171165466309 L 14.74316024780273 4.924031257629395 L 14.68994998931885 4.871211051940918 L 14.74275016784668 4.817981243133545 L 15.18194961547852 4.375181198120117 L 15.2348804473877 4.321821212768555 L 15.28812980651855 4.374861240386963 L 15.30379009246826 4.390460968017578 C 15.53236961364746 4.618161201477051 15.75596046447754 4.840890884399414 15.98213005065918 5.067070960998535 L 16.03803062438965 5.122961044311523 L 15.97926998138428 5.175850868225098 C 15.87796974182129 5.267021179199219 15.76420021057129 5.368441104888916 15.65297985076904 5.467571258544922 L 15.51465034484863 5.590950965881348 L 15.46189975738525 5.638041019439697 Z M 16.5648307800293 4.598091125488281 L 16.51247024536133 4.54594087600708 L 16.16724967956543 4.201621055603027 L 15.82217025756836 3.857430934906006 L 15.76605987548828 3.801541090011597 L 15.82493019104004 3.7485511302948 C 15.92224025726318 3.66097092628479 16.03025054931641 3.563111066818237 16.13670921325684 3.466640949249268 L 16.28738021850586 3.330181121826172 L 16.34029006958008 3.282320976257324 L 16.3907299041748 3.332771062850952 L 17.06393051147461 4.00597095489502 L 17.1178092956543 4.059841156005859 L 17.06308937072754 4.112861156463623 C 16.95368003845215 4.218871116638184 16.83658027648926 4.333091259002686 16.72456932067871 4.442340850830078 L 16.61775016784668 4.546511173248291 L 16.5648307800293 4.598091125488281 Z M 17.6432991027832 3.515861034393311 L 17.59147071838379 3.464030981063843 L 17.25379943847656 3.126801013946533 L 16.8957691192627 2.769231081008911 L 16.84163093566895 2.715090990066528 L 16.89687919616699 2.662081003189087 L 17.11252021789551 2.455101013183594 L 17.34506988525391 2.231880903244019 L 17.39829063415527 2.180820941925049 L 17.45023918151855 2.233170986175537 L 17.79096984863281 2.577011108398438 C 17.90764045715332 2.694811105728149 18.02462959289551 2.81295108795166 18.14323997497559 2.932471036911011 L 18.19721031188965 2.986860990524292 L 18.14167022705078 3.039660930633545 C 18.04752922058105 3.12916111946106 17.94774055480957 3.224661111831665 17.85107040405273 3.317201137542725 L 17.6963005065918 3.465240955352783 L 17.6432991027832 3.515861034393311 Z" stroke="none"/>
        <path d="M 13.32260036468506 21.45069122314453 C 13.74650001525879 21.45066070556641 14.14702033996582 21.28583145141602 14.49899959564209 20.9601001739502 C 14.93910026550293 20.55330085754395 15.3189001083374 20.08080101013184 15.73379993438721 19.62810134887695 C 15.54930019378662 19.46250152587891 15.38010025024414 19.31040191650391 15.20279979705811 19.15290069580078 C 15.140700340271 19.21860122680664 15.08850002288818 19.27080154418945 15.03900051116943 19.3257007598877 C 14.72939968109131 19.66860008239746 14.42430019378662 20.01420021057129 14.11019992828369 20.35260009765625 C 13.83209896087646 20.65049934387207 13.48379707336426 20.78010368347168 13.0797004699707 20.70090103149414 C 12.64140033721924 20.61540031433105 12.34619998931885 20.34180068969727 12.21119976043701 19.92150115966797 C 12.06719970703125 19.4724006652832 12.17249965667725 19.06830024719238 12.50819969177246 18.73260116577148 C 13.48560047149658 17.75160026550293 14.46570014953613 16.77330017089844 15.44400024414062 15.79410076141357 C 15.50069999694824 15.73740100860596 15.55469989776611 15.67890071868896 15.60420036315918 15.62580108642578 C 15.43680000305176 15.45030117034912 15.28380012512207 15.29010105133057 15.11820030212402 15.11640071868896 C 15.05249977111816 15.17850112915039 14.9931001663208 15.23340129852295 14.93640041351318 15.29010105133057 C 13.9680004119873 16.25850105285645 12.99870014190674 17.22600173950195 12.03120040893555 18.1953010559082 C 11.73239994049072 18.4950008392334 11.3778018951416 18.63720512390137 10.95839977264404 18.5580005645752 C 10.51109981536865 18.47430038452148 10.20510005950928 18.20250129699707 10.0673999786377 17.77230072021484 C 9.922499656677246 17.32230186462402 10.0359001159668 16.9182014465332 10.36890029907227 16.58430099487305 C 11.34539985656738 15.60330104827881 12.32639980316162 14.62500095367432 13.30469989776611 13.64580059051514 C 13.36050033569336 13.59000110626221 13.41269969940186 13.53150081634521 13.44690036773682 13.49460124969482 C 13.28129959106445 13.3119010925293 13.1318998336792 13.14720058441162 12.92940044403076 12.92490100860596 C 12.87629985809326 13.01040077209473 12.8430004119873 13.09140110015869 12.78629970550537 13.14810085296631 C 12.13109970092773 13.80870056152344 11.47229957580566 14.46570110321045 10.81439971923828 15.12360095977783 C 10.47150039672852 15.46560096740723 10.13759994506836 15.81660079956055 9.783900260925293 16.1460018157959 C 9.328500747680664 16.56899833679199 8.608502388000488 16.52310371398926 8.175600051879883 16.06410026550293 C 7.71750020980835 15.57810115814209 7.821899890899658 14.83290100097656 8.211600303649902 14.4792013168335 C 8.915400505065918 13.83750057220459 9.59220027923584 13.16520118713379 10.26000022888184 12.48660087585449 C 10.50750064849854 12.23460102081299 10.73971939086914 12.11849784851074 11.11769962310791 12.13200092315674 C 12.2624979019165 12.17340087890625 13.41089820861816 12.17699909210205 14.55570030212402 12.13380146026611 C 15.04710006713867 12.11490821838379 15.35579967498779 12.27690124511719 15.66269969940186 12.64230060577393 C 16.92359924316406 14.14710140228271 18.5408992767334 15.03360080718994 20.49029922485352 15.29910087585449 C 20.80170059204102 15.34140110015869 21.11849975585938 15.34950065612793 21.44339942932129 15.37380123138428 L 21.44339942932129 14.65650081634521 C 21.37680053710938 14.65200138092041 21.3336009979248 14.64750099182129 21.2903995513916 14.6466007232666 C 20.04299926757812 14.60970115661621 18.89189910888672 14.26050090789795 17.82810020446777 13.60800075531006 C 17.01539993286133 13.10850143432617 16.38089942932129 12.42090129852295 15.77519989013672 11.7027006149292 C 15.60509872436523 11.50110054016113 15.42055797576904 11.4254789352417 15.15869998931885 11.42730140686035 C 13.81140041351318 11.43810081481934 12.4640998840332 11.43720245361328 11.11680030822754 11.43090057373047 C 10.29959964752197 11.42640113830566 9.650699615478516 10.78380107879639 9.651599884033203 9.997200965881348 C 9.653400421142578 9.199801445007324 10.29059982299805 8.576101303100586 11.11950016021729 8.575201034545898 C 13.27770042419434 8.571600914001465 15.43680095672607 8.574300765991211 17.59499931335449 8.574300765991211 C 17.68140029907227 8.574300765991211 17.76779937744141 8.574300765991211 17.85330009460449 8.574300765991211 L 17.85330009460449 7.850700855255127 L 15.08129978179932 7.850700855255127 L 15.03900051116943 7.789501190185547 C 15.11009979248047 7.738201141357422 15.18929958343506 7.695001125335693 15.25139999389648 7.634701251983643 C 15.98309993743896 6.924601078033447 16.70940017700195 6.20910120010376 17.4473991394043 5.504401206970215 C 17.5319995880127 5.42340087890625 17.67600059509277 5.364901065826416 17.79210090637207 5.364000797271729 C 18.9242992401123 5.354101181030273 20.05560302734375 5.357700824737549 21.18689918518066 5.357700824737549 L 21.4281005859375 5.357700824737549 L 21.4281005859375 4.638600826263428 L 18.44549942016602 4.638600826263428 C 18.90360069274902 4.154400825500488 19.37610054016113 3.659400939941406 19.84320068359375 3.159001111984253 C 20.49300003051758 2.463300943374634 20.53170013427734 1.379701018333435 19.93770027160645 0.6651010513305664 C 19.34369850158691 -0.04949899390339851 18.25290298461914 -0.23219895362854 17.47979927062988 0.3348010182380676 C 16.94700050354004 0.7263010144233704 16.4960994720459 1.229400992393494 16.00469970703125 1.686601042747498 C 16.18110084533691 1.898100972175598 16.32329940795898 2.067301034927368 16.47179985046387 2.246401071548462 C 16.52580070495605 2.205900907516479 16.57080078125 2.180701017379761 16.60589981079102 2.14470100402832 C 16.82729911804199 1.913401007652283 17.03249931335449 1.665901064872742 17.2682991027832 1.450801014900208 C 17.51939964294434 1.223101019859314 17.77140045166016 0.9738010168075562 18.06929969787598 0.8262010216712952 C 18.71999359130859 0.5040013790130615 19.46430015563965 0.9027007818222046 19.6200008392334 1.613700985908508 C 19.7189998626709 2.061901092529297 19.5713996887207 2.431801080703735 19.25009918212891 2.745001077651978 C 17.53829956054688 4.411800861358643 15.82830047607422 6.080400943756104 14.11200046539307 7.742701053619385 C 14.0418004989624 7.810201168060303 13.91940021514893 7.853401184082031 13.8213005065918 7.854300975799561 C 12.89069938659668 7.863302230834961 11.96010112762451 7.859701633453369 11.02950000762939 7.859701156616211 C 10.99530029296875 7.859701156616211 10.96109962463379 7.856101036071777 10.85490036010742 7.849801063537598 C 12.57120037078857 6.134400844573975 14.24520015716553 4.461300849914551 15.89939975738525 2.808001041412354 C 15.74009990692139 2.630701065063477 15.59160041809082 2.466901063919067 15.40170001983643 2.255401134490967 C 15.34319972991943 2.33820104598999 15.3036003112793 2.412900924682617 15.24689960479736 2.470500946044922 C 14.56920051574707 3.151801109313965 13.89330005645752 3.833101034164429 13.20660018920898 4.504500865936279 C 13.12829971313477 4.581000804901123 12.99240016937256 4.635900974273682 12.88170051574707 4.637701034545898 C 12.38129997253418 4.644001007080078 11.88089942932129 4.643101692199707 11.38049983978271 4.643101215362549 C 11.04749965667725 4.643101215362549 10.71360015869141 4.643101215362549 10.38059997558594 4.644900798797607 C 9.64169979095459 4.648500919342041 8.937000274658203 4.822201251983643 8.337599754333496 5.252400875091553 C 7.832700252532959 5.614201068878174 7.384500026702881 6.053400993347168 6.922800064086914 6.450301170349121 C 7.120800018310547 6.651901245117188 7.284600257873535 6.819301128387451 7.463699817657471 7.001101016998291 C 7.709400177001953 6.749101161956787 7.952400207519531 6.486300945281982 8.209799766540527 6.239700794219971 C 8.697600364685059 5.774401187896729 9.275400161743164 5.45310115814209 9.947700500488281 5.406301021575928 C 10.49760055541992 5.366701126098633 11.05021381378174 5.367597103118896 11.6028003692627 5.367600917816162 C 11.83139991760254 5.367600917816162 12.0600004196167 5.367600917816162 12.28859996795654 5.365800857543945 C 12.29489994049072 5.365800857543945 12.30210018157959 5.388300895690918 12.31019973754883 5.402700901031494 C 12.2750997543335 5.44050121307373 12.23999977111816 5.479200839996338 12.20310020446777 5.515201091766357 C 10.09800052642822 7.621201038360596 7.992899894714355 9.726301193237305 5.886899948120117 11.83140087127686 C 5.839200019836426 11.87910079956055 5.791500091552734 11.92680072784424 5.73930025100708 11.96820068359375 C 5.058900833129883 12.51540088653564 4.068000316619873 12.17070198059082 3.878100156784058 11.32020092010498 C 3.779999971389771 10.88010120391846 3.924900054931641 10.51740074157715 4.236299991607666 10.20690059661865 C 5.085899829864502 9.36090087890625 5.932799816131592 8.51400089263916 6.765300273895264 7.681500911712646 C 6.595200061798096 7.506000995635986 6.434100151062012 7.337700843811035 6.274799823760986 7.173000812530518 C 5.389200210571289 8.055001258850098 4.480199813842773 8.915401458740234 3.622499942779541 9.824400901794434 C 2.663100004196167 10.84230136871338 3.160799980163574 12.49830055236816 4.508999824523926 12.87900066375732 C 4.58459997177124 12.89970111846924 4.660200119018555 12.92130088806152 4.735800266265869 12.94200134277344 L 4.78439998626709 13.01310062408447 C 4.715100288391113 13.05630111694336 4.634099960327148 13.08870124816895 4.577400207519531 13.14540100097656 C 3.117599964141846 14.60070133209229 1.660500049591064 16.06050109863281 0.199800044298172 17.51580047607422 C 0.06390005350112915 17.65080070495605 -0.0008999496349133551 17.79390144348145 5.035400363340159e-08 17.98830032348633 C 0.007200050167739391 18.98550033569336 0.002700050361454487 19.98360061645508 0.003600050462409854 20.98080062866211 C 0.004500050097703934 21.31650161743164 0.1287006586790085 21.44251823425293 0.46260005235672 21.43620109558105 C 1.851300001144409 21.40830039978027 3.13919997215271 21.02040100097656 4.205699920654297 20.13300132751465 C 5.084100246429443 19.40130043029785 5.868000030517578 18.55710029602051 6.68340015411377 17.7534008026123 C 6.75629997253418 17.68140029907227 6.785099983215332 17.53830146789551 6.787799835205078 17.4276008605957 C 6.799499988555908 17.01090049743652 6.819300174713135 16.5924015045166 6.784200191497803 16.17840194702148 C 6.758100032806396 15.8607006072998 6.936300277709961 15.71220111846924 7.153200149536133 15.53940105438232 C 7.429500102996826 16.67519950866699 8.167459487915039 17.18282127380371 9.305100440979004 17.16030120849609 C 9.251099586486816 17.78220176696777 9.41670036315918 18.31410026550293 9.848700523376465 18.74700164794922 C 10.28520011901855 19.18350028991699 10.83151054382324 19.33110046386719 11.44079971313477 19.29060173034668 C 11.44079971313477 19.42740058898926 11.43270015716553 19.53810119628906 11.44169998168945 19.64880180358887 C 11.5019998550415 20.41020011901855 11.86559963226318 20.9817008972168 12.5693998336792 21.28500175476074 C 12.825119972229 21.39572143554688 13.07773017883301 21.4507007598877 13.32260036468506 21.45069122314453 M 8.936100006103516 9.807300567626953 C 8.913599967956543 10.67940139770508 9.238499641418457 11.32920074462891 9.978300094604492 11.85210132598877 C 9.892800331115723 11.90520095825195 9.812700271606445 11.93670082092285 9.756000518798828 11.99160099029541 C 8.601300239562988 13.11120128631592 7.452000141143799 14.23530101776123 6.2955002784729 15.35220146179199 C 6.138000011444092 15.50430107116699 6.067800045013428 15.66450119018555 6.074100017547607 15.88230133056641 C 6.086699962615967 16.32150077819824 6.083099842071533 16.76070022583008 6.074100017547607 17.19990158081055 C 6.071400165557861 17.28630065917969 6.036300182342529 17.39250183105469 5.977799892425537 17.45190048217773 C 5.398200035095215 18.04140090942383 4.823999881744385 18.63540077209473 4.222800254821777 19.20150184631348 C 3.249900102615356 20.11770057678223 2.084399938583374 20.60730171203613 0.7326000332832336 20.71080017089844 C 0.7272000312805176 20.64060020446777 0.7191000580787659 20.57760047912598 0.7191000580787659 20.51460075378418 C 0.7182000279426575 19.73970031738281 0.7146000266075134 18.96570014953613 0.7236000299453735 18.19170188903809 C 0.7245000600814819 18.09360122680664 0.7695000767707825 17.97030067443848 0.8370000720024109 17.90280151367188 C 3.485700130462646 15.24600124359131 6.138900279998779 12.59370136260986 8.792099952697754 9.94050121307373 C 8.827199935913086 9.905401229858398 8.864999771118164 9.873001098632812 8.936100006103516 9.807300567626953 M 1.545300006866455 19.62630081176758 C 1.637100100517273 19.59660148620605 1.707300066947937 19.57680130004883 1.775700092315674 19.55070114135742 C 2.406599998474121 19.31130027770996 2.985300064086914 18.97830009460449 3.497400045394897 18.53820037841797 C 4.168799877166748 17.96220016479492 4.832099914550781 17.37630081176758 5.498100280761719 16.79310035705566 C 5.530499935150146 16.76520156860352 5.556600093841553 16.73010063171387 5.588099956512451 16.69500160217285 C 5.507100105285645 16.60140037536621 5.435999870300293 16.51590156555176 5.362200260162354 16.43310165405273 C 5.284800052642822 16.34580039978027 5.205600261688232 16.26120185852051 5.136300086975098 16.18560028076172 C 3.87090015411377 17.14050102233887 2.894400119781494 18.44820022583008 1.323000073432922 18.95760154724121 C 1.400400042533875 19.18980026245117 1.467900037765503 19.39230155944824 1.545300006866455 19.62630081176758 M 16.15769958496094 19.14840126037598 C 16.47179985046387 18.79920196533203 16.78680038452148 18.47250175476074 17.07390022277832 18.12330055236816 C 17.23500061035156 17.92709922790527 17.40422058105469 17.85235786437988 17.65979957580566 17.85780143737793 C 18.30510139465332 17.87039947509766 18.95490074157715 17.908203125 19.59029960632324 17.73090171813965 C 20.45700073242188 17.48970031738281 21.16349983215332 17.01810073852539 21.7278003692627 16.29270172119141 C 21.53070068359375 16.14420127868652 21.34980010986328 16.00830078125 21.16349983215332 15.86880111694336 C 21.12479972839355 15.91200065612793 21.09959983825684 15.93900108337402 21.07620048522949 15.96690082550049 C 20.5181999206543 16.62570190429688 19.81620025634766 17.03970146179199 18.95490074157715 17.11800193786621 C 18.54950523376465 17.15343475341797 18.14048194885254 17.14819526672363 17.73207092285156 17.14819145202637 C 17.57453727722168 17.14819145202637 17.4171142578125 17.14958190917969 17.26020050048828 17.1549015045166 C 17.14139938354492 17.15850067138672 16.98660087585449 17.18280029296875 16.91279983520508 17.25840187072754 C 16.47719955444336 17.71560096740723 16.06139945983887 18.18990135192871 15.62580013275146 18.67230033874512 C 15.80850028991699 18.83520126342773 15.97679996490479 18.98640060424805 16.15769958496094 19.14840126037598 M 7.640100002288818 13.43520069122314 C 7.780499935150146 13.29390144348145 7.935299873352051 13.13730144500732 8.077500343322754 12.99330139160156 C 7.835400104522705 12.75120067596436 7.607699871063232 12.52260112762451 7.404300212860107 12.31920146942139 C 7.252200126647949 12.45600128173828 7.084800243377686 12.60810089111328 6.941699981689453 12.73770141601562 C 7.178400039672852 12.97350120544434 7.407000064849854 13.20210075378418 7.640100002288818 13.43520069122314 M 8.675100326538086 12.32460117340088 C 8.827199935913086 12.18960094451904 8.995499610900879 12.03840065002441 9.139499664306641 11.90970134735107 C 8.908200263977051 11.67840099334717 8.679599761962891 11.4507007598877 8.445600509643555 11.21760082244873 C 8.306099891662598 11.35890102386475 8.150400161743164 11.51550102233887 8.00730037689209 11.66040134429932 C 8.250300407409668 11.90250110626221 8.479800224304199 12.12930107116699 8.675100326538086 12.32460117340088 M 13.32810020446777 7.684201240539551 C 13.47840023040771 7.548301219940186 13.64490032196045 7.397100925445557 13.78439998626709 7.270201206207275 L 13.089599609375 6.574501037597656 C 12.94919967651367 6.714001178741455 12.79349994659424 6.870601177215576 12.65310001373291 7.010100841522217 C 12.89879989624023 7.254900932312012 13.12650012969971 7.482601165771484 13.32810020446777 7.684201240539551 M 14.39280033111572 6.599700927734375 C 14.54220008850098 6.464701175689697 14.70870018005371 6.312601089477539 14.84459972381592 6.189301013946533 L 14.1624002456665 5.505300998687744 C 14.02289962768555 5.643900871276855 13.86629962921143 5.799601078033447 13.72949981689453 5.935501098632812 C 13.97519969940186 6.181200981140137 14.20289993286133 6.409801006317139 14.39280033111572 6.599700927734375 M 15.46469974517822 5.535000801086426 C 15.61590003967285 5.400001049041748 15.78509998321533 5.249701023101807 15.92910003662109 5.120100975036621 C 15.69779968261719 4.888801097869873 15.46920013427734 4.6611008644104 15.23519992828369 4.428000926971436 L 14.79600048065186 4.870800971984863 C 15.03900051116943 5.112000942230225 15.26850032806396 5.339701175689697 15.46469974517822 5.535000801086426 M 16.56539916992188 4.492801189422607 C 16.70759963989258 4.354200839996338 16.86599922180176 4.199400901794434 17.01090049743652 4.059000968933105 C 16.76969909667969 3.817800998687744 16.54109954833984 3.589200973510742 16.33769989013672 3.385801076889038 C 16.18650054931641 3.522601127624512 16.01910018920898 3.674700975418091 15.87510013580322 3.804301023483276 C 16.1117992401123 4.040101051330566 16.34040069580078 4.268701076507568 16.56539916992188 4.492801189422607 M 17.64450073242188 3.411000967025757 C 17.7849006652832 3.276901006698608 17.94420051574707 3.123901128768921 18.09000015258789 2.98530101776123 C 17.85600090026855 2.74950098991394 17.62829971313477 2.519100904464722 17.39699935913086 2.286000967025757 C 17.24130058288574 2.43540096282959 17.08200073242188 2.588401079177856 16.94879913330078 2.716201066970825 C 17.18729972839355 2.954700946807861 17.41950035095215 3.186001062393188 17.64450073242188 3.411000967025757 M 13.32260990142822 21.6006908416748 C 13.05615043640137 21.60070037841797 12.78268051147461 21.54080009460449 12.50979995727539 21.42265129089355 C 11.77966976165771 21.10800170898438 11.35853958129883 20.49868011474609 11.29217052459717 19.66064071655273 C 11.28636455535889 19.58931922912598 11.28698921203613 19.5195484161377 11.28843879699707 19.44677925109863 C 11.27606010437012 19.44693946838379 11.26374435424805 19.447021484375 11.25150966644287 19.447021484375 C 10.64441967010498 19.44703102111816 10.13675975799561 19.24720191955566 9.742630004882812 18.85307121276855 C 9.33000659942627 18.4395751953125 9.129851341247559 17.92111587524414 9.146343231201172 17.30997276306152 C 8.081595420837402 17.28406715393066 7.385098934173584 16.77877426147461 7.072399616241455 15.80599403381348 C 6.969686985015869 15.90808296203613 6.920563697814941 16.00621604919434 6.933700084686279 16.1661205291748 C 6.965000152587891 16.53531074523926 6.953559875488281 16.90981101989746 6.942490100860596 17.27198028564453 L 6.937739849090576 17.43181037902832 C 6.93563985824585 17.5180606842041 6.916890144348145 17.73362159729004 6.788810253143311 17.86012077331543 C 6.578909873962402 18.0670108795166 6.367390155792236 18.28033065795898 6.162839889526367 18.48662185668945 C 5.57096004486084 19.08354187011719 4.958930015563965 19.70079040527344 4.301700115203857 20.24825096130371 C 3.271310091018677 21.10561180114746 1.980690002441406 21.55573081970215 0.4656100571155548 21.5861701965332 L 0.4392600357532501 21.58642196655273 C 0.04081004858016968 21.5864315032959 -0.1452899426221848 21.39412117004395 -0.1463999450206757 20.981201171875 C -0.1466799527406693 20.66596031188965 -0.1464299559593201 20.35090065002441 -0.1461799442768097 20.03580093383789 C -0.1456299424171448 19.36487007141113 -0.14506995677948 18.67109107971191 -0.1499999463558197 17.98938179016113 C -0.1510599553585052 17.76003074645996 -0.07349994778633118 17.57586097717285 0.0940900519490242 17.40938186645508 C 0.8671700358390808 16.63916015625 1.639400005340576 15.86751079559326 2.41156005859375 15.09594058990479 C 3.098050117492676 14.40998077392578 3.784470081329346 13.72408103942871 4.471499919891357 13.03917121887207 C 4.475472450256348 13.03519916534424 4.479496002197266 13.03133201599121 4.483563899993896 13.02756309509277 C 4.478838443756104 13.0262622833252 4.47411584854126 13.02496528625488 4.469389915466309 13.02367115020752 C 3.770410060882568 12.82630062103271 3.239330053329468 12.29486083984375 3.047590017318726 11.60175132751465 C 2.861969947814941 10.93076133728027 3.036090135574341 10.22787094116211 3.513339996337891 9.721521377563477 C 4.106760025024414 9.09260082244873 4.733829975128174 8.47788143157959 5.340240001678467 7.883400917053223 C 5.612659931182861 7.616341114044189 5.894360065460205 7.340190887451172 6.168950080871582 7.066720962524414 L 6.276800155639648 6.959311008453369 L 6.382619857788086 7.068720817565918 C 6.453760147094727 7.142271041870117 6.52524995803833 7.216530799865723 6.597750186920166 7.29184103012085 C 6.687560081481934 7.385130882263184 6.778910160064697 7.480010986328125 6.873010158538818 7.577101230621338 L 6.975790023803711 7.683141231536865 L 6.8713698387146 7.787570953369141 C 6.045670032501221 8.61327075958252 5.191850185394287 9.467081069946289 4.342140197753906 10.31319141387939 C 4.047719955444336 10.60676097869873 3.94379997253418 10.92550086975098 4.024509906768799 11.28757095336914 C 4.129000186920166 11.75554084777832 4.531509876251221 12.08242130279541 5.003320217132568 12.08242130279541 C 5.235310077667236 12.08242130279541 5.457300186157227 12.00250148773193 5.645289897918701 11.85131072998047 C 5.691530227661133 11.81464099884033 5.734910011291504 11.77126121520996 5.780829906463623 11.72533130645752 C 7.85084867477417 9.656207084655762 9.919830322265625 7.587240219116211 11.98893451690674 5.517281055450439 C 11.8603630065918 5.517601013183594 11.7315788269043 5.517601013183594 11.6028003692627 5.517601013183594 L 11.53071975708008 5.517601013183594 C 11.04312992095947 5.517601013183594 10.49048042297363 5.517601013183594 9.958470344543457 5.555911064147949 C 9.375340461730957 5.596510887145996 8.82196044921875 5.863070964813232 8.313329696655273 6.348240852355957 C 8.136630058288574 6.517530918121338 7.963240146636963 6.698280811309814 7.795549869537354 6.873091220855713 C 7.720660209655762 6.951160907745361 7.646009922027588 7.028991222381592 7.571100234985352 7.105821132659912 L 7.464250087738037 7.215401172637939 L 7.356840133666992 7.10637092590332 C 7.241499900817871 6.989291191101074 7.132510185241699 6.878180980682373 7.016650199890137 6.760080814361572 L 6.703460216522217 6.441051006317139 L 6.825019836425781 6.336551189422607 C 6.961450099945068 6.219271183013916 7.099870204925537 6.095420837402344 7.233729839324951 5.975650787353516 C 7.555960178375244 5.687331199645996 7.889170169830322 5.389201164245605 8.250229835510254 5.130471229553223 C 8.832159996032715 4.71281099319458 9.548709869384766 4.498950958251953 10.37987041473389 4.494901180267334 C 10.71306037902832 4.493101119995117 11.0472297668457 4.493101119995117 11.38049983978271 4.493101119995117 L 11.7140998840332 4.493141174316406 C 12.08576965332031 4.493141174316406 12.48192024230957 4.492721080780029 12.87981033325195 4.487710952758789 C 12.95207977294922 4.486540794372559 13.05189990997314 4.445930957794189 13.10177040100098 4.397211074829102 C 13.73260974884033 3.780421018600464 14.3654899597168 3.144051074981689 14.97753047943115 2.528630971908569 L 15.140549659729 2.364721059799194 C 15.16777038574219 2.337060928344727 15.19375038146973 2.297291040420532 15.2238302230835 2.251230955123901 C 15.24102973937988 2.224890947341919 15.25907039642334 2.197330951690674 15.27919006347656 2.168851137161255 L 15.3876895904541 2.015280961990356 L 15.51331043243408 2.155190944671631 C 15.61606979370117 2.269630908966064 15.70668983459473 2.370100975036621 15.79347038269043 2.466300964355469 C 15.8670597076416 2.547881126403809 15.93788051605225 2.626390933990479 16.0109806060791 2.707751035690308 L 16.10604095458984 2.81355094909668 L 11.20722103118896 7.709741592407227 C 11.56157207489014 7.709891796112061 11.91598129272461 7.710411071777344 12.27029991149902 7.710411071777344 C 12.52284240722656 7.710411071777344 12.82240104675293 7.710170745849609 13.1406192779541 7.708858966827393 C 12.95989036560059 7.528136730194092 12.76034259796143 7.328692436218262 12.5472297668457 7.116361141204834 L 12.4404296875 7.009951114654541 L 12.5473804473877 6.903690814971924 C 12.61746978759766 6.834051132202148 12.69137001037598 6.760140895843506 12.76527976989746 6.686231136322021 C 12.83942031860352 6.612091064453125 12.91357040405273 6.537950992584229 12.98388004302979 6.468091011047363 L 13.09000968933105 6.362640857696533 L 14.00158977508545 7.27540111541748 L 13.88533973693848 7.381161212921143 C 13.77550315856934 7.481069564819336 13.64895725250244 7.596022129058838 13.52673053741455 7.706738471984863 C 13.6240348815918 7.706059455871582 13.72200107574463 7.705257415771484 13.81984996795654 7.704310894012451 C 13.88426971435547 7.703721046447754 13.96866035461426 7.672430992126465 14.00802993774414 7.634581089019775 C 15.3423900604248 6.342201232910156 16.69568061828613 5.023870944976807 18.00440979003906 3.748930931091309 L 19.14546012878418 2.637531042098999 C 19.44833946228027 2.342281103134155 19.55567932128906 2.017951011657715 19.47352981567383 1.646051049232483 C 19.37416076660156 1.192291021347046 18.98329925537109 0.8631410002708435 18.54408073425293 0.8631410002708435 C 18.40382957458496 0.8631410002708435 18.2664909362793 0.8959410190582275 18.13586044311523 0.9606209993362427 C 17.89468955993652 1.080111026763916 17.67621040344238 1.280521035194397 17.46492004394531 1.474331021308899 C 17.43288993835449 1.503700971603394 17.40097045898438 1.532981038093567 17.36906051635742 1.561921000480652 C 17.21884918212891 1.698951005935669 17.07645034790039 1.855141043663025 16.93873977661133 2.006181001663208 C 16.86599922180176 2.085971117019653 16.79077911376953 2.168481111526489 16.71426010131836 2.24842095375061 C 16.68001937866211 2.283550977706909 16.64393997192383 2.308561086654663 16.60903930664062 2.332741022109985 C 16.59427070617676 2.342981100082397 16.57850074768066 2.353881120681763 16.56180000305176 2.366400957107544 L 16.447509765625 2.452121019363403 L 16.35633087158203 2.342140913009644 C 16.26305961608887 2.229660987854004 16.17227935791016 2.121081113815308 16.07393074035645 2.003451108932495 L 15.79850006103516 1.673560976982117 L 15.90252017974854 1.576781034469604 C 16.05258941650391 1.437160968780518 16.20191955566406 1.290181040763855 16.34634017944336 1.148041009902954 C 16.67451095581055 0.825031042098999 17.01386070251465 0.4910310208797455 17.3909797668457 0.2139210253953934 C 17.71536064147949 -0.02397897839546204 18.1030101776123 -0.1496889740228653 18.51213073730469 -0.1496889740228653 C 19.10281944274902 -0.1496889740228653 19.67885971069336 0.1190610229969025 20.05305099487305 0.5692110061645508 C 20.70116996765137 1.348921060562134 20.65807914733887 2.506310939788818 19.95281982421875 3.261390924453735 C 19.61759948730469 3.620511054992676 19.27640914916992 3.980211019515991 18.94646072387695 4.328061103820801 C 18.89558982849121 4.381691932678223 18.84483909606934 4.43519926071167 18.79420471191406 4.488601207733154 L 21.57810020446777 4.488601207733154 L 21.57810020446777 5.50770092010498 L 19.75782012939453 5.507061004638672 C 19.1787109375 5.507061004638672 18.49245071411133 5.507881164550781 17.79340934753418 5.513990879058838 C 17.71468925476074 5.514601230621338 17.60832977294922 5.557981014251709 17.55113983154297 5.612751007080078 C 17.0529899597168 6.0884108543396 16.55183029174805 6.577150821685791 16.06716918945312 7.049790859222412 C 15.84452247619629 7.266921997070312 15.62186717987061 7.484060764312744 15.39876365661621 7.700701236724854 L 18.00329971313477 7.700701236724854 L 18.00329971313477 8.724301338195801 L 17.59499931335449 8.724301338195801 C 16.30014038085938 8.724301338195801 15.00477981567383 8.723331451416016 13.70965957641602 8.723331451416016 C 12.84623050689697 8.723331451416016 11.98299980163574 8.723760604858398 11.11975002288818 8.725200653076172 C 10.38216972351074 8.726000785827637 9.803210258483887 9.284880638122559 9.801600456237793 9.997541427612305 C 9.800789833068848 10.70111083984375 10.3911600112915 11.27690124511719 11.11763000488281 11.2809009552002 C 11.78581047058105 11.28403091430664 12.39367008209229 11.28555107116699 12.97581005096436 11.28555107116699 C 13.7513599395752 11.28555107116699 14.46500015258789 11.28285121917725 15.15750026702881 11.27730083465576 L 15.16777038574219 11.27727127075195 C 15.47533988952637 11.27727127075195 15.69803047180176 11.37864112854004 15.8898401260376 11.60597133636475 C 16.5568904876709 12.39691066741943 17.15512084960938 13.018310546875 17.90663909912109 13.48021125793457 C 18.94802093505859 14.11896133422852 20.08802032470703 14.46097087860107 21.29483985900879 14.49667072296143 C 21.3249397277832 14.49729061126709 21.35635948181152 14.49960136413574 21.39537048339844 14.50259113311768 C 21.41279029846191 14.50392055511475 21.4318904876709 14.50538063049316 21.45351028442383 14.50684070587158 L 21.5934009552002 14.51629066467285 L 21.5934009552002 15.53544139862061 L 21.43221092224121 15.52338123321533 C 21.33132934570312 15.51584148406982 21.23122978210449 15.50987148284912 21.13183975219727 15.50394058227539 C 20.91447067260742 15.49097061157227 20.68969917297363 15.47756099700928 20.4701099395752 15.44773101806641 C 18.48337936401367 15.17715072631836 16.82726097106934 14.26568126678467 15.54773044586182 12.73864078521729 C 15.25560569763184 12.39084339141846 14.98401832580566 12.26725387573242 14.56149005889893 12.28369140625 C 14.01712989807129 12.30423069000244 13.45530986785889 12.31465148925781 12.89150047302246 12.31466102600098 C 12.31202030181885 12.31466102600098 11.71339988708496 12.3036413192749 11.11227989196777 12.28190135955811 C 10.8018684387207 12.27088260650635 10.60300254821777 12.3514232635498 10.36701965332031 12.59171104431152 C 9.773759841918945 13.19455146789551 9.065850257873535 13.90331077575684 8.312660217285156 14.5900411605835 C 8.142169952392578 14.74479103088379 8.034460067749023 14.99261093139648 8.024299621582031 15.25320148468018 C 8.013879776000977 15.52053070068359 8.106380462646484 15.77198123931885 8.284749984741211 15.96121120452881 C 8.480330467224121 16.16858100891113 8.753589630126953 16.28753089904785 9.034440040588379 16.28753089904785 C 9.277350425720215 16.28753089904785 9.507260322570801 16.19824028015137 9.681819915771484 16.03610038757324 C 9.925849914550781 15.80883121490479 10.16563034057617 15.56583118438721 10.39752006530762 15.33084106445312 C 10.50088024139404 15.22610092163086 10.60426044464111 15.12133121490479 10.70847034454346 15.01739120483398 L 11.10317039489746 14.62284088134766 C 11.6207103729248 14.10558128356934 12.15587043762207 13.57072067260742 12.67980003356934 13.04247093200684 C 12.70403003692627 13.0182409286499 12.7263298034668 12.9781608581543 12.75216007232666 12.93176078796387 C 12.76758003234863 12.9040412902832 12.78372001647949 12.87516117095947 12.80197048187256 12.8457612991333 L 12.90666007995605 12.67720127105713 L 13.04028987884521 12.82389068603516 C 13.24289035797119 13.04629135131836 13.39235973358154 13.2110710144043 13.55803966522217 13.39386081695557 L 13.65036964416504 13.49573135375977 L 13.53162002563477 13.62409114837646 C 13.4980297088623 13.6607608795166 13.45623016357422 13.70640087127686 13.41077041625977 13.75187110900879 C 13.0846996307373 14.07823085784912 12.75829029083252 14.404541015625 12.43183994293213 14.73089122772217 C 11.78989028930664 15.37264060974121 11.12609004974365 16.03624153137207 10.47521018981934 16.69012069702148 C 10.17487049102783 16.99127197265625 10.0857400894165 17.3398609161377 10.21018028259277 17.72632026672363 C 10.33199024200439 18.10689163208008 10.59298992156982 18.33702087402344 10.98599052429199 18.41056060791016 C 11.33818340301514 18.47707366943359 11.64299488067627 18.37221336364746 11.92498016357422 18.08939170837402 C 12.5700798034668 17.44309043884277 13.21592044830322 16.79764175415039 13.8617696762085 16.15220069885254 L 14.83032989501953 15.18403148651123 C 14.87522029876709 15.13914108276367 14.92175006866455 15.09534072875977 14.97165012359619 15.04839134216309 L 15.1237096786499 14.9047908782959 L 15.81037044525146 15.62462139129639 L 15.69783020019531 15.74535083770752 C 15.65316963195801 15.79332065582275 15.6025505065918 15.84768104553223 15.55006980895996 15.90017127990723 C 15.22399997711182 16.22653007507324 14.89768028259277 16.5528507232666 14.57133007049561 16.87920188903809 C 13.91872978210449 17.53180122375488 13.26599979400635 18.18454170227051 12.61445999145508 18.83847045898438 C 12.31643962860107 19.1364917755127 12.22889041900635 19.48540115356445 12.35404014587402 19.87570190429688 C 12.47473049163818 20.25144195556641 12.72854042053223 20.47957038879395 13.10842037200928 20.55368041992188 C 13.45034599304199 20.62062644958496 13.75049209594727 20.51810836791992 14.00055027008057 20.25024032592773 C 14.21632957458496 20.01777076721191 14.43218994140625 19.77703094482422 14.64093971252441 19.54421043395996 C 14.73635005950928 19.43780136108398 14.83178997039795 19.33136177062988 14.9276704788208 19.22518157958984 C 14.95991039276123 19.18942070007324 14.99330997467041 19.1546802520752 15.02972030639648 19.11685180664062 C 15.04998970031738 19.09580039978027 15.07122993469238 19.07373046875 15.09379005432129 19.04986190795898 L 15.19369029998779 18.94417190551758 L 15.30241966247559 19.04076194763184 C 15.46014976501465 19.18087196350098 15.61147022247314 19.31671142578125 15.77282047271729 19.46156120300293 L 15.94678974151611 19.61771011352539 L 15.84438037872314 19.72945022583008 C 15.71769046783447 19.86769104003906 15.59201049804688 20.0103816986084 15.4704704284668 20.14837074279785 C 15.19548034667969 20.46058082580566 14.91112041473389 20.7834300994873 14.60081958770752 21.07025146484375 C 14.22589015960693 21.41721153259277 13.78386974334717 21.60066032409668 13.32260990142822 21.6006908416748 Z M 8.795476913452148 10.14926147460938 L 8.174559593200684 10.77016067504883 C 5.803170204162598 13.14147090911865 3.351050138473511 15.59352111816406 0.9432300329208374 18.00870132446289 C 0.9059800505638123 18.04595184326172 0.8741700649261475 18.13031196594238 0.8735900521278381 18.19308090209961 C 0.8661900758743286 18.82978057861328 0.8673400282859802 19.47754096984863 0.8684500455856323 20.10397148132324 L 0.869100034236908 20.51443099975586 C 0.869100034236908 20.5255298614502 0.8694074749946594 20.5367546081543 0.8699454665184021 20.5482177734375 C 2.150295972824097 20.42194747924805 3.214689254760742 19.94482231140137 4.119959831237793 19.09230041503906 C 4.627059936523438 18.61481094360352 5.124259948730469 18.10781097412109 5.605080127716064 17.61750030517578 L 5.870840072631836 17.34674072265625 C 5.898550033569336 17.31859016418457 5.922440052032471 17.25066184997559 5.924170017242432 17.19521141052246 C 5.934969902038574 16.66782188415527 5.934979915618896 16.26373100280762 5.924160003662109 15.88660144805908 C 5.9167799949646 15.63154125213623 6.001669883728027 15.42743110656738 6.191299915313721 15.24430084228516 C 6.876780033111572 14.58230113983154 7.571300029754639 13.90649127960205 8.24297046661377 13.2529411315918 C 8.712180137634277 12.79637145996094 9.181429862976074 12.33977127075195 9.651579856872559 11.8839111328125 C 9.669889450073242 11.86618232727051 9.689182281494141 11.85062694549561 9.709024429321289 11.83653259277344 C 9.149089813232422 11.38325881958008 8.853075981140137 10.83748340606689 8.795476913452148 10.14926147460938 Z M 1.449690103530884 19.81489181518555 L 1.402890086174011 19.67341041564941 C 1.325530052185059 19.43952178955078 1.258060097694397 19.23712158203125 1.180700063705444 19.00503158569336 L 1.132870078086853 18.86155128479004 L 1.276740074157715 18.81491088867188 C 2.322690010070801 18.47585105895996 3.08814001083374 17.78108024597168 3.898530006408691 17.0455207824707 C 4.264090061187744 16.71372032165527 4.64208984375 16.37063026428223 5.045949935913086 16.06587028503418 L 5.154759883880615 15.98375129699707 L 5.304940223693848 16.1473217010498 C 5.359360218048096 16.2063102722168 5.417379856109619 16.26923179626465 5.474440097808838 16.33359146118164 C 5.521100044250488 16.38594055175781 5.566949844360352 16.43964195251465 5.614860057830811 16.49578094482422 C 5.642809867858887 16.52853012084961 5.671480178833008 16.56213188171387 5.701529979705811 16.59684181213379 L 5.78803014755249 16.69680023193359 L 5.699739933013916 16.79519081115723 C 5.691100120544434 16.80481147766113 5.682919979095459 16.81445121765137 5.674880027770996 16.82390022277832 C 5.6526198387146 16.85007095336914 5.627389907836914 16.87972068786621 5.595980167388916 16.90677070617676 C 5.444030284881592 17.03983116149902 5.291290283203125 17.17385101318359 5.138550281524658 17.307861328125 C 4.634330272674561 17.75028038024902 4.112939834594727 18.20776176452637 3.595070123672485 18.65205192565918 C 3.085330009460449 19.09012031555176 2.491080045700073 19.4396800994873 1.828920006752014 19.69094085693359 C 1.777960062026978 19.71039009094238 1.728310108184814 19.72591018676758 1.670819997787476 19.74390029907227 C 1.646070003509521 19.75164031982422 1.61981999874115 19.75985145568848 1.591470003128052 19.76902008056641 L 1.449690103530884 19.81489181518555 Z M 16.16913032531738 19.3599910736084 L 15.90258979797363 19.1212215423584 C 15.77787017822266 19.00943183898926 15.65555000305176 18.8997917175293 15.52597045898438 18.78426170349121 L 15.41331005096436 18.68380165100098 L 15.51447010040283 18.5717716217041 C 15.62895011901855 18.44499015808105 15.74207019805908 18.31877136230469 15.85453033447266 18.19327163696289 C 16.1770191192627 17.83340072631836 16.48163032531738 17.49349021911621 16.80419921875 17.15493011474609 C 16.91770935058594 17.03863143920898 17.11223983764648 17.00931167602539 17.25565910339355 17.00497055053711 C 17.39373970031738 17.00029182434082 17.54084014892578 16.99819183349609 17.73207092285156 16.99819183349609 C 17.78800010681152 16.99819183349609 17.84391021728516 16.99836158752441 17.89985084533691 16.99860191345215 C 18.24287986755371 16.99860191345215 18.5982608795166 16.99860191345215 18.94183921813965 16.96857070922852 C 19.72483062744141 16.89739036560059 20.40459060668945 16.52774047851562 20.96174049377441 15.86995124816895 C 20.97863006591797 15.84981060028076 20.99688911437988 15.82954120635986 21.02032089233398 15.80363082885742 L 21.14344024658203 15.66639137268066 L 21.25341033935547 15.74873065948486 C 21.4398193359375 15.88832092285156 21.62084007263184 16.02430152893066 21.81805992126465 16.17290115356445 L 21.93972969055176 16.26456069946289 L 21.84618949890137 16.38480186462402 C 21.26229095458984 17.13541030883789 20.53753089904785 17.62299156188965 19.63051986694336 17.87541007995605 C 19.17131042480469 18.0035514831543 18.70562934875488 18.01999092102051 18.35124969482422 18.02000045776367 C 18.18650054931641 18.02000045776367 18.01984024047852 18.01607131958008 17.85868072509766 18.01226043701172 C 17.7913703918457 18.01067161560059 17.72410011291504 18.00909042358398 17.65686988830566 18.00777053833008 L 17.63446044921875 18.00753021240234 C 17.43660926818848 18.00753021240234 17.31609916687012 18.06471061706543 17.1898307800293 18.21849060058594 C 16.98834037780762 18.46356010437012 16.77898979187012 18.69149017333984 16.55735015869141 18.93280029296875 C 16.4617805480957 19.03685188293457 16.36545944213867 19.14172172546387 16.26922035217285 19.24871063232422 L 16.16913032531738 19.3599910736084 Z M 7.640439987182617 13.64767074584961 L 7.534029960632324 13.5412712097168 C 7.301000118255615 13.30823135375977 7.072470188140869 13.07970142364502 6.835840225219727 12.84397125244141 L 6.723959922790527 12.73252105712891 L 6.951419830322266 12.52646064758301 C 7.066370010375977 12.42226123809814 7.189509868621826 12.31064128875732 7.303989887237549 12.20767116546631 L 7.409770011901855 12.11254119873047 L 7.817890167236328 12.521071434021 C 7.934919834136963 12.63835144042969 8.057279586791992 12.76095104217529 8.18356990814209 12.88723087310791 L 8.288969993591309 12.99264144897461 L 8.184229850769043 13.09870147705078 C 8.041919708251953 13.24280071258545 7.887010097503662 13.39952087402344 7.746500015258789 13.54093074798584 L 7.640439987182617 13.64767074584961 Z M 8.668970108032227 12.53060054779053 L 8.569029808044434 12.43067073822021 C 8.45890998840332 12.32054138183594 8.337900161743164 12.20039081573486 8.209719657897949 12.07313060760498 C 8.110659599304199 11.97477054595947 8.007329940795898 11.87217140197754 7.901430130004883 11.76666069030762 L 7.795629978179932 11.6612606048584 L 7.900569915771484 11.5550012588501 C 7.971050262451172 11.48364067077637 8.044569969177246 11.4094409942627 8.117719650268555 11.33563137054443 C 8.193090438842773 11.25957107543945 8.268059730529785 11.18392086029053 8.338860511779785 11.11222076416016 L 8.444709777832031 11.00499057769775 L 8.567119598388672 11.12693119049072 C 8.795729637145996 11.354660987854 9.019359588623047 11.57743072509766 9.245570182800293 11.80363082885742 L 9.357749938964844 11.91582107543945 L 9.102239608764648 12.14433097839355 C 8.994290351867676 12.24097061157227 8.880559921264648 12.34280109405518 8.774669647216797 12.43678092956543 L 8.668970108032227 12.53060054779053 Z M 14.38757038116455 6.806601047515869 L 13.99730014801025 6.415931224822998 C 13.87975978851318 6.298151016235352 13.754150390625 6.172280788421631 13.6234302520752 6.041571140289307 L 13.5170202255249 5.935151100158691 L 14.16287994384766 5.293371200561523 L 15.06186008453369 6.194721221923828 L 14.77871036529541 6.451930999755859 C 14.68455982208252 6.537600994110107 14.58570003509521 6.627561092376709 14.49337005615234 6.710990905761719 L 14.38757038116455 6.806601047515869 Z M 15.45911026000977 5.741081237792969 L 15.35888004302979 5.641311168670654 C 15.18900012969971 5.472210884094238 14.99415016174316 5.278820991516113 14.78719997406006 5.073410987854004 L 14.58390998840332 4.871631145477295 L 15.23456001281738 4.215641021728516 L 15.35671997070312 4.33733081817627 C 15.58533000946045 4.565061092376709 15.8089599609375 4.787830829620361 16.03516960144043 5.014030933380127 L 16.14695930480957 5.125831127166748 L 16.02943992614746 5.23159122467041 C 15.92805957794189 5.322841167449951 15.81418991088867 5.424341201782227 15.70289039611816 5.523561000823975 L 15.45911026000977 5.741081237792969 Z M 16.56426048278809 4.703371047973633 L 15.65701007843018 3.798770904541016 L 15.77476024627686 3.692811012268066 C 15.87201023101807 3.605281114578247 15.97994995117188 3.507471084594727 16.08634948730469 3.41106104850769 L 16.34287071228027 3.178841114044189 L 17.2247200012207 4.060690879821777 L 17.11528015136719 4.166730880737305 C 17.00592994689941 4.27268123626709 16.88888931274414 4.3868408203125 16.77693939208984 4.496030807495117 L 16.56426048278809 4.703371047973633 Z M 17.64208984375 3.620731115341187 L 16.73444938659668 2.713980913162231 L 17.39958000183105 2.075640916824341 L 17.84425926208496 2.524240970611572 C 17.96091079711914 2.64202094078064 18.077880859375 2.760141134262085 18.19647026062012 2.879641056060791 L 18.30442047119141 2.988420963287354 L 18.19334983825684 3.094021081924438 C 18.0992603302002 3.18346095085144 17.99954032897949 3.278901100158691 17.90292930603027 3.371381044387817 L 17.64208984375 3.620731115341187 Z" stroke="none" fill="#fff"/>
      </g>
    </g>
  </g>
</svg>
