<svg xmlns="http://www.w3.org/2000/svg" xmlns:xlink="http://www.w3.org/1999/xlink" width="42" height="43.883" viewBox="0 0 42 43.883">
  <defs>
    <filter id="Union_59" x="0.823" y="4.818" width="41.021" height="39.065" filterUnits="userSpaceOnUse">
      <feOffset dy="3" input="SourceAlpha"/>
      <feGaussianBlur stdDeviation="3" result="blur"/>
      <feFlood flood-opacity="0.161"/>
      <feComposite operator="in" in2="blur"/>
      <feComposite in="SourceGraphic"/>
    </filter>
  </defs>
  <g id="Urology_Clinic" data-name="Urology Clinic" transform="translate(-15970 -7513)">
    <path id="Subtraction_121" data-name="Subtraction 121" d="M21,42A21.005,21.005,0,0,1,12.826,1.65a21.005,21.005,0,0,1,16.349,38.7A20.864,20.864,0,0,1,21,42Z" transform="translate(15970 7513)" fill="#6ab654"/>
    <g transform="matrix(1, 0, 0, 1, 15970, 7513)" filter="url(#Union_59)">
      <path id="Union_59-2" data-name="Union 59" d="M10.472,20.708c0-.437-.021-.851.006-1.264a.549.549,0,0,0-.4-.634,6.83,6.83,0,0,1-2.736-1.993A3.335,3.335,0,0,1,6.5,14.262a1.932,1.932,0,0,1,1.082-1.65,5.781,5.781,0,0,1,1.809-.543,14.564,14.564,0,0,1,4.656.119,2.515,2.515,0,0,1,1.737,3.974A6.335,6.335,0,0,1,12.644,18.8a.587.587,0,0,0-.438.662c.029.4.006.8.006,1.249ZM9,13.507a2.113,2.113,0,0,0-.739.293c-.4.248-.483.691-.354,1.252.095.41.358.39.617.37.06,0,.121-.009.179-.008.58.007,1.16.006,1.741.005h.871c.988,0,1.976-.01,2.964.005a.433.433,0,0,0,.5-.365c.239-.835-.085-1.373-1.08-1.548a13.227,13.227,0,0,0-2.311-.2A15.165,15.165,0,0,0,9,13.507Zm.136-6.044a1,1,0,0,0-.511-.952,2.738,2.738,0,0,0-3.406-.043c-.2.172-.329.427-.53.6a2.042,2.042,0,0,1-.522.235c-.009-.205-.1-.47-.012-.6a11.42,11.42,0,0,1,.9-1.046c-.45-.265-.915-.522-1.361-.811a1.073,1.073,0,0,1-.4-.439,1.373,1.373,0,0,1,0-.535,1.568,1.568,0,0,1,.512.142c.373.266.716.571,1.092.877,0-.654-.032-1.2.02-1.74.014-.158.266-.293.41-.438a2.034,2.034,0,0,1,.23.525c.036.261-.035.537,0,.8.122.928.352,1.073,1.27,1.214a22.94,22.94,0,0,1,2.279.58V1.643h1.162v9.6l-1.15.078C9.122,10.005,9.1,8.733,9.133,7.463Zm3.3,3.78V1.635h1.106V5.99c.2-.1.332-.154.452-.224A4.215,4.215,0,0,1,16.151,5.2a.809.809,0,0,0,.869-.731c.076-.42.04-.86.1-1.287a1.6,1.6,0,0,1,.237-.476c.14.128.391.247.4.387.048.544.02,1.093.02,1.76.348-.262.68-.535,1.035-.77a2.785,2.785,0,0,1,.578-.217c-.026.221.032.548-.091.644-.48.377-1.017.682-1.534,1.012a1.537,1.537,0,0,1-.173.085A12.232,12.232,0,0,1,18.535,6.7c.092.132-.006.4-.017.6-.175-.078-.429-.106-.514-.24-.9-1.423-2.768-1.566-4.209-.32a.851.851,0,0,0-.22.572c-.021,1.157-.011,2.316-.012,3.473v.525ZM.2,7.84a8.284,8.284,0,0,1,0-3.647A5.2,5.2,0,0,1,4.3.09,2.255,2.255,0,0,1,6.845.979a2.569,2.569,0,0,1,.246,2.885,1.081,1.081,0,0,1-.155.257c-.168.167-.218.649-.536.4a.954.954,0,0,1-.169-.882A2.122,2.122,0,0,0,6.467,2.2,1.607,1.607,0,0,0,4.358.962,4.5,4.5,0,0,0,.99,4.811,7.3,7.3,0,0,0,1.157,8,3.031,3.031,0,0,0,6.086,9.356,1.089,1.089,0,0,0,6.4,8.121c-.145-.46-.329-.908-.517-1.416l.8-.267a4.9,4.9,0,0,1,.656,2.207A1.842,1.842,0,0,1,6.6,10.07a4.024,4.024,0,0,1-2.581.96A3.916,3.916,0,0,1,.2,7.84ZM15.893,9.9a1.9,1.9,0,0,1-.48-1.908c.13-.514.344-1.008.539-1.564l.858.26c-.163.424-.321.8-.454,1.192a1.247,1.247,0,0,0,.7,1.784,2.964,2.964,0,0,0,4.586-2.154,7.322,7.322,0,0,0-.125-3.488A4.4,4.4,0,0,0,18.275.954a1.463,1.463,0,0,0-1.71.529,1.655,1.655,0,0,0-.2,1.928.915.915,0,0,1,.051.988c-.049.088-.376.146-.416.094a2.739,2.739,0,0,1-.565-2.767A2.308,2.308,0,0,1,17.587.038a4.488,4.488,0,0,1,1.656.324,5.225,5.225,0,0,1,3.35,4.475,8.134,8.134,0,0,1-.285,3.633A3.874,3.874,0,0,1,18.6,11.008,3.77,3.77,0,0,1,15.893,9.9Z" transform="translate(10 11)" fill="#fff" stroke="#fff" stroke-width="0.35"/>
    </g>
  </g>
</svg>
