<svg xmlns="http://www.w3.org/2000/svg" xmlns:xlink="http://www.w3.org/1999/xlink" width="42" height="44.25" viewBox="0 0 42 44.25">
  <defs>
    <filter id="Union_60" x="0.75" y="4.749" width="39.566" height="39.501" filterUnits="userSpaceOnUse">
      <feOffset dy="3" input="SourceAlpha"/>
      <feGaussianBlur stdDeviation="3" result="blur"/>
      <feFlood flood-opacity="0.161"/>
      <feComposite operator="in" in2="blur"/>
      <feComposite in="SourceGraphic"/>
    </filter>
  </defs>
  <g id="Vascular_Clinic" data-name="Vascular Clinic" transform="translate(-16170 -7513)">
    <g id="Group_20848" data-name="Group 20848" transform="translate(16169.585 7513)">
      <path id="Subtraction_7" data-name="Subtraction 7" d="M21,42A21.005,21.005,0,0,1,12.826,1.65a21.005,21.005,0,0,1,16.349,38.7A20.864,20.864,0,0,1,21,42Z" transform="translate(0.415 0)" fill="#6ab654"/>
    </g>
    <g transform="matrix(1, 0, 0, 1, 16170, 7513)" filter="url(#Union_60)">
      <path id="Union_60-2" data-name="Union 60" d="M19.852,21a1.068,1.068,0,0,1-.786-.922,1.875,1.875,0,0,0-.209-.552,5.663,5.663,0,0,0-.385-.545,2.034,2.034,0,0,1-.915,1.314c-.272.172-.462.162-.572-.023s-.037-.326.24-.5a1.343,1.343,0,0,0,.654-1.039c-1.375-.112-2.785.03-4.01-.818,0,.106,0,.167,0,.226.045.8.087,1.6.139,2.392a.489.489,0,0,1-.186.464h-.246a.576.576,0,0,1-.189-.467c-.064-1.015-.142-2.03-.217-3.044,0-.054-.028-.115-.01-.162.038-.1.072-.237.152-.283a.391.391,0,0,1,.319.012,4.794,4.794,0,0,1,.538.337,4.413,4.413,0,0,0,2.294.655c.423.02.848.028,1.269.068a2.077,2.077,0,0,1,1.877,1.61c.045.143.073.292.12.435a.278.278,0,0,0,.348.208.264.264,0,0,0,.22-.338,3.29,3.29,0,0,0-.95-1.843,2.666,2.666,0,0,0-1.657-.673c-.579-.045-1.159-.065-1.736-.125a3.107,3.107,0,0,1-1.855-.825,6.136,6.136,0,0,1-1.672-2.445,29.435,29.435,0,0,0-1.748-4.056c-.013-.024-.022-.05-.034-.075a.324.324,0,0,1,.033-.43c.13-.124.267-.089.416-.022a7.954,7.954,0,0,0,.831.345,3.5,3.5,0,0,0,3.122-.495c.376-.247.727-.534,1.11-.77a2.3,2.3,0,0,1,2.822.123,9.892,9.892,0,0,1,.793.739c.054.051.1.141.16.149a.581.581,0,0,0,.354-.031.235.235,0,0,0,.046-.363,3.51,3.51,0,0,0-3.119-1.6,5.124,5.124,0,0,0-1.066.332,2.728,2.728,0,0,0-.306.166.306.306,0,1,1-.308-.527,3.794,3.794,0,0,1,1.6-.589.214.214,0,0,0,.214-.167,1.232,1.232,0,0,1,1.3-.914c.792,0,1-.174,1.184-.944a1.146,1.146,0,0,1,.044-.178.3.3,0,0,1,.59.116,1.6,1.6,0,0,1-1.607,1.621c-.116,0-.232,0-.348.006a.566.566,0,0,0-.55.452c.152.036.305.065.454.108a4.794,4.794,0,0,1,2.425,1.77.878.878,0,0,1-.161,1.2.913.913,0,0,1-1.231-.057c-.234-.229-.448-.48-.7-.693a1.758,1.758,0,0,0-2.311-.176,9.184,9.184,0,0,0-.764.551.257.257,0,0,0-.076.2,2.9,2.9,0,0,0,2.591,2.39c.081.006.164.007.246.014.226.02.356.14.348.32s-.145.3-.37.292a3.542,3.542,0,0,1-2.316-.9c-.148-.13-.29-.266-.437-.4a1.4,1.4,0,0,0-.194,1.869c.038.057.085.107.123.163a.3.3,0,0,1-.038.438.308.308,0,0,1-.438-.055,2.031,2.031,0,0,1-.513-1.12,2.055,2.055,0,0,1,.724-1.851l-.337-.934a4.078,4.078,0,0,1-3.432.275c.028.069.039.106.056.14a24.129,24.129,0,0,1,1.318,3.173,5.7,5.7,0,0,0,1.754,2.526,2.731,2.731,0,0,0,1.555.557c.679.073,1.36.119,2.04.167a.321.321,0,0,0,.2-.074,1.718,1.718,0,0,0,.537-1.977c-.019-.059-.046-.115-.06-.175a.307.307,0,0,1,.194-.381.3.3,0,0,1,.382.185,2.37,2.37,0,0,1-.343,2.522l-.138.161a3.592,3.592,0,0,1,1.834,2.6.916.916,0,0,1-.654,1.131A.246.246,0,0,0,20.18,21Zm-8.7,0a.488.488,0,0,1-.2-.44,18.419,18.419,0,0,0-.319-3.378c-.042-.232.048-.389.239-.425s.323.082.366.318a19.943,19.943,0,0,1,.336,3.5.414.414,0,0,1-.216.425ZM6.616,19.544a3.226,3.226,0,0,1-1.332-2.281.464.464,0,0,0-.018-.074,1.2,1.2,0,0,0-1.03.436,1.678,1.678,0,0,0-.364,1.325c.005.054.021.108.022.162a.3.3,0,0,1-.275.326.29.29,0,0,1-.329-.246,2.073,2.073,0,0,1,2-2.621.221.221,0,0,0,.229-.118c.167-.258.358-.5.533-.752a1.945,1.945,0,0,0,.205-1.877c-.344.068-.688.145-1.035.2-.539.089-1.085.142-1.618.253A1.067,1.067,0,0,0,2.62,15.5a6.715,6.715,0,0,0,.113,1.036.92.92,0,0,1-.672,1.052.875.875,0,0,1-1.084-.6,4.529,4.529,0,0,1-.046-2.469,2.682,2.682,0,0,1,1.492-1.752c.147-.069.169-.135.118-.276A.928.928,0,0,0,1.206,12c-.048.027-.09.062-.137.09a.312.312,0,0,1-.437-.068.3.3,0,0,1,.084-.432,1.55,1.55,0,0,1,1.98.063,1.634,1.634,0,0,1,.481.823c.457-.065.908-.127,1.358-.193.27-.04.539-.085.809-.127a.3.3,0,0,1,.368.241.288.288,0,0,1-.251.357c-.451.077-.906.128-1.356.208a8.114,8.114,0,0,0-1.177.257,2.194,2.194,0,0,0-1.516,2.185,8.2,8.2,0,0,0,.13,1.321.277.277,0,0,0,.36.263c.178-.047.255-.187.211-.4a3.96,3.96,0,0,1-.074-1.526,1.534,1.534,0,0,1,1.172-1.311,16.374,16.374,0,0,1,1.692-.3,4.655,4.655,0,0,0,2.167-.737,4.263,4.263,0,0,0,1.346-1.7A1.135,1.135,0,0,1,8.53,10.8a.3.3,0,0,1,.529.086c.373.789.772,1.569,1.1,2.379.289.72.494,1.473.729,2.214.077.244,0,.418-.187.469s-.337-.059-.4-.3A18.756,18.756,0,0,0,8.87,11.88c-.028-.053-.058-.105-.1-.186a4.581,4.581,0,0,1-1.894,1.862c.049.328.117.635.139.945a2.367,2.367,0,0,1-.486,1.593c-.124.172-.255.339-.381.509a1.074,1.074,0,0,0-.116,1.232,8.914,8.914,0,0,0,.731,1c.073.1.179.169.258.263A.281.281,0,0,1,7,19.507a.312.312,0,0,1-.221.105A.244.244,0,0,1,6.616,19.544Zm-.139-7.479a.282.282,0,0,1,.009-.406c.076-.087.167-.162.244-.249a3.275,3.275,0,0,0,.788-2.99,15.719,15.719,0,0,1-.441-3.076.827.827,0,0,0-.013-.1c-.023,0-.04-.009-.048,0a5.807,5.807,0,0,1-2.5.787,9.684,9.684,0,0,0-1.063.209,3.965,3.965,0,0,0-.588.259,1.739,1.739,0,0,1,.149.128,6.115,6.115,0,0,1,.746.832,1.566,1.566,0,0,0,2.346.484c.2-.146.37-.142.487.009s.075.343-.127.489A2.116,2.116,0,0,1,4.3,8.723c-.056-.023-.111-.05-.185-.083-.018.131-.033.249-.05.366a2.622,2.622,0,0,1-.546,1.242c-.141.182-.311.216-.46.105s-.16-.3-.021-.488a1.852,1.852,0,0,0-.394-2.749c-.06-.042-.125-.077-.2-.122a3.748,3.748,0,0,0-.558,1.452c-.031.154-.051.31-.078.464A.9.9,0,0,1,.97,9.7a.886.886,0,0,1-.932-.645A.484.484,0,0,0,0,8.982v-.41C.082,8.215.143,7.851.249,7.5a10.2,10.2,0,0,1,.394-1.03.3.3,0,0,1,.425-.2c.176.082.228.256.121.471A6.266,6.266,0,0,0,.626,8.682c-.035.243.041.368.238.4s.3-.076.352-.308A12.817,12.817,0,0,1,1.6,7.29a2.689,2.689,0,0,1,2.316-1.8c.587-.085,1.173-.186,1.751-.317a2.967,2.967,0,0,0,1.418-.785c.02-.019.038-.046.061-.053a.921.921,0,0,1,.353-.08c.151.025.2.173.2.32,0,.335,0,.67.008,1a17.461,17.461,0,0,0,.428,2.768A3.875,3.875,0,0,1,7.02,11.993,1.08,1.08,0,0,1,6.9,12.1a.349.349,0,0,1-.2.075A.281.281,0,0,1,6.477,12.064Zm5.206-2.988A3.6,3.6,0,0,1,9.559,5.969c-.042-.536-.007-1.077-.007-1.617l-.074,0C9.6,3.009,9.712,1.669,9.837.33c.022-.236.175-.358.358-.325s.272.193.242.426a33.516,33.516,0,0,0-.3,5.211,3.117,3.117,0,0,0,1.557,2.74,2.28,2.28,0,0,0,2.569.058.305.305,0,0,1,.476.086c.088.163.027.32-.166.445a2.737,2.737,0,0,1-1.493.457A3.158,3.158,0,0,1,11.683,9.076ZM1.586,5.621c-.12-.148-.082-.321.105-.474a3.981,3.981,0,0,1,1.6-.753L3.4,4.364A1.979,1.979,0,0,0,1.925,2.583,2.161,2.161,0,0,0,.739,2.7c-.236.085-.41.023-.475-.163S.3,2.207.525,2.122a2.691,2.691,0,0,1,1.848-.053A2.848,2.848,0,0,1,2.992.359a.307.307,0,0,1,.5-.04.326.326,0,0,1-.041.445A2.161,2.161,0,0,0,3,2.256a.329.329,0,0,0,.062.205,3.013,3.013,0,0,1,.99,1.826,9.2,9.2,0,0,0,1.5-.31A2.873,2.873,0,0,0,6.964,2.554,4.372,4.372,0,0,0,7.382.815C7.4.652,7.412.488,7.434.326,7.464.107,7.6-.018,7.781,0a.3.3,0,0,1,.261.374A6.435,6.435,0,0,1,7.5,2.858,4.448,4.448,0,0,1,6.2,4.341,3.031,3.031,0,0,1,4.693,4.8a6.255,6.255,0,0,0-1.76.356,6.331,6.331,0,0,0-.855.472.553.553,0,0,1-.282.1A.263.263,0,0,1,1.586,5.621Z" transform="translate(10 11)" fill="#fff" stroke="#fff" stroke-width="0.5"/>
    </g>
  </g>
</svg>
