<svg xmlns="http://www.w3.org/2000/svg" width="57.415" height="89.495" viewBox="0 0 57.415 89.495">
  <g id="Group_13949" data-name="Group 13949" transform="translate(0 0)">
    <path id="Path_16151" data-name="Path 16151" d="M228.358,261.126a1.266,1.266,0,0,1-.688.7,14.511,14.511,0,0,0-.818,4.532c0,.143,0,.287,0,.434H236.96c0-.14,0-.282,0-.434a14.84,14.84,0,0,0-.908-4.8,1.256,1.256,0,0,1-.591-.642c-.994-2.332-2.34-3.78-3.51-3.78-1.2,0-2.607,1.563-3.6,3.982Z" transform="translate(-217.649 -216.454)" fill="#fff"/>
    <path id="Path_16152" data-name="Path 16152" d="M271.537,44.922c.008.131.019.262.03.394.784,9.96,5.981,17.655,12.278,17.655s11.493-7.7,12.279-17.656c.012-.131.02-.261.03-.394.056-.433.092-.87.115-1.314.016-.3.027-.608.027-.916a17.724,17.724,0,0,0-.142-2.229C295.244,33.4,290.079,28,283.845,28s-11.4,5.408-12.308,12.464a17.391,17.391,0,0,0-.142,2.229c0,.308.01.612.025.916.023.445.06.882.117,1.315ZM276.165,37a15.244,15.244,0,0,0,15.36,0c2.6,1.149,1.366,9.336,1.366,9.336a4.988,4.988,0,0,1,1.727-.907c-.715,8.7-5.264,15.409-10.773,15.409s-10.06-6.709-10.774-15.409a4.989,4.989,0,0,1,1.728.907s-1.231-8.188,1.366-9.336Z" transform="translate(-255.138 -27.997)" fill="#fff"/>
    <path id="Path_16153" data-name="Path 16153" d="M433.728,252.014a1.844,1.844,0,1,1-1.832-2.054,1.953,1.953,0,0,1,1.832,2.054" transform="translate(-388.677 -210.546)" fill="#fff"/>
    <path id="Path_16154" data-name="Path 16154" d="M250.285,520.44H206.311a1.033,1.033,0,0,0,0,2.052h43.974a1.033,1.033,0,0,0,0-2.052Z" transform="translate(-199.591 -432.997)" fill="#fff"/>
    <path id="Path_16155" data-name="Path 16155" d="M222.067,233.117c-.413-7.013-4.359-12.943-9.866-15.57.027.062.058.12.086.184a9.592,9.592,0,0,1,.672,2.541,3.442,3.442,0,0,1,.74.332,4.365,4.365,0,0,1,1.5,5.56,3.474,3.474,0,0,1-4.959,1.683,4.365,4.365,0,0,1-1.5-5.56,3.719,3.719,0,0,1,2.5-2.087,7.324,7.324,0,0,0-1.714-3.633,14.575,14.575,0,0,0-2.191-.4c-.066,3.325-9.878,11.487-9.878,11.487s-9.812-8.162-9.876-11.488a14.559,14.559,0,0,0-1.55.243,6.9,6.9,0,0,0-2.124,3.6,2.225,2.225,0,0,1,.89,1.177c1.524.75,2.877,2.433,3.919,4.876a1.476,1.476,0,0,1,.007,1.133,16.985,16.985,0,0,1,1.015,5.459c0,.147,0,.291,0,.434H176.278c0-.142,0-.28,0-.434a16.732,16.732,0,0,1,.978-5.345,1.462,1.462,0,0,1,.036-1,12.615,12.615,0,0,1,2.285-3.777,6.128,6.128,0,0,1,1.621-1.28,2.228,2.228,0,0,1,1.023-1.3,7.58,7.58,0,0,1,.849-2.573c-5.692,2.539-9.8,8.572-10.221,15.736a4.805,4.805,0,0,0-4.1,4.974v.119l.018.114L172.8,264.5a4.737,4.737,0,0,0,4.453,4.869h40.42a4.737,4.737,0,0,0,4.453-4.869l4.026-26.177.019-.114v-.119a4.806,4.806,0,0,0-4.1-4.973ZM220.9,264.374A3.447,3.447,0,0,1,217.667,268h-40.42a3.446,3.446,0,0,1-3.233-3.626l-4.044-26.284a3.447,3.447,0,0,1,3.234-3.626h48.5a3.446,3.446,0,0,1,3.232,3.626Z" transform="translate(-168.75 -182.756)" fill="#fff"/>
    <path id="Path_16156" data-name="Path 16156" d="M339.8,401.54a2.162,2.162,0,1,0,1.916,2.146A2.042,2.042,0,0,0,339.8,401.54Z" transform="translate(-311.095 -335.21)" fill="#fff"/>
  </g>
</svg>
