<svg xmlns="http://www.w3.org/2000/svg" width="64.524" height="97.906" viewBox="0 0 64.524 97.906">
  <g id="Group_18585" data-name="Group 18585" transform="translate(-1025.321 -540.095)">
    <path id="Path_16176" data-name="Path 16176" d="M252,79.87a5.864,5.864,0,0,0,.567,2.161,5.012,5.012,0,0,0,3.288,2.8,32.752,32.752,0,0,0,1.361,4.832A20.871,20.871,0,0,0,263,98.56a11.152,11.152,0,0,0,8.052,3.305,15.187,15.187,0,0,0,7.37-2.034,15.89,15.89,0,0,0,3.855-3.433,24.635,24.635,0,0,0,4.99-11.442,4.057,4.057,0,0,0,1.928-.763,6.256,6.256,0,0,0,2.382-4.45,9.679,9.679,0,0,0-.453-2.67,4.654,4.654,0,0,0-1.134-1.907,3.781,3.781,0,0,0-1.7-.89h.113l.907-6.738c.68-10.426-5.783-13.1-5.783-13.1a8.14,8.14,0,0,0-2.835-5.594c-5.217-3.433-16.1,1.144-16.1,1.144-8.392,2.288-10.319,8.773-10.319,8.773-2.608,6.738,0,15.13.227,15.892a3.762,3.762,0,0,0-.907.763A7.019,7.019,0,0,0,252,79.87Z" transform="translate(785.681 492.524)" fill="#fff"/>
    <path id="Path_16178" data-name="Path 16178" d="M242.665,300.92c-.113,0-.113-.127-.227-.127-.34-.127-.68-.381-1.02-.508-1.36-.636-2.835-1.144-4.2-1.653,3.062,3.687,4.423,10.3,4.65,11.442a3.75,3.75,0,0,1,2.608,3.686,3.424,3.424,0,1,1-6.8,0,3.751,3.751,0,0,1,2.608-3.686A25.144,25.144,0,0,0,235.066,298a24.474,24.474,0,0,0-2.948-.636,17.275,17.275,0,0,1-2.382,1.907,15.2,15.2,0,0,1-7.37,2.034A11.154,11.154,0,0,1,214.314,298l-.34-.381q-1.871.382-3.4.763a25.245,25.245,0,0,0-4.763,11.188c3.855,1.017,6.577,10.68,6.577,10.68l-1.7,2.161a1.268,1.268,0,0,1,.113.636,1.6,1.6,0,1,1-3.175,0,1.652,1.652,0,0,1,1.588-1.78h.34l1.247-1.525c-6.01-19.2-11,.127-11,.381l.907,1.144h.34a1.726,1.726,0,0,1,1.588,1.78,1.6,1.6,0,1,1-3.175,0,1.051,1.051,0,0,1,.113-.636l-1.7-2.161c2.268-6.993,4.423-9.917,6.35-10.553.34-1.907,1.7-7.247,4.309-10.679-1.247.381-2.382.763-3.175,1.017V299.9a11.679,11.679,0,0,0-1.928.891,24.273,24.273,0,0,0-12.474,15.384v13.731s26.649,19.452,64.524,0V316.431s-1.361-9.662-12.814-15.511Zm-4.423,21.741h-2.835v3.178h-1.36v-3.178h-2.835v-1.525h2.835v-3.179h1.36v3.179h2.835Z" transform="translate(834.367 299.445)" fill="#fff"/>
  </g>
</svg>
