<svg width="20" height="20" viewBox="0 0 20 20" fill="none" xmlns="http://www.w3.org/2000/svg">
<path d="M10 20C8.64869 20 7.33814 19.7352 6.10475 19.2131C4.91376 18.7089 3.84419 17.9871 2.92575 17.0679C2.00792 16.1492 1.28747 15.0798 0.784379 13.8893C0.263904 12.6576 0 11.3491 0 10C0 8.65093 0.263904 7.3424 0.784379 6.11074C1.28747 4.92023 2.00792 3.85081 2.92575 2.93215C3.84419 2.01287 4.91376 1.29111 6.10475 0.78691C7.33814 0.264752 8.64869 0 10 0C11.3513 0 12.6619 0.264752 13.8953 0.78691C15.0862 1.29111 16.1558 2.01287 17.0743 2.93215C17.9921 3.85081 18.7125 4.92023 19.2156 6.11074C19.7361 7.3424 20 8.65093 20 10C20 11.3491 19.7361 12.6576 19.2156 13.8893C18.7125 15.0798 17.9921 16.1492 17.0743 17.0679C16.1558 17.9871 15.0862 18.7089 13.8953 19.2131C12.6619 19.7352 11.3513 20 10 20Z" fill="white"/>
<g filter="url(#filter0_di_390_2371)">
<path d="M17.5 6.51765C17.5 5.88867 16.9896 5.37873 16.3606 5.37873C15.7312 5.37873 15.2208 5.88867 15.2208 6.51765C15.2208 6.82526 15.343 7.10405 15.5412 7.30866C14.7662 8.91357 13.2849 9.47388 12.1369 8.96669C11.1142 8.5144 10.737 7.22168 10.6093 6.22011C11.0263 6.00085 11.3106 5.56412 11.3106 5.06013C11.3106 4.33641 10.7242 3.75 10 3.75C9.27628 3.75 8.68943 4.33641 8.68943 5.06013C8.68943 5.56412 8.9737 6.00082 9.39074 6.22011C9.26304 7.22171 8.88584 8.51443 7.86317 8.96669C6.71509 9.47391 5.23378 8.91357 4.45879 7.30866C4.65701 7.10405 4.77924 6.82526 4.77924 6.51765C4.77924 5.88867 4.26883 5.37873 3.63985 5.37873C3.01041 5.37873 2.5 5.88867 2.5 6.51765C2.5 7.09717 2.93304 7.57462 3.49243 7.64695L4.80575 12.4539H15.1942L16.5076 7.64695C17.0674 7.57462 17.5 7.09717 17.5 6.51765Z" fill="#C1913E"/>
<path d="M15.8305 14.5037C15.8305 14.972 15.4511 15.3515 14.9823 15.3515H5.01771C4.5494 15.3514 4.16992 14.972 4.16992 14.5037V14.4332C4.16992 13.9644 4.5494 13.585 5.01771 13.585H14.9823C15.4511 13.585 15.8305 13.9644 15.8305 14.4332V14.5037Z" fill="#C1913E"/>
</g>
<defs>
<filter id="filter0_di_390_2371" x="1.3" y="2.55" width="17.4" height="14.0016" filterUnits="userSpaceOnUse" color-interpolation-filters="sRGB">
<feFlood flood-opacity="0" result="BackgroundImageFix"/>
<feColorMatrix in="SourceAlpha" type="matrix" values="0 0 0 0 0 0 0 0 0 0 0 0 0 0 0 0 0 0 127 0" result="hardAlpha"/>
<feOffset/>
<feGaussianBlur stdDeviation="0.6"/>
<feComposite in2="hardAlpha" operator="out"/>
<feColorMatrix type="matrix" values="0 0 0 0 0.398926 0 0 0 0 0.264295 0 0 0 0 0.0314972 0 0 0 0.2 0"/>
<feBlend mode="normal" in2="BackgroundImageFix" result="effect1_dropShadow_390_2371"/>
<feBlend mode="normal" in="SourceGraphic" in2="effect1_dropShadow_390_2371" result="shape"/>
<feColorMatrix in="SourceAlpha" type="matrix" values="0 0 0 0 0 0 0 0 0 0 0 0 0 0 0 0 0 0 127 0" result="hardAlpha"/>
<feOffset dy="-1"/>
<feGaussianBlur stdDeviation="0.35"/>
<feComposite in2="hardAlpha" operator="arithmetic" k2="-1" k3="1"/>
<feColorMatrix type="matrix" values="0 0 0 0 0.398926 0 0 0 0 0.264295 0 0 0 0 0.0314972 0 0 0 0.5 0"/>
<feBlend mode="normal" in2="shape" result="effect2_innerShadow_390_2371"/>
</filter>
</defs>
</svg>
